%TF.GenerationSoftware,KiCad,Pcbnew,10.0.3*%
%TF.CreationDate,2026-07-04T01:51:03+05:30*%
%TF.ProjectId,Urumi-Nema-17-Node,5572756d-692d-44e6-956d-612d31372d4e,rev?*%
%TF.SameCoordinates,Original*%
%TF.FileFunction,Soldermask,Top*%
%TF.FilePolarity,Negative*%
%FSLAX46Y46*%
G04 Gerber Fmt 4.6, Leading zero omitted, Abs format (unit mm)*
G04 Created by KiCad (PCBNEW 10.0.3) date 2026-07-04 01:51:03*
%MOMM*%
%LPD*%
G01*
G04 APERTURE LIST*
G04 Aperture macros list*
%AMRoundRect*
0 Rectangle with rounded corners*
0 $1 Rounding radius*
0 $2 $3 $4 $5 $6 $7 $8 $9 X,Y pos of 4 corners*
0 Add a 4 corners polygon primitive as box body*
4,1,4,$2,$3,$4,$5,$6,$7,$8,$9,$2,$3,0*
0 Add four circle primitives for the rounded corners*
1,1,$1+$1,$2,$3*
1,1,$1+$1,$4,$5*
1,1,$1+$1,$6,$7*
1,1,$1+$1,$8,$9*
0 Add four rect primitives between the rounded corners*
20,1,$1+$1,$2,$3,$4,$5,0*
20,1,$1+$1,$4,$5,$6,$7,0*
20,1,$1+$1,$6,$7,$8,$9,0*
20,1,$1+$1,$8,$9,$2,$3,0*%
G04 Aperture macros list end*
%ADD10RoundRect,0.250000X-0.337500X-0.475000X0.337500X-0.475000X0.337500X0.475000X-0.337500X0.475000X0*%
%ADD11C,3.204000*%
%ADD12RoundRect,0.250000X0.450000X-0.350000X0.450000X0.350000X-0.450000X0.350000X-0.450000X-0.350000X0*%
%ADD13R,1.700000X1.400000*%
%ADD14RoundRect,0.102000X0.754000X-0.754000X0.754000X0.754000X-0.754000X0.754000X-0.754000X-0.754000X0*%
%ADD15C,1.954000*%
%ADD16RoundRect,0.250000X-0.450000X0.350000X-0.450000X-0.350000X0.450000X-0.350000X0.450000X0.350000X0*%
%ADD17RoundRect,0.102000X-0.850000X0.850000X-0.850000X-0.850000X0.850000X-0.850000X0.850000X0.850000X0*%
%ADD18C,1.904000*%
%ADD19RoundRect,0.250000X0.475000X-0.337500X0.475000X0.337500X-0.475000X0.337500X-0.475000X-0.337500X0*%
%ADD20R,1.600000X0.500000*%
%ADD21R,0.500000X1.600000*%
%ADD22RoundRect,0.250000X0.337500X0.475000X-0.337500X0.475000X-0.337500X-0.475000X0.337500X-0.475000X0*%
%ADD23RoundRect,0.250000X-0.412500X-0.650000X0.412500X-0.650000X0.412500X0.650000X-0.412500X0.650000X0*%
%ADD24RoundRect,0.250000X-0.475000X0.337500X-0.475000X-0.337500X0.475000X-0.337500X0.475000X0.337500X0*%
%ADD25R,5.559382X2.473728*%
%ADD26R,5.483025X2.468109*%
%ADD27R,1.500000X1.000000*%
%ADD28R,1.500000X1.200000*%
%ADD29RoundRect,0.150000X-0.512500X-0.150000X0.512500X-0.150000X0.512500X0.150000X-0.512500X0.150000X0*%
%ADD30R,2.500000X1.700000*%
%ADD31R,1.000000X1.500000*%
%ADD32C,3.300000*%
%ADD33RoundRect,0.102000X0.925000X0.925000X-0.925000X0.925000X-0.925000X-0.925000X0.925000X-0.925000X0*%
%ADD34RoundRect,0.102000X0.800000X-1.600000X0.800000X1.600000X-0.800000X1.600000X-0.800000X-1.600000X0*%
%ADD35R,1.600000X1.200000*%
%ADD36RoundRect,0.102000X0.825000X-0.825000X0.825000X0.825000X-0.825000X0.825000X-0.825000X-0.825000X0*%
%ADD37C,1.854000*%
%ADD38RoundRect,0.150000X-0.150000X0.825000X-0.150000X-0.825000X0.150000X-0.825000X0.150000X0.825000X0*%
%ADD39RoundRect,0.250000X-0.350000X-0.450000X0.350000X-0.450000X0.350000X0.450000X-0.350000X0.450000X0*%
%ADD40C,2.204000*%
%ADD41RoundRect,0.102000X1.000000X-1.000000X1.000000X1.000000X-1.000000X1.000000X-1.000000X-1.000000X0*%
%ADD42R,2.000000X1.500000*%
%ADD43R,2.000000X3.800000*%
%ADD44RoundRect,0.102000X-0.754000X0.754000X-0.754000X-0.754000X0.754000X-0.754000X0.754000X0.754000X0*%
%ADD45C,1.712000*%
%ADD46RoundRect,0.150000X0.150000X-0.587500X0.150000X0.587500X-0.150000X0.587500X-0.150000X-0.587500X0*%
%ADD47RoundRect,0.102000X0.900000X0.900000X-0.900000X0.900000X-0.900000X-0.900000X0.900000X-0.900000X0*%
G04 APERTURE END LIST*
%TO.C,JP6*%
G36*
X97700000Y-158212500D02*
G01*
X99200000Y-158212500D01*
X99200000Y-158512500D01*
X97700000Y-158512500D01*
X97700000Y-158212500D01*
G37*
%TO.C,JP1*%
G36*
X98460000Y-139510000D02*
G01*
X98760000Y-139510000D01*
X98760000Y-141010000D01*
X98460000Y-141010000D01*
X98460000Y-139510000D01*
G37*
%TO.C,M1*%
G36*
X75250000Y-146550000D02*
G01*
X76750000Y-146550000D01*
X76750000Y-146850000D01*
X75250000Y-146850000D01*
X75250000Y-146550000D01*
G37*
%TO.C,M2*%
G36*
X77981250Y-146539654D02*
G01*
X79481250Y-146539654D01*
X79481250Y-146839654D01*
X77981250Y-146839654D01*
X77981250Y-146539654D01*
G37*
%TO.C,JP4*%
G36*
X95000000Y-158212500D02*
G01*
X96500000Y-158212500D01*
X96500000Y-158512500D01*
X95000000Y-158512500D01*
X95000000Y-158212500D01*
G37*
%TO.C,M0*%
G36*
X72550000Y-146550000D02*
G01*
X74050000Y-146550000D01*
X74050000Y-146850000D01*
X72550000Y-146850000D01*
X72550000Y-146550000D01*
G37*
%TO.C,JP5*%
G36*
X100400000Y-158212500D02*
G01*
X101900000Y-158212500D01*
X101900000Y-158512500D01*
X100400000Y-158512500D01*
X100400000Y-158212500D01*
G37*
%TD*%
D10*
%TO.C,C14*%
X94662500Y-161300000D03*
X96737500Y-161300000D03*
%TD*%
D11*
%TO.C,J6*%
X90963900Y-171042700D03*
X87458700Y-171042700D03*
X83953500Y-171042700D03*
X80473700Y-171042700D03*
%TD*%
D12*
%TO.C,R2*%
X86620000Y-158900000D03*
X86620000Y-156900000D03*
%TD*%
D13*
%TO.C,D1*%
X63250000Y-164897500D03*
X63250000Y-161497500D03*
%TD*%
D14*
%TO.C,J1*%
X103975000Y-136670000D03*
D15*
X103975000Y-139170000D03*
X103975000Y-141670000D03*
%TD*%
D16*
%TO.C,R15*%
X95140000Y-169980000D03*
X95140000Y-171980000D03*
%TD*%
D11*
%TO.C,J3*%
X74430000Y-171100000D03*
X70924800Y-171100000D03*
X67419600Y-171100000D03*
X63939800Y-171100000D03*
%TD*%
D17*
%TO.C,C16*%
X56850000Y-155480000D03*
D18*
X56850000Y-160480000D03*
%TD*%
D19*
%TO.C,C2*%
X60140000Y-152677500D03*
X60140000Y-150602500D03*
%TD*%
D20*
%TO.C,U1*%
X96550000Y-154100000D03*
X96550000Y-153300000D03*
X96550000Y-152500000D03*
X96550000Y-151700000D03*
X96550000Y-150900000D03*
X96550000Y-150100000D03*
X96550000Y-149300000D03*
X96550000Y-148500000D03*
D21*
X95100000Y-147050000D03*
X94300000Y-147050000D03*
X93500000Y-147050000D03*
X92700000Y-147050000D03*
X91900000Y-147050000D03*
X91100000Y-147050000D03*
X90300000Y-147050000D03*
X89500000Y-147050000D03*
D20*
X88050000Y-148500000D03*
X88050000Y-149300000D03*
X88050000Y-150100000D03*
X88050000Y-150900000D03*
X88050000Y-151700000D03*
X88050000Y-152500000D03*
X88050000Y-153300000D03*
X88050000Y-154100000D03*
D21*
X89500000Y-155550000D03*
X90300000Y-155550000D03*
X91100000Y-155550000D03*
X91900000Y-155550000D03*
X92700000Y-155550000D03*
X93500000Y-155550000D03*
X94300000Y-155550000D03*
X95100000Y-155550000D03*
%TD*%
D12*
%TO.C,R8*%
X89600000Y-159550000D03*
X89600000Y-157550000D03*
%TD*%
D22*
%TO.C,C9*%
X79037500Y-150600000D03*
X76962500Y-150600000D03*
%TD*%
D16*
%TO.C,R14*%
X68100000Y-156200000D03*
X68100000Y-158200000D03*
%TD*%
D23*
%TO.C,C4*%
X67537500Y-150000000D03*
X70662500Y-150000000D03*
%TD*%
D22*
%TO.C,C15*%
X88337500Y-128100000D03*
X86262500Y-128100000D03*
%TD*%
D24*
%TO.C,C11*%
X85900000Y-148262500D03*
X85900000Y-150337500D03*
%TD*%
D25*
%TO.C,Y1*%
X96893291Y-165032336D03*
D26*
X87104888Y-165035143D03*
%TD*%
D27*
%TO.C,JP6*%
X98450000Y-157712500D03*
X98450000Y-159012500D03*
%TD*%
D28*
%TO.C,SW1*%
X79449478Y-160620000D03*
X79449478Y-165380000D03*
%TD*%
D29*
%TO.C,U2*%
X62983574Y-150766201D03*
X62983574Y-151716201D03*
X62983574Y-152666201D03*
X65258574Y-152666201D03*
X65258574Y-151716201D03*
X65258574Y-150766201D03*
%TD*%
D16*
%TO.C,R12*%
X71000000Y-157200000D03*
X71000000Y-159200000D03*
%TD*%
D30*
%TO.C,J8*%
X104280000Y-146210000D03*
X104280000Y-148750000D03*
X104280000Y-151290000D03*
X104280000Y-153830000D03*
X104280000Y-156370000D03*
%TD*%
D31*
%TO.C,JP1*%
X97960000Y-140260000D03*
X99260000Y-140260000D03*
%TD*%
D32*
%TO.C,H1*%
X104910000Y-163870000D03*
%TD*%
D13*
%TO.C,D2*%
X91170000Y-136917500D03*
X91170000Y-133517500D03*
%TD*%
D33*
%TO.C,Laser1*%
X92250000Y-123375000D03*
D15*
X94750000Y-123375000D03*
%TD*%
D10*
%TO.C,C18*%
X70762500Y-133200000D03*
X72837500Y-133200000D03*
%TD*%
D16*
%TO.C,R13*%
X68100000Y-152300000D03*
X68100000Y-154300000D03*
%TD*%
D34*
%TO.C,L1*%
X58560000Y-141600000D03*
X67460000Y-141600000D03*
%TD*%
D22*
%TO.C,C13*%
X92797500Y-161380000D03*
X90722500Y-161380000D03*
%TD*%
%TO.C,C3*%
X65137500Y-148800000D03*
X63062500Y-148800000D03*
%TD*%
D12*
%TO.C,R5*%
X91190000Y-140800000D03*
X91190000Y-138800000D03*
%TD*%
D32*
%TO.C,H4*%
X53910000Y-132070000D03*
%TD*%
D35*
%TO.C,C12*%
X83720000Y-148080000D03*
X83720000Y-151080000D03*
%TD*%
D27*
%TO.C,M1*%
X76000000Y-147350000D03*
X76000000Y-146050000D03*
%TD*%
D36*
%TO.C,U3*%
X70610000Y-143497500D03*
D37*
X73150000Y-143497500D03*
X75690000Y-143497500D03*
X78230000Y-143497500D03*
X80770000Y-143497500D03*
X83310000Y-143497500D03*
X85850000Y-143497500D03*
X88390000Y-143497500D03*
X88390000Y-130797500D03*
X85850000Y-130797500D03*
X83310000Y-130797500D03*
X80770000Y-130797500D03*
X78230000Y-130797500D03*
X75690000Y-130797500D03*
X73150000Y-130797500D03*
X70610000Y-130797500D03*
%TD*%
D12*
%TO.C,R1*%
X95400000Y-136800000D03*
X95400000Y-134800000D03*
%TD*%
D35*
%TO.C,C6*%
X70400000Y-152000000D03*
X70400000Y-155000000D03*
%TD*%
D38*
%TO.C,U5*%
X73505000Y-161295000D03*
X72235000Y-161295000D03*
X70965000Y-161295000D03*
X69695000Y-161295000D03*
X69695000Y-166245000D03*
X70965000Y-166245000D03*
X72235000Y-166245000D03*
X73505000Y-166245000D03*
%TD*%
D19*
%TO.C,C8*%
X72700000Y-154737500D03*
X72700000Y-152662500D03*
%TD*%
D33*
%TO.C,Thermistor1*%
X83950000Y-123375000D03*
D15*
X86450000Y-123375000D03*
%TD*%
D39*
%TO.C,R7*%
X95100000Y-142600000D03*
X97100000Y-142600000D03*
%TD*%
D32*
%TO.C,H3*%
X53910000Y-163870000D03*
%TD*%
D27*
%TO.C,M2*%
X78731250Y-147339654D03*
X78731250Y-146039654D03*
%TD*%
D19*
%TO.C,C1*%
X57990000Y-152697500D03*
X57990000Y-150622500D03*
%TD*%
D24*
%TO.C,C7*%
X91790000Y-157482500D03*
X91790000Y-159557500D03*
%TD*%
D23*
%TO.C,C5*%
X67537500Y-147600000D03*
X70662500Y-147600000D03*
%TD*%
D27*
%TO.C,JP4*%
X95750000Y-159012500D03*
X95750000Y-157712500D03*
%TD*%
D10*
%TO.C,C10*%
X95062500Y-144800000D03*
X97137500Y-144800000D03*
%TD*%
D40*
%TO.C,C17*%
X76500000Y-134800000D03*
D41*
X76500000Y-139800000D03*
%TD*%
D19*
%TO.C,C23*%
X75700000Y-166937500D03*
X75700000Y-164862500D03*
%TD*%
D42*
%TO.C,U4*%
X75090000Y-152880000D03*
X75090000Y-155180000D03*
D43*
X81390000Y-155180000D03*
D42*
X75090000Y-157480000D03*
%TD*%
D12*
%TO.C,R6*%
X91300000Y-131000000D03*
X91300000Y-129000000D03*
%TD*%
D44*
%TO.C,J5*%
X63945000Y-131080000D03*
D45*
X63945000Y-128580000D03*
X63945000Y-126080000D03*
X63945000Y-123580000D03*
%TD*%
D46*
%TO.C,Q2*%
X95900000Y-132100000D03*
X97800000Y-132100000D03*
X96850000Y-130225000D03*
%TD*%
D27*
%TO.C,M0*%
X73300000Y-147350000D03*
X73300000Y-146050000D03*
%TD*%
%TO.C,JP5*%
X101150000Y-159012500D03*
X101150000Y-157712500D03*
%TD*%
D12*
%TO.C,R16*%
X64400000Y-158660000D03*
X64400000Y-156660000D03*
%TD*%
D32*
%TO.C,H2*%
X104910000Y-132070000D03*
%TD*%
D16*
%TO.C,R17*%
X62130000Y-156650000D03*
X62130000Y-158650000D03*
%TD*%
D47*
%TO.C,J4*%
X70770000Y-123455000D03*
D15*
X73270000Y-123455000D03*
X75770000Y-123455000D03*
X78270000Y-123455000D03*
%TD*%
M02*
