%TF.GenerationSoftware,KiCad,Pcbnew,10.0.3*%
%TF.CreationDate,2026-07-04T16:14:49+05:30*%
%TF.ProjectId,Urumi-Nema-17-Node,5572756d-692d-44e6-956d-612d31372d4e,rev?*%
%TF.SameCoordinates,Original*%
%TF.FileFunction,Legend,Top*%
%TF.FilePolarity,Positive*%
%FSLAX46Y46*%
G04 Gerber Fmt 4.6, Leading zero omitted, Abs format (unit mm)*
G04 Created by KiCad (PCBNEW 10.0.3) date 2026-07-04 16:14:49*
%MOMM*%
%LPD*%
G01*
G04 APERTURE LIST*
%ADD10C,0.220000*%
%ADD11C,0.200000*%
%ADD12C,0.225000*%
%ADD13C,0.203200*%
%ADD14C,0.250000*%
%ADD15C,0.120000*%
%ADD16C,0.127000*%
%ADD17C,0.150000*%
%ADD18C,0.152400*%
%ADD19C,0.100000*%
G04 APERTURE END LIST*
D10*
X92685714Y-133084917D02*
X93200000Y-133084917D01*
X92942857Y-133984917D02*
X92942857Y-133084917D01*
X93499999Y-133984917D02*
X93499999Y-133084917D01*
X93885714Y-133984917D02*
X93885714Y-133513488D01*
X93885714Y-133513488D02*
X93842856Y-133427774D01*
X93842856Y-133427774D02*
X93757142Y-133384917D01*
X93757142Y-133384917D02*
X93628571Y-133384917D01*
X93628571Y-133384917D02*
X93542856Y-133427774D01*
X93542856Y-133427774D02*
X93499999Y-133470631D01*
X94059021Y-128166179D02*
X93582831Y-128166179D01*
X93582831Y-128166179D02*
X93582831Y-127166179D01*
X94820926Y-128166179D02*
X94820926Y-127642369D01*
X94820926Y-127642369D02*
X94773307Y-127547131D01*
X94773307Y-127547131D02*
X94678069Y-127499512D01*
X94678069Y-127499512D02*
X94487593Y-127499512D01*
X94487593Y-127499512D02*
X94392355Y-127547131D01*
X94820926Y-128118560D02*
X94725688Y-128166179D01*
X94725688Y-128166179D02*
X94487593Y-128166179D01*
X94487593Y-128166179D02*
X94392355Y-128118560D01*
X94392355Y-128118560D02*
X94344736Y-128023321D01*
X94344736Y-128023321D02*
X94344736Y-127928083D01*
X94344736Y-127928083D02*
X94392355Y-127832845D01*
X94392355Y-127832845D02*
X94487593Y-127785226D01*
X94487593Y-127785226D02*
X94725688Y-127785226D01*
X94725688Y-127785226D02*
X94820926Y-127737607D01*
X95249498Y-128118560D02*
X95344736Y-128166179D01*
X95344736Y-128166179D02*
X95535212Y-128166179D01*
X95535212Y-128166179D02*
X95630450Y-128118560D01*
X95630450Y-128118560D02*
X95678069Y-128023321D01*
X95678069Y-128023321D02*
X95678069Y-127975702D01*
X95678069Y-127975702D02*
X95630450Y-127880464D01*
X95630450Y-127880464D02*
X95535212Y-127832845D01*
X95535212Y-127832845D02*
X95392355Y-127832845D01*
X95392355Y-127832845D02*
X95297117Y-127785226D01*
X95297117Y-127785226D02*
X95249498Y-127689988D01*
X95249498Y-127689988D02*
X95249498Y-127642369D01*
X95249498Y-127642369D02*
X95297117Y-127547131D01*
X95297117Y-127547131D02*
X95392355Y-127499512D01*
X95392355Y-127499512D02*
X95535212Y-127499512D01*
X95535212Y-127499512D02*
X95630450Y-127547131D01*
X96487593Y-128118560D02*
X96392355Y-128166179D01*
X96392355Y-128166179D02*
X96201879Y-128166179D01*
X96201879Y-128166179D02*
X96106641Y-128118560D01*
X96106641Y-128118560D02*
X96059022Y-128023321D01*
X96059022Y-128023321D02*
X96059022Y-127642369D01*
X96059022Y-127642369D02*
X96106641Y-127547131D01*
X96106641Y-127547131D02*
X96201879Y-127499512D01*
X96201879Y-127499512D02*
X96392355Y-127499512D01*
X96392355Y-127499512D02*
X96487593Y-127547131D01*
X96487593Y-127547131D02*
X96535212Y-127642369D01*
X96535212Y-127642369D02*
X96535212Y-127737607D01*
X96535212Y-127737607D02*
X96059022Y-127832845D01*
X96963784Y-128166179D02*
X96963784Y-127499512D01*
X96963784Y-127689988D02*
X97011403Y-127594750D01*
X97011403Y-127594750D02*
X97059022Y-127547131D01*
X97059022Y-127547131D02*
X97154260Y-127499512D01*
X97154260Y-127499512D02*
X97249498Y-127499512D01*
X101926640Y-162703798D02*
X101831402Y-162656179D01*
X101831402Y-162656179D02*
X101688545Y-162656179D01*
X101688545Y-162656179D02*
X101545688Y-162703798D01*
X101545688Y-162703798D02*
X101450450Y-162799036D01*
X101450450Y-162799036D02*
X101402831Y-162894274D01*
X101402831Y-162894274D02*
X101355212Y-163084750D01*
X101355212Y-163084750D02*
X101355212Y-163227607D01*
X101355212Y-163227607D02*
X101402831Y-163418083D01*
X101402831Y-163418083D02*
X101450450Y-163513321D01*
X101450450Y-163513321D02*
X101545688Y-163608560D01*
X101545688Y-163608560D02*
X101688545Y-163656179D01*
X101688545Y-163656179D02*
X101783783Y-163656179D01*
X101783783Y-163656179D02*
X101926640Y-163608560D01*
X101926640Y-163608560D02*
X101974259Y-163560940D01*
X101974259Y-163560940D02*
X101974259Y-163227607D01*
X101974259Y-163227607D02*
X101783783Y-163227607D01*
X99866640Y-130673798D02*
X99771402Y-130626179D01*
X99771402Y-130626179D02*
X99628545Y-130626179D01*
X99628545Y-130626179D02*
X99485688Y-130673798D01*
X99485688Y-130673798D02*
X99390450Y-130769036D01*
X99390450Y-130769036D02*
X99342831Y-130864274D01*
X99342831Y-130864274D02*
X99295212Y-131054750D01*
X99295212Y-131054750D02*
X99295212Y-131197607D01*
X99295212Y-131197607D02*
X99342831Y-131388083D01*
X99342831Y-131388083D02*
X99390450Y-131483321D01*
X99390450Y-131483321D02*
X99485688Y-131578560D01*
X99485688Y-131578560D02*
X99628545Y-131626179D01*
X99628545Y-131626179D02*
X99723783Y-131626179D01*
X99723783Y-131626179D02*
X99866640Y-131578560D01*
X99866640Y-131578560D02*
X99914259Y-131530940D01*
X99914259Y-131530940D02*
X99914259Y-131197607D01*
X99914259Y-131197607D02*
X99723783Y-131197607D01*
X87568571Y-145894917D02*
X87139999Y-145894917D01*
X87139999Y-145894917D02*
X87097142Y-146323488D01*
X87097142Y-146323488D02*
X87139999Y-146280631D01*
X87139999Y-146280631D02*
X87225714Y-146237774D01*
X87225714Y-146237774D02*
X87439999Y-146237774D01*
X87439999Y-146237774D02*
X87525714Y-146280631D01*
X87525714Y-146280631D02*
X87568571Y-146323488D01*
X87568571Y-146323488D02*
X87611428Y-146409202D01*
X87611428Y-146409202D02*
X87611428Y-146623488D01*
X87611428Y-146623488D02*
X87568571Y-146709202D01*
X87568571Y-146709202D02*
X87525714Y-146752060D01*
X87525714Y-146752060D02*
X87439999Y-146794917D01*
X87439999Y-146794917D02*
X87225714Y-146794917D01*
X87225714Y-146794917D02*
X87139999Y-146752060D01*
X87139999Y-146752060D02*
X87097142Y-146709202D01*
X87868571Y-145894917D02*
X88168571Y-146794917D01*
X88168571Y-146794917D02*
X88468571Y-145894917D01*
X61082381Y-160401179D02*
X61082381Y-159401179D01*
X61082381Y-159401179D02*
X61320476Y-159401179D01*
X61320476Y-159401179D02*
X61463333Y-159448798D01*
X61463333Y-159448798D02*
X61558571Y-159544036D01*
X61558571Y-159544036D02*
X61606190Y-159639274D01*
X61606190Y-159639274D02*
X61653809Y-159829750D01*
X61653809Y-159829750D02*
X61653809Y-159972607D01*
X61653809Y-159972607D02*
X61606190Y-160163083D01*
X61606190Y-160163083D02*
X61558571Y-160258321D01*
X61558571Y-160258321D02*
X61463333Y-160353560D01*
X61463333Y-160353560D02*
X61320476Y-160401179D01*
X61320476Y-160401179D02*
X61082381Y-160401179D01*
X62463333Y-160353560D02*
X62368095Y-160401179D01*
X62368095Y-160401179D02*
X62177619Y-160401179D01*
X62177619Y-160401179D02*
X62082381Y-160353560D01*
X62082381Y-160353560D02*
X62034762Y-160258321D01*
X62034762Y-160258321D02*
X62034762Y-159877369D01*
X62034762Y-159877369D02*
X62082381Y-159782131D01*
X62082381Y-159782131D02*
X62177619Y-159734512D01*
X62177619Y-159734512D02*
X62368095Y-159734512D01*
X62368095Y-159734512D02*
X62463333Y-159782131D01*
X62463333Y-159782131D02*
X62510952Y-159877369D01*
X62510952Y-159877369D02*
X62510952Y-159972607D01*
X62510952Y-159972607D02*
X62034762Y-160067845D01*
X62939524Y-160401179D02*
X62939524Y-159401179D01*
X62939524Y-159782131D02*
X63034762Y-159734512D01*
X63034762Y-159734512D02*
X63225238Y-159734512D01*
X63225238Y-159734512D02*
X63320476Y-159782131D01*
X63320476Y-159782131D02*
X63368095Y-159829750D01*
X63368095Y-159829750D02*
X63415714Y-159924988D01*
X63415714Y-159924988D02*
X63415714Y-160210702D01*
X63415714Y-160210702D02*
X63368095Y-160305940D01*
X63368095Y-160305940D02*
X63320476Y-160353560D01*
X63320476Y-160353560D02*
X63225238Y-160401179D01*
X63225238Y-160401179D02*
X63034762Y-160401179D01*
X63034762Y-160401179D02*
X62939524Y-160353560D01*
X64272857Y-159734512D02*
X64272857Y-160401179D01*
X63844286Y-159734512D02*
X63844286Y-160258321D01*
X63844286Y-160258321D02*
X63891905Y-160353560D01*
X63891905Y-160353560D02*
X63987143Y-160401179D01*
X63987143Y-160401179D02*
X64130000Y-160401179D01*
X64130000Y-160401179D02*
X64225238Y-160353560D01*
X64225238Y-160353560D02*
X64272857Y-160305940D01*
X65177619Y-159734512D02*
X65177619Y-160544036D01*
X65177619Y-160544036D02*
X65130000Y-160639274D01*
X65130000Y-160639274D02*
X65082381Y-160686893D01*
X65082381Y-160686893D02*
X64987143Y-160734512D01*
X64987143Y-160734512D02*
X64844286Y-160734512D01*
X64844286Y-160734512D02*
X64749048Y-160686893D01*
X65177619Y-160353560D02*
X65082381Y-160401179D01*
X65082381Y-160401179D02*
X64891905Y-160401179D01*
X64891905Y-160401179D02*
X64796667Y-160353560D01*
X64796667Y-160353560D02*
X64749048Y-160305940D01*
X64749048Y-160305940D02*
X64701429Y-160210702D01*
X64701429Y-160210702D02*
X64701429Y-159924988D01*
X64701429Y-159924988D02*
X64749048Y-159829750D01*
X64749048Y-159829750D02*
X64796667Y-159782131D01*
X64796667Y-159782131D02*
X64891905Y-159734512D01*
X64891905Y-159734512D02*
X65082381Y-159734512D01*
X65082381Y-159734512D02*
X65177619Y-159782131D01*
D11*
X67069524Y-163450647D02*
X67336190Y-163450647D01*
X67450476Y-163869695D02*
X67069524Y-163869695D01*
X67069524Y-163869695D02*
X67069524Y-163069695D01*
X67069524Y-163069695D02*
X67450476Y-163069695D01*
X67793334Y-163869695D02*
X67793334Y-163069695D01*
X67793334Y-163069695D02*
X68250477Y-163869695D01*
X68250477Y-163869695D02*
X68250477Y-163069695D01*
X75308572Y-162505718D02*
X75041905Y-162124765D01*
X74851429Y-162505718D02*
X74851429Y-161705718D01*
X74851429Y-161705718D02*
X75156191Y-161705718D01*
X75156191Y-161705718D02*
X75232381Y-161743813D01*
X75232381Y-161743813D02*
X75270476Y-161781908D01*
X75270476Y-161781908D02*
X75308572Y-161858099D01*
X75308572Y-161858099D02*
X75308572Y-161972384D01*
X75308572Y-161972384D02*
X75270476Y-162048575D01*
X75270476Y-162048575D02*
X75232381Y-162086670D01*
X75232381Y-162086670D02*
X75156191Y-162124765D01*
X75156191Y-162124765D02*
X74851429Y-162124765D01*
X75803810Y-161705718D02*
X75956191Y-161705718D01*
X75956191Y-161705718D02*
X76032381Y-161743813D01*
X76032381Y-161743813D02*
X76108572Y-161820003D01*
X76108572Y-161820003D02*
X76146667Y-161972384D01*
X76146667Y-161972384D02*
X76146667Y-162239051D01*
X76146667Y-162239051D02*
X76108572Y-162391432D01*
X76108572Y-162391432D02*
X76032381Y-162467623D01*
X76032381Y-162467623D02*
X75956191Y-162505718D01*
X75956191Y-162505718D02*
X75803810Y-162505718D01*
X75803810Y-162505718D02*
X75727619Y-162467623D01*
X75727619Y-162467623D02*
X75651429Y-162391432D01*
X75651429Y-162391432D02*
X75613333Y-162239051D01*
X75613333Y-162239051D02*
X75613333Y-161972384D01*
X75613333Y-161972384D02*
X75651429Y-161820003D01*
X75651429Y-161820003D02*
X75727619Y-161743813D01*
X75727619Y-161743813D02*
X75803810Y-161705718D01*
X85150000Y-153049695D02*
X85150000Y-152249695D01*
X85150000Y-152249695D02*
X85340476Y-152249695D01*
X85340476Y-152249695D02*
X85454762Y-152287790D01*
X85454762Y-152287790D02*
X85530952Y-152363980D01*
X85530952Y-152363980D02*
X85569047Y-152440171D01*
X85569047Y-152440171D02*
X85607143Y-152592552D01*
X85607143Y-152592552D02*
X85607143Y-152706838D01*
X85607143Y-152706838D02*
X85569047Y-152859219D01*
X85569047Y-152859219D02*
X85530952Y-152935409D01*
X85530952Y-152935409D02*
X85454762Y-153011600D01*
X85454762Y-153011600D02*
X85340476Y-153049695D01*
X85340476Y-153049695D02*
X85150000Y-153049695D01*
X85950000Y-153049695D02*
X85950000Y-152249695D01*
D10*
X96837369Y-168638571D02*
X96884988Y-168495714D01*
X96884988Y-168495714D02*
X96932607Y-168448095D01*
X96932607Y-168448095D02*
X97027845Y-168400476D01*
X97027845Y-168400476D02*
X97170702Y-168400476D01*
X97170702Y-168400476D02*
X97265940Y-168448095D01*
X97265940Y-168448095D02*
X97313560Y-168495714D01*
X97313560Y-168495714D02*
X97361179Y-168590952D01*
X97361179Y-168590952D02*
X97361179Y-168971904D01*
X97361179Y-168971904D02*
X96361179Y-168971904D01*
X96361179Y-168971904D02*
X96361179Y-168638571D01*
X96361179Y-168638571D02*
X96408798Y-168543333D01*
X96408798Y-168543333D02*
X96456417Y-168495714D01*
X96456417Y-168495714D02*
X96551655Y-168448095D01*
X96551655Y-168448095D02*
X96646893Y-168448095D01*
X96646893Y-168448095D02*
X96742131Y-168495714D01*
X96742131Y-168495714D02*
X96789750Y-168543333D01*
X96789750Y-168543333D02*
X96837369Y-168638571D01*
X96837369Y-168638571D02*
X96837369Y-168971904D01*
X97075464Y-174628094D02*
X97075464Y-174151904D01*
X97361179Y-174723332D02*
X96361179Y-174389999D01*
X96361179Y-174389999D02*
X97361179Y-174056666D01*
D11*
X57249523Y-162587790D02*
X57173333Y-162549695D01*
X57173333Y-162549695D02*
X57059047Y-162549695D01*
X57059047Y-162549695D02*
X56944761Y-162587790D01*
X56944761Y-162587790D02*
X56868571Y-162663980D01*
X56868571Y-162663980D02*
X56830476Y-162740171D01*
X56830476Y-162740171D02*
X56792380Y-162892552D01*
X56792380Y-162892552D02*
X56792380Y-163006838D01*
X56792380Y-163006838D02*
X56830476Y-163159219D01*
X56830476Y-163159219D02*
X56868571Y-163235409D01*
X56868571Y-163235409D02*
X56944761Y-163311600D01*
X56944761Y-163311600D02*
X57059047Y-163349695D01*
X57059047Y-163349695D02*
X57135238Y-163349695D01*
X57135238Y-163349695D02*
X57249523Y-163311600D01*
X57249523Y-163311600D02*
X57287619Y-163273504D01*
X57287619Y-163273504D02*
X57287619Y-163006838D01*
X57287619Y-163006838D02*
X57135238Y-163006838D01*
X58527618Y-162625885D02*
X58565714Y-162587790D01*
X58565714Y-162587790D02*
X58641904Y-162549695D01*
X58641904Y-162549695D02*
X58832380Y-162549695D01*
X58832380Y-162549695D02*
X58908571Y-162587790D01*
X58908571Y-162587790D02*
X58946666Y-162625885D01*
X58946666Y-162625885D02*
X58984761Y-162702076D01*
X58984761Y-162702076D02*
X58984761Y-162778266D01*
X58984761Y-162778266D02*
X58946666Y-162892552D01*
X58946666Y-162892552D02*
X58489523Y-163349695D01*
X58489523Y-163349695D02*
X58984761Y-163349695D01*
X59670476Y-162816361D02*
X59670476Y-163349695D01*
X59480000Y-162511600D02*
X59289523Y-163083028D01*
X59289523Y-163083028D02*
X59784762Y-163083028D01*
X59975238Y-162549695D02*
X60241905Y-163349695D01*
X60241905Y-163349695D02*
X60508571Y-162549695D01*
D10*
X99067774Y-137015713D02*
X99024917Y-137101428D01*
X99024917Y-137101428D02*
X99024917Y-137229999D01*
X99024917Y-137229999D02*
X99067774Y-137358570D01*
X99067774Y-137358570D02*
X99153488Y-137444285D01*
X99153488Y-137444285D02*
X99239202Y-137487142D01*
X99239202Y-137487142D02*
X99410631Y-137529999D01*
X99410631Y-137529999D02*
X99539202Y-137529999D01*
X99539202Y-137529999D02*
X99710631Y-137487142D01*
X99710631Y-137487142D02*
X99796345Y-137444285D01*
X99796345Y-137444285D02*
X99882060Y-137358570D01*
X99882060Y-137358570D02*
X99924917Y-137229999D01*
X99924917Y-137229999D02*
X99924917Y-137144285D01*
X99924917Y-137144285D02*
X99882060Y-137015713D01*
X99882060Y-137015713D02*
X99839202Y-136972856D01*
X99839202Y-136972856D02*
X99539202Y-136972856D01*
X99539202Y-136972856D02*
X99539202Y-137144285D01*
X99924917Y-136587142D02*
X99024917Y-136587142D01*
X99024917Y-136587142D02*
X99924917Y-136072856D01*
X99924917Y-136072856D02*
X99024917Y-136072856D01*
X99924917Y-135644285D02*
X99024917Y-135644285D01*
X99024917Y-135644285D02*
X99024917Y-135429999D01*
X99024917Y-135429999D02*
X99067774Y-135301428D01*
X99067774Y-135301428D02*
X99153488Y-135215713D01*
X99153488Y-135215713D02*
X99239202Y-135172856D01*
X99239202Y-135172856D02*
X99410631Y-135129999D01*
X99410631Y-135129999D02*
X99539202Y-135129999D01*
X99539202Y-135129999D02*
X99710631Y-135172856D01*
X99710631Y-135172856D02*
X99796345Y-135215713D01*
X99796345Y-135215713D02*
X99882060Y-135301428D01*
X99882060Y-135301428D02*
X99924917Y-135429999D01*
X99924917Y-135429999D02*
X99924917Y-135644285D01*
X99024917Y-142811428D02*
X99024917Y-143240000D01*
X99024917Y-143240000D02*
X99453488Y-143282857D01*
X99453488Y-143282857D02*
X99410631Y-143240000D01*
X99410631Y-143240000D02*
X99367774Y-143154286D01*
X99367774Y-143154286D02*
X99367774Y-142940000D01*
X99367774Y-142940000D02*
X99410631Y-142854286D01*
X99410631Y-142854286D02*
X99453488Y-142811428D01*
X99453488Y-142811428D02*
X99539202Y-142768571D01*
X99539202Y-142768571D02*
X99753488Y-142768571D01*
X99753488Y-142768571D02*
X99839202Y-142811428D01*
X99839202Y-142811428D02*
X99882060Y-142854286D01*
X99882060Y-142854286D02*
X99924917Y-142940000D01*
X99924917Y-142940000D02*
X99924917Y-143154286D01*
X99924917Y-143154286D02*
X99882060Y-143240000D01*
X99882060Y-143240000D02*
X99839202Y-143282857D01*
X99024917Y-142511428D02*
X99924917Y-142211428D01*
X99924917Y-142211428D02*
X99024917Y-141911428D01*
X102272225Y-146605714D02*
X102315082Y-146520000D01*
X102315082Y-146520000D02*
X102315082Y-146391428D01*
X102315082Y-146391428D02*
X102272225Y-146262857D01*
X102272225Y-146262857D02*
X102186511Y-146177142D01*
X102186511Y-146177142D02*
X102100797Y-146134285D01*
X102100797Y-146134285D02*
X101929368Y-146091428D01*
X101929368Y-146091428D02*
X101800797Y-146091428D01*
X101800797Y-146091428D02*
X101629368Y-146134285D01*
X101629368Y-146134285D02*
X101543654Y-146177142D01*
X101543654Y-146177142D02*
X101457940Y-146262857D01*
X101457940Y-146262857D02*
X101415082Y-146391428D01*
X101415082Y-146391428D02*
X101415082Y-146477142D01*
X101415082Y-146477142D02*
X101457940Y-146605714D01*
X101457940Y-146605714D02*
X101500797Y-146648571D01*
X101500797Y-146648571D02*
X101800797Y-146648571D01*
X101800797Y-146648571D02*
X101800797Y-146477142D01*
X102325082Y-147632857D02*
X101596511Y-147632857D01*
X101596511Y-147632857D02*
X101510797Y-147675714D01*
X101510797Y-147675714D02*
X101467940Y-147718572D01*
X101467940Y-147718572D02*
X101425082Y-147804286D01*
X101425082Y-147804286D02*
X101425082Y-147975714D01*
X101425082Y-147975714D02*
X101467940Y-148061429D01*
X101467940Y-148061429D02*
X101510797Y-148104286D01*
X101510797Y-148104286D02*
X101596511Y-148147143D01*
X101596511Y-148147143D02*
X102325082Y-148147143D01*
X101425082Y-148575714D02*
X102325082Y-148575714D01*
X102325082Y-148575714D02*
X102325082Y-148918571D01*
X102325082Y-148918571D02*
X102282225Y-149004286D01*
X102282225Y-149004286D02*
X102239368Y-149047143D01*
X102239368Y-149047143D02*
X102153654Y-149090000D01*
X102153654Y-149090000D02*
X102025082Y-149090000D01*
X102025082Y-149090000D02*
X101939368Y-149047143D01*
X101939368Y-149047143D02*
X101896511Y-149004286D01*
X101896511Y-149004286D02*
X101853654Y-148918571D01*
X101853654Y-148918571D02*
X101853654Y-148575714D01*
X101425082Y-149475714D02*
X102325082Y-149475714D01*
X102325082Y-149475714D02*
X102325082Y-149690000D01*
X102325082Y-149690000D02*
X102282225Y-149818571D01*
X102282225Y-149818571D02*
X102196511Y-149904286D01*
X102196511Y-149904286D02*
X102110797Y-149947143D01*
X102110797Y-149947143D02*
X101939368Y-149990000D01*
X101939368Y-149990000D02*
X101810797Y-149990000D01*
X101810797Y-149990000D02*
X101639368Y-149947143D01*
X101639368Y-149947143D02*
X101553654Y-149904286D01*
X101553654Y-149904286D02*
X101467940Y-149818571D01*
X101467940Y-149818571D02*
X101425082Y-149690000D01*
X101425082Y-149690000D02*
X101425082Y-149475714D01*
X102325082Y-155732857D02*
X102325082Y-156247143D01*
X101425082Y-155990000D02*
X102325082Y-155990000D01*
D12*
X101425342Y-153968571D02*
X101853914Y-153668571D01*
X101425342Y-153454285D02*
X102325342Y-153454285D01*
X102325342Y-153454285D02*
X102325342Y-153797142D01*
X102325342Y-153797142D02*
X102282485Y-153882857D01*
X102282485Y-153882857D02*
X102239628Y-153925714D01*
X102239628Y-153925714D02*
X102153914Y-153968571D01*
X102153914Y-153968571D02*
X102025342Y-153968571D01*
X102025342Y-153968571D02*
X101939628Y-153925714D01*
X101939628Y-153925714D02*
X101896771Y-153882857D01*
X101896771Y-153882857D02*
X101853914Y-153797142D01*
X101853914Y-153797142D02*
X101853914Y-153454285D01*
X102425342Y-151218571D02*
X102425342Y-150789999D01*
X102425342Y-150789999D02*
X101996771Y-150747142D01*
X101996771Y-150747142D02*
X102039628Y-150789999D01*
X102039628Y-150789999D02*
X102082485Y-150875714D01*
X102082485Y-150875714D02*
X102082485Y-151089999D01*
X102082485Y-151089999D02*
X102039628Y-151175714D01*
X102039628Y-151175714D02*
X101996771Y-151218571D01*
X101996771Y-151218571D02*
X101911057Y-151261428D01*
X101911057Y-151261428D02*
X101696771Y-151261428D01*
X101696771Y-151261428D02*
X101611057Y-151218571D01*
X101611057Y-151218571D02*
X101568200Y-151175714D01*
X101568200Y-151175714D02*
X101525342Y-151089999D01*
X101525342Y-151089999D02*
X101525342Y-150875714D01*
X101525342Y-150875714D02*
X101568200Y-150789999D01*
X101568200Y-150789999D02*
X101611057Y-150747142D01*
X102425342Y-151518571D02*
X101525342Y-151818571D01*
X101525342Y-151818571D02*
X102425342Y-152118571D01*
D13*
X58977527Y-133708601D02*
X58063127Y-133708601D01*
X58063127Y-133708601D02*
X58063127Y-133490887D01*
X58063127Y-133490887D02*
X58106670Y-133360258D01*
X58106670Y-133360258D02*
X58193756Y-133273173D01*
X58193756Y-133273173D02*
X58280842Y-133229630D01*
X58280842Y-133229630D02*
X58455013Y-133186087D01*
X58455013Y-133186087D02*
X58585642Y-133186087D01*
X58585642Y-133186087D02*
X58759813Y-133229630D01*
X58759813Y-133229630D02*
X58846899Y-133273173D01*
X58846899Y-133273173D02*
X58933985Y-133360258D01*
X58933985Y-133360258D02*
X58977527Y-133490887D01*
X58977527Y-133490887D02*
X58977527Y-133708601D01*
X58977527Y-132794201D02*
X58063127Y-132794201D01*
X58063127Y-132794201D02*
X58716270Y-132489401D01*
X58716270Y-132489401D02*
X58063127Y-132184601D01*
X58063127Y-132184601D02*
X58977527Y-132184601D01*
X58063127Y-131313744D02*
X58063127Y-131749172D01*
X58063127Y-131749172D02*
X58498556Y-131792715D01*
X58498556Y-131792715D02*
X58455013Y-131749172D01*
X58455013Y-131749172D02*
X58411470Y-131662087D01*
X58411470Y-131662087D02*
X58411470Y-131444372D01*
X58411470Y-131444372D02*
X58455013Y-131357287D01*
X58455013Y-131357287D02*
X58498556Y-131313744D01*
X58498556Y-131313744D02*
X58585642Y-131270201D01*
X58585642Y-131270201D02*
X58803356Y-131270201D01*
X58803356Y-131270201D02*
X58890442Y-131313744D01*
X58890442Y-131313744D02*
X58933985Y-131357287D01*
X58933985Y-131357287D02*
X58977527Y-131444372D01*
X58977527Y-131444372D02*
X58977527Y-131662087D01*
X58977527Y-131662087D02*
X58933985Y-131749172D01*
X58933985Y-131749172D02*
X58890442Y-131792715D01*
X58367927Y-130486430D02*
X58977527Y-130486430D01*
X58019585Y-130704144D02*
X58672727Y-130921858D01*
X58672727Y-130921858D02*
X58672727Y-130355801D01*
X58150213Y-130051001D02*
X58106670Y-130007458D01*
X58106670Y-130007458D02*
X58063127Y-129920373D01*
X58063127Y-129920373D02*
X58063127Y-129702658D01*
X58063127Y-129702658D02*
X58106670Y-129615573D01*
X58106670Y-129615573D02*
X58150213Y-129572030D01*
X58150213Y-129572030D02*
X58237299Y-129528487D01*
X58237299Y-129528487D02*
X58324385Y-129528487D01*
X58324385Y-129528487D02*
X58455013Y-129572030D01*
X58455013Y-129572030D02*
X58977527Y-130094544D01*
X58977527Y-130094544D02*
X58977527Y-129528487D01*
X59836670Y-128179630D02*
X59793127Y-128266716D01*
X59793127Y-128266716D02*
X59793127Y-128397344D01*
X59793127Y-128397344D02*
X59836670Y-128527973D01*
X59836670Y-128527973D02*
X59923756Y-128615058D01*
X59923756Y-128615058D02*
X60010842Y-128658601D01*
X60010842Y-128658601D02*
X60185013Y-128702144D01*
X60185013Y-128702144D02*
X60315642Y-128702144D01*
X60315642Y-128702144D02*
X60489813Y-128658601D01*
X60489813Y-128658601D02*
X60576899Y-128615058D01*
X60576899Y-128615058D02*
X60663985Y-128527973D01*
X60663985Y-128527973D02*
X60707527Y-128397344D01*
X60707527Y-128397344D02*
X60707527Y-128310258D01*
X60707527Y-128310258D02*
X60663985Y-128179630D01*
X60663985Y-128179630D02*
X60620442Y-128136087D01*
X60620442Y-128136087D02*
X60315642Y-128136087D01*
X60315642Y-128136087D02*
X60315642Y-128310258D01*
X60747527Y-130238601D02*
X59833127Y-130238601D01*
X59833127Y-130238601D02*
X59833127Y-130020887D01*
X59833127Y-130020887D02*
X59876670Y-129890258D01*
X59876670Y-129890258D02*
X59963756Y-129803173D01*
X59963756Y-129803173D02*
X60050842Y-129759630D01*
X60050842Y-129759630D02*
X60225013Y-129716087D01*
X60225013Y-129716087D02*
X60355642Y-129716087D01*
X60355642Y-129716087D02*
X60529813Y-129759630D01*
X60529813Y-129759630D02*
X60616899Y-129803173D01*
X60616899Y-129803173D02*
X60703985Y-129890258D01*
X60703985Y-129890258D02*
X60747527Y-130020887D01*
X60747527Y-130020887D02*
X60747527Y-130238601D01*
X60703985Y-132152144D02*
X60747527Y-132021516D01*
X60747527Y-132021516D02*
X60747527Y-131803801D01*
X60747527Y-131803801D02*
X60703985Y-131716716D01*
X60703985Y-131716716D02*
X60660442Y-131673173D01*
X60660442Y-131673173D02*
X60573356Y-131629630D01*
X60573356Y-131629630D02*
X60486270Y-131629630D01*
X60486270Y-131629630D02*
X60399185Y-131673173D01*
X60399185Y-131673173D02*
X60355642Y-131716716D01*
X60355642Y-131716716D02*
X60312099Y-131803801D01*
X60312099Y-131803801D02*
X60268556Y-131977973D01*
X60268556Y-131977973D02*
X60225013Y-132065058D01*
X60225013Y-132065058D02*
X60181470Y-132108601D01*
X60181470Y-132108601D02*
X60094385Y-132152144D01*
X60094385Y-132152144D02*
X60007299Y-132152144D01*
X60007299Y-132152144D02*
X59920213Y-132108601D01*
X59920213Y-132108601D02*
X59876670Y-132065058D01*
X59876670Y-132065058D02*
X59833127Y-131977973D01*
X59833127Y-131977973D02*
X59833127Y-131760258D01*
X59833127Y-131760258D02*
X59876670Y-131629630D01*
X60268556Y-133858601D02*
X60268556Y-133553801D01*
X60747527Y-133423173D02*
X60747527Y-133858601D01*
X60747527Y-133858601D02*
X59833127Y-133858601D01*
X59833127Y-133858601D02*
X59833127Y-133423173D01*
D10*
X70042831Y-128456179D02*
X70042831Y-127456179D01*
X70042831Y-127456179D02*
X70376164Y-128170464D01*
X70376164Y-128170464D02*
X70709497Y-127456179D01*
X70709497Y-127456179D02*
X70709497Y-128456179D01*
X71328545Y-128456179D02*
X71233307Y-128408560D01*
X71233307Y-128408560D02*
X71185688Y-128360940D01*
X71185688Y-128360940D02*
X71138069Y-128265702D01*
X71138069Y-128265702D02*
X71138069Y-127979988D01*
X71138069Y-127979988D02*
X71185688Y-127884750D01*
X71185688Y-127884750D02*
X71233307Y-127837131D01*
X71233307Y-127837131D02*
X71328545Y-127789512D01*
X71328545Y-127789512D02*
X71471402Y-127789512D01*
X71471402Y-127789512D02*
X71566640Y-127837131D01*
X71566640Y-127837131D02*
X71614259Y-127884750D01*
X71614259Y-127884750D02*
X71661878Y-127979988D01*
X71661878Y-127979988D02*
X71661878Y-128265702D01*
X71661878Y-128265702D02*
X71614259Y-128360940D01*
X71614259Y-128360940D02*
X71566640Y-128408560D01*
X71566640Y-128408560D02*
X71471402Y-128456179D01*
X71471402Y-128456179D02*
X71328545Y-128456179D01*
X71947593Y-127789512D02*
X72328545Y-127789512D01*
X72090450Y-127456179D02*
X72090450Y-128313321D01*
X72090450Y-128313321D02*
X72138069Y-128408560D01*
X72138069Y-128408560D02*
X72233307Y-128456179D01*
X72233307Y-128456179D02*
X72328545Y-128456179D01*
X72804736Y-128456179D02*
X72709498Y-128408560D01*
X72709498Y-128408560D02*
X72661879Y-128360940D01*
X72661879Y-128360940D02*
X72614260Y-128265702D01*
X72614260Y-128265702D02*
X72614260Y-127979988D01*
X72614260Y-127979988D02*
X72661879Y-127884750D01*
X72661879Y-127884750D02*
X72709498Y-127837131D01*
X72709498Y-127837131D02*
X72804736Y-127789512D01*
X72804736Y-127789512D02*
X72947593Y-127789512D01*
X72947593Y-127789512D02*
X73042831Y-127837131D01*
X73042831Y-127837131D02*
X73090450Y-127884750D01*
X73090450Y-127884750D02*
X73138069Y-127979988D01*
X73138069Y-127979988D02*
X73138069Y-128265702D01*
X73138069Y-128265702D02*
X73090450Y-128360940D01*
X73090450Y-128360940D02*
X73042831Y-128408560D01*
X73042831Y-128408560D02*
X72947593Y-128456179D01*
X72947593Y-128456179D02*
X72804736Y-128456179D01*
X73566641Y-128456179D02*
X73566641Y-127789512D01*
X73566641Y-127979988D02*
X73614260Y-127884750D01*
X73614260Y-127884750D02*
X73661879Y-127837131D01*
X73661879Y-127837131D02*
X73757117Y-127789512D01*
X73757117Y-127789512D02*
X73852355Y-127789512D01*
X75138070Y-127456179D02*
X75328546Y-127456179D01*
X75328546Y-127456179D02*
X75423784Y-127503798D01*
X75423784Y-127503798D02*
X75519022Y-127599036D01*
X75519022Y-127599036D02*
X75566641Y-127789512D01*
X75566641Y-127789512D02*
X75566641Y-128122845D01*
X75566641Y-128122845D02*
X75519022Y-128313321D01*
X75519022Y-128313321D02*
X75423784Y-128408560D01*
X75423784Y-128408560D02*
X75328546Y-128456179D01*
X75328546Y-128456179D02*
X75138070Y-128456179D01*
X75138070Y-128456179D02*
X75042832Y-128408560D01*
X75042832Y-128408560D02*
X74947594Y-128313321D01*
X74947594Y-128313321D02*
X74899975Y-128122845D01*
X74899975Y-128122845D02*
X74899975Y-127789512D01*
X74899975Y-127789512D02*
X74947594Y-127599036D01*
X74947594Y-127599036D02*
X75042832Y-127503798D01*
X75042832Y-127503798D02*
X75138070Y-127456179D01*
X76423784Y-127789512D02*
X76423784Y-128456179D01*
X75995213Y-127789512D02*
X75995213Y-128313321D01*
X75995213Y-128313321D02*
X76042832Y-128408560D01*
X76042832Y-128408560D02*
X76138070Y-128456179D01*
X76138070Y-128456179D02*
X76280927Y-128456179D01*
X76280927Y-128456179D02*
X76376165Y-128408560D01*
X76376165Y-128408560D02*
X76423784Y-128360940D01*
X76757118Y-127789512D02*
X77138070Y-127789512D01*
X76899975Y-127456179D02*
X76899975Y-128313321D01*
X76899975Y-128313321D02*
X76947594Y-128408560D01*
X76947594Y-128408560D02*
X77042832Y-128456179D01*
X77042832Y-128456179D02*
X77138070Y-128456179D01*
X81619974Y-127466235D02*
X82191402Y-127466235D01*
X81905688Y-128466235D02*
X81905688Y-127466235D01*
X82524736Y-128466235D02*
X82524736Y-127466235D01*
X82953307Y-128466235D02*
X82953307Y-127942425D01*
X82953307Y-127942425D02*
X82905688Y-127847187D01*
X82905688Y-127847187D02*
X82810450Y-127799568D01*
X82810450Y-127799568D02*
X82667593Y-127799568D01*
X82667593Y-127799568D02*
X82572355Y-127847187D01*
X82572355Y-127847187D02*
X82524736Y-127894806D01*
X97229021Y-134286179D02*
X96752831Y-134286179D01*
X96752831Y-134286179D02*
X96752831Y-133286179D01*
X97562355Y-134286179D02*
X97562355Y-133619512D01*
X97562355Y-133286179D02*
X97514736Y-133333798D01*
X97514736Y-133333798D02*
X97562355Y-133381417D01*
X97562355Y-133381417D02*
X97609974Y-133333798D01*
X97609974Y-133333798D02*
X97562355Y-133286179D01*
X97562355Y-133286179D02*
X97562355Y-133381417D01*
X98038545Y-134286179D02*
X98038545Y-133619512D01*
X98038545Y-133714750D02*
X98086164Y-133667131D01*
X98086164Y-133667131D02*
X98181402Y-133619512D01*
X98181402Y-133619512D02*
X98324259Y-133619512D01*
X98324259Y-133619512D02*
X98419497Y-133667131D01*
X98419497Y-133667131D02*
X98467116Y-133762369D01*
X98467116Y-133762369D02*
X98467116Y-134286179D01*
X98467116Y-133762369D02*
X98514735Y-133667131D01*
X98514735Y-133667131D02*
X98609973Y-133619512D01*
X98609973Y-133619512D02*
X98752830Y-133619512D01*
X98752830Y-133619512D02*
X98848069Y-133667131D01*
X98848069Y-133667131D02*
X98895688Y-133762369D01*
X98895688Y-133762369D02*
X98895688Y-134286179D01*
X99371878Y-134286179D02*
X99371878Y-133619512D01*
X99371878Y-133286179D02*
X99324259Y-133333798D01*
X99324259Y-133333798D02*
X99371878Y-133381417D01*
X99371878Y-133381417D02*
X99419497Y-133333798D01*
X99419497Y-133333798D02*
X99371878Y-133286179D01*
X99371878Y-133286179D02*
X99371878Y-133381417D01*
X99705211Y-133619512D02*
X100086163Y-133619512D01*
X99848068Y-133286179D02*
X99848068Y-134143321D01*
X99848068Y-134143321D02*
X99895687Y-134238560D01*
X99895687Y-134238560D02*
X99990925Y-134286179D01*
X99990925Y-134286179D02*
X100086163Y-134286179D01*
X99682831Y-161966179D02*
X99682831Y-160966179D01*
X99682831Y-160966179D02*
X100254259Y-161966179D01*
X100254259Y-161966179D02*
X100254259Y-160966179D01*
X100873307Y-161966179D02*
X100778069Y-161918560D01*
X100778069Y-161918560D02*
X100730450Y-161870940D01*
X100730450Y-161870940D02*
X100682831Y-161775702D01*
X100682831Y-161775702D02*
X100682831Y-161489988D01*
X100682831Y-161489988D02*
X100730450Y-161394750D01*
X100730450Y-161394750D02*
X100778069Y-161347131D01*
X100778069Y-161347131D02*
X100873307Y-161299512D01*
X100873307Y-161299512D02*
X101016164Y-161299512D01*
X101016164Y-161299512D02*
X101111402Y-161347131D01*
X101111402Y-161347131D02*
X101159021Y-161394750D01*
X101159021Y-161394750D02*
X101206640Y-161489988D01*
X101206640Y-161489988D02*
X101206640Y-161775702D01*
X101206640Y-161775702D02*
X101159021Y-161870940D01*
X101159021Y-161870940D02*
X101111402Y-161918560D01*
X101111402Y-161918560D02*
X101016164Y-161966179D01*
X101016164Y-161966179D02*
X100873307Y-161966179D01*
X102063783Y-161966179D02*
X102063783Y-160966179D01*
X102063783Y-161918560D02*
X101968545Y-161966179D01*
X101968545Y-161966179D02*
X101778069Y-161966179D01*
X101778069Y-161966179D02*
X101682831Y-161918560D01*
X101682831Y-161918560D02*
X101635212Y-161870940D01*
X101635212Y-161870940D02*
X101587593Y-161775702D01*
X101587593Y-161775702D02*
X101587593Y-161489988D01*
X101587593Y-161489988D02*
X101635212Y-161394750D01*
X101635212Y-161394750D02*
X101682831Y-161347131D01*
X101682831Y-161347131D02*
X101778069Y-161299512D01*
X101778069Y-161299512D02*
X101968545Y-161299512D01*
X101968545Y-161299512D02*
X102063783Y-161347131D01*
X102920926Y-161918560D02*
X102825688Y-161966179D01*
X102825688Y-161966179D02*
X102635212Y-161966179D01*
X102635212Y-161966179D02*
X102539974Y-161918560D01*
X102539974Y-161918560D02*
X102492355Y-161823321D01*
X102492355Y-161823321D02*
X102492355Y-161442369D01*
X102492355Y-161442369D02*
X102539974Y-161347131D01*
X102539974Y-161347131D02*
X102635212Y-161299512D01*
X102635212Y-161299512D02*
X102825688Y-161299512D01*
X102825688Y-161299512D02*
X102920926Y-161347131D01*
X102920926Y-161347131D02*
X102968545Y-161442369D01*
X102968545Y-161442369D02*
X102968545Y-161537607D01*
X102968545Y-161537607D02*
X102492355Y-161632845D01*
X59876191Y-167571179D02*
X59876191Y-166571179D01*
X60352381Y-167571179D02*
X60352381Y-166571179D01*
X60352381Y-166571179D02*
X60923809Y-167571179D01*
X60923809Y-167571179D02*
X60923809Y-166571179D01*
X63981904Y-166528798D02*
X63886666Y-166481179D01*
X63886666Y-166481179D02*
X63743809Y-166481179D01*
X63743809Y-166481179D02*
X63600952Y-166528798D01*
X63600952Y-166528798D02*
X63505714Y-166624036D01*
X63505714Y-166624036D02*
X63458095Y-166719274D01*
X63458095Y-166719274D02*
X63410476Y-166909750D01*
X63410476Y-166909750D02*
X63410476Y-167052607D01*
X63410476Y-167052607D02*
X63458095Y-167243083D01*
X63458095Y-167243083D02*
X63505714Y-167338321D01*
X63505714Y-167338321D02*
X63600952Y-167433560D01*
X63600952Y-167433560D02*
X63743809Y-167481179D01*
X63743809Y-167481179D02*
X63839047Y-167481179D01*
X63839047Y-167481179D02*
X63981904Y-167433560D01*
X63981904Y-167433560D02*
X64029523Y-167385940D01*
X64029523Y-167385940D02*
X64029523Y-167052607D01*
X64029523Y-167052607D02*
X63839047Y-167052607D01*
X66404762Y-166461179D02*
X66738095Y-167461179D01*
X66738095Y-167461179D02*
X67071428Y-166461179D01*
X67404762Y-167461179D02*
X67404762Y-166461179D01*
X67880952Y-167461179D02*
X67880952Y-166461179D01*
X67880952Y-166461179D02*
X68452380Y-167461179D01*
X68452380Y-167461179D02*
X68452380Y-166461179D01*
X71061905Y-174065464D02*
X71538095Y-174065464D01*
X70966667Y-174351179D02*
X71300000Y-173351179D01*
X71300000Y-173351179D02*
X71633333Y-174351179D01*
X74971428Y-173827369D02*
X75114285Y-173874988D01*
X75114285Y-173874988D02*
X75161904Y-173922607D01*
X75161904Y-173922607D02*
X75209523Y-174017845D01*
X75209523Y-174017845D02*
X75209523Y-174160702D01*
X75209523Y-174160702D02*
X75161904Y-174255940D01*
X75161904Y-174255940D02*
X75114285Y-174303560D01*
X75114285Y-174303560D02*
X75019047Y-174351179D01*
X75019047Y-174351179D02*
X74638095Y-174351179D01*
X74638095Y-174351179D02*
X74638095Y-173351179D01*
X74638095Y-173351179D02*
X74971428Y-173351179D01*
X74971428Y-173351179D02*
X75066666Y-173398798D01*
X75066666Y-173398798D02*
X75114285Y-173446417D01*
X75114285Y-173446417D02*
X75161904Y-173541655D01*
X75161904Y-173541655D02*
X75161904Y-173636893D01*
X75161904Y-173636893D02*
X75114285Y-173732131D01*
X75114285Y-173732131D02*
X75066666Y-173779750D01*
X75066666Y-173779750D02*
X74971428Y-173827369D01*
X74971428Y-173827369D02*
X74638095Y-173827369D01*
X78420000Y-166571179D02*
X78610476Y-166571179D01*
X78610476Y-166571179D02*
X78705714Y-166618798D01*
X78705714Y-166618798D02*
X78800952Y-166714036D01*
X78800952Y-166714036D02*
X78848571Y-166904512D01*
X78848571Y-166904512D02*
X78848571Y-167237845D01*
X78848571Y-167237845D02*
X78800952Y-167428321D01*
X78800952Y-167428321D02*
X78705714Y-167523560D01*
X78705714Y-167523560D02*
X78610476Y-167571179D01*
X78610476Y-167571179D02*
X78420000Y-167571179D01*
X78420000Y-167571179D02*
X78324762Y-167523560D01*
X78324762Y-167523560D02*
X78229524Y-167428321D01*
X78229524Y-167428321D02*
X78181905Y-167237845D01*
X78181905Y-167237845D02*
X78181905Y-166904512D01*
X78181905Y-166904512D02*
X78229524Y-166714036D01*
X78229524Y-166714036D02*
X78324762Y-166618798D01*
X78324762Y-166618798D02*
X78420000Y-166571179D01*
X79277143Y-166571179D02*
X79277143Y-167380702D01*
X79277143Y-167380702D02*
X79324762Y-167475940D01*
X79324762Y-167475940D02*
X79372381Y-167523560D01*
X79372381Y-167523560D02*
X79467619Y-167571179D01*
X79467619Y-167571179D02*
X79658095Y-167571179D01*
X79658095Y-167571179D02*
X79753333Y-167523560D01*
X79753333Y-167523560D02*
X79800952Y-167475940D01*
X79800952Y-167475940D02*
X79848571Y-167380702D01*
X79848571Y-167380702D02*
X79848571Y-166571179D01*
X80181905Y-166571179D02*
X80753333Y-166571179D01*
X80467619Y-167571179D02*
X80467619Y-166571179D01*
X87281905Y-174195464D02*
X87758095Y-174195464D01*
X87186667Y-174481179D02*
X87520000Y-173481179D01*
X87520000Y-173481179D02*
X87853333Y-174481179D01*
X91191428Y-173957369D02*
X91334285Y-174004988D01*
X91334285Y-174004988D02*
X91381904Y-174052607D01*
X91381904Y-174052607D02*
X91429523Y-174147845D01*
X91429523Y-174147845D02*
X91429523Y-174290702D01*
X91429523Y-174290702D02*
X91381904Y-174385940D01*
X91381904Y-174385940D02*
X91334285Y-174433560D01*
X91334285Y-174433560D02*
X91239047Y-174481179D01*
X91239047Y-174481179D02*
X90858095Y-174481179D01*
X90858095Y-174481179D02*
X90858095Y-173481179D01*
X90858095Y-173481179D02*
X91191428Y-173481179D01*
X91191428Y-173481179D02*
X91286666Y-173528798D01*
X91286666Y-173528798D02*
X91334285Y-173576417D01*
X91334285Y-173576417D02*
X91381904Y-173671655D01*
X91381904Y-173671655D02*
X91381904Y-173766893D01*
X91381904Y-173766893D02*
X91334285Y-173862131D01*
X91334285Y-173862131D02*
X91286666Y-173909750D01*
X91286666Y-173909750D02*
X91191428Y-173957369D01*
X91191428Y-173957369D02*
X90858095Y-173957369D01*
X97361179Y-172406666D02*
X97361179Y-172978094D01*
X97361179Y-172692380D02*
X96361179Y-172692380D01*
X96361179Y-172692380D02*
X96504036Y-172787618D01*
X96504036Y-172787618D02*
X96599274Y-172882856D01*
X96599274Y-172882856D02*
X96646893Y-172978094D01*
X96456417Y-172025713D02*
X96408798Y-171978094D01*
X96408798Y-171978094D02*
X96361179Y-171882856D01*
X96361179Y-171882856D02*
X96361179Y-171644761D01*
X96361179Y-171644761D02*
X96408798Y-171549523D01*
X96408798Y-171549523D02*
X96456417Y-171501904D01*
X96456417Y-171501904D02*
X96551655Y-171454285D01*
X96551655Y-171454285D02*
X96646893Y-171454285D01*
X96646893Y-171454285D02*
X96789750Y-171501904D01*
X96789750Y-171501904D02*
X97361179Y-172073332D01*
X97361179Y-172073332D02*
X97361179Y-171454285D01*
X96361179Y-170835237D02*
X96361179Y-170739999D01*
X96361179Y-170739999D02*
X96408798Y-170644761D01*
X96408798Y-170644761D02*
X96456417Y-170597142D01*
X96456417Y-170597142D02*
X96551655Y-170549523D01*
X96551655Y-170549523D02*
X96742131Y-170501904D01*
X96742131Y-170501904D02*
X96980226Y-170501904D01*
X96980226Y-170501904D02*
X97170702Y-170549523D01*
X97170702Y-170549523D02*
X97265940Y-170597142D01*
X97265940Y-170597142D02*
X97313560Y-170644761D01*
X97313560Y-170644761D02*
X97361179Y-170739999D01*
X97361179Y-170739999D02*
X97361179Y-170835237D01*
X97361179Y-170835237D02*
X97313560Y-170930475D01*
X97313560Y-170930475D02*
X97265940Y-170978094D01*
X97265940Y-170978094D02*
X97170702Y-171025713D01*
X97170702Y-171025713D02*
X96980226Y-171073332D01*
X96980226Y-171073332D02*
X96742131Y-171073332D01*
X96742131Y-171073332D02*
X96551655Y-171025713D01*
X96551655Y-171025713D02*
X96456417Y-170978094D01*
X96456417Y-170978094D02*
X96408798Y-170930475D01*
X96408798Y-170930475D02*
X96361179Y-170835237D01*
D14*
X82050380Y-162502380D02*
X82526571Y-162169047D01*
X82050380Y-161930952D02*
X83050380Y-161930952D01*
X83050380Y-161930952D02*
X83050380Y-162311904D01*
X83050380Y-162311904D02*
X83002761Y-162407142D01*
X83002761Y-162407142D02*
X82955142Y-162454761D01*
X82955142Y-162454761D02*
X82859904Y-162502380D01*
X82859904Y-162502380D02*
X82717047Y-162502380D01*
X82717047Y-162502380D02*
X82621809Y-162454761D01*
X82621809Y-162454761D02*
X82574190Y-162407142D01*
X82574190Y-162407142D02*
X82526571Y-162311904D01*
X82526571Y-162311904D02*
X82526571Y-161930952D01*
X82098000Y-162883333D02*
X82050380Y-163026190D01*
X82050380Y-163026190D02*
X82050380Y-163264285D01*
X82050380Y-163264285D02*
X82098000Y-163359523D01*
X82098000Y-163359523D02*
X82145619Y-163407142D01*
X82145619Y-163407142D02*
X82240857Y-163454761D01*
X82240857Y-163454761D02*
X82336095Y-163454761D01*
X82336095Y-163454761D02*
X82431333Y-163407142D01*
X82431333Y-163407142D02*
X82478952Y-163359523D01*
X82478952Y-163359523D02*
X82526571Y-163264285D01*
X82526571Y-163264285D02*
X82574190Y-163073809D01*
X82574190Y-163073809D02*
X82621809Y-162978571D01*
X82621809Y-162978571D02*
X82669428Y-162930952D01*
X82669428Y-162930952D02*
X82764666Y-162883333D01*
X82764666Y-162883333D02*
X82859904Y-162883333D01*
X82859904Y-162883333D02*
X82955142Y-162930952D01*
X82955142Y-162930952D02*
X83002761Y-162978571D01*
X83002761Y-162978571D02*
X83050380Y-163073809D01*
X83050380Y-163073809D02*
X83050380Y-163311904D01*
X83050380Y-163311904D02*
X83002761Y-163454761D01*
X83050380Y-163740476D02*
X83050380Y-164311904D01*
X82050380Y-164026190D02*
X83050380Y-164026190D01*
D10*
X75271428Y-149404917D02*
X75271428Y-148504917D01*
X75271428Y-148504917D02*
X75571428Y-149147774D01*
X75571428Y-149147774D02*
X75871428Y-148504917D01*
X75871428Y-148504917D02*
X75871428Y-149404917D01*
X76771428Y-149404917D02*
X76257142Y-149404917D01*
X76514285Y-149404917D02*
X76514285Y-148504917D01*
X76514285Y-148504917D02*
X76428571Y-148633488D01*
X76428571Y-148633488D02*
X76342856Y-148719202D01*
X76342856Y-148719202D02*
X76257142Y-148762060D01*
X77971428Y-149404917D02*
X77971428Y-148504917D01*
X77971428Y-148504917D02*
X78271428Y-149147774D01*
X78271428Y-149147774D02*
X78571428Y-148504917D01*
X78571428Y-148504917D02*
X78571428Y-149404917D01*
X78957142Y-148590631D02*
X78999999Y-148547774D01*
X78999999Y-148547774D02*
X79085714Y-148504917D01*
X79085714Y-148504917D02*
X79299999Y-148504917D01*
X79299999Y-148504917D02*
X79385714Y-148547774D01*
X79385714Y-148547774D02*
X79428571Y-148590631D01*
X79428571Y-148590631D02*
X79471428Y-148676345D01*
X79471428Y-148676345D02*
X79471428Y-148762060D01*
X79471428Y-148762060D02*
X79428571Y-148890631D01*
X79428571Y-148890631D02*
X78914285Y-149404917D01*
X78914285Y-149404917D02*
X79471428Y-149404917D01*
X72571428Y-149404917D02*
X72571428Y-148504917D01*
X72571428Y-148504917D02*
X72871428Y-149147774D01*
X72871428Y-149147774D02*
X73171428Y-148504917D01*
X73171428Y-148504917D02*
X73171428Y-149404917D01*
X73771428Y-148504917D02*
X73857142Y-148504917D01*
X73857142Y-148504917D02*
X73942856Y-148547774D01*
X73942856Y-148547774D02*
X73985714Y-148590631D01*
X73985714Y-148590631D02*
X74028571Y-148676345D01*
X74028571Y-148676345D02*
X74071428Y-148847774D01*
X74071428Y-148847774D02*
X74071428Y-149062060D01*
X74071428Y-149062060D02*
X74028571Y-149233488D01*
X74028571Y-149233488D02*
X73985714Y-149319202D01*
X73985714Y-149319202D02*
X73942856Y-149362060D01*
X73942856Y-149362060D02*
X73857142Y-149404917D01*
X73857142Y-149404917D02*
X73771428Y-149404917D01*
X73771428Y-149404917D02*
X73685714Y-149362060D01*
X73685714Y-149362060D02*
X73642856Y-149319202D01*
X73642856Y-149319202D02*
X73599999Y-149233488D01*
X73599999Y-149233488D02*
X73557142Y-149062060D01*
X73557142Y-149062060D02*
X73557142Y-148847774D01*
X73557142Y-148847774D02*
X73599999Y-148676345D01*
X73599999Y-148676345D02*
X73642856Y-148590631D01*
X73642856Y-148590631D02*
X73685714Y-148547774D01*
X73685714Y-148547774D02*
X73771428Y-148504917D01*
%TO.C,TP14*%
D15*
X99490000Y-152770000D02*
X100890000Y-152770000D01*
X99490000Y-154170000D02*
X99490000Y-152770000D01*
X100890000Y-152770000D02*
X100890000Y-154170000D01*
X100890000Y-154170000D02*
X99490000Y-154170000D01*
%TO.C,TP13*%
X99490000Y-154810000D02*
X100890000Y-154810000D01*
X99490000Y-156210000D02*
X99490000Y-154810000D01*
X100890000Y-154810000D02*
X100890000Y-156210000D01*
X100890000Y-156210000D02*
X99490000Y-156210000D01*
%TO.C,TP12*%
X96820000Y-135330000D02*
X98220000Y-135330000D01*
X96820000Y-136730000D02*
X96820000Y-135330000D01*
X98220000Y-135330000D02*
X98220000Y-136730000D01*
X98220000Y-136730000D02*
X96820000Y-136730000D01*
%TO.C,TP11*%
X92590000Y-134500000D02*
X93990000Y-134500000D01*
X92590000Y-135900000D02*
X92590000Y-134500000D01*
X93990000Y-134500000D02*
X93990000Y-135900000D01*
X93990000Y-135900000D02*
X92590000Y-135900000D01*
%TO.C,TP10*%
X100410000Y-130440000D02*
X101810000Y-130440000D01*
X100410000Y-131840000D02*
X100410000Y-130440000D01*
X101810000Y-130440000D02*
X101810000Y-131840000D01*
X101810000Y-131840000D02*
X100410000Y-131840000D01*
%TO.C,TP9*%
X56520000Y-163800000D02*
X57920000Y-163800000D01*
X56520000Y-165200000D02*
X56520000Y-163800000D01*
X57920000Y-163800000D02*
X57920000Y-165200000D01*
X57920000Y-165200000D02*
X56520000Y-165200000D01*
%TO.C,TP8*%
X101010000Y-164210000D02*
X102410000Y-164210000D01*
X101010000Y-165610000D02*
X101010000Y-164210000D01*
X102410000Y-164210000D02*
X102410000Y-165610000D01*
X102410000Y-165610000D02*
X101010000Y-165610000D01*
%TO.C,TP7*%
X94470000Y-168100000D02*
X95870000Y-168100000D01*
X94470000Y-169500000D02*
X94470000Y-168100000D01*
X95870000Y-168100000D02*
X95870000Y-169500000D01*
X95870000Y-169500000D02*
X94470000Y-169500000D01*
%TO.C,TP6*%
X94440000Y-173820000D02*
X95840000Y-173820000D01*
X94440000Y-175220000D02*
X94440000Y-173820000D01*
X95840000Y-173820000D02*
X95840000Y-175220000D01*
X95840000Y-175220000D02*
X94440000Y-175220000D01*
%TO.C,TP5*%
X83040000Y-152300000D02*
X84440000Y-152300000D01*
X83040000Y-153700000D02*
X83040000Y-152300000D01*
X84440000Y-152300000D02*
X84440000Y-153700000D01*
X84440000Y-153700000D02*
X83040000Y-153700000D01*
%TO.C,TP4*%
X74770000Y-159790000D02*
X76170000Y-159790000D01*
X74770000Y-161190000D02*
X74770000Y-159790000D01*
X76170000Y-159790000D02*
X76170000Y-161190000D01*
X76170000Y-161190000D02*
X74770000Y-161190000D01*
%TO.C,TP3*%
X67110000Y-161120000D02*
X68510000Y-161120000D01*
X67110000Y-162520000D02*
X67110000Y-161120000D01*
X68510000Y-161120000D02*
X68510000Y-162520000D01*
X68510000Y-162520000D02*
X67110000Y-162520000D01*
%TO.C,TP2*%
X85080000Y-145670000D02*
X86480000Y-145670000D01*
X85080000Y-147070000D02*
X85080000Y-145670000D01*
X86480000Y-145670000D02*
X86480000Y-147070000D01*
X86480000Y-147070000D02*
X85080000Y-147070000D01*
%TO.C,TP1*%
X58680000Y-163800000D02*
X60080000Y-163800000D01*
X58680000Y-165200000D02*
X58680000Y-163800000D01*
X60080000Y-163800000D02*
X60080000Y-165200000D01*
X60080000Y-165200000D02*
X58680000Y-165200000D01*
%TO.C,C2*%
X59405000Y-151901252D02*
X59405000Y-151378748D01*
X60875000Y-151901252D02*
X60875000Y-151378748D01*
%TO.C,R2*%
X85835000Y-158737064D02*
X85835000Y-158282936D01*
X87305000Y-158737064D02*
X87305000Y-158282936D01*
%TO.C,J4*%
D16*
X68320000Y-121105000D02*
X80720000Y-121105000D01*
X68320000Y-126855000D02*
X68320000Y-121105000D01*
X80720000Y-121105000D02*
X80720000Y-126855000D01*
X80720000Y-126855000D02*
X68320000Y-126855000D01*
%TO.C,U1*%
D17*
X88675000Y-147675000D02*
X88675000Y-148000000D01*
X88675000Y-147675000D02*
X89000000Y-147675000D01*
X88675000Y-154925000D02*
X88675000Y-154600000D01*
X88675000Y-154925000D02*
X89000000Y-154925000D01*
X95925000Y-147675000D02*
X95600000Y-147675000D01*
X95925000Y-147675000D02*
X95925000Y-148000000D01*
X95925000Y-154700000D02*
X97350000Y-154700000D01*
X95925000Y-154925000D02*
X95600000Y-154925000D01*
X95925000Y-154925000D02*
X95925000Y-154700000D01*
D15*
X96925000Y-155450000D02*
G75*
G02*
X96425000Y-155450000I-250000J0D01*
G01*
X96425000Y-155450000D02*
G75*
G02*
X96925000Y-155450000I250000J0D01*
G01*
%TO.C,R8*%
X88865000Y-158777064D02*
X88865000Y-158322936D01*
X90335000Y-158777064D02*
X90335000Y-158322936D01*
%TO.C,C9*%
X78261252Y-149865000D02*
X77738748Y-149865000D01*
X78261252Y-151335000D02*
X77738748Y-151335000D01*
%TO.C,R14*%
X67365000Y-156972936D02*
X67365000Y-157427064D01*
X68835000Y-156972936D02*
X68835000Y-157427064D01*
%TO.C,C4*%
X68388748Y-149090000D02*
X69811252Y-149090000D01*
X68388748Y-150910000D02*
X69811252Y-150910000D01*
%TO.C,J6*%
D18*
X77882900Y-167994700D02*
X77882900Y-175157500D01*
X77882900Y-175157500D02*
X93529300Y-175157500D01*
X93529300Y-167994700D02*
X77882900Y-167994700D01*
X93529300Y-175157500D02*
X93529300Y-167994700D01*
%TO.C,C15*%
D15*
X87421252Y-127375000D02*
X86898748Y-127375000D01*
X87421252Y-128845000D02*
X86898748Y-128845000D01*
%TO.C,C11*%
X85165000Y-149038748D02*
X85165000Y-149561252D01*
X86635000Y-149038748D02*
X86635000Y-149561252D01*
%TO.C,Y1*%
D18*
X88258900Y-162522700D02*
X95701100Y-162522700D01*
X95701100Y-167577300D02*
X88258900Y-167577300D01*
X86391225Y-163498060D02*
G75*
G02*
X88385900Y-162522700I1994675J-1551940D01*
G01*
X88385900Y-167577300D02*
G75*
G02*
X86391225Y-166601940I0J2527300D01*
G01*
X95574099Y-162522700D02*
G75*
G02*
X97568775Y-163498060I3J-2527297D01*
G01*
X97568775Y-166601940D02*
G75*
G02*
X95574100Y-167577300I-1994677J1551945D01*
G01*
%TO.C,JP6*%
D15*
X97450000Y-156962500D02*
X99450000Y-156962500D01*
X97450000Y-159762500D02*
X97450000Y-156962500D01*
X99450000Y-156962500D02*
X99450000Y-159762500D01*
X99450000Y-159762500D02*
X97450000Y-159762500D01*
D19*
X98360000Y-160222500D02*
G75*
G02*
X98200000Y-160222500I-80000J0D01*
G01*
X98200000Y-160222500D02*
G75*
G02*
X98360000Y-160222500I80000J0D01*
G01*
X98724619Y-160222500D02*
G75*
G02*
X98564619Y-160222500I-80000J0D01*
G01*
X98564619Y-160222500D02*
G75*
G02*
X98724619Y-160222500I80000J0D01*
G01*
%TO.C,SW1*%
X77919478Y-160980000D02*
X77919478Y-164960000D01*
X77919478Y-164960000D02*
X78059478Y-164960000D01*
X78109478Y-160980000D02*
X77919478Y-160980000D01*
X78111572Y-164960000D02*
X77921572Y-164960000D01*
X80689478Y-160960000D02*
X81019478Y-160960000D01*
X80690522Y-164990000D02*
X81020522Y-164990000D01*
X81019478Y-160960000D02*
X81019478Y-164990000D01*
X81019478Y-164990000D02*
X80809478Y-164990000D01*
%TO.C,U2*%
D15*
X63211074Y-150156201D02*
X65031074Y-150156201D01*
X63211074Y-150206201D02*
X63211074Y-150156201D01*
X63211074Y-153276201D02*
X63211074Y-153226201D01*
X65031074Y-150156201D02*
X65031074Y-150206201D01*
X65031074Y-153226201D02*
X65031074Y-153276201D01*
X65031074Y-153276201D02*
X63211074Y-153276201D01*
X62671074Y-150206201D02*
X62431074Y-149876201D01*
X62911074Y-149876201D01*
X62671074Y-150206201D01*
G36*
X62671074Y-150206201D02*
G01*
X62431074Y-149876201D01*
X62911074Y-149876201D01*
X62671074Y-150206201D01*
G37*
%TO.C,R12*%
X70265000Y-157972936D02*
X70265000Y-158427064D01*
X71735000Y-157972936D02*
X71735000Y-158427064D01*
%TO.C,J8*%
X103010000Y-144940000D02*
X104280000Y-144940000D01*
%TO.C,JP1*%
X97210000Y-139260000D02*
X100010000Y-139260000D01*
X97210000Y-141260000D02*
X97210000Y-139260000D01*
X100010000Y-139260000D02*
X100010000Y-141260000D01*
X100010000Y-141260000D02*
X97210000Y-141260000D01*
%TO.C,D2*%
X90220000Y-136317500D02*
X90220000Y-134117500D01*
X92170000Y-136317500D02*
X92170000Y-134117500D01*
%TO.C,Laser1*%
D16*
X89800000Y-121025000D02*
X97200000Y-121025000D01*
X89800000Y-126775000D02*
X89800000Y-121025000D01*
X97200000Y-121025000D02*
X97200000Y-126775000D01*
X97200000Y-126775000D02*
X89800000Y-126775000D01*
D11*
X92260000Y-127380000D02*
G75*
G02*
X92060000Y-127380000I-100000J0D01*
G01*
X92060000Y-127380000D02*
G75*
G02*
X92260000Y-127380000I100000J0D01*
G01*
%TO.C,C18*%
D15*
X71538748Y-132465000D02*
X72061252Y-132465000D01*
X71538748Y-133935000D02*
X72061252Y-133935000D01*
%TO.C,R13*%
X67365000Y-153072936D02*
X67365000Y-153527064D01*
X68835000Y-153072936D02*
X68835000Y-153527064D01*
%TO.C,L1*%
D13*
X58010000Y-139700000D02*
X58010000Y-138600000D01*
X58010000Y-145600000D02*
X58010000Y-143500000D01*
X59010000Y-146600000D02*
X58010000Y-145600000D01*
X60010000Y-136600000D02*
X67010000Y-136600000D01*
X66010000Y-146600000D02*
X59010000Y-146600000D01*
X68010000Y-137600000D02*
X68010000Y-139700000D01*
X68010000Y-143500000D02*
X68010000Y-144600000D01*
X58010000Y-138600000D02*
G75*
G02*
X60010000Y-136600000I2000000J0D01*
G01*
X67010000Y-136600000D02*
G75*
G02*
X68010000Y-137600000I0J-1000000D01*
G01*
X68010000Y-144600000D02*
G75*
G02*
X66010000Y-146600000I-1999999J-1D01*
G01*
%TO.C,C13*%
D15*
X92021252Y-160645000D02*
X91498748Y-160645000D01*
X92021252Y-162115000D02*
X91498748Y-162115000D01*
%TO.C,C3*%
X64361252Y-148065000D02*
X63838748Y-148065000D01*
X64361252Y-149535000D02*
X63838748Y-149535000D01*
%TO.C,R5*%
X90455000Y-140027064D02*
X90455000Y-139572936D01*
X91925000Y-140027064D02*
X91925000Y-139572936D01*
%TO.C,C12*%
X82650000Y-150580000D02*
X82650000Y-148580000D01*
X84790000Y-148580000D02*
X84790000Y-150580000D01*
%TO.C,M1*%
X75000000Y-145300000D02*
X77000000Y-145300000D01*
X75000000Y-148100000D02*
X75000000Y-145300000D01*
X77000000Y-145300000D02*
X77000000Y-148100000D01*
X77000000Y-148100000D02*
X75000000Y-148100000D01*
%TO.C,U3*%
D16*
X69340000Y-129527500D02*
X89660000Y-129527500D01*
X69340000Y-144767500D02*
X69340000Y-129527500D01*
X89660000Y-129527500D02*
X89660000Y-144767500D01*
X89660000Y-144767500D02*
X69340000Y-144767500D01*
D11*
X70600000Y-145747500D02*
G75*
G02*
X70400000Y-145747500I-100000J0D01*
G01*
X70400000Y-145747500D02*
G75*
G02*
X70600000Y-145747500I100000J0D01*
G01*
%TO.C,R1*%
D15*
X94835000Y-136027064D02*
X94835000Y-135572936D01*
X96305000Y-136027064D02*
X96305000Y-135572936D01*
%TO.C,C6*%
X69330000Y-154500000D02*
X69330000Y-152500000D01*
X71470000Y-152500000D02*
X71470000Y-154500000D01*
%TO.C,U5*%
X69040000Y-161710000D02*
X69135000Y-161710000D01*
X69040000Y-165830000D02*
X69040000Y-161710000D01*
X69135000Y-165830000D02*
X69040000Y-165830000D01*
X74065000Y-161710000D02*
X74160000Y-161710000D01*
X74160000Y-161710000D02*
X74160000Y-165830000D01*
X74160000Y-165830000D02*
X74065000Y-165830000D01*
X74070000Y-161170000D02*
X74400000Y-160930000D01*
X74400000Y-161410000D01*
X74070000Y-161170000D01*
G36*
X74400000Y-161410000D02*
G01*
X74070000Y-161170000D01*
X74400000Y-160930000D01*
X74400000Y-161410000D01*
G37*
%TO.C,D1*%
X62300000Y-164297500D02*
X62300000Y-162097500D01*
X64250000Y-164297500D02*
X64250000Y-162097500D01*
%TO.C,C8*%
X71965000Y-153961252D02*
X71965000Y-153438748D01*
X73435000Y-153961252D02*
X73435000Y-153438748D01*
%TO.C,Thermistor1*%
D16*
X81500000Y-121025000D02*
X88900000Y-121025000D01*
X81500000Y-126775000D02*
X81500000Y-121025000D01*
X88900000Y-121025000D02*
X88900000Y-126775000D01*
X88900000Y-126775000D02*
X81500000Y-126775000D01*
D11*
X83210001Y-127310000D02*
X83210001Y-127310000D01*
X83210001Y-127310000D01*
X83210001Y-127310000D01*
X83210001Y-127310000D01*
X83210001Y-127310000D01*
X83210001Y-127310001D01*
X83210001Y-127310001D01*
X83210001Y-127310001D01*
X83210001Y-127310001D01*
X83210001Y-127310001D01*
X83210001Y-127310001D01*
X83210001Y-127310001D01*
X83210000Y-127310001D01*
X83210000Y-127310001D01*
X83210000Y-127310001D01*
X83210000Y-127310001D01*
X83210000Y-127310001D01*
X83210000Y-127310001D01*
X83210000Y-127310001D01*
X83210000Y-127310001D01*
X83210000Y-127310001D01*
X83210000Y-127310001D01*
X83210000Y-127310001D01*
X83210000Y-127310001D01*
X83209999Y-127310001D01*
X83209999Y-127310001D01*
X83209999Y-127310001D01*
X83209999Y-127310001D01*
X83209999Y-127310001D01*
X83209999Y-127310001D01*
X83209999Y-127310000D01*
X83209999Y-127310000D01*
X83209999Y-127310000D01*
X83209999Y-127310000D01*
X83209999Y-127310000D01*
X83209999Y-127310000D01*
X83209999Y-127310000D02*
X83209999Y-127310000D01*
X83209999Y-127310000D01*
X83209999Y-127310000D01*
X83209999Y-127310000D01*
X83209999Y-127310000D01*
X83209999Y-127310000D01*
X83209999Y-127309999D01*
X83209999Y-127309999D01*
X83209999Y-127309999D01*
X83209999Y-127309999D01*
X83209999Y-127309999D01*
X83210000Y-127309999D01*
X83210000Y-127309999D01*
X83210000Y-127309999D01*
X83210000Y-127309999D01*
X83210000Y-127309999D01*
X83210000Y-127309999D01*
X83210000Y-127309999D01*
X83210000Y-127309999D01*
X83210000Y-127309999D01*
X83210000Y-127309999D01*
X83210000Y-127309999D01*
X83210000Y-127309999D01*
X83210001Y-127309999D01*
X83210001Y-127309999D01*
X83210001Y-127309999D01*
X83210001Y-127309999D01*
X83210001Y-127309999D01*
X83210001Y-127309999D01*
X83210001Y-127310000D01*
X83210001Y-127310000D01*
X83210001Y-127310000D01*
X83210001Y-127310000D01*
X83210001Y-127310000D01*
X83210001Y-127310000D01*
X83210001Y-127310000D01*
%TO.C,R7*%
D15*
X95872936Y-141865000D02*
X96327064Y-141865000D01*
X95872936Y-143335000D02*
X96327064Y-143335000D01*
%TO.C,J1*%
D16*
X100575000Y-134220000D02*
X106325000Y-134220000D01*
X100575000Y-144120000D02*
X100575000Y-134220000D01*
X106325000Y-134220000D02*
X106325000Y-144120000D01*
X106325000Y-144120000D02*
X100575000Y-144120000D01*
%TO.C,M2*%
D15*
X77731250Y-145289654D02*
X79731250Y-145289654D01*
X77731250Y-148089654D02*
X77731250Y-145289654D01*
X79731250Y-145289654D02*
X79731250Y-148089654D01*
X79731250Y-148089654D02*
X77731250Y-148089654D01*
%TO.C,C1*%
X57255000Y-151921252D02*
X57255000Y-151398748D01*
X58725000Y-151921252D02*
X58725000Y-151398748D01*
%TO.C,C7*%
X91055000Y-158258748D02*
X91055000Y-158781252D01*
X92525000Y-158258748D02*
X92525000Y-158781252D01*
%TO.C,C5*%
X68388748Y-146690000D02*
X69811252Y-146690000D01*
X68388748Y-148510000D02*
X69811252Y-148510000D01*
%TO.C,JP4*%
X94750000Y-156962500D02*
X96750000Y-156962500D01*
X94750000Y-159762500D02*
X94750000Y-156962500D01*
X96750000Y-156962500D02*
X96750000Y-159762500D01*
X96750000Y-159762500D02*
X94750000Y-159762500D01*
D19*
X95830000Y-160222500D02*
G75*
G02*
X95670000Y-160222500I-80000J0D01*
G01*
X95670000Y-160222500D02*
G75*
G02*
X95830000Y-160222500I80000J0D01*
G01*
%TO.C,C10*%
D15*
X95838748Y-144065000D02*
X96361252Y-144065000D01*
X95838748Y-145535000D02*
X96361252Y-145535000D01*
%TO.C,C17*%
D16*
X80500000Y-137300000D02*
G75*
G02*
X72500000Y-137300000I-4000000J0D01*
G01*
X72500000Y-137300000D02*
G75*
G02*
X80500000Y-137300000I4000000J0D01*
G01*
D11*
X76600000Y-142050000D02*
G75*
G02*
X76400000Y-142050000I-100000J0D01*
G01*
X76400000Y-142050000D02*
G75*
G02*
X76600000Y-142050000I100000J0D01*
G01*
%TO.C,C14*%
D15*
X95438748Y-162035000D02*
X95961252Y-162035000D01*
%TO.C,C16*%
D11*
X56950000Y-153230000D02*
G75*
G02*
X56750000Y-153230000I-100000J0D01*
G01*
X56750000Y-153230000D02*
G75*
G02*
X56950000Y-153230000I100000J0D01*
G01*
D16*
X60850000Y-157980000D02*
G75*
G02*
X52850000Y-157980000I-4000000J0D01*
G01*
X52850000Y-157980000D02*
G75*
G02*
X60850000Y-157980000I4000000J0D01*
G01*
%TO.C,J3*%
D18*
X61349000Y-168052000D02*
X61349000Y-175214800D01*
X61349000Y-175214800D02*
X76995400Y-175214800D01*
X76995400Y-168052000D02*
X61349000Y-168052000D01*
X76995400Y-175214800D02*
X76995400Y-168052000D01*
%TO.C,C23*%
D15*
X74965000Y-166161252D02*
X74965000Y-165638748D01*
X76435000Y-166161252D02*
X76435000Y-165638748D01*
%TO.C,U4*%
X74140000Y-151770000D02*
X80150000Y-151770000D01*
X76390000Y-158590000D02*
X80150000Y-158590000D01*
X80150000Y-151770000D02*
X80150000Y-153030000D01*
X80150000Y-158590000D02*
X80150000Y-157330000D01*
%TO.C,R6*%
X90565000Y-130227064D02*
X90565000Y-129772936D01*
X92035000Y-130227064D02*
X92035000Y-129772936D01*
%TO.C,J5*%
D16*
X61595000Y-121130000D02*
X67345000Y-121130000D01*
X61595000Y-133530000D02*
X61595000Y-121130000D01*
X67345000Y-121130000D02*
X67345000Y-133530000D01*
X67345000Y-133530000D02*
X61595000Y-133530000D01*
D11*
X68110125Y-133089875D02*
G75*
G02*
X67909875Y-133089875I-100125J0D01*
G01*
X67909875Y-133089875D02*
G75*
G02*
X68110125Y-133089875I100125J0D01*
G01*
%TO.C,Q2*%
D15*
X95290000Y-130402500D02*
X96290000Y-130402500D01*
X95290000Y-131922500D02*
X95290000Y-130402500D01*
X95340000Y-131922500D02*
X95290000Y-131922500D01*
X97240000Y-131922500D02*
X96460000Y-131922500D01*
X97410000Y-130402500D02*
X98410000Y-130402500D01*
X98410000Y-130402500D02*
X98410000Y-131922500D01*
X98410000Y-131922500D02*
X98360000Y-131922500D01*
X96470000Y-132462500D02*
X96800000Y-132222500D01*
X96800000Y-132702500D01*
X96470000Y-132462500D01*
G36*
X96800000Y-132702500D02*
G01*
X96470000Y-132462500D01*
X96800000Y-132222500D01*
X96800000Y-132702500D01*
G37*
%TO.C,M0*%
X72300000Y-145300000D02*
X74300000Y-145300000D01*
X72300000Y-148100000D02*
X72300000Y-145300000D01*
X74300000Y-145300000D02*
X74300000Y-148100000D01*
X74300000Y-148100000D02*
X72300000Y-148100000D01*
%TO.C,JP5*%
X100150000Y-156962500D02*
X102150000Y-156962500D01*
X100150000Y-159762500D02*
X100150000Y-156962500D01*
X102150000Y-156962500D02*
X102150000Y-159762500D01*
X102150000Y-159762500D02*
X100150000Y-159762500D01*
D19*
X100865000Y-160222500D02*
G75*
G02*
X100705000Y-160222500I-80000J0D01*
G01*
X100705000Y-160222500D02*
G75*
G02*
X100865000Y-160222500I80000J0D01*
G01*
X101230000Y-160222500D02*
G75*
G02*
X101070000Y-160222500I-80000J0D01*
G01*
X101070000Y-160222500D02*
G75*
G02*
X101230000Y-160222500I80000J0D01*
G01*
X101595000Y-160222500D02*
G75*
G02*
X101435000Y-160222500I-80000J0D01*
G01*
X101435000Y-160222500D02*
G75*
G02*
X101595000Y-160222500I80000J0D01*
G01*
%TO.C,R16*%
D15*
X63665000Y-157887064D02*
X63665000Y-157432936D01*
X65135000Y-157887064D02*
X65135000Y-157432936D01*
%TO.C,R15*%
X94365000Y-171432936D02*
X94365000Y-171887064D01*
X95835000Y-171432936D02*
X95835000Y-171887064D01*
%TO.C,R17*%
X61395000Y-157422936D02*
X61395000Y-157877064D01*
X62865000Y-157422936D02*
X62865000Y-157877064D01*
%TD*%
M02*
