%TF.GenerationSoftware,KiCad,Pcbnew,10.0.3*%
%TF.CreationDate,2026-07-04T03:34:42+05:30*%
%TF.ProjectId,Urumi-Nema-17-Node,5572756d-692d-44e6-956d-612d31372d4e,rev?*%
%TF.SameCoordinates,Original*%
%TF.FileFunction,Copper,L1,Top*%
%TF.FilePolarity,Positive*%
%FSLAX46Y46*%
G04 Gerber Fmt 4.6, Leading zero omitted, Abs format (unit mm)*
G04 Created by KiCad (PCBNEW 10.0.3) date 2026-07-04 03:34:42*
%MOMM*%
%LPD*%
G01*
G04 APERTURE LIST*
G04 Aperture macros list*
%AMRoundRect*
0 Rectangle with rounded corners*
0 $1 Rounding radius*
0 $2 $3 $4 $5 $6 $7 $8 $9 X,Y pos of 4 corners*
0 Add a 4 corners polygon primitive as box body*
4,1,4,$2,$3,$4,$5,$6,$7,$8,$9,$2,$3,0*
0 Add four circle primitives for the rounded corners*
1,1,$1+$1,$2,$3*
1,1,$1+$1,$4,$5*
1,1,$1+$1,$6,$7*
1,1,$1+$1,$8,$9*
0 Add four rect primitives between the rounded corners*
20,1,$1+$1,$2,$3,$4,$5,0*
20,1,$1+$1,$4,$5,$6,$7,0*
20,1,$1+$1,$6,$7,$8,$9,0*
20,1,$1+$1,$8,$9,$2,$3,0*%
G04 Aperture macros list end*
%TA.AperFunction,SMDPad,CuDef*%
%ADD10RoundRect,0.250000X0.475000X-0.337500X0.475000X0.337500X-0.475000X0.337500X-0.475000X-0.337500X0*%
%TD*%
%TA.AperFunction,SMDPad,CuDef*%
%ADD11RoundRect,0.250000X0.450000X-0.350000X0.450000X0.350000X-0.450000X0.350000X-0.450000X-0.350000X0*%
%TD*%
%TA.AperFunction,ComponentPad*%
%ADD12R,1.800000X1.800000*%
%TD*%
%TA.AperFunction,ComponentPad*%
%ADD13C,1.750000*%
%TD*%
%TA.AperFunction,SMDPad,CuDef*%
%ADD14R,1.600000X0.500000*%
%TD*%
%TA.AperFunction,SMDPad,CuDef*%
%ADD15R,0.500000X1.600000*%
%TD*%
%TA.AperFunction,SMDPad,CuDef*%
%ADD16RoundRect,0.250000X0.337500X0.475000X-0.337500X0.475000X-0.337500X-0.475000X0.337500X-0.475000X0*%
%TD*%
%TA.AperFunction,SMDPad,CuDef*%
%ADD17RoundRect,0.250000X-0.450000X0.350000X-0.450000X-0.350000X0.450000X-0.350000X0.450000X0.350000X0*%
%TD*%
%TA.AperFunction,SMDPad,CuDef*%
%ADD18RoundRect,0.250000X-0.412500X-0.650000X0.412500X-0.650000X0.412500X0.650000X-0.412500X0.650000X0*%
%TD*%
%TA.AperFunction,ComponentPad*%
%ADD19C,3.000000*%
%TD*%
%TA.AperFunction,SMDPad,CuDef*%
%ADD20RoundRect,0.250000X-0.475000X0.337500X-0.475000X-0.337500X0.475000X-0.337500X0.475000X0.337500X0*%
%TD*%
%TA.AperFunction,SMDPad,CuDef*%
%ADD21R,5.559382X2.473728*%
%TD*%
%TA.AperFunction,SMDPad,CuDef*%
%ADD22R,5.483025X2.468109*%
%TD*%
%TA.AperFunction,SMDPad,CuDef*%
%ADD23R,1.500000X1.000000*%
%TD*%
%TA.AperFunction,SMDPad,CuDef*%
%ADD24R,1.500000X1.200000*%
%TD*%
%TA.AperFunction,SMDPad,CuDef*%
%ADD25RoundRect,0.150000X-0.512500X-0.150000X0.512500X-0.150000X0.512500X0.150000X-0.512500X0.150000X0*%
%TD*%
%TA.AperFunction,SMDPad,CuDef*%
%ADD26R,2.500000X1.700000*%
%TD*%
%TA.AperFunction,SMDPad,CuDef*%
%ADD27R,1.000000X1.500000*%
%TD*%
%TA.AperFunction,ComponentPad*%
%ADD28C,3.300000*%
%TD*%
%TA.AperFunction,SMDPad,CuDef*%
%ADD29R,1.700000X1.400000*%
%TD*%
%TA.AperFunction,ComponentPad*%
%ADD30R,1.850000X1.850000*%
%TD*%
%TA.AperFunction,SMDPad,CuDef*%
%ADD31RoundRect,0.250000X-0.337500X-0.475000X0.337500X-0.475000X0.337500X0.475000X-0.337500X0.475000X0*%
%TD*%
%TA.AperFunction,SMDPad,CuDef*%
%ADD32R,1.600000X3.200000*%
%TD*%
%TA.AperFunction,SMDPad,CuDef*%
%ADD33R,1.600000X1.200000*%
%TD*%
%TA.AperFunction,ComponentPad*%
%ADD34R,1.650000X1.650000*%
%TD*%
%TA.AperFunction,ComponentPad*%
%ADD35C,1.650000*%
%TD*%
%TA.AperFunction,SMDPad,CuDef*%
%ADD36RoundRect,0.150000X-0.150000X0.825000X-0.150000X-0.825000X0.150000X-0.825000X0.150000X0.825000X0*%
%TD*%
%TA.AperFunction,SMDPad,CuDef*%
%ADD37RoundRect,0.250000X-0.350000X-0.450000X0.350000X-0.450000X0.350000X0.450000X-0.350000X0.450000X0*%
%TD*%
%TA.AperFunction,ComponentPad*%
%ADD38R,1.508000X1.508000*%
%TD*%
%TA.AperFunction,ComponentPad*%
%ADD39C,2.000000*%
%TD*%
%TA.AperFunction,ComponentPad*%
%ADD40R,2.000000X2.000000*%
%TD*%
%TA.AperFunction,ComponentPad*%
%ADD41C,1.700000*%
%TD*%
%TA.AperFunction,ComponentPad*%
%ADD42R,1.700000X1.700000*%
%TD*%
%TA.AperFunction,SMDPad,CuDef*%
%ADD43R,2.000000X1.500000*%
%TD*%
%TA.AperFunction,SMDPad,CuDef*%
%ADD44R,2.000000X3.800000*%
%TD*%
%TA.AperFunction,ComponentPad*%
%ADD45C,1.508000*%
%TD*%
%TA.AperFunction,SMDPad,CuDef*%
%ADD46RoundRect,0.150000X0.150000X-0.587500X0.150000X0.587500X-0.150000X0.587500X-0.150000X-0.587500X0*%
%TD*%
%TA.AperFunction,ViaPad*%
%ADD47C,0.812800*%
%TD*%
%TA.AperFunction,Conductor*%
%ADD48C,0.609600*%
%TD*%
%TA.AperFunction,Conductor*%
%ADD49C,0.406400*%
%TD*%
%TA.AperFunction,Conductor*%
%ADD50C,0.812800*%
%TD*%
%TA.AperFunction,Conductor*%
%ADD51C,0.254000*%
%TD*%
%TA.AperFunction,Conductor*%
%ADD52C,0.203200*%
%TD*%
%TA.AperFunction,Conductor*%
%ADD53C,0.508000*%
%TD*%
G04 APERTURE END LIST*
D10*
%TO.P,C2,1,~_1*%
%TO.N,PWR_24V*%
X60140000Y-152677500D03*
%TO.P,C2,2,~_2*%
%TO.N,PWR_GND*%
X60140000Y-150602500D03*
%TD*%
D11*
%TO.P,R2,1*%
%TO.N,Net-(D1-A)*%
X86570000Y-159510000D03*
%TO.P,R2,2*%
%TO.N,BLUE_LED*%
X86570000Y-157510000D03*
%TD*%
D12*
%TO.P,J4,1,1_1*%
%TO.N,B2*%
X70770000Y-123455000D03*
D13*
%TO.P,J4,2,2_2*%
%TO.N,B1*%
X73270000Y-123455000D03*
%TO.P,J4,3,3_3*%
%TO.N,A1*%
X75770000Y-123455000D03*
%TO.P,J4,4,4_4*%
%TO.N,A2*%
X78270000Y-123455000D03*
%TD*%
D14*
%TO.P,U1,1,PA3_1*%
%TO.N,/DIP3*%
X96550000Y-154100000D03*
%TO.P,U1,2,PA4_2*%
%TO.N,SDI{slash}MOSI*%
X96550000Y-153300000D03*
%TO.P,U1,3,PA5_3*%
%TO.N,SDO{slash}MISO*%
X96550000Y-152500000D03*
%TO.P,U1,4,PA6_4*%
%TO.N,SCK*%
X96550000Y-151700000D03*
%TO.P,U1,5,PA7_5*%
%TO.N,CS*%
X96550000Y-150900000D03*
%TO.P,U1,6,PC0_6*%
%TO.N,TX1_Debug*%
X96550000Y-150100000D03*
%TO.P,U1,7,PC1_7*%
%TO.N,RX1_Debug*%
X96550000Y-149300000D03*
%TO.P,U1,8,PC2_8*%
%TO.N,/DIP2*%
X96550000Y-148500000D03*
D15*
%TO.P,U1,9,PC3_9*%
%TO.N,unconnected-(U1-PC3-Pad9)*%
X95100000Y-147050000D03*
%TO.P,U1,10,VDDIO2_10*%
%TO.N,PWR_5V*%
X94300000Y-147050000D03*
%TO.P,U1,11,PD1_11*%
%TO.N,LIMIT_SWITCH*%
X93500000Y-147050000D03*
%TO.P,U1,12,PD2_12*%
%TO.N,Laser*%
X92700000Y-147050000D03*
%TO.P,U1,13,PD3_13*%
%TO.N,Thermistor*%
X91900000Y-147050000D03*
%TO.P,U1,14,PD4_14*%
%TO.N,PULSE{slash}STEP*%
X91100000Y-147050000D03*
%TO.P,U1,15,PD5_15*%
%TO.N,DIR*%
X90300000Y-147050000D03*
%TO.P,U1,16,PD6_16*%
%TO.N,EN*%
X89500000Y-147050000D03*
D14*
%TO.P,U1,17,PD7_17*%
%TO.N,unconnected-(U1-PD7-Pad17)*%
X88050000Y-148500000D03*
%TO.P,U1,18,AVDD_18*%
%TO.N,PWR_5V*%
X88050000Y-149300000D03*
%TO.P,U1,19,GND_19*%
%TO.N,PWR_GND*%
X88050000Y-150100000D03*
%TO.P,U1,20,PF0_(XTAL32K1)_20*%
%TO.N,DI{slash}TX2*%
X88050000Y-150900000D03*
%TO.P,U1,21,PF1_(XTAL32K2)_21*%
%TO.N,RO{slash}RX2*%
X88050000Y-151700000D03*
%TO.P,U1,22,PF2_22*%
%TO.N,RED_LED*%
X88050000Y-152500000D03*
%TO.P,U1,23,PF3_23*%
%TO.N,RS_EN{slash}XDIR2*%
X88050000Y-153300000D03*
%TO.P,U1,24,PF4_24*%
%TO.N,BLUE_LED*%
X88050000Y-154100000D03*
D15*
%TO.P,U1,25,PF5_25*%
%TO.N,GREEN_LED*%
X89500000Y-155550000D03*
%TO.P,U1,26,PF6_26*%
%TO.N,RST*%
X90300000Y-155550000D03*
%TO.P,U1,27,UPDI_27*%
%TO.N,UPDI*%
X91100000Y-155550000D03*
%TO.P,U1,28,VDD_28*%
%TO.N,PWR_5V*%
X91900000Y-155550000D03*
%TO.P,U1,29,GND_29*%
%TO.N,PWR_GND*%
X92700000Y-155550000D03*
%TO.P,U1,30,PA0_(XTALHF1)_30*%
%TO.N,XTAL1*%
X93500000Y-155550000D03*
%TO.P,U1,31,PA1_(XTALHF2)_31*%
%TO.N,XTAL2*%
X94300000Y-155550000D03*
%TO.P,U1,32,PA2_32*%
%TO.N,/DIP1*%
X95100000Y-155550000D03*
%TD*%
D11*
%TO.P,R8,1,~_1*%
%TO.N,PWR_5V*%
X89600000Y-159550000D03*
%TO.P,R8,2,~_2*%
%TO.N,RST*%
X89600000Y-157550000D03*
%TD*%
D16*
%TO.P,C9,1,~_1*%
%TO.N,PWR_5V*%
X79037500Y-150600000D03*
%TO.P,C9,2,~_2*%
%TO.N,PWR_GND*%
X76962500Y-150600000D03*
%TD*%
D17*
%TO.P,R14,1*%
%TO.N,Net-(U2-FB)*%
X68100000Y-156200000D03*
%TO.P,R14,2*%
%TO.N,PWR_GND*%
X68100000Y-158200000D03*
%TD*%
D18*
%TO.P,C4,1,~_1*%
%TO.N,/Buck Converter/V_OUT*%
X67537500Y-150000000D03*
%TO.P,C4,2,~_2*%
%TO.N,PWR_GND*%
X70662500Y-150000000D03*
%TD*%
D19*
%TO.P,J6,1*%
%TO.N,B*%
X90963900Y-171042700D03*
%TO.P,J6,2*%
%TO.N,A*%
X87458700Y-171042700D03*
%TO.P,J6,3*%
%TO.N,PWR_24V*%
X83953500Y-171042700D03*
%TO.P,J6,4*%
%TO.N,PWR_GND*%
X80473700Y-171042700D03*
%TD*%
D16*
%TO.P,C15,1*%
%TO.N,Thermistor*%
X88337500Y-128100000D03*
%TO.P,C15,2*%
%TO.N,PWR_GND*%
X86262500Y-128100000D03*
%TD*%
D20*
%TO.P,C11,1*%
%TO.N,PWR_5V*%
X85900000Y-148262500D03*
%TO.P,C11,2*%
%TO.N,PWR_GND*%
X85900000Y-150337500D03*
%TD*%
D21*
%TO.P,Y1,1,1_1*%
%TO.N,XTAL2*%
X96893291Y-165032336D03*
D22*
%TO.P,Y1,2,2_2*%
%TO.N,XTAL1*%
X87104888Y-165035143D03*
%TD*%
D23*
%TO.P,JP6,1,A_1*%
%TO.N,/DIP2*%
X98450000Y-157712500D03*
%TO.P,JP6,2,B_2*%
%TO.N,PWR_5V*%
X98450000Y-159012500D03*
%TD*%
D24*
%TO.P,SW1,1,1_1*%
%TO.N,PWR_GND*%
X79449478Y-160620000D03*
%TO.P,SW1,2,2_2*%
%TO.N,RST*%
X79449478Y-165380000D03*
%TD*%
D25*
%TO.P,U2,1,GND_1*%
%TO.N,PWR_GND*%
X62983574Y-150766201D03*
%TO.P,U2,2,SW_2*%
%TO.N,Net-(U2-SW)*%
X62983574Y-151716201D03*
%TO.P,U2,3,VIN_3*%
%TO.N,PWR_24V*%
X62983574Y-152666201D03*
%TO.P,U2,4,FB_4*%
%TO.N,Net-(U2-FB)*%
X65258574Y-152666201D03*
%TO.P,U2,5,EN_5*%
%TO.N,/Buck Converter/EN*%
X65258574Y-151716201D03*
%TO.P,U2,6,BOOT_6*%
%TO.N,Net-(U2-BOOT)*%
X65258574Y-150766201D03*
%TD*%
D17*
%TO.P,R12,1,~_1*%
%TO.N,PWR_GND*%
X71000000Y-157200000D03*
%TO.P,R12,2,~_2*%
%TO.N,RS_EN{slash}XDIR2*%
X71000000Y-159200000D03*
%TD*%
D26*
%TO.P,J8,1,Pin_1_1*%
%TO.N,PWR_GND*%
X104280000Y-146210000D03*
%TO.P,J8,2,Pin_2_2*%
%TO.N,UPDI*%
X104280000Y-148750000D03*
%TO.P,J8,3,Pin_3_3*%
%TO.N,Net-(J8-Pin_3)*%
X104280000Y-151290000D03*
%TO.P,J8,4,Pin_4_4*%
%TO.N,RX1_Debug*%
X104280000Y-153830000D03*
%TO.P,J8,5,Pin_5_5*%
%TO.N,TX1_Debug*%
X104280000Y-156370000D03*
%TD*%
D27*
%TO.P,JP1,1,A_1*%
%TO.N,PWR_5V*%
X97960000Y-140260000D03*
%TO.P,JP1,2,B_2*%
%TO.N,Net-(J8-Pin_3)*%
X99260000Y-140260000D03*
%TD*%
D28*
%TO.P,H1,*%
%TO.N,*%
X104910000Y-163870000D03*
%TD*%
D29*
%TO.P,D2,1,K_1*%
%TO.N,Net-(D2-K)*%
X91170000Y-136917500D03*
%TO.P,D2,2,A_2*%
%TO.N,PWR_5V*%
X91170000Y-133517500D03*
%TD*%
D30*
%TO.P,Laser1,1,1_1*%
%TO.N,PWR_5V*%
X92250000Y-123375000D03*
D13*
%TO.P,Laser1,2,2_2*%
%TO.N,Net-(Q2-C)*%
X94750000Y-123375000D03*
%TD*%
D31*
%TO.P,C18,1*%
%TO.N,PWR_24V*%
X70762500Y-133200000D03*
%TO.P,C18,2*%
%TO.N,PWR_GND*%
X72837500Y-133200000D03*
%TD*%
D17*
%TO.P,R13,1*%
%TO.N,/Buck Converter/V_OUT*%
X68100000Y-152300000D03*
%TO.P,R13,2*%
%TO.N,Net-(U2-FB)*%
X68100000Y-154300000D03*
%TD*%
D32*
%TO.P,L1,1,~_1*%
%TO.N,Net-(U2-SW)*%
X58560000Y-141600000D03*
%TO.P,L1,2,~_2*%
%TO.N,/Buck Converter/V_OUT*%
X67460000Y-141600000D03*
%TD*%
D16*
%TO.P,C13,1*%
%TO.N,XTAL1*%
X92797500Y-161380000D03*
%TO.P,C13,2*%
%TO.N,PWR_GND*%
X90722500Y-161380000D03*
%TD*%
%TO.P,C3,1,~_1*%
%TO.N,Net-(U2-BOOT)*%
X65137500Y-148800000D03*
%TO.P,C3,2,~_2*%
%TO.N,Net-(U2-SW)*%
X63062500Y-148800000D03*
%TD*%
D11*
%TO.P,R5,1,~_1*%
%TO.N,PWR_GND*%
X91190000Y-140800000D03*
%TO.P,R5,2,~_2*%
%TO.N,Net-(D2-K)*%
X91190000Y-138800000D03*
%TD*%
D28*
%TO.P,H4,*%
%TO.N,*%
X53910000Y-132070000D03*
%TD*%
D33*
%TO.P,C12,1*%
%TO.N,PWR_5V*%
X83720000Y-148080000D03*
%TO.P,C12,2*%
%TO.N,PWR_GND*%
X83720000Y-151080000D03*
%TD*%
D23*
%TO.P,M1,1,A_1*%
%TO.N,PWR_5V*%
X76000000Y-147350000D03*
%TO.P,M1,2,B_2*%
%TO.N,/M1*%
X76000000Y-146050000D03*
%TD*%
D34*
%TO.P,U3,1,~{EN}_1*%
%TO.N,EN*%
X70610000Y-143497500D03*
D35*
%TO.P,U3,2,M0_2*%
%TO.N,/M0*%
X73150000Y-143497500D03*
%TO.P,U3,3,M1_3*%
%TO.N,/M1*%
X75690000Y-143497500D03*
%TO.P,U3,4,M2_4*%
%TO.N,/M2*%
X78230000Y-143497500D03*
%TO.P,U3,5,~{RST}_5*%
%TO.N,PWR_5V*%
X80770000Y-143497500D03*
%TO.P,U3,6,~{SLP}_6*%
X83310000Y-143497500D03*
%TO.P,U3,7,STEP_7*%
%TO.N,PULSE{slash}STEP*%
X85850000Y-143497500D03*
%TO.P,U3,8,DIR_8*%
%TO.N,DIR*%
X88390000Y-143497500D03*
%TO.P,U3,9,GND_9*%
%TO.N,PWR_GND*%
X88390000Y-130797500D03*
%TO.P,U3,10,~{FLT}_10*%
%TO.N,FAULT*%
X85850000Y-130797500D03*
%TO.P,U3,11,A2_11*%
%TO.N,A2*%
X83310000Y-130797500D03*
%TO.P,U3,12,A1_12*%
%TO.N,A1*%
X80770000Y-130797500D03*
%TO.P,U3,13,B1_13*%
%TO.N,B1*%
X78230000Y-130797500D03*
%TO.P,U3,14,B2_14*%
%TO.N,B2*%
X75690000Y-130797500D03*
%TO.P,U3,15,GND_MOT_15*%
%TO.N,PWR_GND*%
X73150000Y-130797500D03*
%TO.P,U3,16,VMOT_16*%
%TO.N,PWR_24V*%
X70610000Y-130797500D03*
%TD*%
D11*
%TO.P,R1,1*%
%TO.N,Laser*%
X95400000Y-136800000D03*
%TO.P,R1,2*%
%TO.N,Net-(Q2-B)*%
X95400000Y-134800000D03*
%TD*%
D33*
%TO.P,C6,1,~_1*%
%TO.N,/Buck Converter/V_OUT*%
X70400000Y-152000000D03*
%TO.P,C6,2,~_2*%
%TO.N,Net-(U2-FB)*%
X70400000Y-155000000D03*
%TD*%
D36*
%TO.P,U5,1,RO_1*%
%TO.N,RO{slash}RX2*%
X73505000Y-161295000D03*
%TO.P,U5,2,~{RE}_2*%
%TO.N,RS_EN{slash}XDIR2*%
X72235000Y-161295000D03*
%TO.P,U5,3,DE_3*%
X70965000Y-161295000D03*
%TO.P,U5,4,DI_4*%
%TO.N,DI{slash}TX2*%
X69695000Y-161295000D03*
%TO.P,U5,5,GND_5*%
%TO.N,PWR_GND*%
X69695000Y-166245000D03*
%TO.P,U5,6,A_6*%
%TO.N,A*%
X70965000Y-166245000D03*
%TO.P,U5,7,B_7*%
%TO.N,B*%
X72235000Y-166245000D03*
%TO.P,U5,8,VCC_8*%
%TO.N,PWR_5V*%
X73505000Y-166245000D03*
%TD*%
D29*
%TO.P,D1,1,K_1*%
%TO.N,PWR_GND*%
X63250000Y-164897500D03*
%TO.P,D1,2,A_2*%
%TO.N,Net-(D1-A)*%
X63250000Y-161497500D03*
%TD*%
D10*
%TO.P,C8,1,~_1*%
%TO.N,/Buck Converter/V_OUT*%
X72700000Y-154737500D03*
%TO.P,C8,2,~_2*%
%TO.N,PWR_GND*%
X72700000Y-152662500D03*
%TD*%
D30*
%TO.P,Thermistor1,1,1_1*%
%TO.N,PWR_GND*%
X83950000Y-123375000D03*
D13*
%TO.P,Thermistor1,2,2_2*%
%TO.N,Thermistor*%
X86450000Y-123375000D03*
%TD*%
D37*
%TO.P,R7,1,~_1*%
%TO.N,LIMIT_SWITCH*%
X95100000Y-142600000D03*
%TO.P,R7,2,~_2*%
%TO.N,PWR_5V*%
X97100000Y-142600000D03*
%TD*%
D28*
%TO.P,H3,*%
%TO.N,*%
X53910000Y-163870000D03*
%TD*%
D38*
%TO.P,J1,1,1_1*%
%TO.N,PWR_GND*%
X103975000Y-136670000D03*
D13*
%TO.P,J1,2,2_2*%
%TO.N,LIMIT_SWITCH*%
X103975000Y-139170000D03*
%TO.P,J1,3,3_3*%
%TO.N,PWR_5V*%
X103975000Y-141670000D03*
%TD*%
D23*
%TO.P,M2,1,A_1*%
%TO.N,PWR_5V*%
X78731250Y-147339654D03*
%TO.P,M2,2,B_2*%
%TO.N,/M2*%
X78731250Y-146039654D03*
%TD*%
D10*
%TO.P,C1,1,~_1*%
%TO.N,PWR_24V*%
X57990000Y-152697500D03*
%TO.P,C1,2,~_2*%
%TO.N,PWR_GND*%
X57990000Y-150622500D03*
%TD*%
D20*
%TO.P,C7,1*%
%TO.N,PWR_5V*%
X91790000Y-157482500D03*
%TO.P,C7,2*%
%TO.N,PWR_GND*%
X91790000Y-159557500D03*
%TD*%
D18*
%TO.P,C5,1,~_1*%
%TO.N,/Buck Converter/V_OUT*%
X67537500Y-147600000D03*
%TO.P,C5,2,~_2*%
%TO.N,PWR_GND*%
X70662500Y-147600000D03*
%TD*%
D23*
%TO.P,JP4,1,A_1*%
%TO.N,PWR_5V*%
X95750000Y-159012500D03*
%TO.P,JP4,2,B_2*%
%TO.N,/DIP1*%
X95750000Y-157712500D03*
%TD*%
D31*
%TO.P,C10,1*%
%TO.N,PWR_5V*%
X95062500Y-144800000D03*
%TO.P,C10,2*%
%TO.N,PWR_GND*%
X97137500Y-144800000D03*
%TD*%
D39*
%TO.P,C17,N,~_N*%
%TO.N,PWR_GND*%
X76500000Y-134800000D03*
D40*
%TO.P,C17,P,~_P*%
%TO.N,PWR_24V*%
X76500000Y-139800000D03*
%TD*%
D31*
%TO.P,C14,1*%
%TO.N,XTAL2*%
X94662500Y-161300000D03*
%TO.P,C14,2*%
%TO.N,PWR_GND*%
X96737500Y-161300000D03*
%TD*%
D41*
%TO.P,C16,N,~_N*%
%TO.N,PWR_GND*%
X56850000Y-160480000D03*
D42*
%TO.P,C16,P,~_P*%
%TO.N,PWR_24V*%
X56850000Y-155480000D03*
%TD*%
D19*
%TO.P,J3,1*%
%TO.N,B*%
X74430000Y-171100000D03*
%TO.P,J3,2*%
%TO.N,A*%
X70924800Y-171100000D03*
%TO.P,J3,3*%
%TO.N,PWR_24V*%
X67419600Y-171100000D03*
%TO.P,J3,4*%
%TO.N,PWR_GND*%
X63939800Y-171100000D03*
%TD*%
D10*
%TO.P,C23,1*%
%TO.N,PWR_GND*%
X75700000Y-166937500D03*
%TO.P,C23,2*%
%TO.N,PWR_5V*%
X75700000Y-164862500D03*
%TD*%
D43*
%TO.P,U4,1,GND_1*%
%TO.N,PWR_GND*%
X75090000Y-152880000D03*
%TO.P,U4,2,VO_2*%
%TO.N,PWR_5V*%
X75090000Y-155180000D03*
D44*
X81390000Y-155180000D03*
D43*
%TO.P,U4,3,VI_3*%
%TO.N,/Buck Converter/V_OUT*%
X75090000Y-157480000D03*
%TD*%
D11*
%TO.P,R6,1,~_1*%
%TO.N,PWR_5V*%
X91300000Y-131000000D03*
%TO.P,R6,2,~_2*%
%TO.N,Thermistor*%
X91300000Y-129000000D03*
%TD*%
D38*
%TO.P,J5,1,1_1*%
%TO.N,EN*%
X63945000Y-131080000D03*
D45*
%TO.P,J5,2,2_2*%
%TO.N,PULSE{slash}STEP*%
X63945000Y-128580000D03*
%TO.P,J5,3,3_3*%
%TO.N,DIR*%
X63945000Y-126080000D03*
%TO.P,J5,4,4_4*%
%TO.N,PWR_GND*%
X63945000Y-123580000D03*
%TD*%
D46*
%TO.P,Q2,1,B_1*%
%TO.N,Net-(Q2-B)*%
X95900000Y-132100000D03*
%TO.P,Q2,2,E_2*%
%TO.N,PWR_GND*%
X97800000Y-132100000D03*
%TO.P,Q2,3,C_3*%
%TO.N,Net-(Q2-C)*%
X96850000Y-130225000D03*
%TD*%
D23*
%TO.P,M0,1,A_1*%
%TO.N,PWR_5V*%
X73300000Y-147350000D03*
%TO.P,M0,2,B_2*%
%TO.N,/M0*%
X73300000Y-146050000D03*
%TD*%
%TO.P,JP5,1,A_1*%
%TO.N,PWR_5V*%
X101150000Y-159012500D03*
%TO.P,JP5,2,B_2*%
%TO.N,/DIP3*%
X101150000Y-157712500D03*
%TD*%
D11*
%TO.P,R16,1*%
%TO.N,/Buck Converter/EN*%
X64400000Y-158660000D03*
%TO.P,R16,2*%
%TO.N,PWR_GND*%
X64400000Y-156660000D03*
%TD*%
D28*
%TO.P,H2,*%
%TO.N,*%
X104910000Y-132070000D03*
%TD*%
D17*
%TO.P,R15,1,~_1*%
%TO.N,B*%
X95140000Y-169980000D03*
%TO.P,R15,2,~_2*%
%TO.N,A*%
X95140000Y-171980000D03*
%TD*%
%TO.P,R17,1*%
%TO.N,PWR_24V*%
X62130000Y-156650000D03*
%TO.P,R17,2*%
%TO.N,/Buck Converter/EN*%
X62130000Y-158650000D03*
%TD*%
D47*
%TO.N,PWR_24V*%
X67210000Y-135560000D03*
X63770000Y-135540000D03*
%TO.N,PWR_GND*%
X105400000Y-143700000D03*
X98200000Y-161700000D03*
X91140000Y-142030000D03*
X92900000Y-153800000D03*
X77340000Y-167340000D03*
X68100000Y-159400000D03*
X76900000Y-160570000D03*
X98285600Y-144800000D03*
X89700000Y-150500000D03*
X69100000Y-168300000D03*
X69200000Y-145500000D03*
X69290000Y-157250000D03*
%TO.N,/DIP2*%
X96180000Y-156170000D03*
X94870000Y-153740000D03*
%TO.N,PWR_5V*%
X82250000Y-166970000D03*
X83470000Y-137210000D03*
X87100000Y-162300000D03*
X103300000Y-159100000D03*
%TO.N,Thermistor*%
X93270000Y-126490000D03*
X90930000Y-126360000D03*
%TO.N,PULSE{slash}STEP*%
X71870000Y-136550000D03*
X68790000Y-135530000D03*
%TO.N,DIR*%
X88380000Y-140640000D03*
%TO.N,RST*%
X80830000Y-165790000D03*
X84560000Y-162590000D03*
%TO.N,UPDI*%
X100300000Y-147200000D03*
X91100000Y-150800000D03*
%TO.N,Net-(U2-SW)*%
X61600000Y-151800000D03*
X61500000Y-149100000D03*
%TO.N,/Buck Converter/EN*%
X66350000Y-160380000D03*
X66400000Y-151700000D03*
%TD*%
%TO.N,PWR_24V*%
D48*
X70562500Y-130750000D02*
X70610000Y-130797500D01*
X71350000Y-139800000D02*
X73500000Y-139800000D01*
X83953500Y-172606500D02*
X83953500Y-171042700D01*
X70750000Y-133187500D02*
X70762500Y-133200000D01*
X67210000Y-135660000D02*
X71350000Y-139800000D01*
X56040000Y-135540000D02*
X63770000Y-135540000D01*
X70762500Y-137232500D02*
X70762500Y-133200000D01*
X67419600Y-171100000D02*
X67419600Y-170149600D01*
X76500000Y-138440000D02*
X75940000Y-137880000D01*
X54510000Y-137070000D02*
X56040000Y-135540000D01*
X59310000Y-157940000D02*
X56850000Y-155480000D01*
X67419600Y-171100000D02*
X67630000Y-171310400D01*
X82570000Y-173990000D02*
X83953500Y-172606500D01*
X76500000Y-139800000D02*
X76500000Y-138440000D01*
X67210000Y-135560000D02*
X67210000Y-135660000D01*
X67419600Y-170149600D02*
X65140000Y-167870000D01*
X67630000Y-172730000D02*
X68890000Y-173990000D01*
X70750000Y-130937500D02*
X70750000Y-133187500D01*
X59310000Y-165510000D02*
X59310000Y-157940000D01*
X73500000Y-139800000D02*
X76500000Y-139800000D01*
X75940000Y-137880000D02*
X71410000Y-137880000D01*
X68890000Y-173990000D02*
X82570000Y-173990000D01*
X54510000Y-153140000D02*
X54510000Y-137070000D01*
X65140000Y-167870000D02*
X61670000Y-167870000D01*
X61670000Y-167870000D02*
X59310000Y-165510000D01*
X56850000Y-155480000D02*
X54510000Y-153140000D01*
X71410000Y-137880000D02*
X70762500Y-137232500D01*
X70610000Y-130797500D02*
X70750000Y-130937500D01*
X67630000Y-171310400D02*
X67630000Y-172730000D01*
%TO.N,PWR_GND*%
X72700000Y-152662500D02*
X75112500Y-152662500D01*
D49*
X92700000Y-156580000D02*
X92966600Y-156846600D01*
D48*
X83950000Y-123375000D02*
X83950000Y-123475000D01*
X86262500Y-128670000D02*
X88390000Y-130797500D01*
X104300000Y-146190000D02*
X104300000Y-144800000D01*
D50*
X68100000Y-158200000D02*
X68100000Y-159400000D01*
D48*
X75150000Y-152820000D02*
X75090000Y-152880000D01*
X72700000Y-150700000D02*
X72700000Y-152662500D01*
X85600000Y-151300000D02*
X85900000Y-151000000D01*
X70621074Y-146921074D02*
X69200000Y-145500000D01*
D51*
X64140000Y-151140000D02*
X64140000Y-154040000D01*
D48*
X70621074Y-147558574D02*
X70621074Y-146921074D01*
X63250000Y-164897500D02*
X69367500Y-164897500D01*
D51*
X62983574Y-150766201D02*
X63766201Y-150766201D01*
D48*
X74100000Y-134800000D02*
X76500000Y-134800000D01*
X75350000Y-151050000D02*
X75800000Y-150600000D01*
X84100000Y-151300000D02*
X85600000Y-151300000D01*
X86262500Y-128100000D02*
X86262500Y-128670000D01*
X91800000Y-159700000D02*
X90562500Y-160937500D01*
X69500000Y-167900000D02*
X69695000Y-167705000D01*
X97800000Y-133660000D02*
X100850000Y-136710000D01*
X97800000Y-132100000D02*
X97800000Y-133660000D01*
X104550000Y-136710000D02*
X105790000Y-137950000D01*
X72700000Y-130347500D02*
X73150000Y-130797500D01*
X70662500Y-147600000D02*
X70621074Y-147558574D01*
D49*
X92966600Y-156846600D02*
X92966600Y-158233400D01*
X76937500Y-166937500D02*
X77340000Y-167340000D01*
D48*
X70621074Y-149958574D02*
X70662500Y-150000000D01*
D49*
X92700000Y-154000000D02*
X92900000Y-153800000D01*
X86137500Y-150100000D02*
X85900000Y-150337500D01*
D48*
X75150000Y-152700000D02*
X75150000Y-152820000D01*
X69695000Y-165225000D02*
X69695000Y-166245000D01*
X75350000Y-152800000D02*
X75350000Y-151050000D01*
X91790000Y-159557500D02*
X91790000Y-159627500D01*
X83720000Y-151080000D02*
X83740000Y-151100000D01*
X75112500Y-152662500D02*
X75150000Y-152700000D01*
X70662500Y-150000000D02*
X71096299Y-149566201D01*
D49*
X89700000Y-150212800D02*
X89587200Y-150100000D01*
D48*
X73150000Y-133850000D02*
X74100000Y-134800000D01*
X60120000Y-150622500D02*
X60140000Y-150602500D01*
X83800000Y-123625000D02*
X83800000Y-124500000D01*
D49*
X91800000Y-159400000D02*
X91800000Y-159547500D01*
D48*
X91800000Y-159637500D02*
X91800000Y-159700000D01*
D51*
X63766201Y-150766201D02*
X64140000Y-151140000D01*
D48*
X70621074Y-147641426D02*
X70621074Y-149958574D01*
X104300000Y-144800000D02*
X105400000Y-143700000D01*
D52*
X79449478Y-160620000D02*
X76950000Y-160620000D01*
D48*
X105790000Y-143310000D02*
X105400000Y-143700000D01*
D49*
X92700000Y-155550000D02*
X92700000Y-154000000D01*
D48*
X62983574Y-150766201D02*
X60466201Y-150766201D01*
X83740000Y-151100000D02*
X83900000Y-151100000D01*
X104280000Y-146210000D02*
X104300000Y-146190000D01*
X83800000Y-124500000D02*
X86262500Y-126962500D01*
D49*
X91800000Y-159547500D02*
X91790000Y-159557500D01*
D48*
X91790000Y-159627500D02*
X91800000Y-159637500D01*
X75090000Y-152880000D02*
X75110000Y-152900000D01*
X100850000Y-136710000D02*
X104550000Y-136710000D01*
X69100000Y-157200000D02*
X71000000Y-157200000D01*
X57990000Y-150622500D02*
X60120000Y-150622500D01*
X85900000Y-151000000D02*
X85900000Y-150337500D01*
D49*
X89700000Y-150500000D02*
X89700000Y-150212800D01*
D48*
X83900000Y-151100000D02*
X84100000Y-151300000D01*
D49*
X75700000Y-166937500D02*
X76937500Y-166937500D01*
D48*
X86262500Y-126962500D02*
X86262500Y-128100000D01*
X75800000Y-150600000D02*
X76962500Y-150600000D01*
D51*
X64140000Y-154040000D02*
X64240000Y-154140000D01*
D48*
X68100000Y-158200000D02*
X69100000Y-157200000D01*
D49*
X91190000Y-140800000D02*
X91190000Y-141980000D01*
D52*
X76950000Y-160620000D02*
X76900000Y-160570000D01*
D48*
X83950000Y-123475000D02*
X83800000Y-123625000D01*
X73150000Y-130797500D02*
X73150000Y-133850000D01*
X105790000Y-137950000D02*
X105790000Y-143310000D01*
X71566201Y-149566201D02*
X72700000Y-150700000D01*
D49*
X96737500Y-161300000D02*
X97137500Y-161700000D01*
D48*
X69695000Y-167705000D02*
X69695000Y-166245000D01*
X75110000Y-152900000D02*
X75250000Y-152900000D01*
D49*
X92966600Y-158233400D02*
X91800000Y-159400000D01*
D48*
X75250000Y-152900000D02*
X75350000Y-152800000D01*
D49*
X97137500Y-161700000D02*
X98200000Y-161700000D01*
X92700000Y-155550000D02*
X92700000Y-156580000D01*
D48*
X90562500Y-160937500D02*
X90562500Y-161220000D01*
D49*
X88050000Y-150100000D02*
X86137500Y-150100000D01*
D48*
X69367500Y-164897500D02*
X69695000Y-165225000D01*
X70662500Y-147600000D02*
X70621074Y-147641426D01*
D49*
X97137500Y-144800000D02*
X98285600Y-144800000D01*
D48*
X71096299Y-149566201D02*
X71566201Y-149566201D01*
X90562500Y-161220000D02*
X90722500Y-161380000D01*
X69500000Y-167900000D02*
X69100000Y-168300000D01*
D49*
X89587200Y-150100000D02*
X88050000Y-150100000D01*
X91190000Y-141980000D02*
X91140000Y-142030000D01*
%TO.N,Net-(D1-A)*%
X86570000Y-159510000D02*
X85750000Y-159510000D01*
X81391400Y-163868600D02*
X67428600Y-163868600D01*
X65057500Y-161497500D02*
X63250000Y-161497500D01*
X85750000Y-159510000D02*
X81391400Y-163868600D01*
X67428600Y-163868600D02*
X65057500Y-161497500D01*
%TO.N,BLUE_LED*%
X88050000Y-154100000D02*
X88010000Y-154140000D01*
X86620000Y-157460000D02*
X86570000Y-157510000D01*
X88010000Y-154140000D02*
X88010000Y-154800000D01*
X86620000Y-156190000D02*
X86620000Y-157460000D01*
X88010000Y-154800000D02*
X86620000Y-156190000D01*
%TO.N,B2*%
D48*
X75690000Y-129840000D02*
X70770000Y-124920000D01*
X70770000Y-124920000D02*
X70770000Y-123455000D01*
X75690000Y-130797500D02*
X75690000Y-129840000D01*
%TO.N,B1*%
X78230000Y-129000000D02*
X77570000Y-128340000D01*
X73270000Y-125480000D02*
X73270000Y-123455000D01*
X77570000Y-128340000D02*
X76130000Y-128340000D01*
X78230000Y-130797500D02*
X78230000Y-129000000D01*
X76130000Y-128340000D02*
X73270000Y-125480000D01*
%TO.N,A1*%
X75770000Y-123455000D02*
X75770000Y-125610000D01*
X79350000Y-127050000D02*
X80770000Y-128470000D01*
X75770000Y-125610000D02*
X77210000Y-127050000D01*
X80770000Y-128470000D02*
X80770000Y-130797500D01*
X77210000Y-127050000D02*
X79350000Y-127050000D01*
%TO.N,A2*%
X78270000Y-124230000D02*
X79490000Y-125450000D01*
X81240000Y-125450000D02*
X83310000Y-127520000D01*
X83310000Y-130310000D02*
X83310000Y-130797500D01*
X78270000Y-123455000D02*
X78270000Y-124230000D01*
X83310000Y-127520000D02*
X83310000Y-130797500D01*
X79490000Y-125450000D02*
X81240000Y-125450000D01*
%TO.N,/DIP3*%
D52*
X96550000Y-154100000D02*
X98800000Y-154100000D01*
X98800000Y-154100000D02*
X101300000Y-156600000D01*
X101300000Y-156600000D02*
X101300000Y-157900000D01*
%TO.N,TX1_Debug*%
D49*
X96550000Y-150100000D02*
X97612800Y-150100000D01*
X104280000Y-156140000D02*
X104280000Y-156370000D01*
X97612800Y-150100000D02*
X103572800Y-156060000D01*
X103572800Y-156060000D02*
X104200000Y-156060000D01*
X104200000Y-156060000D02*
X104280000Y-156140000D01*
%TO.N,RX1_Debug*%
X104280000Y-153600000D02*
X104280000Y-153830000D01*
X96550000Y-149300000D02*
X98600000Y-149300000D01*
X104200000Y-153520000D02*
X104280000Y-153600000D01*
X98600000Y-149300000D02*
X102820000Y-153520000D01*
X102820000Y-153520000D02*
X104200000Y-153520000D01*
%TO.N,/DIP2*%
D51*
X98600000Y-156870000D02*
X98600000Y-157250000D01*
X97900000Y-156170000D02*
X98600000Y-156870000D01*
X96180000Y-156170000D02*
X97900000Y-156170000D01*
X94700000Y-153570000D02*
X94870000Y-153740000D01*
X95639600Y-148500000D02*
X96550000Y-148500000D01*
X94700000Y-149439600D02*
X94700000Y-153570000D01*
X94700000Y-149439600D02*
X95639600Y-148500000D01*
D52*
X98600000Y-157900000D02*
X98600000Y-157250000D01*
%TO.N,PWR_5V*%
D49*
X82400000Y-148100000D02*
X79900000Y-150600000D01*
D48*
X103300000Y-159100000D02*
X101400000Y-159100000D01*
D53*
X92000000Y-149300000D02*
X92874737Y-150174737D01*
D48*
X89600000Y-159550000D02*
X89600000Y-160693157D01*
D49*
X98630000Y-138710000D02*
X99937896Y-138710000D01*
D48*
X73605000Y-165595000D02*
X73605000Y-166145000D01*
X82250000Y-166970000D02*
X82200000Y-167020000D01*
D49*
X84062500Y-148262500D02*
X83900000Y-148100000D01*
X97960000Y-139380000D02*
X98630000Y-138710000D01*
X83700000Y-148100000D02*
X82400000Y-148100000D01*
D48*
X73605000Y-166145000D02*
X73505000Y-166245000D01*
X85900000Y-148262500D02*
X83902500Y-148262500D01*
D51*
X97100000Y-142600000D02*
X96881250Y-142600000D01*
D48*
X91300000Y-131000000D02*
X91300000Y-133200000D01*
D49*
X102897896Y-141670000D02*
X103975000Y-141670000D01*
D48*
X80770000Y-146660504D02*
X80770000Y-143497500D01*
D49*
X94300000Y-145562500D02*
X94300000Y-147050000D01*
D48*
X82200000Y-167020000D02*
X78570000Y-167020000D01*
X89762500Y-159600000D02*
X91790000Y-157572500D01*
D49*
X97960000Y-140260000D02*
X97960000Y-139380000D01*
D48*
X76412500Y-164862500D02*
X75700000Y-164862500D01*
D49*
X95062500Y-144800000D02*
X94300000Y-145562500D01*
X91880000Y-157482500D02*
X91790000Y-157482500D01*
D53*
X92250000Y-123375000D02*
X92250000Y-127650000D01*
D50*
X95900000Y-159200000D02*
X101300000Y-159200000D01*
D48*
X101400000Y-159100000D02*
X101300000Y-159200000D01*
X78731250Y-147339654D02*
X80090850Y-147339654D01*
D49*
X85900000Y-148262500D02*
X85900000Y-149000000D01*
D48*
X80090850Y-147339654D02*
X80770000Y-146660504D01*
D49*
X83740000Y-148100000D02*
X83720000Y-148080000D01*
D53*
X94300000Y-148749473D02*
X92874737Y-150174737D01*
D48*
X89650000Y-159600000D02*
X89762500Y-159600000D01*
D53*
X92250000Y-127650000D02*
X92880000Y-128280000D01*
D49*
X91487500Y-133200000D02*
X91170000Y-133517500D01*
X83720000Y-148080000D02*
X83700000Y-148100000D01*
X79900000Y-150600000D02*
X79037500Y-150600000D01*
D48*
X97960000Y-140260000D02*
X97960000Y-141740000D01*
D53*
X92874737Y-150174737D02*
X91900000Y-151149473D01*
X88050000Y-149300000D02*
X92000000Y-149300000D01*
D48*
X81390000Y-155180000D02*
X75090000Y-155180000D01*
D51*
X95062500Y-144418750D02*
X95062500Y-144800000D01*
D53*
X87162500Y-133517500D02*
X91170000Y-133517500D01*
D48*
X75700000Y-164862500D02*
X74337500Y-164862500D01*
D49*
X91900000Y-155550000D02*
X91900000Y-157462500D01*
D53*
X91900000Y-151149473D02*
X91900000Y-155550000D01*
D48*
X91790000Y-157572500D02*
X91790000Y-157482500D01*
D49*
X85900000Y-149000000D02*
X86200000Y-149300000D01*
X94300000Y-148749474D02*
X94300000Y-147050000D01*
D48*
X83902500Y-148262500D02*
X83720000Y-148080000D01*
D53*
X94300000Y-147050000D02*
X94300000Y-148749473D01*
X92152500Y-133517500D02*
X91170000Y-133517500D01*
D48*
X97960000Y-141740000D02*
X97100000Y-142600000D01*
D49*
X86200000Y-149300000D02*
X88050000Y-149300000D01*
D53*
X83470000Y-137210000D02*
X87162500Y-133517500D01*
D49*
X85737500Y-148100000D02*
X85900000Y-148262500D01*
D48*
X74337500Y-164862500D02*
X73605000Y-165595000D01*
D53*
X92880000Y-128280000D02*
X92880000Y-132790000D01*
D48*
X89600000Y-160693157D02*
X87993157Y-162300000D01*
D49*
X99937896Y-138710000D02*
X102897896Y-141670000D01*
D48*
X87993157Y-162300000D02*
X87100000Y-162300000D01*
X89600000Y-159550000D02*
X89650000Y-159600000D01*
D49*
X91900000Y-157462500D02*
X91880000Y-157482500D01*
D51*
X96881250Y-142600000D02*
X95062500Y-144418750D01*
D49*
X83900000Y-148100000D02*
X83740000Y-148100000D01*
D48*
X80770000Y-143497500D02*
X83310000Y-143497500D01*
D53*
X92880000Y-132790000D02*
X92152500Y-133517500D01*
D48*
X78570000Y-167020000D02*
X76412500Y-164862500D01*
%TO.N,LIMIT_SWITCH*%
D49*
X95100000Y-142600000D02*
X95100000Y-141062104D01*
X93500000Y-147050000D02*
X93531800Y-147018200D01*
X102760000Y-139170000D02*
X103975000Y-139170000D01*
X94220000Y-142700000D02*
X95000000Y-142700000D01*
X97980000Y-137640000D02*
X101230000Y-137640000D01*
X93531800Y-147018200D02*
X93531800Y-143388200D01*
X93531800Y-143388200D02*
X94220000Y-142700000D01*
X95000000Y-142700000D02*
X95100000Y-142600000D01*
X96009600Y-140152504D02*
X96009600Y-139610400D01*
X103975000Y-139170000D02*
X103215000Y-139170000D01*
X96009600Y-139610400D02*
X97980000Y-137640000D01*
X95100000Y-141062104D02*
X96009600Y-140152504D01*
X101230000Y-137640000D02*
X102760000Y-139170000D01*
%TO.N,Laser*%
X95400000Y-139900000D02*
X95400000Y-136800000D01*
X92700000Y-147050000D02*
X92700000Y-142600000D01*
X92700000Y-142600000D02*
X95400000Y-139900000D01*
%TO.N,Thermistor*%
X93930000Y-140470000D02*
X93930000Y-129810000D01*
X93930000Y-129810000D02*
X93930000Y-127150000D01*
X88337500Y-128100000D02*
X89200000Y-128100000D01*
X88337500Y-125087500D02*
X88337500Y-128100000D01*
X86450000Y-123375000D02*
X86625000Y-123375000D01*
X86625000Y-123375000D02*
X88337500Y-125087500D01*
X93930000Y-127150000D02*
X93270000Y-126490000D01*
X91500000Y-129000000D02*
X91400000Y-129100000D01*
X91900000Y-145600000D02*
X91910000Y-145590000D01*
X91900000Y-147050000D02*
X91900000Y-145600000D01*
X89200000Y-128100000D02*
X90100000Y-129000000D01*
D51*
X91300000Y-126730000D02*
X91300000Y-129000000D01*
D49*
X91910000Y-142490000D02*
X93930000Y-140470000D01*
X90100000Y-129000000D02*
X91300000Y-129000000D01*
D51*
X90930000Y-126360000D02*
X91300000Y-126730000D01*
D49*
X91910000Y-145590000D02*
X91910000Y-142490000D01*
%TO.N,PULSE{slash}STEP*%
X85850000Y-143497500D02*
X85850000Y-142330774D01*
X85850000Y-142330774D02*
X80089226Y-136570000D01*
X85850000Y-142150000D02*
X85850000Y-143497500D01*
X68790000Y-131800000D02*
X65570000Y-128580000D01*
X89200000Y-141600000D02*
X86400000Y-141600000D01*
X80089226Y-136570000D02*
X71890000Y-136570000D01*
X68790000Y-135530000D02*
X68790000Y-131800000D01*
X71890000Y-136570000D02*
X71870000Y-136550000D01*
X91100000Y-147050000D02*
X91100000Y-143500000D01*
X91100000Y-143500000D02*
X89200000Y-141600000D01*
X86400000Y-141600000D02*
X85850000Y-142150000D01*
X65570000Y-128580000D02*
X63945000Y-128580000D01*
%TO.N,DIR*%
X85550000Y-140640000D02*
X88380000Y-140640000D01*
X75670000Y-132890000D02*
X77800000Y-132890000D01*
X90300000Y-145407500D02*
X90300000Y-147050000D01*
X74420000Y-131640000D02*
X75670000Y-132890000D01*
X66320000Y-126080000D02*
X68110000Y-127870000D01*
X63945000Y-126080000D02*
X66320000Y-126080000D01*
X88390000Y-143497500D02*
X90300000Y-145407500D01*
X68110000Y-127870000D02*
X72080000Y-127870000D01*
X77800000Y-132890000D02*
X85550000Y-140640000D01*
X74420000Y-130210000D02*
X74420000Y-131640000D01*
X72080000Y-127870000D02*
X74420000Y-130210000D01*
%TO.N,EN*%
D52*
X70830000Y-141770000D02*
X70610000Y-141990000D01*
X70610000Y-143497500D02*
X70610000Y-141820000D01*
X84600000Y-142200000D02*
X84600000Y-144800000D01*
D49*
X64000000Y-131135000D02*
X64000000Y-134100000D01*
D52*
X89500000Y-146000000D02*
X89500000Y-147050000D01*
D49*
X64000000Y-134100000D02*
X70610000Y-140710000D01*
X70610000Y-141990000D02*
X70610000Y-143497500D01*
D52*
X84600000Y-144800000D02*
X85300000Y-145500000D01*
D49*
X70610000Y-140710000D02*
X70610000Y-141550000D01*
D52*
X70980000Y-141770000D02*
X71100000Y-141770000D01*
D49*
X63945000Y-131080000D02*
X64000000Y-131135000D01*
D52*
X70830000Y-141770000D02*
X70610000Y-141550000D01*
X70660000Y-141770000D02*
X70980000Y-141770000D01*
X70610000Y-141820000D02*
X70660000Y-141770000D01*
D49*
X70610000Y-141550000D02*
X70610000Y-141990000D01*
D52*
X85300000Y-145500000D02*
X89000000Y-145500000D01*
X84170000Y-141770000D02*
X84600000Y-142200000D01*
X70980000Y-141770000D02*
X70830000Y-141770000D01*
X71100000Y-141770000D02*
X84170000Y-141770000D01*
X89000000Y-145500000D02*
X89500000Y-146000000D01*
%TO.N,DI{slash}TX2*%
D51*
X86977454Y-150900000D02*
X83800000Y-154077454D01*
X83800000Y-154077454D02*
X83800000Y-157800000D01*
X72300000Y-158200000D02*
X70300000Y-158200000D01*
X82170000Y-159430000D02*
X73530000Y-159430000D01*
X88050000Y-150900000D02*
X86977454Y-150900000D01*
X69795000Y-158705000D02*
X69795000Y-161195000D01*
X83800000Y-157800000D02*
X82170000Y-159430000D01*
X70300000Y-158200000D02*
X69795000Y-158705000D01*
X73530000Y-159430000D02*
X72300000Y-158200000D01*
X69795000Y-161195000D02*
X69695000Y-161295000D01*
%TO.N,RO{slash}RX2*%
X84600000Y-154400000D02*
X87300000Y-151700000D01*
X87300000Y-151700000D02*
X88050000Y-151700000D01*
X73835000Y-161625000D02*
X81175000Y-161625000D01*
X84600000Y-158200000D02*
X84600000Y-154400000D01*
X73505000Y-161295000D02*
X73835000Y-161625000D01*
X81175000Y-161625000D02*
X84600000Y-158200000D01*
%TO.N,RS_EN{slash}XDIR2*%
X72335000Y-162599999D02*
X72335000Y-161395000D01*
X70965000Y-161295000D02*
X72235000Y-161295000D01*
X80870000Y-162930000D02*
X72665001Y-162930000D01*
X72665001Y-162930000D02*
X72335000Y-162599999D01*
X85300000Y-154996000D02*
X85300000Y-158500000D01*
X88050000Y-153300000D02*
X86996000Y-153300000D01*
X71100000Y-159300000D02*
X71100000Y-161160000D01*
X71100000Y-161160000D02*
X70965000Y-161295000D01*
X86996000Y-153300000D02*
X85300000Y-154996000D01*
X85300000Y-158500000D02*
X80870000Y-162930000D01*
X72335000Y-161395000D02*
X72235000Y-161295000D01*
%TO.N,RST*%
X88200000Y-158100000D02*
X88700000Y-157600000D01*
X84560000Y-162590000D02*
X85310000Y-162590000D01*
X85310000Y-162590000D02*
X88200000Y-159700000D01*
X90300000Y-155550000D02*
X90300000Y-157500000D01*
X90300000Y-157500000D02*
X90200000Y-157600000D01*
D52*
X80830000Y-165790000D02*
X79859478Y-165790000D01*
D51*
X89550000Y-157600000D02*
X89600000Y-157550000D01*
X90200000Y-157600000D02*
X89650000Y-157600000D01*
X89650000Y-157600000D02*
X89600000Y-157550000D01*
D52*
X79859478Y-165790000D02*
X79449478Y-165380000D01*
D51*
X88700000Y-157600000D02*
X89550000Y-157600000D01*
X88200000Y-159700000D02*
X88200000Y-158100000D01*
%TO.N,UPDI*%
X100300000Y-147200000D02*
X101600000Y-148500000D01*
X101600000Y-148500000D02*
X104260000Y-148500000D01*
X104260000Y-148500000D02*
X104280000Y-148520000D01*
X91100000Y-150800000D02*
X91100000Y-155550000D01*
X104280000Y-148520000D02*
X104280000Y-148750000D01*
%TO.N,XTAL1*%
X87274888Y-165805143D02*
X87144888Y-165675143D01*
X87144888Y-165675143D02*
X87144888Y-165125143D01*
X92637500Y-161220000D02*
X92797500Y-161380000D01*
X93500000Y-160137500D02*
X92637500Y-161000000D01*
X91060000Y-164540000D02*
X91060000Y-165540000D01*
X90794857Y-165805143D02*
X87274888Y-165805143D01*
X92637500Y-162962500D02*
X91060000Y-164540000D01*
X92637500Y-161540000D02*
X92637500Y-162962500D01*
X87104888Y-165085143D02*
X87104888Y-165035143D01*
X92797500Y-161380000D02*
X92637500Y-161540000D01*
X92637500Y-161000000D02*
X92637500Y-161220000D01*
X87144888Y-165125143D02*
X87104888Y-165085143D01*
X91060000Y-165540000D02*
X90794857Y-165805143D01*
X93500000Y-155550000D02*
X93500000Y-160137500D01*
%TO.N,XTAL2*%
X92830000Y-164620000D02*
X92830000Y-165380000D01*
X94360000Y-155610000D02*
X94360000Y-160997500D01*
X94700000Y-162750000D02*
X92830000Y-164620000D01*
X96893291Y-165082336D02*
X96893291Y-165032336D01*
X96903291Y-165802336D02*
X96933291Y-165772336D01*
X94662500Y-161300000D02*
X94662500Y-161700000D01*
X94300000Y-155550000D02*
X94360000Y-155610000D01*
X94700000Y-161737500D02*
X94700000Y-162750000D01*
X96933291Y-165122336D02*
X96893291Y-165082336D01*
X94662500Y-161700000D02*
X94700000Y-161737500D01*
X94360000Y-160997500D02*
X94662500Y-161300000D01*
X92830000Y-165380000D02*
X93252336Y-165802336D01*
X96933291Y-165772336D02*
X96933291Y-165122336D01*
X93252336Y-165802336D02*
X96903291Y-165802336D01*
%TO.N,/DIP1*%
D52*
X95900000Y-157300000D02*
X95900000Y-157900000D01*
X95100000Y-156500000D02*
X95900000Y-157300000D01*
X95100000Y-155550000D02*
X95100000Y-156500000D01*
%TO.N,Net-(U2-FB)*%
D51*
X68900000Y-154300000D02*
X69600000Y-155000000D01*
D48*
X68100000Y-154300000D02*
X68100000Y-156200000D01*
D51*
X68100000Y-154300000D02*
X68900000Y-154300000D01*
X69600000Y-155000000D02*
X70400000Y-155000000D01*
X66300000Y-154200000D02*
X68000000Y-154200000D01*
X68000000Y-154200000D02*
X68100000Y-154300000D01*
X65258574Y-153158574D02*
X66300000Y-154200000D01*
X65258574Y-152666201D02*
X65258574Y-153158574D01*
%TO.N,/Buck Converter/V_OUT*%
D48*
X72577500Y-154737500D02*
X72700000Y-154737500D01*
X67537500Y-150000000D02*
X67800000Y-150000000D01*
X72700000Y-155912500D02*
X74287500Y-157500000D01*
D50*
X67450000Y-141610000D02*
X67450000Y-147512500D01*
D48*
X74287500Y-157500000D02*
X75070000Y-157500000D01*
D50*
X67537500Y-147600000D02*
X67537500Y-150000000D01*
D48*
X72700000Y-154737500D02*
X72700000Y-155912500D01*
X70400000Y-152000000D02*
X70400000Y-152560000D01*
D50*
X67450000Y-147512500D02*
X67537500Y-147600000D01*
D48*
X68100000Y-150300000D02*
X68100000Y-152300000D01*
X67496074Y-149958574D02*
X67537500Y-150000000D01*
X68400000Y-152000000D02*
X70400000Y-152000000D01*
X70400000Y-152560000D02*
X72577500Y-154737500D01*
X68100000Y-152300000D02*
X68400000Y-152000000D01*
X75070000Y-157500000D02*
X75090000Y-157480000D01*
D50*
X67460000Y-141600000D02*
X67450000Y-141610000D01*
D48*
X67800000Y-150000000D02*
X68100000Y-150300000D01*
%TO.N,B*%
X74430000Y-171100000D02*
X76820000Y-168710000D01*
D49*
X93277300Y-171042700D02*
X94340000Y-169980000D01*
X72335000Y-168935000D02*
X74430000Y-171030000D01*
X90963900Y-171042700D02*
X93277300Y-171042700D01*
D48*
X88955900Y-168965900D02*
X88955900Y-169034700D01*
D49*
X94340000Y-169980000D02*
X95140000Y-169980000D01*
D48*
X88955900Y-169034700D02*
X90963900Y-171042700D01*
D49*
X74430000Y-171030000D02*
X74430000Y-171100000D01*
D48*
X88700000Y-168710000D02*
X88955900Y-168965900D01*
D49*
X72235000Y-166245000D02*
X72335000Y-166345000D01*
D48*
X76820000Y-168710000D02*
X88700000Y-168710000D01*
D49*
X72335000Y-166345000D02*
X72335000Y-168935000D01*
%TO.N,A*%
X93430000Y-173690000D02*
X95140000Y-171980000D01*
X90106000Y-173690000D02*
X93430000Y-173690000D01*
X70935200Y-171100000D02*
X70924800Y-171100000D01*
X71065000Y-170970200D02*
X70935200Y-171100000D01*
X71065000Y-166345000D02*
X71065000Y-170970200D01*
X87458700Y-171042700D02*
X90106000Y-173690000D01*
X70965000Y-166245000D02*
X71065000Y-166345000D01*
%TO.N,Net-(U2-SW)*%
D52*
X62983574Y-151716201D02*
X61683799Y-151716201D01*
D48*
X58640000Y-142100000D02*
X59100000Y-142100000D01*
D52*
X61683799Y-151716201D02*
X61600000Y-151800000D01*
D48*
X59100000Y-142100000D02*
X59130000Y-142130000D01*
X63046074Y-148783574D02*
X63062500Y-148800000D01*
X58560000Y-142020000D02*
X58640000Y-142100000D01*
D52*
X61800000Y-148800000D02*
X63062500Y-148800000D01*
D48*
X60760000Y-142130000D02*
X63046074Y-144416074D01*
D52*
X61500000Y-149100000D02*
X61800000Y-148800000D01*
D48*
X58560000Y-141600000D02*
X58560000Y-142020000D01*
X63046074Y-144416074D02*
X63046074Y-148783574D01*
X59130000Y-142130000D02*
X60760000Y-142130000D01*
%TO.N,/Buck Converter/EN*%
D53*
X62130000Y-158650000D02*
X64390000Y-158650000D01*
D51*
X66350000Y-160380000D02*
X66320000Y-160410000D01*
D48*
X65258574Y-151716201D02*
X66383799Y-151716201D01*
D53*
X64390000Y-158650000D02*
X64400000Y-158660000D01*
D51*
X66320000Y-160410000D02*
X65300000Y-160410000D01*
D48*
X66383799Y-151716201D02*
X66400000Y-151700000D01*
D51*
X65300000Y-160410000D02*
X64390000Y-159500000D01*
X64390000Y-159500000D02*
X64390000Y-158670000D01*
X64390000Y-158670000D02*
X64400000Y-158660000D01*
%TO.N,Net-(U2-BOOT)*%
X65137500Y-148800000D02*
X65200000Y-148862500D01*
X65200000Y-148862500D02*
X65200000Y-150707627D01*
X65200000Y-150707627D02*
X65258574Y-150766201D01*
%TO.N,Net-(J8-Pin_3)*%
D48*
X101880000Y-151080000D02*
X99260000Y-148460000D01*
X99260000Y-148460000D02*
X99260000Y-140260000D01*
X104070000Y-151080000D02*
X101880000Y-151080000D01*
X104280000Y-151290000D02*
X104070000Y-151080000D01*
%TO.N,Net-(D2-K)*%
D49*
X91170000Y-136917500D02*
X91170000Y-138780000D01*
X91170000Y-138780000D02*
X91190000Y-138800000D01*
%TO.N,Net-(Q2-C)*%
D48*
X96837500Y-125212500D02*
X96837500Y-130300000D01*
X94700000Y-123075000D02*
X96837500Y-125212500D01*
%TO.N,/M1*%
D49*
X76000000Y-143807500D02*
X76000000Y-146050000D01*
X75690000Y-143497500D02*
X76000000Y-143807500D01*
%TO.N,/M0*%
X73150000Y-143497500D02*
X73150000Y-145900000D01*
X73150000Y-145900000D02*
X73300000Y-146050000D01*
%TO.N,/M2*%
X78230000Y-143497500D02*
X78700000Y-143967500D01*
X78700000Y-143967500D02*
X78700000Y-146008404D01*
X78700000Y-146008404D02*
X78731250Y-146039654D01*
%TO.N,Net-(Q2-B)*%
X95900000Y-134300000D02*
X95400000Y-134800000D01*
X95900000Y-132100000D02*
X95900000Y-134300000D01*
%TD*%
%TA.AperFunction,Conductor*%
%TO.N,PWR_GND*%
G36*
X71322871Y-146459042D02*
G01*
X71323288Y-146459172D01*
X71323712Y-146459059D01*
X71356655Y-146469580D01*
X71389570Y-146479848D01*
X71389990Y-146480227D01*
X71390270Y-146480317D01*
X71416391Y-146504052D01*
X71542050Y-146656166D01*
X71569570Y-146720387D01*
X71570445Y-146733880D01*
X71590000Y-148660000D01*
X71589999Y-148660000D01*
X72224015Y-149245983D01*
X72910000Y-149880000D01*
X77458029Y-149889133D01*
X77525029Y-149908952D01*
X77570678Y-149961848D01*
X77581748Y-150010331D01*
X77648825Y-152978023D01*
X77630661Y-153045490D01*
X77613755Y-153067272D01*
X77099573Y-153596030D01*
X77038724Y-153630369D01*
X77012408Y-153633571D01*
X72311514Y-153699279D01*
X72244206Y-153680533D01*
X72222100Y-153662972D01*
X71855156Y-153296028D01*
X71821671Y-153234705D01*
X71818844Y-153209645D01*
X71817353Y-153067272D01*
X71800000Y-151410000D01*
X71570000Y-151120000D01*
X69689968Y-151110346D01*
X69623031Y-151090318D01*
X69577548Y-151037280D01*
X69566607Y-150985714D01*
X69589355Y-146555445D01*
X69609383Y-146488511D01*
X69662421Y-146443028D01*
X69715430Y-146432102D01*
X71322871Y-146459042D01*
G37*
%TD.AperFunction*%
%TD*%
%TA.AperFunction,Conductor*%
%TO.N,PWR_5V*%
G36*
X84335862Y-146804879D02*
G01*
X84370790Y-146809913D01*
X84396031Y-146817335D01*
X84448763Y-146848650D01*
X84651853Y-147051893D01*
X84672993Y-147080154D01*
X84683772Y-147099911D01*
X84685594Y-147103251D01*
X84700739Y-147162684D01*
X84700149Y-148730755D01*
X84695874Y-148762986D01*
X84695495Y-148764389D01*
X84691489Y-148778014D01*
X84690090Y-148784438D01*
X84689296Y-148787385D01*
X84672619Y-148814649D01*
X84657237Y-148842804D01*
X84648864Y-148851174D01*
X84620605Y-148872320D01*
X84597509Y-148884926D01*
X84538102Y-148900083D01*
X82795936Y-148900076D01*
X82795926Y-148900076D01*
X82795925Y-148900076D01*
X82795924Y-148900076D01*
X82430000Y-149281253D01*
X82430000Y-150333553D01*
X82429166Y-150347912D01*
X82427510Y-150362117D01*
X82426529Y-150368693D01*
X82426563Y-150368699D01*
X82425907Y-150372525D01*
X82419502Y-150432103D01*
X82419500Y-150432139D01*
X82419500Y-151727876D01*
X82419632Y-151729471D01*
X82419787Y-151730576D01*
X82419853Y-151731159D01*
X82425908Y-151787484D01*
X82426674Y-151790721D01*
X82427400Y-151796955D01*
X82427504Y-151797854D01*
X82427506Y-151797865D01*
X82429165Y-151812085D01*
X82430000Y-151826454D01*
X82430000Y-158100808D01*
X82424976Y-158135745D01*
X82417564Y-158160986D01*
X82386269Y-158213730D01*
X82048926Y-158551073D01*
X82020675Y-158572222D01*
X81997587Y-158584830D01*
X81938157Y-158600000D01*
X79294192Y-158600000D01*
X79259256Y-158594977D01*
X79234014Y-158587565D01*
X79181269Y-158556269D01*
X78348926Y-157723926D01*
X78348921Y-157723921D01*
X78327774Y-157695670D01*
X78315167Y-157672581D01*
X78300000Y-157613156D01*
X78300000Y-150000000D01*
X78001598Y-149701598D01*
X77984829Y-149680747D01*
X77953375Y-149631587D01*
X77953374Y-149631586D01*
X77953373Y-149631584D01*
X77907724Y-149578688D01*
X77907723Y-149578687D01*
X77907715Y-149578680D01*
X77799175Y-149484246D01*
X77791786Y-149480854D01*
X77755846Y-149455846D01*
X77700000Y-149400000D01*
X77580264Y-149400000D01*
X77565293Y-149399093D01*
X77563842Y-149398916D01*
X77459044Y-149383634D01*
X77439025Y-149383593D01*
X77431704Y-149382845D01*
X77431670Y-149382841D01*
X77350021Y-149374500D01*
X77350010Y-149374500D01*
X76574998Y-149374500D01*
X76574997Y-149374500D01*
X76574977Y-149374501D01*
X76574975Y-149374501D01*
X76510753Y-149381061D01*
X76497904Y-149381703D01*
X73156637Y-149374994D01*
X73089637Y-149355175D01*
X73072722Y-149342057D01*
X73006936Y-149281255D01*
X72586166Y-148892360D01*
X72586164Y-148892357D01*
X72239836Y-148572266D01*
X72222877Y-148543920D01*
X72205023Y-148516138D01*
X72204632Y-148513425D01*
X72203964Y-148512307D01*
X72200000Y-148481203D01*
X72200000Y-148449526D01*
X72205022Y-148414593D01*
X72208933Y-148401274D01*
X72218573Y-148386273D01*
X72219685Y-148382487D01*
X72222667Y-148379902D01*
X72246706Y-148342497D01*
X72310258Y-148313472D01*
X72316184Y-148312620D01*
X72377152Y-148319178D01*
X72410213Y-148331509D01*
X72442619Y-148343596D01*
X72442627Y-148343598D01*
X72453068Y-148344720D01*
X72502141Y-148349998D01*
X72502152Y-148349998D01*
X72502155Y-148349999D01*
X72502172Y-148350000D01*
X73050000Y-148350000D01*
X73550000Y-148350000D01*
X74097828Y-148350000D01*
X74097836Y-148350000D01*
X74097847Y-148349999D01*
X74133560Y-148346158D01*
X74157372Y-148343598D01*
X74157379Y-148343596D01*
X74292086Y-148293354D01*
X74292093Y-148293350D01*
X74407187Y-148207190D01*
X74407190Y-148207187D01*
X74493350Y-148092093D01*
X74493354Y-148092086D01*
X74527588Y-148000300D01*
X74544499Y-147969329D01*
X74551278Y-147960272D01*
X74607209Y-147918401D01*
X74676901Y-147913414D01*
X74738225Y-147946897D01*
X74741906Y-147950578D01*
X74770407Y-147994926D01*
X74806646Y-148092088D01*
X74806648Y-148092091D01*
X74892807Y-148207185D01*
X74892809Y-148207187D01*
X74892812Y-148207190D01*
X75007906Y-148293350D01*
X75007913Y-148293354D01*
X75142620Y-148343596D01*
X75142627Y-148343598D01*
X75149468Y-148344333D01*
X75202138Y-148349998D01*
X75202155Y-148349999D01*
X75202172Y-148350000D01*
X75750000Y-148350000D01*
X75750000Y-147600000D01*
X76250000Y-147600000D01*
X76250000Y-148350000D01*
X76797828Y-148350000D01*
X76797836Y-148350000D01*
X76797847Y-148349999D01*
X76833560Y-148346158D01*
X76857372Y-148343598D01*
X76857379Y-148343596D01*
X76992086Y-148293354D01*
X76992093Y-148293350D01*
X77107187Y-148207190D01*
X77107190Y-148207187D01*
X77193350Y-148092093D01*
X77193354Y-148092086D01*
X77234098Y-147982843D01*
X77234202Y-147982649D01*
X77235711Y-147978744D01*
X77253002Y-147936984D01*
X77296835Y-147882574D01*
X77363127Y-147860501D01*
X77430828Y-147877771D01*
X77456013Y-147904100D01*
X77459710Y-147906059D01*
X77462312Y-147910685D01*
X77476922Y-147925959D01*
X77482489Y-147936372D01*
X77489318Y-147951500D01*
X77501290Y-147983598D01*
X77537895Y-148081740D01*
X77537899Y-148081747D01*
X77545641Y-148092089D01*
X77624057Y-148196839D01*
X77624059Y-148196841D01*
X77624062Y-148196844D01*
X77739156Y-148283004D01*
X77739163Y-148283008D01*
X77873870Y-148333250D01*
X77873877Y-148333252D01*
X77880718Y-148333987D01*
X77933388Y-148339652D01*
X77933405Y-148339653D01*
X77933422Y-148339654D01*
X78481250Y-148339654D01*
X78981250Y-148339654D01*
X79529078Y-148339654D01*
X79529086Y-148339654D01*
X79529097Y-148339653D01*
X79564810Y-148335812D01*
X79588622Y-148333252D01*
X79588629Y-148333250D01*
X79723336Y-148283008D01*
X79723343Y-148283004D01*
X79838437Y-148196844D01*
X79838440Y-148196841D01*
X79924600Y-148081747D01*
X79924604Y-148081740D01*
X79974846Y-147947033D01*
X79974848Y-147947026D01*
X79977926Y-147918401D01*
X79981248Y-147887514D01*
X79981250Y-147887481D01*
X79981250Y-147589654D01*
X78981250Y-147589654D01*
X78981250Y-148339654D01*
X78481250Y-148339654D01*
X78481250Y-147589654D01*
X77481248Y-147589654D01*
X77460739Y-147610164D01*
X77432484Y-147631315D01*
X77418763Y-147638807D01*
X77350503Y-147653659D01*
X77348697Y-147653530D01*
X77290496Y-147634162D01*
X77283981Y-147629975D01*
X77263345Y-147613345D01*
X77250000Y-147600000D01*
X76250000Y-147600000D01*
X75750000Y-147600000D01*
X74750001Y-147600000D01*
X74750000Y-147600000D01*
X74749999Y-147600000D01*
X74749784Y-147600089D01*
X74724804Y-147618788D01*
X74722032Y-147620863D01*
X74708311Y-147628355D01*
X74640051Y-147643207D01*
X74638245Y-147643078D01*
X74580044Y-147623710D01*
X74573529Y-147619523D01*
X74552893Y-147602893D01*
X74550000Y-147600000D01*
X73550000Y-147600000D01*
X73550000Y-148350000D01*
X73050000Y-148350000D01*
X73050000Y-147491829D01*
X73055023Y-147456893D01*
X73059427Y-147441895D01*
X73069069Y-147426886D01*
X73069685Y-147424790D01*
X73071334Y-147423360D01*
X73097172Y-147383144D01*
X73098541Y-147381957D01*
X73153420Y-147354477D01*
X73160979Y-147352833D01*
X73187332Y-147350000D01*
X73300000Y-147350000D01*
X73300000Y-147241829D01*
X73305023Y-147206893D01*
X73309427Y-147191895D01*
X73347172Y-147133144D01*
X73347200Y-147133119D01*
X73347199Y-147133119D01*
X73348541Y-147131956D01*
X73403420Y-147104477D01*
X73410979Y-147102833D01*
X73437332Y-147100000D01*
X74550000Y-147100000D01*
X74550214Y-147099911D01*
X74577964Y-147079137D01*
X74591688Y-147071643D01*
X74659946Y-147056792D01*
X74661756Y-147056921D01*
X74719953Y-147076287D01*
X74726471Y-147080476D01*
X74747106Y-147097106D01*
X74750000Y-147100000D01*
X77250000Y-147100000D01*
X77270513Y-147079486D01*
X77298762Y-147058339D01*
X77312486Y-147050845D01*
X77380744Y-147035994D01*
X77382554Y-147036123D01*
X77440751Y-147055489D01*
X77447269Y-147059678D01*
X77467904Y-147076308D01*
X77481250Y-147089654D01*
X79981250Y-147089654D01*
X79981250Y-146945097D01*
X79986273Y-146910161D01*
X79990677Y-146895163D01*
X80028429Y-146836405D01*
X80029791Y-146835224D01*
X80084681Y-146807748D01*
X80089292Y-146806746D01*
X80092261Y-146806101D01*
X80118639Y-146803273D01*
X84335862Y-146804879D01*
G37*
%TD.AperFunction*%
%TD*%
%TA.AperFunction,Conductor*%
%TO.N,PWR_24V*%
G36*
X59393712Y-151913996D02*
G01*
X59393732Y-151913999D01*
X59393751Y-151913996D01*
X59395940Y-151914004D01*
X59411800Y-151914064D01*
X59411850Y-151914079D01*
X59411850Y-151914064D01*
X59448842Y-151914203D01*
X60785139Y-151919473D01*
X60820050Y-151924634D01*
X60837514Y-151929837D01*
X60845813Y-151932310D01*
X60896217Y-151961636D01*
X61043026Y-152102379D01*
X61054430Y-152113312D01*
X61101158Y-152158107D01*
X61103522Y-152160374D01*
X61103521Y-152160374D01*
X61103524Y-152160377D01*
X61120810Y-152180994D01*
X61126068Y-152188863D01*
X61126106Y-152188919D01*
X61211082Y-152273895D01*
X61220022Y-152279868D01*
X61237955Y-152291851D01*
X61238643Y-152292314D01*
X61247245Y-152298160D01*
X61254760Y-152305364D01*
X61288546Y-152337754D01*
X61288547Y-152337753D01*
X61300295Y-152342332D01*
X61316811Y-152345435D01*
X61317439Y-152345862D01*
X61339166Y-152352326D01*
X61422040Y-152386654D01*
X61432328Y-152388700D01*
X61450856Y-152392386D01*
X61450871Y-152392388D01*
X61450903Y-152392395D01*
X61522106Y-152406559D01*
X61539906Y-152410100D01*
X61660092Y-152410100D01*
X61660093Y-152410100D01*
X61673398Y-152407452D01*
X61719427Y-152398296D01*
X61777960Y-152386654D01*
X61888991Y-152340664D01*
X61888998Y-152340659D01*
X61890404Y-152339907D01*
X61896626Y-152337821D01*
X61897651Y-152337782D01*
X61904635Y-152335433D01*
X61934836Y-152327527D01*
X61963622Y-152323512D01*
X62409970Y-152314097D01*
X62410994Y-152314080D01*
X62412604Y-152314063D01*
X62413813Y-152314058D01*
X63569559Y-152314058D01*
X63604494Y-152319081D01*
X63619492Y-152323485D01*
X63678220Y-152361203D01*
X63678268Y-152361259D01*
X63678270Y-152361260D01*
X63678270Y-152361261D01*
X63679327Y-152362479D01*
X63706881Y-152417619D01*
X63708555Y-152425388D01*
X63711336Y-152451969D01*
X63708457Y-153224324D01*
X63704073Y-153256548D01*
X63703699Y-153257914D01*
X63699636Y-153271565D01*
X63698211Y-153277998D01*
X63697412Y-153280924D01*
X63680612Y-153308181D01*
X63665151Y-153336245D01*
X63532774Y-153467640D01*
X63504441Y-153488686D01*
X63481376Y-153501169D01*
X63421459Y-153516113D01*
X62963011Y-153512801D01*
X62960000Y-153929980D01*
X62960000Y-153929990D01*
X62972675Y-154863513D01*
X63001985Y-157022136D01*
X63001990Y-157022580D01*
X63006080Y-157431909D01*
X63003770Y-157449202D01*
X63001407Y-157466890D01*
X62997154Y-157481930D01*
X62959976Y-157541078D01*
X62958619Y-157542278D01*
X62904044Y-157570285D01*
X62896501Y-157572005D01*
X62870172Y-157575102D01*
X62383314Y-157579966D01*
X62381080Y-157579967D01*
X62380330Y-157579962D01*
X62378874Y-157579950D01*
X62376705Y-157579913D01*
X62339069Y-157578942D01*
X62147049Y-157577771D01*
X61523028Y-157573966D01*
X61523002Y-157573966D01*
X61522838Y-157573965D01*
X61522748Y-157573965D01*
X60710000Y-157570000D01*
X60709999Y-157570000D01*
X60709998Y-157570000D01*
X60709997Y-157570000D01*
X60709994Y-157570001D01*
X60709992Y-157570002D01*
X59596610Y-158381436D01*
X59596609Y-158381437D01*
X59565418Y-158397954D01*
X59534164Y-158409157D01*
X59497485Y-158416322D01*
X59080007Y-158433717D01*
X59074572Y-158433824D01*
X59069131Y-158433812D01*
X59063681Y-158433680D01*
X58614144Y-158412910D01*
X55414341Y-158437293D01*
X55379369Y-158432537D01*
X55354072Y-158425318D01*
X55301088Y-158394425D01*
X54474156Y-157580000D01*
X54474156Y-157579999D01*
X54296475Y-157405007D01*
X54275107Y-157376911D01*
X54262325Y-157353919D01*
X54246707Y-157294613D01*
X54244631Y-157022135D01*
X54228449Y-154898482D01*
X54233205Y-154863519D01*
X54241906Y-154833028D01*
X54259471Y-154796077D01*
X54974633Y-153771690D01*
X54998743Y-153745927D01*
X55015647Y-153732378D01*
X55069183Y-153707481D01*
X55074640Y-153706403D01*
X55098642Y-153704058D01*
X56501850Y-153704058D01*
X56501851Y-153704058D01*
X56507375Y-152046203D01*
X56512514Y-152011290D01*
X56516968Y-151996306D01*
X56554925Y-151937665D01*
X56556303Y-151936479D01*
X56611244Y-151909202D01*
X56618819Y-151907581D01*
X56645173Y-151904837D01*
X59393712Y-151913996D01*
G37*
%TD.AperFunction*%
%TD*%
%TA.AperFunction,Conductor*%
%TO.N,PWR_GND*%
G36*
X65315677Y-153719685D02*
G01*
X65336319Y-153736319D01*
X66663681Y-155063681D01*
X66697166Y-155125004D01*
X66700000Y-155151362D01*
X66700000Y-156850000D01*
X67150000Y-157300000D01*
X68500000Y-157300000D01*
X69063681Y-156736319D01*
X69125004Y-156702834D01*
X69151362Y-156700000D01*
X69800000Y-156700000D01*
X70062800Y-156349600D01*
X70118771Y-156307779D01*
X70162000Y-156300000D01*
X71573638Y-156300000D01*
X71640677Y-156319685D01*
X71661319Y-156336319D01*
X71963681Y-156638681D01*
X71997166Y-156700004D01*
X72000000Y-156726362D01*
X72000000Y-157467388D01*
X71980315Y-157534427D01*
X71963681Y-157555069D01*
X71685769Y-157832981D01*
X71624446Y-157866466D01*
X71598088Y-157869300D01*
X70361441Y-157869300D01*
X70343541Y-157869300D01*
X70343537Y-157869299D01*
X70256463Y-157869299D01*
X70194891Y-157885797D01*
X70172354Y-157891836D01*
X70150239Y-157904604D01*
X70128111Y-157908303D01*
X70118378Y-157907129D01*
X70107667Y-157910000D01*
X69380048Y-157910000D01*
X69380898Y-159865507D01*
X69361243Y-159932555D01*
X69308458Y-159978333D01*
X69256952Y-159989561D01*
X67187016Y-159990461D01*
X67119968Y-159970806D01*
X67082393Y-159933104D01*
X66986520Y-159782670D01*
X65570000Y-157560000D01*
X65569999Y-157560000D01*
X65569998Y-157559999D01*
X63735409Y-157579621D01*
X63718684Y-157575037D01*
X63702198Y-157575459D01*
X63669730Y-157561622D01*
X63667058Y-157560000D01*
X63574490Y-157503797D01*
X63479250Y-157445973D01*
X63432161Y-157394354D01*
X63419605Y-157340686D01*
X63400295Y-153951775D01*
X63419597Y-153884624D01*
X63436603Y-153863396D01*
X63563683Y-153736316D01*
X63625004Y-153702834D01*
X63651362Y-153700000D01*
X65248638Y-153700000D01*
X65315677Y-153719685D01*
G37*
%TD.AperFunction*%
%TD*%
%TA.AperFunction,Conductor*%
%TO.N,Net-(U2-SW)*%
G36*
X62456424Y-139619645D02*
G01*
X62487521Y-139647754D01*
X62640914Y-139842981D01*
X64073503Y-141666276D01*
X64099444Y-141731152D01*
X64100000Y-141742886D01*
X64100000Y-149420063D01*
X64080315Y-149487102D01*
X64063124Y-149508297D01*
X63828785Y-149739688D01*
X63767252Y-149772785D01*
X63740091Y-149775444D01*
X62671111Y-149761912D01*
X62642234Y-149753034D01*
X62612750Y-149746477D01*
X62607159Y-149742251D01*
X62604327Y-149741381D01*
X62584594Y-149725196D01*
X62450042Y-149589390D01*
X62416842Y-149527912D01*
X62414130Y-149502535D01*
X62414026Y-149471886D01*
X62405001Y-146800350D01*
X59779108Y-146800350D01*
X59712069Y-146780665D01*
X59694207Y-146766726D01*
X57299099Y-144516730D01*
X57263716Y-144456483D01*
X57260000Y-144426357D01*
X57260061Y-139872080D01*
X57268606Y-139842981D01*
X57274870Y-139813320D01*
X57278927Y-139807830D01*
X57279746Y-139805043D01*
X57295843Y-139784943D01*
X57412361Y-139666999D01*
X57473479Y-139633143D01*
X57499816Y-139630149D01*
X62389269Y-139600369D01*
X62456424Y-139619645D01*
G37*
%TD.AperFunction*%
%TD*%
M02*
