%TF.GenerationSoftware,KiCad,Pcbnew,10.0.3*%
%TF.CreationDate,2026-07-04T02:51:47+05:30*%
%TF.ProjectId,Urumi-Nema-17-Node,5572756d-692d-44e6-956d-612d31372d4e,rev?*%
%TF.SameCoordinates,Original*%
%TF.FileFunction,Soldermask,Bot*%
%TF.FilePolarity,Negative*%
%FSLAX46Y46*%
G04 Gerber Fmt 4.6, Leading zero omitted, Abs format (unit mm)*
G04 Created by KiCad (PCBNEW 10.0.3) date 2026-07-04 02:51:47*
%MOMM*%
%LPD*%
G01*
G04 APERTURE LIST*
G04 Aperture macros list*
%AMRoundRect*
0 Rectangle with rounded corners*
0 $1 Rounding radius*
0 $2 $3 $4 $5 $6 $7 $8 $9 X,Y pos of 4 corners*
0 Add a 4 corners polygon primitive as box body*
4,1,4,$2,$3,$4,$5,$6,$7,$8,$9,$2,$3,0*
0 Add four circle primitives for the rounded corners*
1,1,$1+$1,$2,$3*
1,1,$1+$1,$4,$5*
1,1,$1+$1,$6,$7*
1,1,$1+$1,$8,$9*
0 Add four rect primitives between the rounded corners*
20,1,$1+$1,$2,$3,$4,$5,0*
20,1,$1+$1,$4,$5,$6,$7,0*
20,1,$1+$1,$6,$7,$8,$9,0*
20,1,$1+$1,$8,$9,$2,$3,0*%
G04 Aperture macros list end*
%ADD10RoundRect,0.102000X0.900000X0.900000X-0.900000X0.900000X-0.900000X-0.900000X0.900000X-0.900000X0*%
%ADD11C,1.954000*%
%ADD12RoundRect,0.102000X0.754000X-0.754000X0.754000X0.754000X-0.754000X0.754000X-0.754000X-0.754000X0*%
%ADD13C,1.712000*%
%ADD14C,3.300000*%
%ADD15C,2.604000*%
%ADD16RoundRect,0.102000X-1.100000X1.100000X-1.100000X-1.100000X1.100000X-1.100000X1.100000X1.100000X0*%
%ADD17RoundRect,0.102000X0.925000X0.925000X-0.925000X0.925000X-0.925000X-0.925000X0.925000X-0.925000X0*%
%ADD18RoundRect,0.102000X0.825000X-0.825000X0.825000X0.825000X-0.825000X0.825000X-0.825000X-0.825000X0*%
%ADD19C,1.854000*%
%ADD20C,2.204000*%
%ADD21RoundRect,0.102000X1.000000X-1.000000X1.000000X1.000000X-1.000000X1.000000X-1.000000X-1.000000X0*%
%ADD22C,3.204000*%
%ADD23RoundRect,0.102000X-0.754000X0.754000X-0.754000X-0.754000X0.754000X-0.754000X0.754000X0.754000X0*%
%ADD24R,3.000000X3.000000*%
%ADD25C,3.000000*%
G04 APERTURE END LIST*
D10*
%TO.C,J4*%
X70770000Y-123455000D03*
D11*
X73270000Y-123455000D03*
X75770000Y-123455000D03*
X78270000Y-123455000D03*
%TD*%
D12*
%TO.C,J2*%
X104125000Y-136840000D03*
D13*
X104125000Y-139340000D03*
X104125000Y-141840000D03*
%TD*%
D14*
%TO.C,H1*%
X104910000Y-163870000D03*
%TD*%
D15*
%TO.C,C19*%
X56830000Y-160420000D03*
D16*
X56830000Y-155420000D03*
%TD*%
D17*
%TO.C,Laser1*%
X92250000Y-123375000D03*
D11*
X94750000Y-123375000D03*
%TD*%
D14*
%TO.C,H4*%
X53910000Y-132070000D03*
%TD*%
D18*
%TO.C,U3*%
X70610000Y-143497500D03*
D19*
X73150000Y-143497500D03*
X75690000Y-143497500D03*
X78230000Y-143497500D03*
X80770000Y-143497500D03*
X83310000Y-143497500D03*
X85850000Y-143497500D03*
X88390000Y-143497500D03*
X88390000Y-130797500D03*
X85850000Y-130797500D03*
X83310000Y-130797500D03*
X80770000Y-130797500D03*
X78230000Y-130797500D03*
X75690000Y-130797500D03*
X73150000Y-130797500D03*
X70610000Y-130797500D03*
%TD*%
D17*
%TO.C,Thermistor1*%
X83950000Y-123375000D03*
D11*
X86450000Y-123375000D03*
%TD*%
D14*
%TO.C,H3*%
X53910000Y-163870000D03*
%TD*%
D20*
%TO.C,C17*%
X76500000Y-134800000D03*
D21*
X76500000Y-139800000D03*
%TD*%
D22*
%TO.C,J3*%
X74430000Y-171100000D03*
X70924800Y-171100000D03*
X67419600Y-171100000D03*
X63939800Y-171100000D03*
%TD*%
D23*
%TO.C,J5*%
X63945000Y-131080000D03*
D13*
X63945000Y-128580000D03*
X63945000Y-126080000D03*
X63945000Y-123580000D03*
%TD*%
D24*
%TO.C,J1*%
X82690000Y-171920000D03*
D25*
X79190000Y-171920000D03*
%TD*%
D14*
%TO.C,H2*%
X104910000Y-132070000D03*
%TD*%
M02*
