%TF.GenerationSoftware,KiCad,Pcbnew,10.0.3*%
%TF.CreationDate,2026-07-03T21:39:26+05:30*%
%TF.ProjectId,Urumi-Nema-17-Node,5572756d-692d-44e6-956d-612d31372d4e,rev?*%
%TF.SameCoordinates,Original*%
%TF.FileFunction,Legend,Bot*%
%TF.FilePolarity,Positive*%
%FSLAX46Y46*%
G04 Gerber Fmt 4.6, Leading zero omitted, Abs format (unit mm)*
G04 Created by KiCad (PCBNEW 10.0.3) date 2026-07-03 21:39:26*
%MOMM*%
%LPD*%
G01*
G04 APERTURE LIST*
%ADD10C,0.400000*%
%ADD11C,0.250000*%
%ADD12C,0.000000*%
%ADD13C,0.200000*%
G04 APERTURE END LIST*
D10*
G36*
X87393837Y-147326128D02*
G01*
X87411993Y-147572552D01*
X87462531Y-147775108D01*
X87547535Y-147954695D01*
X87659268Y-148097325D01*
X87799986Y-148209365D01*
X87971777Y-148291498D01*
X88163385Y-148339887D01*
X88385769Y-148356894D01*
X88633560Y-148339345D01*
X88828520Y-148291498D01*
X88998414Y-148209979D01*
X89127839Y-148103370D01*
X89225779Y-147968948D01*
X89293802Y-147804783D01*
X89331547Y-147622637D01*
X89344910Y-147410026D01*
X89344910Y-145637006D01*
X88840793Y-145637006D01*
X88840793Y-147383098D01*
X88834568Y-147514287D01*
X88817346Y-147622883D01*
X88784311Y-147720885D01*
X88735280Y-147800020D01*
X88669643Y-147863651D01*
X88588734Y-147909747D01*
X88494127Y-147936540D01*
X88367267Y-147946566D01*
X88247802Y-147937991D01*
X88156241Y-147914876D01*
X88077261Y-147873240D01*
X88012810Y-147812294D01*
X87963768Y-147734198D01*
X87926714Y-147630943D01*
X87905770Y-147514228D01*
X87897955Y-147362581D01*
X87897955Y-145637006D01*
X87393837Y-145637006D01*
X87393837Y-147326128D01*
G37*
G36*
X85591325Y-147032121D02*
G01*
X85592414Y-146923280D01*
X85602682Y-146839963D01*
X85623419Y-146765335D01*
X85651775Y-146709171D01*
X85690126Y-146664057D01*
X85734940Y-146633883D01*
X85786558Y-146616247D01*
X85847414Y-146610069D01*
X85955667Y-146630932D01*
X86076025Y-146700195D01*
X86190782Y-146809321D01*
X86335228Y-146996950D01*
X86335228Y-148310000D01*
X86847588Y-148310000D01*
X86847588Y-146223189D01*
X86394762Y-146223189D01*
X86376261Y-146539727D01*
X86260489Y-146395013D01*
X86117058Y-146284188D01*
X86034632Y-146243467D01*
X85941753Y-146212930D01*
X85842698Y-146194470D01*
X85730727Y-146188018D01*
X85578862Y-146202015D01*
X85451008Y-146241690D01*
X85338839Y-146308218D01*
X85246027Y-146400692D01*
X85175381Y-146515944D01*
X85123112Y-146664841D01*
X85095217Y-146830301D01*
X85089223Y-147032121D01*
X85591325Y-147032121D01*
G37*
G36*
X84129165Y-146223189D02*
G01*
X84129165Y-147579103D01*
X84111297Y-147736036D01*
X84065601Y-147836107D01*
X84017294Y-147883531D01*
X83954668Y-147912651D01*
X83873077Y-147923119D01*
X83793309Y-147912362D01*
X83713745Y-147879112D01*
X83632192Y-147819804D01*
X83518596Y-147704398D01*
X83387278Y-147540085D01*
X83387278Y-146223189D01*
X82887190Y-146223189D01*
X82887190Y-148310000D01*
X83319683Y-148310000D01*
X83331957Y-148001887D01*
X83465130Y-148147700D01*
X83611676Y-148259441D01*
X83693619Y-148300232D01*
X83783867Y-148331249D01*
X83879982Y-148350234D01*
X83989764Y-148356894D01*
X84143063Y-148343131D01*
X84269483Y-148304504D01*
X84379856Y-148240697D01*
X84469335Y-148155577D01*
X84538384Y-148051163D01*
X84589136Y-147924584D01*
X84618651Y-147785400D01*
X84629069Y-147623799D01*
X84629069Y-146223189D01*
X84129165Y-146223189D01*
G37*
G36*
X80848923Y-148310000D02*
G01*
X80848923Y-146896933D01*
X80853136Y-146761195D01*
X80869439Y-146664291D01*
X80905343Y-146606039D01*
X80931941Y-146591861D01*
X80969823Y-146586622D01*
X81028515Y-146605167D01*
X81094936Y-146672351D01*
X81154072Y-146774809D01*
X81234338Y-146964344D01*
X81234338Y-148310000D01*
X81662618Y-148310000D01*
X81662618Y-146896933D01*
X81666831Y-146761195D01*
X81683134Y-146664291D01*
X81719954Y-146606039D01*
X81747479Y-146591822D01*
X81785533Y-146586622D01*
X81836144Y-146604081D01*
X81904418Y-146672351D01*
X81966910Y-146775039D01*
X82049865Y-146964344D01*
X82049865Y-148310000D01*
X82482358Y-148310000D01*
X82482358Y-146223189D01*
X82111414Y-146223189D01*
X82103171Y-146527088D01*
X82013045Y-146371749D01*
X81916692Y-146265687D01*
X81863144Y-146229824D01*
X81807149Y-146206153D01*
X81674891Y-146188018D01*
X81562179Y-146199239D01*
X81475716Y-146229932D01*
X81409460Y-146277960D01*
X81358868Y-146343032D01*
X81324041Y-146424682D01*
X81305962Y-146527088D01*
X81208693Y-146371749D01*
X81108309Y-146265687D01*
X81053517Y-146229900D01*
X80995469Y-146206153D01*
X80861379Y-146188018D01*
X80718025Y-146207074D01*
X80608800Y-146260092D01*
X80525240Y-146346837D01*
X80468910Y-146458287D01*
X80430921Y-146610964D01*
X80416613Y-146816882D01*
X80416613Y-148310000D01*
X80848923Y-148310000D01*
G37*
G36*
X78786292Y-145649829D02*
G01*
X78792546Y-145715958D01*
X78811022Y-145777323D01*
X78840599Y-145833393D01*
X78879715Y-145881371D01*
X78927316Y-145920765D01*
X78983213Y-145951346D01*
X79044547Y-145970464D01*
X79112173Y-145976992D01*
X79179954Y-145970489D01*
X79242232Y-145951346D01*
X79298934Y-145920719D01*
X79346829Y-145881371D01*
X79385840Y-145833412D01*
X79415523Y-145777323D01*
X79433860Y-145715967D01*
X79440069Y-145649829D01*
X79433856Y-145583531D01*
X79415523Y-145522151D01*
X79385884Y-145465897D01*
X79346829Y-145417187D01*
X79298848Y-145377005D01*
X79242232Y-145346296D01*
X79179946Y-145327015D01*
X79112173Y-145320467D01*
X79044556Y-145327039D01*
X78983213Y-145346296D01*
X78927401Y-145376958D01*
X78879715Y-145417187D01*
X78840556Y-145465917D01*
X78811022Y-145522151D01*
X78792550Y-145583540D01*
X78786292Y-145649829D01*
G37*
G36*
X79339502Y-146610069D02*
G01*
X79927700Y-146610069D01*
X79927700Y-146223189D01*
X78827325Y-146223189D01*
X78827325Y-147923119D01*
X78226854Y-147923119D01*
X78226854Y-148310000D01*
X79999507Y-148310000D01*
X79999507Y-147923119D01*
X79339502Y-147923119D01*
X79339502Y-146610069D01*
G37*
G36*
X74197580Y-148310000D02*
G01*
X74865645Y-148310000D01*
X75683370Y-145637006D01*
X75111658Y-145637006D01*
X74658649Y-147246627D01*
X74513202Y-147774192D01*
X74361528Y-147215853D01*
X73912731Y-145637006D01*
X73375824Y-145637006D01*
X74197580Y-148310000D01*
G37*
G36*
X73112409Y-148310000D02*
G01*
X73112409Y-147944918D01*
X72479148Y-147309275D01*
X72193384Y-147002262D01*
X72094088Y-146874785D01*
X72027238Y-146772002D01*
X71977409Y-146671051D01*
X71950484Y-146584790D01*
X71931983Y-146406737D01*
X71938177Y-146332715D01*
X71956529Y-146262939D01*
X71986998Y-146198837D01*
X72028337Y-146144787D01*
X72080699Y-146100509D01*
X72147222Y-146065286D01*
X72222229Y-146043357D01*
X72311170Y-146035610D01*
X72463900Y-146053339D01*
X72604261Y-146105952D01*
X72734286Y-146186762D01*
X72860350Y-146293531D01*
X73124682Y-145950064D01*
X72939524Y-145802995D01*
X72732306Y-145688480D01*
X72583995Y-145634181D01*
X72427104Y-145601288D01*
X72259879Y-145590111D01*
X72068759Y-145603170D01*
X71903223Y-145640303D01*
X71753029Y-145703390D01*
X71629549Y-145788681D01*
X71529304Y-145898228D01*
X71453328Y-146034328D01*
X71407210Y-146188947D01*
X71390863Y-146373948D01*
X71401881Y-146529950D01*
X71433911Y-146671802D01*
X71486212Y-146807056D01*
X71559024Y-146940896D01*
X71648625Y-147069522D01*
X71760891Y-147202847D01*
X72034382Y-147479085D01*
X72423827Y-147852777D01*
X71294509Y-147852777D01*
X71294509Y-148310000D01*
X73112409Y-148310000D01*
G37*
G36*
X69928703Y-147547962D02*
G01*
X69845044Y-147556113D01*
X69768968Y-147580019D01*
X69699717Y-147617840D01*
X69640924Y-147666664D01*
X69592651Y-147725859D01*
X69555744Y-147795624D01*
X69532761Y-147871919D01*
X69524970Y-147954443D01*
X69532736Y-148035089D01*
X69555744Y-148110331D01*
X69592576Y-148179203D01*
X69640924Y-148238375D01*
X69699704Y-148287054D01*
X69768968Y-148324837D01*
X69845044Y-148348743D01*
X69928703Y-148356894D01*
X70008445Y-148348801D01*
X70082393Y-148324837D01*
X70149796Y-148287132D01*
X70207506Y-148238375D01*
X70254835Y-148179294D01*
X70291404Y-148110331D01*
X70314412Y-148035089D01*
X70322178Y-147954443D01*
X70314386Y-147871919D01*
X70291404Y-147795624D01*
X70254761Y-147725766D01*
X70207506Y-147666664D01*
X70149783Y-147617761D01*
X70082393Y-147580019D01*
X70008445Y-147556055D01*
X69928703Y-147547962D01*
G37*
G36*
X68499150Y-148310000D02*
G01*
X68499150Y-147944918D01*
X67865889Y-147309275D01*
X67580125Y-147002262D01*
X67480829Y-146874785D01*
X67413979Y-146772002D01*
X67364150Y-146671051D01*
X67337225Y-146584790D01*
X67318724Y-146406737D01*
X67324918Y-146332715D01*
X67343270Y-146262939D01*
X67373739Y-146198837D01*
X67415078Y-146144787D01*
X67467440Y-146100509D01*
X67533963Y-146065286D01*
X67608970Y-146043357D01*
X67697911Y-146035610D01*
X67850641Y-146053339D01*
X67991002Y-146105952D01*
X68121027Y-146186762D01*
X68247091Y-146293531D01*
X68511423Y-145950064D01*
X68326265Y-145802995D01*
X68119047Y-145688480D01*
X67970736Y-145634181D01*
X67813845Y-145601288D01*
X67646620Y-145590111D01*
X67455500Y-145603170D01*
X67289964Y-145640303D01*
X67139770Y-145703390D01*
X67016290Y-145788681D01*
X66916045Y-145898228D01*
X66840069Y-146034328D01*
X66793952Y-146188947D01*
X66777604Y-146373948D01*
X66788622Y-146529950D01*
X66820652Y-146671802D01*
X66872953Y-146807056D01*
X66945765Y-146940896D01*
X67035366Y-147069522D01*
X67147632Y-147202847D01*
X67421123Y-147479085D01*
X67810568Y-147852777D01*
X66681250Y-147852777D01*
X66681250Y-148310000D01*
X68499150Y-148310000D01*
G37*
D11*
X85704286Y-150374619D02*
X85704286Y-149374619D01*
X85704286Y-149374619D02*
X85370953Y-150088904D01*
X85370953Y-150088904D02*
X85037620Y-149374619D01*
X85037620Y-149374619D02*
X85037620Y-150374619D01*
X84418572Y-150374619D02*
X84513810Y-150327000D01*
X84513810Y-150327000D02*
X84561429Y-150279380D01*
X84561429Y-150279380D02*
X84609048Y-150184142D01*
X84609048Y-150184142D02*
X84609048Y-149898428D01*
X84609048Y-149898428D02*
X84561429Y-149803190D01*
X84561429Y-149803190D02*
X84513810Y-149755571D01*
X84513810Y-149755571D02*
X84418572Y-149707952D01*
X84418572Y-149707952D02*
X84275715Y-149707952D01*
X84275715Y-149707952D02*
X84180477Y-149755571D01*
X84180477Y-149755571D02*
X84132858Y-149803190D01*
X84132858Y-149803190D02*
X84085239Y-149898428D01*
X84085239Y-149898428D02*
X84085239Y-150184142D01*
X84085239Y-150184142D02*
X84132858Y-150279380D01*
X84132858Y-150279380D02*
X84180477Y-150327000D01*
X84180477Y-150327000D02*
X84275715Y-150374619D01*
X84275715Y-150374619D02*
X84418572Y-150374619D01*
X83228096Y-150374619D02*
X83228096Y-149374619D01*
X83228096Y-150327000D02*
X83323334Y-150374619D01*
X83323334Y-150374619D02*
X83513810Y-150374619D01*
X83513810Y-150374619D02*
X83609048Y-150327000D01*
X83609048Y-150327000D02*
X83656667Y-150279380D01*
X83656667Y-150279380D02*
X83704286Y-150184142D01*
X83704286Y-150184142D02*
X83704286Y-149898428D01*
X83704286Y-149898428D02*
X83656667Y-149803190D01*
X83656667Y-149803190D02*
X83609048Y-149755571D01*
X83609048Y-149755571D02*
X83513810Y-149707952D01*
X83513810Y-149707952D02*
X83323334Y-149707952D01*
X83323334Y-149707952D02*
X83228096Y-149755571D01*
X82323334Y-149707952D02*
X82323334Y-150374619D01*
X82751905Y-149707952D02*
X82751905Y-150231761D01*
X82751905Y-150231761D02*
X82704286Y-150327000D01*
X82704286Y-150327000D02*
X82609048Y-150374619D01*
X82609048Y-150374619D02*
X82466191Y-150374619D01*
X82466191Y-150374619D02*
X82370953Y-150327000D01*
X82370953Y-150327000D02*
X82323334Y-150279380D01*
X81704286Y-150374619D02*
X81799524Y-150327000D01*
X81799524Y-150327000D02*
X81847143Y-150231761D01*
X81847143Y-150231761D02*
X81847143Y-149374619D01*
X80894762Y-150374619D02*
X80894762Y-149850809D01*
X80894762Y-149850809D02*
X80942381Y-149755571D01*
X80942381Y-149755571D02*
X81037619Y-149707952D01*
X81037619Y-149707952D02*
X81228095Y-149707952D01*
X81228095Y-149707952D02*
X81323333Y-149755571D01*
X80894762Y-150327000D02*
X80990000Y-150374619D01*
X80990000Y-150374619D02*
X81228095Y-150374619D01*
X81228095Y-150374619D02*
X81323333Y-150327000D01*
X81323333Y-150327000D02*
X81370952Y-150231761D01*
X81370952Y-150231761D02*
X81370952Y-150136523D01*
X81370952Y-150136523D02*
X81323333Y-150041285D01*
X81323333Y-150041285D02*
X81228095Y-149993666D01*
X81228095Y-149993666D02*
X80990000Y-149993666D01*
X80990000Y-149993666D02*
X80894762Y-149946047D01*
X80418571Y-150374619D02*
X80418571Y-149707952D01*
X80418571Y-149898428D02*
X80370952Y-149803190D01*
X80370952Y-149803190D02*
X80323333Y-149755571D01*
X80323333Y-149755571D02*
X80228095Y-149707952D01*
X80228095Y-149707952D02*
X80132857Y-149707952D01*
X78466190Y-150279380D02*
X78513809Y-150327000D01*
X78513809Y-150327000D02*
X78656666Y-150374619D01*
X78656666Y-150374619D02*
X78751904Y-150374619D01*
X78751904Y-150374619D02*
X78894761Y-150327000D01*
X78894761Y-150327000D02*
X78989999Y-150231761D01*
X78989999Y-150231761D02*
X79037618Y-150136523D01*
X79037618Y-150136523D02*
X79085237Y-149946047D01*
X79085237Y-149946047D02*
X79085237Y-149803190D01*
X79085237Y-149803190D02*
X79037618Y-149612714D01*
X79037618Y-149612714D02*
X78989999Y-149517476D01*
X78989999Y-149517476D02*
X78894761Y-149422238D01*
X78894761Y-149422238D02*
X78751904Y-149374619D01*
X78751904Y-149374619D02*
X78656666Y-149374619D01*
X78656666Y-149374619D02*
X78513809Y-149422238D01*
X78513809Y-149422238D02*
X78466190Y-149469857D01*
X78037618Y-150374619D02*
X78037618Y-149374619D01*
X78037618Y-149374619D02*
X77466190Y-150374619D01*
X77466190Y-150374619D02*
X77466190Y-149374619D01*
X76418571Y-150279380D02*
X76466190Y-150327000D01*
X76466190Y-150327000D02*
X76609047Y-150374619D01*
X76609047Y-150374619D02*
X76704285Y-150374619D01*
X76704285Y-150374619D02*
X76847142Y-150327000D01*
X76847142Y-150327000D02*
X76942380Y-150231761D01*
X76942380Y-150231761D02*
X76989999Y-150136523D01*
X76989999Y-150136523D02*
X77037618Y-149946047D01*
X77037618Y-149946047D02*
X77037618Y-149803190D01*
X77037618Y-149803190D02*
X76989999Y-149612714D01*
X76989999Y-149612714D02*
X76942380Y-149517476D01*
X76942380Y-149517476D02*
X76847142Y-149422238D01*
X76847142Y-149422238D02*
X76704285Y-149374619D01*
X76704285Y-149374619D02*
X76609047Y-149374619D01*
X76609047Y-149374619D02*
X76466190Y-149422238D01*
X76466190Y-149422238D02*
X76418571Y-149469857D01*
X74656666Y-150279380D02*
X74704285Y-150327000D01*
X74704285Y-150327000D02*
X74847142Y-150374619D01*
X74847142Y-150374619D02*
X74942380Y-150374619D01*
X74942380Y-150374619D02*
X75085237Y-150327000D01*
X75085237Y-150327000D02*
X75180475Y-150231761D01*
X75180475Y-150231761D02*
X75228094Y-150136523D01*
X75228094Y-150136523D02*
X75275713Y-149946047D01*
X75275713Y-149946047D02*
X75275713Y-149803190D01*
X75275713Y-149803190D02*
X75228094Y-149612714D01*
X75228094Y-149612714D02*
X75180475Y-149517476D01*
X75180475Y-149517476D02*
X75085237Y-149422238D01*
X75085237Y-149422238D02*
X74942380Y-149374619D01*
X74942380Y-149374619D02*
X74847142Y-149374619D01*
X74847142Y-149374619D02*
X74704285Y-149422238D01*
X74704285Y-149422238D02*
X74656666Y-149469857D01*
X74085237Y-150374619D02*
X74180475Y-150327000D01*
X74180475Y-150327000D02*
X74228094Y-150279380D01*
X74228094Y-150279380D02*
X74275713Y-150184142D01*
X74275713Y-150184142D02*
X74275713Y-149898428D01*
X74275713Y-149898428D02*
X74228094Y-149803190D01*
X74228094Y-149803190D02*
X74180475Y-149755571D01*
X74180475Y-149755571D02*
X74085237Y-149707952D01*
X74085237Y-149707952D02*
X73942380Y-149707952D01*
X73942380Y-149707952D02*
X73847142Y-149755571D01*
X73847142Y-149755571D02*
X73799523Y-149803190D01*
X73799523Y-149803190D02*
X73751904Y-149898428D01*
X73751904Y-149898428D02*
X73751904Y-150184142D01*
X73751904Y-150184142D02*
X73799523Y-150279380D01*
X73799523Y-150279380D02*
X73847142Y-150327000D01*
X73847142Y-150327000D02*
X73942380Y-150374619D01*
X73942380Y-150374619D02*
X74085237Y-150374619D01*
X73323332Y-149707952D02*
X73323332Y-150374619D01*
X73323332Y-149803190D02*
X73275713Y-149755571D01*
X73275713Y-149755571D02*
X73180475Y-149707952D01*
X73180475Y-149707952D02*
X73037618Y-149707952D01*
X73037618Y-149707952D02*
X72942380Y-149755571D01*
X72942380Y-149755571D02*
X72894761Y-149850809D01*
X72894761Y-149850809D02*
X72894761Y-150374619D01*
X72561427Y-149707952D02*
X72180475Y-149707952D01*
X72418570Y-149374619D02*
X72418570Y-150231761D01*
X72418570Y-150231761D02*
X72370951Y-150327000D01*
X72370951Y-150327000D02*
X72275713Y-150374619D01*
X72275713Y-150374619D02*
X72180475Y-150374619D01*
X71847141Y-150374619D02*
X71847141Y-149707952D01*
X71847141Y-149898428D02*
X71799522Y-149803190D01*
X71799522Y-149803190D02*
X71751903Y-149755571D01*
X71751903Y-149755571D02*
X71656665Y-149707952D01*
X71656665Y-149707952D02*
X71561427Y-149707952D01*
X71085236Y-150374619D02*
X71180474Y-150327000D01*
X71180474Y-150327000D02*
X71228093Y-150279380D01*
X71228093Y-150279380D02*
X71275712Y-150184142D01*
X71275712Y-150184142D02*
X71275712Y-149898428D01*
X71275712Y-149898428D02*
X71228093Y-149803190D01*
X71228093Y-149803190D02*
X71180474Y-149755571D01*
X71180474Y-149755571D02*
X71085236Y-149707952D01*
X71085236Y-149707952D02*
X70942379Y-149707952D01*
X70942379Y-149707952D02*
X70847141Y-149755571D01*
X70847141Y-149755571D02*
X70799522Y-149803190D01*
X70799522Y-149803190D02*
X70751903Y-149898428D01*
X70751903Y-149898428D02*
X70751903Y-150184142D01*
X70751903Y-150184142D02*
X70799522Y-150279380D01*
X70799522Y-150279380D02*
X70847141Y-150327000D01*
X70847141Y-150327000D02*
X70942379Y-150374619D01*
X70942379Y-150374619D02*
X71085236Y-150374619D01*
X70180474Y-150374619D02*
X70275712Y-150327000D01*
X70275712Y-150327000D02*
X70323331Y-150231761D01*
X70323331Y-150231761D02*
X70323331Y-149374619D01*
D12*
G36*
X70893274Y-155015850D02*
G01*
X70893274Y-155081480D01*
X70893276Y-155550268D01*
X70727183Y-155550268D01*
X70561101Y-155550268D01*
X70561101Y-155539553D01*
X70561101Y-155528837D01*
X70515557Y-155528837D01*
X70470019Y-155528837D01*
X70470019Y-155516783D01*
X70470019Y-155504731D01*
X70448592Y-155504731D01*
X70427161Y-155504731D01*
X70427161Y-155494012D01*
X70427161Y-155483300D01*
X70404388Y-155483300D01*
X70381621Y-155483300D01*
X70381621Y-155472586D01*
X70381621Y-155461867D01*
X70370906Y-155461867D01*
X70360189Y-155461867D01*
X70360189Y-155449816D01*
X70360189Y-155437759D01*
X70349475Y-155437759D01*
X70338758Y-155437759D01*
X70338758Y-155427045D01*
X70338758Y-155416330D01*
X70326704Y-155416330D01*
X70314650Y-155416330D01*
X70314650Y-155393559D01*
X70314650Y-155370789D01*
X70303933Y-155370789D01*
X70293220Y-155370789D01*
X70293220Y-155349359D01*
X70293220Y-155327929D01*
X70282499Y-155327929D01*
X70271787Y-155327929D01*
X70271787Y-155204705D01*
X70271787Y-155172563D01*
X70427159Y-155172563D01*
X70427159Y-155206044D01*
X70427159Y-155239531D01*
X70437875Y-155239531D01*
X70448592Y-155239531D01*
X70448592Y-155273016D01*
X70448592Y-155306502D01*
X70459310Y-155306502D01*
X70470019Y-155306502D01*
X70470019Y-155317215D01*
X70470019Y-155327930D01*
X70482075Y-155327930D01*
X70494129Y-155327930D01*
X70494129Y-155338647D01*
X70494129Y-155349362D01*
X70527613Y-155349362D01*
X70561099Y-155349362D01*
X70561099Y-155360076D01*
X70561099Y-155370793D01*
X70638790Y-155370793D01*
X70716472Y-155370793D01*
X70716472Y-155226140D01*
X70716472Y-155081480D01*
X70693700Y-155081480D01*
X70670934Y-155081480D01*
X70670934Y-155070764D01*
X70670934Y-155060049D01*
X70649501Y-155060049D01*
X70628071Y-155060049D01*
X70628071Y-155049333D01*
X70628071Y-155038620D01*
X70605299Y-155038620D01*
X70582528Y-155038620D01*
X70582528Y-155049333D01*
X70582528Y-155060049D01*
X70549044Y-155060049D01*
X70515557Y-155060049D01*
X70515557Y-155070764D01*
X70515557Y-155081480D01*
X70504844Y-155081480D01*
X70494129Y-155081480D01*
X70494129Y-155093537D01*
X70494129Y-155105592D01*
X70482075Y-155105592D01*
X70470019Y-155105592D01*
X70470019Y-155116305D01*
X70470019Y-155127020D01*
X70459310Y-155127020D01*
X70448592Y-155127020D01*
X70448592Y-155149791D01*
X70448592Y-155172563D01*
X70437875Y-155172563D01*
X70427159Y-155172563D01*
X70271787Y-155172563D01*
X70271787Y-155081477D01*
X70282499Y-155081477D01*
X70293220Y-155081477D01*
X70293220Y-155060045D01*
X70293220Y-155038616D01*
X70303933Y-155038616D01*
X70314650Y-155038616D01*
X70314650Y-155026563D01*
X70314650Y-155014510D01*
X70326704Y-155014510D01*
X70338758Y-155014510D01*
X70338758Y-154993079D01*
X70338758Y-154971647D01*
X70349475Y-154971647D01*
X70360189Y-154971647D01*
X70360189Y-154960933D01*
X70360189Y-154950220D01*
X70370906Y-154950220D01*
X70381621Y-154950220D01*
X70381621Y-154927447D01*
X70381621Y-154904678D01*
X70370906Y-154904678D01*
X70360189Y-154904678D01*
X70360189Y-154881911D01*
X70360189Y-154859137D01*
X70349475Y-154859137D01*
X70338758Y-154859137D01*
X70338758Y-154760020D01*
X70338758Y-154725200D01*
X70494129Y-154725200D01*
X70494129Y-154747968D01*
X70494129Y-154770740D01*
X70504844Y-154770740D01*
X70515557Y-154770740D01*
X70515557Y-154804224D01*
X70515557Y-154837707D01*
X70526274Y-154837707D01*
X70536989Y-154837707D01*
X70536989Y-154848424D01*
X70536989Y-154859138D01*
X70570476Y-154859138D01*
X70603963Y-154859138D01*
X70603963Y-154871194D01*
X70603963Y-154883250D01*
X70660216Y-154883250D01*
X70716472Y-154883250D01*
X70716472Y-154760023D01*
X70716472Y-154636799D01*
X70660216Y-154636799D01*
X70603963Y-154636799D01*
X70603963Y-154648855D01*
X70603963Y-154660909D01*
X70570476Y-154660909D01*
X70536989Y-154660909D01*
X70536989Y-154671622D01*
X70536989Y-154682338D01*
X70526274Y-154682338D01*
X70515557Y-154682338D01*
X70515557Y-154703770D01*
X70515557Y-154725200D01*
X70504844Y-154725200D01*
X70494129Y-154725200D01*
X70338758Y-154725200D01*
X70338758Y-154660908D01*
X70349475Y-154660908D01*
X70360189Y-154660908D01*
X70360189Y-154638139D01*
X70360189Y-154615368D01*
X70370906Y-154615368D01*
X70381621Y-154615368D01*
X70381621Y-154592596D01*
X70381621Y-154569831D01*
X70393674Y-154569831D01*
X70405731Y-154569831D01*
X70405731Y-154559113D01*
X70405731Y-154548398D01*
X70416447Y-154548398D01*
X70427159Y-154548398D01*
X70427159Y-154537683D01*
X70427159Y-154526967D01*
X70448592Y-154526967D01*
X70470019Y-154526967D01*
X70470019Y-154514913D01*
X70470019Y-154502857D01*
X70492791Y-154502857D01*
X70515557Y-154502857D01*
X70515557Y-154492143D01*
X70515557Y-154481426D01*
X70704417Y-154481426D01*
X70893274Y-154481426D01*
X70893274Y-154760023D01*
X70893274Y-155015850D01*
G37*
G36*
X73119361Y-155015850D02*
G01*
X73119362Y-155127020D01*
X73119366Y-155550270D01*
X72953279Y-155550270D01*
X72787192Y-155550270D01*
X72787192Y-155539555D01*
X72787192Y-155528840D01*
X72741654Y-155528840D01*
X72696116Y-155528840D01*
X72696116Y-155516785D01*
X72696116Y-155504731D01*
X72674683Y-155504731D01*
X72653250Y-155504731D01*
X72653250Y-155494014D01*
X72653250Y-155483302D01*
X72642534Y-155483302D01*
X72631822Y-155483302D01*
X72631822Y-155472586D01*
X72631822Y-155461867D01*
X72609052Y-155461867D01*
X72586277Y-155461867D01*
X72586277Y-155449818D01*
X72586277Y-155437762D01*
X72575568Y-155437762D01*
X72564854Y-155437762D01*
X72564854Y-155416330D01*
X72564854Y-155394898D01*
X72552795Y-155394898D01*
X72540743Y-155394898D01*
X72540743Y-155382845D01*
X72540743Y-155370789D01*
X72530024Y-155370789D01*
X72519313Y-155370789D01*
X72519313Y-155338646D01*
X72519313Y-155306500D01*
X72508601Y-155306500D01*
X72497882Y-155306500D01*
X72497882Y-155206043D01*
X72497882Y-155127020D01*
X72674683Y-155127020D01*
X72674683Y-155204705D01*
X72674683Y-155282392D01*
X72685398Y-155282392D01*
X72696114Y-155282392D01*
X72696114Y-155294446D01*
X72696114Y-155306502D01*
X72708169Y-155306502D01*
X72720220Y-155306502D01*
X72720220Y-155317215D01*
X72720220Y-155327930D01*
X72730938Y-155327930D01*
X72741654Y-155327930D01*
X72741654Y-155338647D01*
X72741654Y-155349362D01*
X72764424Y-155349362D01*
X72787192Y-155349362D01*
X72787192Y-155360076D01*
X72787192Y-155370793D01*
X72875594Y-155370793D01*
X72963994Y-155370793D01*
X72963994Y-155248908D01*
X72963994Y-155127020D01*
X72953277Y-155127020D01*
X72942566Y-155127020D01*
X72942566Y-155104251D01*
X72942566Y-155081483D01*
X72931850Y-155081483D01*
X72921134Y-155081483D01*
X72921134Y-155070766D01*
X72921134Y-155060049D01*
X72887650Y-155060049D01*
X72854161Y-155060049D01*
X72854161Y-155049335D01*
X72854161Y-155038622D01*
X72831391Y-155038622D01*
X72808620Y-155038622D01*
X72808620Y-155049335D01*
X72808620Y-155060049D01*
X72775135Y-155060049D01*
X72741654Y-155060049D01*
X72741654Y-155070766D01*
X72741654Y-155081483D01*
X72730938Y-155081483D01*
X72720220Y-155081483D01*
X72720220Y-155093537D01*
X72720220Y-155105592D01*
X72708169Y-155105592D01*
X72696114Y-155105592D01*
X72696114Y-155116305D01*
X72696114Y-155127020D01*
X72685398Y-155127020D01*
X72674683Y-155127020D01*
X72497882Y-155127020D01*
X72497882Y-155105591D01*
X72508601Y-155105591D01*
X72519313Y-155105591D01*
X72519313Y-155082820D01*
X72519313Y-155060045D01*
X72530024Y-155060045D01*
X72540743Y-155060045D01*
X72540743Y-155037279D01*
X72540743Y-155014510D01*
X72552795Y-155014510D01*
X72564854Y-155014510D01*
X72564854Y-155003792D01*
X72564854Y-154993079D01*
X72575568Y-154993079D01*
X72586277Y-154993079D01*
X72586277Y-154982365D01*
X72586277Y-154971647D01*
X72596997Y-154971647D01*
X72607711Y-154971647D01*
X72607711Y-154938161D01*
X72607711Y-154904678D01*
X72596997Y-154904678D01*
X72586277Y-154904678D01*
X72586277Y-154881909D01*
X72586277Y-154859137D01*
X72575568Y-154859137D01*
X72564854Y-154859137D01*
X72564854Y-154760020D01*
X72564854Y-154703770D01*
X72741654Y-154703770D01*
X72741654Y-154760023D01*
X72741654Y-154816277D01*
X72752368Y-154816277D01*
X72763083Y-154816277D01*
X72763083Y-154826994D01*
X72763083Y-154837707D01*
X72775135Y-154837707D01*
X72787192Y-154837707D01*
X72787192Y-154848424D01*
X72787192Y-154859138D01*
X72808620Y-154859138D01*
X72830049Y-154859138D01*
X72830049Y-154871194D01*
X72830049Y-154883250D01*
X72897022Y-154883250D01*
X72963995Y-154883250D01*
X72963995Y-154772077D01*
X72963995Y-154660909D01*
X72953277Y-154660909D01*
X72942566Y-154660909D01*
X72942566Y-154648855D01*
X72942566Y-154636801D01*
X72886308Y-154636801D01*
X72830049Y-154636801D01*
X72830049Y-154648855D01*
X72830049Y-154660909D01*
X72808620Y-154660909D01*
X72787192Y-154660909D01*
X72787192Y-154671624D01*
X72787192Y-154682338D01*
X72775135Y-154682338D01*
X72763083Y-154682338D01*
X72763083Y-154693053D01*
X72763083Y-154703770D01*
X72752368Y-154703770D01*
X72741654Y-154703770D01*
X72564854Y-154703770D01*
X72564854Y-154660908D01*
X72575568Y-154660908D01*
X72586277Y-154660908D01*
X72586277Y-154638139D01*
X72586277Y-154615368D01*
X72596997Y-154615368D01*
X72607711Y-154615368D01*
X72607711Y-154604655D01*
X72607711Y-154593939D01*
X72619768Y-154593939D01*
X72631822Y-154593939D01*
X72631822Y-154581884D01*
X72631822Y-154569831D01*
X72642534Y-154569831D01*
X72653250Y-154569831D01*
X72653250Y-154559113D01*
X72653250Y-154548398D01*
X72663968Y-154548398D01*
X72674683Y-154548398D01*
X72674683Y-154537683D01*
X72674683Y-154526967D01*
X72685398Y-154526967D01*
X72696114Y-154526967D01*
X72696114Y-154514913D01*
X72696114Y-154502857D01*
X72718881Y-154502857D01*
X72741654Y-154502857D01*
X72741654Y-154492143D01*
X72741654Y-154481426D01*
X72930511Y-154481426D01*
X73119361Y-154481426D01*
X73119361Y-154660909D01*
X73119361Y-155015850D01*
G37*
G36*
X74501630Y-154904679D02*
G01*
X74501630Y-155327930D01*
X74489576Y-155327930D01*
X74477520Y-155327930D01*
X74477520Y-155372131D01*
X74477520Y-155416333D01*
X74466806Y-155416333D01*
X74456093Y-155416333D01*
X74456093Y-155439103D01*
X74456093Y-155461872D01*
X74445376Y-155461872D01*
X74434657Y-155461872D01*
X74434657Y-155472590D01*
X74434657Y-155483302D01*
X74422604Y-155483302D01*
X74410553Y-155483302D01*
X74410553Y-155494014D01*
X74410553Y-155504732D01*
X74399837Y-155504732D01*
X74389120Y-155504732D01*
X74389120Y-155516788D01*
X74389120Y-155528842D01*
X74378405Y-155528842D01*
X74367690Y-155528842D01*
X74367690Y-155539555D01*
X74367690Y-155550272D01*
X74344922Y-155550272D01*
X74322149Y-155550272D01*
X74322149Y-155294445D01*
X74322149Y-155038619D01*
X74210979Y-155038619D01*
X74099809Y-155038619D01*
X74099809Y-154948877D01*
X74099809Y-154859138D01*
X74210979Y-154859138D01*
X74322149Y-154859138D01*
X74322149Y-154747968D01*
X74322149Y-154636799D01*
X74166779Y-154636799D01*
X74011408Y-154636799D01*
X74011408Y-154559115D01*
X74011408Y-154481426D01*
X74256517Y-154481426D01*
X74501630Y-154481426D01*
X74501630Y-154904679D01*
G37*
G36*
X76347338Y-154181408D02*
G01*
X76347338Y-154192121D01*
X76370098Y-154192121D01*
X76392871Y-154192121D01*
X76392871Y-154202836D01*
X76392871Y-154213550D01*
X76415639Y-154213550D01*
X76438410Y-154213550D01*
X76438410Y-154225604D01*
X76438410Y-154237660D01*
X76449127Y-154237660D01*
X76459843Y-154237660D01*
X76459843Y-154248376D01*
X76459843Y-154259089D01*
X76470557Y-154259089D01*
X76481270Y-154259089D01*
X76481270Y-154269808D01*
X76481270Y-154280521D01*
X76491987Y-154280521D01*
X76502705Y-154280521D01*
X76502705Y-154292577D01*
X76502705Y-154304631D01*
X76514762Y-154304631D01*
X76526814Y-154304631D01*
X76526814Y-154326061D01*
X76526814Y-154347493D01*
X76537528Y-154347493D01*
X76548245Y-154347493D01*
X76548245Y-154370261D01*
X76548245Y-154393028D01*
X76558960Y-154393028D01*
X76569676Y-154393028D01*
X76569676Y-154437232D01*
X76569676Y-154481431D01*
X76581726Y-154481431D01*
X76593783Y-154481431D01*
X76593783Y-154525631D01*
X76593783Y-154569837D01*
X76581726Y-154569837D01*
X76569676Y-154569837D01*
X76569676Y-154615376D01*
X76569676Y-154660914D01*
X76558960Y-154660914D01*
X76548245Y-154660914D01*
X76548245Y-154682344D01*
X76548245Y-154703774D01*
X76537528Y-154703774D01*
X76526814Y-154703774D01*
X76526814Y-154714491D01*
X76526814Y-154725203D01*
X76514762Y-154725203D01*
X76502705Y-154725203D01*
X76502705Y-154747973D01*
X76502705Y-154770745D01*
X76491987Y-154770745D01*
X76481270Y-154770745D01*
X76481270Y-154781461D01*
X76481270Y-154792176D01*
X76470557Y-154792176D01*
X76459843Y-154792176D01*
X76459843Y-154804227D01*
X76459843Y-154816281D01*
X76437071Y-154816281D01*
X76414304Y-154816281D01*
X76414304Y-154827001D01*
X76414304Y-154837712D01*
X76392871Y-154837712D01*
X76371442Y-154837712D01*
X76371442Y-154848427D01*
X76371442Y-154859141D01*
X76359382Y-154859141D01*
X76347338Y-154859141D01*
X76347338Y-154915398D01*
X76347338Y-154971652D01*
X76359382Y-154971652D01*
X76371442Y-154971652D01*
X76371442Y-154982370D01*
X76371442Y-154993083D01*
X76382155Y-154993083D01*
X76392871Y-154993083D01*
X76392871Y-155003798D01*
X76392871Y-155014513D01*
X76403588Y-155014513D01*
X76414304Y-155014513D01*
X76414304Y-155026569D01*
X76414304Y-155038624D01*
X76426358Y-155038624D01*
X76438410Y-155038624D01*
X76438410Y-155049336D01*
X76438410Y-155060049D01*
X76504040Y-155060049D01*
X76569676Y-155060049D01*
X76569676Y-155049336D01*
X76569676Y-155038624D01*
X76592441Y-155038624D01*
X76615211Y-155038624D01*
X76615211Y-155026569D01*
X76615211Y-155014513D01*
X76637982Y-155014513D01*
X76660749Y-155014513D01*
X76660749Y-155003798D01*
X76660749Y-154993083D01*
X76671468Y-154993083D01*
X76682184Y-154993083D01*
X76682184Y-154982370D01*
X76682184Y-154971652D01*
X76704951Y-154971652D01*
X76727721Y-154971652D01*
X76727721Y-154960937D01*
X76727721Y-154950223D01*
X76749151Y-154950223D01*
X76770582Y-154950223D01*
X76770582Y-154938169D01*
X76770582Y-154926113D01*
X76793350Y-154926113D01*
X76816119Y-154926113D01*
X76816119Y-154915398D01*
X76816119Y-154904683D01*
X76826842Y-154904683D01*
X76837552Y-154904683D01*
X76837552Y-154893968D01*
X76837552Y-154883254D01*
X76860322Y-154883254D01*
X76883094Y-154883254D01*
X76883094Y-154871199D01*
X76883094Y-154859143D01*
X76904520Y-154859143D01*
X76925948Y-154859143D01*
X76925948Y-154848428D01*
X76925948Y-154837714D01*
X76938009Y-154837714D01*
X76950060Y-154837714D01*
X76950060Y-154827001D01*
X76950060Y-154816281D01*
X76971495Y-154816281D01*
X76992927Y-154816281D01*
X76992927Y-154804227D01*
X76992927Y-154792176D01*
X77015691Y-154792176D01*
X77038463Y-154792176D01*
X77038463Y-154781461D01*
X77038463Y-154770745D01*
X77061234Y-154770745D01*
X77084003Y-154770745D01*
X77084003Y-154760028D01*
X77084003Y-154749314D01*
X77094719Y-154749314D01*
X77105434Y-154749314D01*
X77105434Y-154737260D01*
X77105434Y-154725205D01*
X77138919Y-154725205D01*
X77172403Y-154725205D01*
X77172403Y-154737260D01*
X77172403Y-154749314D01*
X77193836Y-154749314D01*
X77215266Y-154749314D01*
X77215266Y-154760028D01*
X77215266Y-154770745D01*
X77227320Y-154770745D01*
X77239377Y-154770745D01*
X77239377Y-154781461D01*
X77239377Y-154792176D01*
X77250093Y-154792176D01*
X77260808Y-154792176D01*
X77260808Y-154804227D01*
X77260808Y-154816281D01*
X77271523Y-154816281D01*
X77282237Y-154816281D01*
X77282237Y-154837714D01*
X77282237Y-154859143D01*
X77294292Y-154859143D01*
X77306347Y-154859143D01*
X77306347Y-154871199D01*
X77306347Y-154883254D01*
X77317057Y-154883254D01*
X77327773Y-154883254D01*
X77327773Y-154916741D01*
X77327773Y-154950225D01*
X77317057Y-154950225D01*
X77306347Y-154950225D01*
X77306347Y-154960940D01*
X77306347Y-154971653D01*
X77294292Y-154971653D01*
X77282237Y-154971653D01*
X77282237Y-154982370D01*
X77282237Y-154993085D01*
X77271523Y-154993085D01*
X77260808Y-154993085D01*
X77260808Y-155003800D01*
X77260808Y-155014515D01*
X77238034Y-155014515D01*
X77215266Y-155014515D01*
X77215266Y-155026569D01*
X77215266Y-155038625D01*
X77193836Y-155038625D01*
X77172403Y-155038625D01*
X77172403Y-155049340D01*
X77172403Y-155060049D01*
X77149633Y-155060049D01*
X77126867Y-155060049D01*
X77126867Y-155070770D01*
X77126867Y-155081484D01*
X77116148Y-155081484D01*
X77105434Y-155081484D01*
X77105434Y-155093540D01*
X77105434Y-155105596D01*
X77082668Y-155105596D01*
X77059897Y-155105596D01*
X77059897Y-155116309D01*
X77059897Y-155127023D01*
X77038463Y-155127023D01*
X77017033Y-155127023D01*
X77017033Y-155137740D01*
X77017033Y-155148455D01*
X77004979Y-155148455D01*
X76992927Y-155148455D01*
X76992927Y-155160509D01*
X76992927Y-155172563D01*
X76971495Y-155172563D01*
X76950060Y-155172563D01*
X76950060Y-155183279D01*
X76950060Y-155193992D01*
X76927293Y-155193992D01*
X76904520Y-155193992D01*
X76904520Y-155204709D01*
X76904520Y-155215425D01*
X76893807Y-155215425D01*
X76883094Y-155215425D01*
X76883094Y-155227479D01*
X76883094Y-155239531D01*
X76860322Y-155239531D01*
X76837552Y-155239531D01*
X76837552Y-155250248D01*
X76837552Y-155260961D01*
X76814776Y-155260961D01*
X76792011Y-155260961D01*
X76792011Y-155271678D01*
X76792011Y-155282393D01*
X76781301Y-155282393D01*
X76770582Y-155282393D01*
X76770582Y-155294448D01*
X76770582Y-155306503D01*
X76749151Y-155306503D01*
X76727721Y-155306503D01*
X76727721Y-155317216D01*
X76727721Y-155327932D01*
X76704951Y-155327932D01*
X76682184Y-155327932D01*
X76682184Y-155338647D01*
X76682184Y-155349363D01*
X76659413Y-155349363D01*
X76636644Y-155349363D01*
X76636644Y-155360077D01*
X76636644Y-155370793D01*
X76625929Y-155370793D01*
X76615211Y-155370793D01*
X76615211Y-155382846D01*
X76615211Y-155394903D01*
X76592441Y-155394903D01*
X76569676Y-155394903D01*
X76569676Y-155405619D01*
X76569676Y-155416333D01*
X76548245Y-155416333D01*
X76526814Y-155416333D01*
X76526814Y-155427048D01*
X76526814Y-155437764D01*
X76514762Y-155437764D01*
X76502705Y-155437764D01*
X76502705Y-155449818D01*
X76502705Y-155461872D01*
X76481270Y-155461872D01*
X76459847Y-155461872D01*
X76459847Y-155472590D01*
X76459847Y-155483302D01*
X76437071Y-155483302D01*
X76414304Y-155483302D01*
X76414304Y-155494014D01*
X76414304Y-155504732D01*
X76392871Y-155504732D01*
X76371442Y-155504732D01*
X76371442Y-155516788D01*
X76371442Y-155528842D01*
X76348672Y-155528842D01*
X76325901Y-155528842D01*
X76325901Y-155539555D01*
X76325901Y-155550272D01*
X76236164Y-155550272D01*
X76146420Y-155550272D01*
X76146420Y-155539555D01*
X76146420Y-155528844D01*
X76124991Y-155528844D01*
X76103560Y-155528844D01*
X76103560Y-155516788D01*
X76103560Y-155504734D01*
X76080787Y-155504734D01*
X76058018Y-155504734D01*
X76058018Y-155494014D01*
X76058018Y-155483303D01*
X76036587Y-155483303D01*
X76015158Y-155483303D01*
X76015158Y-155472590D01*
X76015158Y-155461872D01*
X75992389Y-155461872D01*
X75969618Y-155461872D01*
X75969618Y-155449819D01*
X75969618Y-155437764D01*
X75958902Y-155437764D01*
X75948192Y-155437764D01*
X75948192Y-155427048D01*
X75948192Y-155416333D01*
X75925418Y-155416333D01*
X75902648Y-155416333D01*
X75902648Y-155405619D01*
X75902648Y-155394903D01*
X75879878Y-155394903D01*
X75857108Y-155394903D01*
X75857108Y-155382849D01*
X75857108Y-155370795D01*
X75846392Y-155370795D01*
X75835677Y-155370795D01*
X75835677Y-155360077D01*
X75835677Y-155349363D01*
X75814244Y-155349363D01*
X75792818Y-155349363D01*
X75792818Y-155338649D01*
X75792818Y-155327933D01*
X75770044Y-155327933D01*
X75747275Y-155327933D01*
X75747275Y-155317216D01*
X75747275Y-155306503D01*
X75724510Y-155306503D01*
X75701738Y-155306503D01*
X75701738Y-155294449D01*
X75701738Y-155282393D01*
X75691024Y-155282393D01*
X75680308Y-155282393D01*
X75680308Y-155271678D01*
X75680308Y-155260961D01*
X75657535Y-155260961D01*
X75634765Y-155260961D01*
X75634765Y-155250248D01*
X75634765Y-155239531D01*
X75613335Y-155239531D01*
X75591906Y-155239531D01*
X75591906Y-155227479D01*
X75591906Y-155215428D01*
X75579853Y-155215428D01*
X75567796Y-155215428D01*
X75567796Y-155204709D01*
X75567796Y-155193993D01*
X75546367Y-155193993D01*
X75524935Y-155193993D01*
X75524935Y-155183279D01*
X75524935Y-155172564D01*
X75502168Y-155172564D01*
X75479397Y-155172564D01*
X75479397Y-155160510D01*
X75479397Y-155148455D01*
X75468682Y-155148455D01*
X75457969Y-155148455D01*
X75457969Y-155137741D01*
X75457969Y-155127023D01*
X75435196Y-155127023D01*
X75412425Y-155127023D01*
X75412425Y-155116311D01*
X75412425Y-155105596D01*
X75391000Y-155105596D01*
X75369566Y-155105596D01*
X75369566Y-155093540D01*
X75369566Y-155081486D01*
X75357510Y-155081486D01*
X75345456Y-155081486D01*
X75345456Y-155070770D01*
X75345456Y-155060050D01*
X75324028Y-155060050D01*
X75302595Y-155060050D01*
X75302595Y-155049340D01*
X75302595Y-155038625D01*
X75279827Y-155038625D01*
X75257053Y-155038625D01*
X75257053Y-155026569D01*
X75257053Y-155014515D01*
X75246344Y-155014515D01*
X75235625Y-155014515D01*
X75235625Y-155003800D01*
X75235625Y-154993085D01*
X75212854Y-154993085D01*
X75190087Y-154993085D01*
X75190087Y-154982371D01*
X75190087Y-154971653D01*
X75179369Y-154971653D01*
X75168653Y-154971653D01*
X75168653Y-154960940D01*
X75168653Y-154950225D01*
X75157939Y-154950225D01*
X75147225Y-154950225D01*
X75147225Y-154916741D01*
X75147225Y-154883256D01*
X75157939Y-154883256D01*
X75168653Y-154883256D01*
X75168653Y-154871200D01*
X75168653Y-154859143D01*
X75179369Y-154859143D01*
X75190087Y-154859143D01*
X75190087Y-154837714D01*
X75190087Y-154816282D01*
X75200797Y-154816282D01*
X75211517Y-154816282D01*
X75211517Y-154804227D01*
X75211517Y-154792176D01*
X75223568Y-154792176D01*
X75235625Y-154792176D01*
X75235625Y-154781462D01*
X75235625Y-154770745D01*
X75246344Y-154770745D01*
X75257053Y-154770745D01*
X75257053Y-154760029D01*
X75257053Y-154749316D01*
X75279827Y-154749316D01*
X75302594Y-154749316D01*
X75302594Y-154737260D01*
X75302594Y-154725205D01*
X75336079Y-154725205D01*
X75369566Y-154725205D01*
X75369566Y-154737260D01*
X75369566Y-154749316D01*
X75391000Y-154749316D01*
X75412425Y-154749316D01*
X75412425Y-154760029D01*
X75412425Y-154770745D01*
X75424483Y-154770745D01*
X75436537Y-154770745D01*
X75436537Y-154781462D01*
X75436537Y-154792176D01*
X75457969Y-154792176D01*
X75479397Y-154792176D01*
X75479397Y-154804227D01*
X75479397Y-154816282D01*
X75502168Y-154816282D01*
X75524935Y-154816282D01*
X75524935Y-154827002D01*
X75524935Y-154837714D01*
X75535651Y-154837714D01*
X75546367Y-154837714D01*
X75546367Y-154848428D01*
X75546367Y-154859143D01*
X75569136Y-154859143D01*
X75591906Y-154859143D01*
X75591906Y-154871199D01*
X75591906Y-154883254D01*
X75613335Y-154883254D01*
X75634764Y-154883254D01*
X75634764Y-154893970D01*
X75634764Y-154904683D01*
X75646821Y-154904683D01*
X75658874Y-154904683D01*
X75658874Y-154915398D01*
X75658874Y-154926116D01*
X75680308Y-154926116D01*
X75701738Y-154926116D01*
X75701738Y-154938169D01*
X75701738Y-154950225D01*
X75724510Y-154950225D01*
X75747275Y-154950225D01*
X75747275Y-154960940D01*
X75747275Y-154971653D01*
X75770044Y-154971653D01*
X75792818Y-154971653D01*
X75792818Y-154982370D01*
X75792818Y-154993083D01*
X75803532Y-154993083D01*
X75814244Y-154993083D01*
X75814244Y-155003798D01*
X75814244Y-155014515D01*
X75835677Y-155014515D01*
X75857108Y-155014515D01*
X75857108Y-155026569D01*
X75857108Y-155038624D01*
X75879878Y-155038624D01*
X75902648Y-155038624D01*
X75902648Y-155049336D01*
X75902648Y-155060049D01*
X75969618Y-155060049D01*
X76036587Y-155060049D01*
X76036587Y-155049336D01*
X76036587Y-155038624D01*
X76059357Y-155038624D01*
X76082129Y-155038624D01*
X76082129Y-155026569D01*
X76082129Y-155014515D01*
X76092847Y-155014515D01*
X76103560Y-155014515D01*
X76103560Y-154993083D01*
X76103560Y-154971653D01*
X76114274Y-154971653D01*
X76124991Y-154971653D01*
X76124991Y-154915398D01*
X76124991Y-154859141D01*
X76114274Y-154859141D01*
X76103560Y-154859141D01*
X76103560Y-154848428D01*
X76103560Y-154837712D01*
X76080787Y-154837712D01*
X76058018Y-154837712D01*
X76058018Y-154827001D01*
X76058018Y-154816281D01*
X76036587Y-154816281D01*
X76015158Y-154816281D01*
X76015158Y-154804227D01*
X76015158Y-154792176D01*
X76003102Y-154792176D01*
X75991050Y-154792176D01*
X75991050Y-154781461D01*
X75991050Y-154770745D01*
X75980339Y-154770745D01*
X75969618Y-154770745D01*
X75969618Y-154747973D01*
X75969618Y-154725203D01*
X75958902Y-154725203D01*
X75948192Y-154725203D01*
X75948192Y-154714491D01*
X75948192Y-154703774D01*
X75936132Y-154703774D01*
X75924077Y-154703774D01*
X75924077Y-154682344D01*
X75924077Y-154660914D01*
X75913363Y-154660914D01*
X75902648Y-154660914D01*
X75902648Y-154615376D01*
X75902648Y-154569837D01*
X75891931Y-154569837D01*
X75881214Y-154569837D01*
X75881214Y-154525631D01*
X75881214Y-154481431D01*
X75891931Y-154481431D01*
X75902648Y-154481431D01*
X75902648Y-154437232D01*
X75902648Y-154393028D01*
X75913361Y-154393028D01*
X75924077Y-154393028D01*
X75924077Y-154370261D01*
X75924077Y-154347493D01*
X75936132Y-154347493D01*
X75948192Y-154347493D01*
X75948192Y-154326063D01*
X75948192Y-154304631D01*
X75958902Y-154304631D01*
X75969618Y-154304631D01*
X75969618Y-154292577D01*
X75969618Y-154280521D01*
X75980339Y-154280521D01*
X75991050Y-154280521D01*
X75991050Y-154269808D01*
X75991050Y-154259089D01*
X76003102Y-154259089D01*
X76015158Y-154259089D01*
X76015158Y-154248376D01*
X76015158Y-154237660D01*
X76025873Y-154237660D01*
X76036587Y-154237660D01*
X76036587Y-154225604D01*
X76036587Y-154213550D01*
X76059357Y-154213550D01*
X76082129Y-154213550D01*
X76082129Y-154202836D01*
X76082129Y-154192121D01*
X76103560Y-154192121D01*
X76124991Y-154192121D01*
X76124991Y-154181408D01*
X76124991Y-154170691D01*
X76236164Y-154170691D01*
X76347338Y-154170691D01*
X76347338Y-154181408D01*
G37*
G36*
X72296970Y-154470711D02*
G01*
X72296970Y-154481430D01*
X72307683Y-154481430D01*
X72318401Y-154481430D01*
X72318401Y-154492143D01*
X72318401Y-154502857D01*
X72330451Y-154502857D01*
X72342506Y-154502857D01*
X72342506Y-154514913D01*
X72342506Y-154526967D01*
X72353225Y-154526967D01*
X72363941Y-154526967D01*
X72363941Y-154537683D01*
X72363941Y-154548398D01*
X72374654Y-154548398D01*
X72385367Y-154548398D01*
X72385367Y-154581884D01*
X72385367Y-154615368D01*
X72396087Y-154615368D01*
X72406801Y-154615368D01*
X72406801Y-155082820D01*
X72406801Y-155550275D01*
X72163026Y-155550275D01*
X71919257Y-155550275D01*
X71919257Y-155539557D01*
X71919257Y-155528844D01*
X71907205Y-155528844D01*
X71895151Y-155528844D01*
X71895151Y-155449819D01*
X71895151Y-155370793D01*
X72062574Y-155370793D01*
X72230000Y-155370793D01*
X72230000Y-154915396D01*
X72230000Y-154460000D01*
X72263485Y-154460000D01*
X72296970Y-154460000D01*
X72296970Y-154470711D01*
G37*
G36*
X71696918Y-155148452D02*
G01*
X71707633Y-155148452D01*
X71718346Y-155148452D01*
X71718346Y-155181936D01*
X71718346Y-155215421D01*
X71729065Y-155215421D01*
X71739778Y-155215421D01*
X71739778Y-155238189D01*
X71739778Y-155260959D01*
X71750492Y-155260959D01*
X71761205Y-155260959D01*
X71761205Y-155283732D01*
X71761205Y-155306502D01*
X71773262Y-155306502D01*
X71785319Y-155306502D01*
X71785319Y-155338647D01*
X71785319Y-155370791D01*
X71796031Y-155370791D01*
X71806750Y-155370791D01*
X71806750Y-155393564D01*
X71806750Y-155416333D01*
X71817464Y-155416333D01*
X71828175Y-155416333D01*
X71828175Y-155449818D01*
X71828175Y-155483302D01*
X71840230Y-155483302D01*
X71852288Y-155483302D01*
X71852288Y-155506072D01*
X71852288Y-155528844D01*
X71863005Y-155528844D01*
X71873716Y-155528844D01*
X71873716Y-155550275D01*
X71873724Y-155571701D01*
X71850954Y-155571701D01*
X71828180Y-155571701D01*
X71828180Y-155560987D01*
X71828180Y-155550270D01*
X71783983Y-155550270D01*
X71739784Y-155550270D01*
X71739784Y-155539555D01*
X71739784Y-155528840D01*
X71729070Y-155528840D01*
X71718353Y-155528840D01*
X71718353Y-155516785D01*
X71718353Y-155504731D01*
X71707638Y-155504731D01*
X71696920Y-155504731D01*
X71696920Y-155494014D01*
X71696920Y-155483302D01*
X71684864Y-155483302D01*
X71672812Y-155483302D01*
X71672812Y-155472586D01*
X71672812Y-155461867D01*
X71662098Y-155461867D01*
X71651381Y-155461867D01*
X71651381Y-155449818D01*
X71651381Y-155437762D01*
X71640665Y-155437762D01*
X71629952Y-155437762D01*
X71629952Y-155416330D01*
X71629952Y-155394899D01*
X71617898Y-155394899D01*
X71605842Y-155394899D01*
X71605842Y-155372130D01*
X71605842Y-155349362D01*
X71595127Y-155349362D01*
X71584411Y-155349362D01*
X71584411Y-155338646D01*
X71584411Y-155327930D01*
X71406274Y-155327930D01*
X71228127Y-155327930D01*
X71228127Y-155361417D01*
X71228127Y-155394903D01*
X71217412Y-155394903D01*
X71206696Y-155394903D01*
X71206696Y-155416330D01*
X71206696Y-155437764D01*
X71194647Y-155437764D01*
X71182589Y-155437764D01*
X71182589Y-155471245D01*
X71182589Y-155504732D01*
X71171872Y-155504732D01*
X71161162Y-155504732D01*
X71161162Y-155527504D01*
X71161162Y-155550272D01*
X71072762Y-155550272D01*
X70984361Y-155550272D01*
X70984361Y-155506071D01*
X70984361Y-155461870D01*
X70995071Y-155461870D01*
X71005790Y-155461870D01*
X71005790Y-155439103D01*
X71005790Y-155416330D01*
X71016504Y-155416330D01*
X71027221Y-155416330D01*
X71027221Y-155382845D01*
X71027221Y-155349362D01*
X71039269Y-155349362D01*
X71051330Y-155349362D01*
X71051330Y-155327930D01*
X71051330Y-155306500D01*
X71062043Y-155306500D01*
X71072762Y-155306500D01*
X71072762Y-155273015D01*
X71072762Y-155239530D01*
X71083477Y-155239530D01*
X71094188Y-155239530D01*
X71094188Y-155216758D01*
X71094188Y-155193989D01*
X71104904Y-155193989D01*
X71115621Y-155193989D01*
X71115621Y-155171219D01*
X71115621Y-155148452D01*
X71316518Y-155148452D01*
X71416978Y-155148452D01*
X71517434Y-155148452D01*
X71517434Y-155137739D01*
X71517434Y-155127020D01*
X71506717Y-155127020D01*
X71496005Y-155127020D01*
X71496005Y-155093537D01*
X71496005Y-155060049D01*
X71483949Y-155060049D01*
X71471899Y-155060049D01*
X71471899Y-155026568D01*
X71471899Y-154993080D01*
X71461176Y-154993080D01*
X71450464Y-154993080D01*
X71450464Y-154971652D01*
X71450464Y-154950220D01*
X71439751Y-154950220D01*
X71429032Y-154950220D01*
X71429032Y-154927452D01*
X71429032Y-154904680D01*
X71416978Y-154904680D01*
X71404922Y-154904680D01*
X71404922Y-154915396D01*
X71404922Y-154926112D01*
X71394209Y-154926112D01*
X71383492Y-154926112D01*
X71383492Y-154959593D01*
X71383492Y-154993080D01*
X71372780Y-154993080D01*
X71362064Y-154993080D01*
X71362064Y-155015851D01*
X71362064Y-155038619D01*
X71351345Y-155038619D01*
X71340633Y-155038619D01*
X71340633Y-155072104D01*
X71340633Y-155105592D01*
X71328577Y-155105592D01*
X71316521Y-155105592D01*
X71316521Y-155127020D01*
X71316518Y-155148452D01*
X71115621Y-155148452D01*
X71115621Y-155148449D01*
X71127673Y-155148449D01*
X71139728Y-155148449D01*
X71139728Y-155114964D01*
X71139728Y-155081477D01*
X71150441Y-155081477D01*
X71161160Y-155081477D01*
X71161160Y-155060048D01*
X71161160Y-155038617D01*
X71171870Y-155038617D01*
X71182587Y-155038617D01*
X71182587Y-155005136D01*
X71182587Y-154971647D01*
X71194644Y-154971647D01*
X71206696Y-154971647D01*
X71206696Y-154948877D01*
X71206696Y-154926109D01*
X71217412Y-154926109D01*
X71228124Y-154926109D01*
X71228124Y-154892625D01*
X71228124Y-154859137D01*
X71238842Y-154859137D01*
X71249558Y-154859137D01*
X71249558Y-154837707D01*
X71249558Y-154816276D01*
X71261610Y-154816276D01*
X71273667Y-154816276D01*
X71273667Y-154782793D01*
X71273667Y-154749307D01*
X71284384Y-154749307D01*
X71295097Y-154749307D01*
X71295097Y-154726537D01*
X71295097Y-154703767D01*
X71305813Y-154703767D01*
X71316524Y-154703767D01*
X71316524Y-154682337D01*
X71316524Y-154660908D01*
X71328583Y-154660908D01*
X71340637Y-154660908D01*
X71340637Y-154627423D01*
X71340637Y-154593935D01*
X71351346Y-154593935D01*
X71362066Y-154593935D01*
X71362066Y-154571170D01*
X71362066Y-154548396D01*
X71372784Y-154548396D01*
X71383500Y-154548396D01*
X71383500Y-154514912D01*
X71383500Y-154481426D01*
X71394212Y-154481426D01*
X71404928Y-154481426D01*
X71404928Y-154470711D01*
X71404928Y-154459997D01*
X71416983Y-154459997D01*
X71429032Y-154459997D01*
X71429032Y-154481426D01*
X71429032Y-154502857D01*
X71439756Y-154502857D01*
X71450470Y-154502857D01*
X71450470Y-154525625D01*
X71450470Y-154548396D01*
X71461182Y-154548396D01*
X71471902Y-154548396D01*
X71471902Y-154581884D01*
X71471902Y-154615368D01*
X71483954Y-154615368D01*
X71496009Y-154615368D01*
X71496009Y-154638139D01*
X71496009Y-154660908D01*
X71506723Y-154660908D01*
X71517440Y-154660908D01*
X71517440Y-154693053D01*
X71517440Y-154725198D01*
X71528154Y-154725198D01*
X71538864Y-154725198D01*
X71538864Y-154747968D01*
X71538864Y-154770740D01*
X71550920Y-154770740D01*
X71562976Y-154770740D01*
X71562976Y-154793509D01*
X71562976Y-154816277D01*
X71573687Y-154816277D01*
X71584407Y-154816277D01*
X71584407Y-154849762D01*
X71584407Y-154883249D01*
X71595125Y-154883249D01*
X71605837Y-154883249D01*
X71605837Y-154904679D01*
X71605837Y-154926112D01*
X71617894Y-154926112D01*
X71629944Y-154926112D01*
X71629944Y-154959593D01*
X71629944Y-154993079D01*
X71640661Y-154993079D01*
X71651379Y-154993079D01*
X71651379Y-155015850D01*
X71651379Y-155038619D01*
X71662093Y-155038619D01*
X71672807Y-155038619D01*
X71672807Y-155072104D01*
X71672807Y-155105591D01*
X71684861Y-155105591D01*
X71696918Y-155105591D01*
X71696918Y-155127020D01*
X71696918Y-155148452D01*
G37*
G36*
X73923007Y-155093536D02*
G01*
X73923007Y-155127020D01*
X73933724Y-155127020D01*
X73944438Y-155127020D01*
X73944438Y-155149791D01*
X73944438Y-155172563D01*
X73955154Y-155172563D01*
X73965870Y-155172563D01*
X73965870Y-155206044D01*
X73965870Y-155239531D01*
X73976586Y-155239531D01*
X73987301Y-155239531D01*
X73987301Y-155260959D01*
X73987301Y-155282392D01*
X73999356Y-155282392D01*
X74011410Y-155282392D01*
X74011410Y-155315875D01*
X74011410Y-155349363D01*
X74022126Y-155349363D01*
X74032839Y-155349363D01*
X74032839Y-155372131D01*
X74032839Y-155394903D01*
X74043552Y-155394903D01*
X74054271Y-155394903D01*
X74054271Y-155416333D01*
X74054271Y-155437764D01*
X74066325Y-155437764D01*
X74078381Y-155437764D01*
X74078381Y-155471245D01*
X74078381Y-155504732D01*
X74089095Y-155504732D01*
X74099809Y-155504732D01*
X74099809Y-155538217D01*
X74099815Y-155571703D01*
X74077045Y-155571703D01*
X74054274Y-155571703D01*
X74054274Y-155560988D01*
X74054274Y-155550275D01*
X74020787Y-155550275D01*
X73987302Y-155550275D01*
X73987302Y-155539557D01*
X73987302Y-155528844D01*
X73965871Y-155528844D01*
X73944441Y-155528844D01*
X73944441Y-155516788D01*
X73944441Y-155504736D01*
X73933729Y-155504736D01*
X73923012Y-155504736D01*
X73923012Y-155494015D01*
X73923012Y-155483303D01*
X73910960Y-155483303D01*
X73898904Y-155483303D01*
X73898904Y-155472591D01*
X73898904Y-155461873D01*
X73888189Y-155461873D01*
X73877472Y-155461873D01*
X73877472Y-155439104D01*
X73877472Y-155416333D01*
X73866756Y-155416333D01*
X73856041Y-155416333D01*
X73856041Y-155393564D01*
X73856041Y-155370793D01*
X73843988Y-155370793D01*
X73831932Y-155370793D01*
X73831932Y-155349363D01*
X73831932Y-155327932D01*
X73653790Y-155327932D01*
X73475648Y-155327932D01*
X73475648Y-155349363D01*
X73475648Y-155370793D01*
X73464936Y-155370793D01*
X73454220Y-155370793D01*
X73454220Y-155393564D01*
X73454220Y-155416333D01*
X73443504Y-155416333D01*
X73432790Y-155416333D01*
X73432790Y-155449819D01*
X73432790Y-155483303D01*
X73420736Y-155483303D01*
X73408681Y-155483303D01*
X73408681Y-155506072D01*
X73408681Y-155528844D01*
X73397966Y-155528844D01*
X73387248Y-155528844D01*
X73387248Y-155539557D01*
X73387248Y-155550275D01*
X73298848Y-155550275D01*
X73210451Y-155550275D01*
X73210451Y-155516788D01*
X73210451Y-155483302D01*
X73221165Y-155483302D01*
X73231880Y-155483302D01*
X73231880Y-155460532D01*
X73231880Y-155437764D01*
X73242597Y-155437764D01*
X73253310Y-155437764D01*
X73253310Y-155404281D01*
X73253310Y-155370791D01*
X73265364Y-155370791D01*
X73277421Y-155370791D01*
X73277421Y-155349363D01*
X73277421Y-155327930D01*
X73288134Y-155327930D01*
X73298848Y-155327930D01*
X73298848Y-155305162D01*
X73298848Y-155282392D01*
X73309564Y-155282392D01*
X73320278Y-155282392D01*
X73320278Y-155248908D01*
X73320278Y-155215421D01*
X73330993Y-155215421D01*
X73341710Y-155215421D01*
X73341710Y-155193990D01*
X73341710Y-155172563D01*
X73353764Y-155172563D01*
X73365816Y-155172563D01*
X73365816Y-155148452D01*
X73542612Y-155148452D01*
X73643070Y-155148452D01*
X73743527Y-155148452D01*
X73743527Y-155114966D01*
X73743527Y-155081480D01*
X73732808Y-155081480D01*
X73722094Y-155081480D01*
X73722094Y-155060048D01*
X73722094Y-155038619D01*
X73710040Y-155038619D01*
X73697987Y-155038619D01*
X73697987Y-155005137D01*
X73697987Y-154971652D01*
X73687269Y-154971652D01*
X73676554Y-154971652D01*
X73676554Y-154948877D01*
X73676554Y-154926112D01*
X73665841Y-154926112D01*
X73655125Y-154926112D01*
X73655125Y-154915396D01*
X73655125Y-154904679D01*
X73643070Y-154904679D01*
X73631016Y-154904679D01*
X73631016Y-154938166D01*
X73631016Y-154971652D01*
X73620299Y-154971652D01*
X73609586Y-154971652D01*
X73609586Y-154993080D01*
X73609586Y-155014511D01*
X73598869Y-155014511D01*
X73588156Y-155014511D01*
X73588156Y-155047993D01*
X73588156Y-155081480D01*
X73577439Y-155081480D01*
X73566724Y-155081480D01*
X73566724Y-155104248D01*
X73566724Y-155127020D01*
X73554671Y-155127020D01*
X73542613Y-155127020D01*
X73542613Y-155137739D01*
X73542612Y-155148452D01*
X73365816Y-155148452D01*
X73365816Y-155139074D01*
X73365816Y-155105591D01*
X73376532Y-155105591D01*
X73387247Y-155105591D01*
X73387247Y-155082820D01*
X73387247Y-155060048D01*
X73397964Y-155060048D01*
X73408678Y-155060048D01*
X73408678Y-155026565D01*
X73408678Y-154993079D01*
X73420735Y-154993079D01*
X73432789Y-154993079D01*
X73432789Y-154971652D01*
X73432789Y-154950220D01*
X73443502Y-154950220D01*
X73454218Y-154950220D01*
X73454218Y-154916735D01*
X73454218Y-154883249D01*
X73464934Y-154883249D01*
X73475646Y-154883249D01*
X73475646Y-154860480D01*
X73475646Y-154837707D01*
X73487703Y-154837707D01*
X73499759Y-154837707D01*
X73499759Y-154814937D01*
X73499759Y-154792171D01*
X73510473Y-154792171D01*
X73521185Y-154792171D01*
X73521185Y-154758686D01*
X73521185Y-154725198D01*
X73531903Y-154725198D01*
X73542618Y-154725198D01*
X73542618Y-154703769D01*
X73542618Y-154682338D01*
X73554672Y-154682338D01*
X73566726Y-154682338D01*
X73566726Y-154648853D01*
X73566726Y-154615368D01*
X73577443Y-154615368D01*
X73588157Y-154615368D01*
X73588157Y-154592596D01*
X73588157Y-154569831D01*
X73598872Y-154569831D01*
X73609588Y-154569831D01*
X73609588Y-154536344D01*
X73609588Y-154502857D01*
X73620303Y-154502857D01*
X73631016Y-154502857D01*
X73631016Y-154481426D01*
X73631016Y-154459997D01*
X73643071Y-154459997D01*
X73655125Y-154459997D01*
X73655125Y-154470711D01*
X73655125Y-154481426D01*
X73665842Y-154481426D01*
X73676555Y-154481426D01*
X73676555Y-154504194D01*
X73676555Y-154526967D01*
X73687270Y-154526967D01*
X73697988Y-154526967D01*
X73697988Y-154548396D01*
X73697988Y-154569831D01*
X73710043Y-154569831D01*
X73722095Y-154569831D01*
X73722095Y-154603316D01*
X73722095Y-154636799D01*
X73732813Y-154636799D01*
X73743528Y-154636799D01*
X73743528Y-154659570D01*
X73743528Y-154682338D01*
X73754245Y-154682338D01*
X73764956Y-154682338D01*
X73764956Y-154715824D01*
X73764956Y-154749307D01*
X73777015Y-154749307D01*
X73789067Y-154749307D01*
X73789067Y-154770740D01*
X73789067Y-154792171D01*
X73799783Y-154792171D01*
X73810496Y-154792171D01*
X73810496Y-154825654D01*
X73810496Y-154859138D01*
X73821212Y-154859138D01*
X73831929Y-154859138D01*
X73831929Y-154881911D01*
X73831929Y-154904679D01*
X73843981Y-154904679D01*
X73856037Y-154904679D01*
X73856037Y-154927450D01*
X73856037Y-154950220D01*
X73866753Y-154950220D01*
X73877466Y-154950220D01*
X73877466Y-154982366D01*
X73877466Y-155014510D01*
X73888183Y-155014510D01*
X73898900Y-155014510D01*
X73898900Y-155037279D01*
X73898900Y-155060048D01*
X73910955Y-155060048D01*
X73923007Y-155060048D01*
X73923007Y-155081480D01*
X73923007Y-155093536D01*
G37*
G36*
X73722095Y-156240068D02*
G01*
X73722095Y-156728950D01*
X73710043Y-156728950D01*
X73697988Y-156728950D01*
X73697988Y-156741003D01*
X73697988Y-156753061D01*
X73454216Y-156753061D01*
X73210446Y-156753061D01*
X73210446Y-156730289D01*
X73210446Y-156707519D01*
X73221161Y-156707519D01*
X73231876Y-156707519D01*
X73231876Y-156696804D01*
X73231876Y-156686091D01*
X73242590Y-156686091D01*
X73253302Y-156686091D01*
X73253302Y-156674034D01*
X73253302Y-156661980D01*
X73265358Y-156661980D01*
X73277415Y-156661980D01*
X73277415Y-156651266D01*
X73277415Y-156640547D01*
X73288130Y-156640547D01*
X73298845Y-156640547D01*
X73298845Y-156629834D01*
X73298845Y-156619120D01*
X73320275Y-156619120D01*
X73341705Y-156619120D01*
X73341705Y-156607064D01*
X73341705Y-156595010D01*
X73387245Y-156595010D01*
X73432785Y-156595010D01*
X73432785Y-156584292D01*
X73432785Y-156573579D01*
X73487701Y-156573579D01*
X73542615Y-156573579D01*
X73542615Y-156428924D01*
X73542615Y-156284268D01*
X73431444Y-156284268D01*
X73320275Y-156284268D01*
X73320275Y-156195865D01*
X73320275Y-156107466D01*
X73431444Y-156107466D01*
X73542615Y-156107466D01*
X73542615Y-156007011D01*
X73542615Y-155906555D01*
X73387245Y-155906555D01*
X73231876Y-155906555D01*
X73231876Y-155828870D01*
X73231876Y-155751185D01*
X73476987Y-155751185D01*
X73722095Y-155751185D01*
X73722095Y-156240068D01*
G37*
G36*
X71450469Y-155739129D02*
G01*
X71450469Y-155751186D01*
X71461181Y-155751186D01*
X71471901Y-155751186D01*
X71471901Y-155761901D01*
X71471901Y-155772617D01*
X71483953Y-155772617D01*
X71496007Y-155772617D01*
X71496007Y-155783330D01*
X71496007Y-155794046D01*
X71506720Y-155794046D01*
X71517435Y-155794046D01*
X71517435Y-155806098D01*
X71517435Y-155818155D01*
X71528153Y-155818155D01*
X71538861Y-155818155D01*
X71538861Y-155851639D01*
X71538861Y-155885126D01*
X71550918Y-155885126D01*
X71562973Y-155885126D01*
X71562973Y-156319094D01*
X71562975Y-156753061D01*
X71328577Y-156753061D01*
X71094182Y-156753061D01*
X71094182Y-156663321D01*
X71094182Y-156573579D01*
X71249556Y-156573579D01*
X71404926Y-156573579D01*
X71404926Y-156150328D01*
X71404926Y-155727077D01*
X71427693Y-155727077D01*
X71450469Y-155727077D01*
X71450469Y-155739129D01*
G37*
G36*
X73119361Y-156195865D02*
G01*
X73119361Y-156640545D01*
X73108646Y-156640545D01*
X73097933Y-156640545D01*
X73097933Y-156663316D01*
X73097933Y-156686089D01*
X73087218Y-156686089D01*
X73076501Y-156686089D01*
X73076501Y-156696804D01*
X73076501Y-156707518D01*
X73064447Y-156707518D01*
X73052392Y-156707518D01*
X73052392Y-156718234D01*
X73052392Y-156728950D01*
X73041678Y-156728950D01*
X73030963Y-156728950D01*
X73030963Y-156741003D01*
X73030963Y-156753061D01*
X73008194Y-156753061D01*
X72985424Y-156753061D01*
X72985424Y-156763771D01*
X72985424Y-156774487D01*
X72974708Y-156774487D01*
X72963995Y-156774487D01*
X72963995Y-156607058D01*
X72963995Y-156439634D01*
X72953279Y-156439634D01*
X72942566Y-156439634D01*
X72942566Y-156462404D01*
X72942566Y-156485174D01*
X72931850Y-156485174D01*
X72921134Y-156485174D01*
X72921134Y-156495888D01*
X72921134Y-156506604D01*
X72909079Y-156506604D01*
X72897023Y-156506604D01*
X72897023Y-156518658D01*
X72897023Y-156530710D01*
X72886309Y-156530710D01*
X72875597Y-156530710D01*
X72875597Y-156541425D01*
X72875597Y-156552141D01*
X72864882Y-156552141D01*
X72854162Y-156552141D01*
X72854162Y-156562854D01*
X72854162Y-156573574D01*
X72842109Y-156573574D01*
X72830052Y-156573574D01*
X72830052Y-156596340D01*
X72830052Y-156619114D01*
X72819337Y-156619114D01*
X72808624Y-156619114D01*
X72808624Y-156629831D01*
X72808624Y-156640542D01*
X72797911Y-156640542D01*
X72787193Y-156640542D01*
X72787193Y-156651259D01*
X72787193Y-156661972D01*
X72775140Y-156661972D01*
X72763086Y-156661972D01*
X72763086Y-156674024D01*
X72763086Y-156686082D01*
X72752370Y-156686082D01*
X72741655Y-156686082D01*
X72741655Y-156707513D01*
X72741655Y-156728945D01*
X72730939Y-156728945D01*
X72720223Y-156728945D01*
X72720223Y-156740999D01*
X72720223Y-156753054D01*
X72619770Y-156753054D01*
X72519313Y-156753054D01*
X72519313Y-156730286D01*
X72519313Y-156707515D01*
X72530024Y-156707515D01*
X72540747Y-156707515D01*
X72540747Y-156696800D01*
X72540747Y-156686085D01*
X72552799Y-156686085D01*
X72564854Y-156686085D01*
X72564854Y-156674024D01*
X72564854Y-156661974D01*
X72575571Y-156661974D01*
X72586279Y-156661974D01*
X72586279Y-156651261D01*
X72586279Y-156640542D01*
X72596997Y-156640542D01*
X72607711Y-156640542D01*
X72607711Y-156617774D01*
X72607711Y-156595004D01*
X72619768Y-156595004D01*
X72631822Y-156595004D01*
X72631822Y-156584289D01*
X72631822Y-156573575D01*
X72642535Y-156573575D01*
X72653252Y-156573575D01*
X72653252Y-156562859D01*
X72653252Y-156552142D01*
X72663968Y-156552142D01*
X72674683Y-156552142D01*
X72674683Y-156541425D01*
X72674683Y-156530710D01*
X72685398Y-156530710D01*
X72696116Y-156530710D01*
X72696116Y-156507946D01*
X72696116Y-156485175D01*
X72708169Y-156485175D01*
X72720220Y-156485175D01*
X72720220Y-156474458D01*
X72720220Y-156463743D01*
X72730938Y-156463743D01*
X72741654Y-156463743D01*
X72741654Y-156451688D01*
X72741654Y-156439634D01*
X72752368Y-156439634D01*
X72763083Y-156439634D01*
X72763083Y-156428921D01*
X72763083Y-156418204D01*
X72775135Y-156418204D01*
X72787192Y-156418204D01*
X72787192Y-156395435D01*
X72787192Y-156372664D01*
X72764424Y-156372664D01*
X72741654Y-156372664D01*
X72741654Y-156361950D01*
X72741654Y-156351235D01*
X72718878Y-156351235D01*
X72696110Y-156351235D01*
X72696110Y-156340517D01*
X72696110Y-156329805D01*
X72685397Y-156329805D01*
X72674683Y-156329805D01*
X72674683Y-156317751D01*
X72674683Y-156305696D01*
X72653250Y-156305696D01*
X72631821Y-156305696D01*
X72631821Y-156294980D01*
X72631821Y-156284267D01*
X72619767Y-156284267D01*
X72607709Y-156284267D01*
X72607709Y-156262832D01*
X72607709Y-156241403D01*
X72596995Y-156241403D01*
X72586277Y-156241403D01*
X72586277Y-156229348D01*
X72586277Y-156217295D01*
X72575567Y-156217295D01*
X72564850Y-156217295D01*
X72564850Y-156195865D01*
X72564850Y-156174435D01*
X72552795Y-156174435D01*
X72540743Y-156174435D01*
X72540743Y-156061924D01*
X72540743Y-156016385D01*
X72696116Y-156016385D01*
X72696116Y-156072644D01*
X72696116Y-156128897D01*
X72708169Y-156128897D01*
X72720220Y-156128897D01*
X72720220Y-156139610D01*
X72720220Y-156150326D01*
X72730938Y-156150326D01*
X72741654Y-156150326D01*
X72741654Y-156162382D01*
X72741654Y-156174439D01*
X72752368Y-156174439D01*
X72763083Y-156174439D01*
X72763083Y-156185152D01*
X72763083Y-156195865D01*
X72775135Y-156195865D01*
X72787192Y-156195865D01*
X72787192Y-156206581D01*
X72787192Y-156217295D01*
X72842107Y-156217295D01*
X72897022Y-156217295D01*
X72897022Y-156206581D01*
X72897022Y-156195865D01*
X72919792Y-156195865D01*
X72942566Y-156195865D01*
X72942566Y-156185152D01*
X72942566Y-156174439D01*
X72953277Y-156174439D01*
X72963994Y-156174439D01*
X72963994Y-156040498D01*
X72963994Y-155906556D01*
X72886308Y-155906556D01*
X72808620Y-155906556D01*
X72808620Y-155917270D01*
X72808620Y-155927985D01*
X72785851Y-155927985D01*
X72763083Y-155927985D01*
X72763083Y-155938701D01*
X72763083Y-155949418D01*
X72752368Y-155949418D01*
X72741654Y-155949418D01*
X72741654Y-155961470D01*
X72741654Y-155973526D01*
X72730938Y-155973526D01*
X72720220Y-155973526D01*
X72720220Y-155994958D01*
X72720220Y-156016385D01*
X72708169Y-156016385D01*
X72696116Y-156016385D01*
X72540743Y-156016385D01*
X72540743Y-155949414D01*
X72552795Y-155949414D01*
X72564850Y-155949414D01*
X72564850Y-155927984D01*
X72564850Y-155906552D01*
X72575567Y-155906552D01*
X72586277Y-155906552D01*
X72586277Y-155895835D01*
X72586277Y-155885126D01*
X72596995Y-155885126D01*
X72607709Y-155885126D01*
X72607709Y-155873067D01*
X72607709Y-155861013D01*
X72619767Y-155861013D01*
X72631821Y-155861013D01*
X72631821Y-155850298D01*
X72631821Y-155839585D01*
X72642534Y-155839585D01*
X72653250Y-155839585D01*
X72653250Y-155828867D01*
X72653250Y-155818152D01*
X72663965Y-155818152D01*
X72674679Y-155818152D01*
X72674679Y-155806097D01*
X72674679Y-155794042D01*
X72685395Y-155794042D01*
X72696110Y-155794042D01*
X72696110Y-155783330D01*
X72696110Y-155772614D01*
X72729596Y-155772614D01*
X72763081Y-155772614D01*
X72763081Y-155761898D01*
X72763081Y-155751183D01*
X72941223Y-155751183D01*
X73119361Y-155751183D01*
X73119361Y-156040498D01*
X73119361Y-156195865D01*
G37*
G36*
X74456093Y-156185149D02*
G01*
X74456093Y-156619117D01*
X74445376Y-156619117D01*
X74434657Y-156619117D01*
X74434657Y-156640545D01*
X74434657Y-156661978D01*
X74422604Y-156661978D01*
X74410553Y-156661978D01*
X74410553Y-156684750D01*
X74410553Y-156707518D01*
X74399837Y-156707518D01*
X74389120Y-156707518D01*
X74389120Y-156718234D01*
X74389120Y-156728950D01*
X74366351Y-156728950D01*
X74343580Y-156728950D01*
X74343580Y-156741003D01*
X74343580Y-156753061D01*
X74332864Y-156753061D01*
X74322149Y-156753061D01*
X74322149Y-156763771D01*
X74322149Y-156774488D01*
X74311433Y-156774488D01*
X74300723Y-156774488D01*
X74300723Y-156573576D01*
X74300723Y-156372662D01*
X74288665Y-156372662D01*
X74276611Y-156372662D01*
X74276611Y-156384719D01*
X74276611Y-156396774D01*
X74265894Y-156396774D01*
X74255181Y-156396774D01*
X74255181Y-156407491D01*
X74255181Y-156418201D01*
X74244463Y-156418201D01*
X74233748Y-156418201D01*
X74233748Y-156440973D01*
X74233748Y-156463743D01*
X74223034Y-156463743D01*
X74212318Y-156463743D01*
X74212318Y-156474458D01*
X74212318Y-156485174D01*
X74200261Y-156485174D01*
X74188210Y-156485174D01*
X74188210Y-156495888D01*
X74188210Y-156506604D01*
X74177493Y-156506604D01*
X74166779Y-156506604D01*
X74166779Y-156518658D01*
X74166779Y-156530710D01*
X74156063Y-156530710D01*
X74145349Y-156530710D01*
X74145349Y-156541425D01*
X74145349Y-156552141D01*
X74133294Y-156552141D01*
X74121240Y-156552141D01*
X74121240Y-156573575D01*
X74121240Y-156595004D01*
X74110522Y-156595004D01*
X74099809Y-156595004D01*
X74099809Y-156607058D01*
X74099809Y-156619114D01*
X74089095Y-156619114D01*
X74078381Y-156619114D01*
X74078381Y-156629831D01*
X74078381Y-156640542D01*
X74066325Y-156640542D01*
X74054271Y-156640542D01*
X74054271Y-156651259D01*
X74054271Y-156661972D01*
X74043552Y-156661972D01*
X74032839Y-156661972D01*
X74032839Y-156684746D01*
X74032839Y-156707513D01*
X74022126Y-156707513D01*
X74011410Y-156707513D01*
X74011410Y-156718230D01*
X74011410Y-156728945D01*
X73999356Y-156728945D01*
X73987301Y-156728945D01*
X73987301Y-156740999D01*
X73987301Y-156753057D01*
X73888183Y-156753057D01*
X73789067Y-156753057D01*
X73789067Y-156730286D01*
X73789067Y-156707515D01*
X73799781Y-156707515D01*
X73810496Y-156707515D01*
X73810496Y-156696801D01*
X73810496Y-156686089D01*
X73821212Y-156686089D01*
X73831929Y-156686089D01*
X73831929Y-156674026D01*
X73831929Y-156661977D01*
X73843981Y-156661977D01*
X73856037Y-156661977D01*
X73856037Y-156651261D01*
X73856037Y-156640545D01*
X73866753Y-156640545D01*
X73877466Y-156640545D01*
X73877466Y-156629831D01*
X73877466Y-156619115D01*
X73888183Y-156619115D01*
X73898900Y-156619115D01*
X73898900Y-156596343D01*
X73898900Y-156573576D01*
X73910955Y-156573576D01*
X73923007Y-156573576D01*
X73923007Y-156562859D01*
X73923007Y-156552142D01*
X73933722Y-156552142D01*
X73944438Y-156552142D01*
X73944438Y-156541425D01*
X73944438Y-156530712D01*
X73955154Y-156530712D01*
X73965870Y-156530712D01*
X73965870Y-156518660D01*
X73965870Y-156506604D01*
X73976584Y-156506604D01*
X73987301Y-156506604D01*
X73987301Y-156485175D01*
X73987301Y-156463743D01*
X73999356Y-156463743D01*
X74011410Y-156463743D01*
X74011410Y-156451688D01*
X74011410Y-156439634D01*
X74022126Y-156439634D01*
X74032838Y-156439634D01*
X74032838Y-156428921D01*
X74032838Y-156418204D01*
X74043552Y-156418204D01*
X74054271Y-156418204D01*
X74054271Y-156407491D01*
X74054271Y-156396774D01*
X74066323Y-156396774D01*
X74078380Y-156396774D01*
X74078380Y-156374004D01*
X74078380Y-156351235D01*
X74089093Y-156351235D01*
X74099809Y-156351235D01*
X74099809Y-156340517D01*
X74099809Y-156329805D01*
X74110522Y-156329805D01*
X74121240Y-156329805D01*
X74121240Y-156317751D01*
X74121240Y-156305696D01*
X74133294Y-156305696D01*
X74145349Y-156305696D01*
X74145349Y-156294980D01*
X74145349Y-156284267D01*
X74156063Y-156284267D01*
X74166779Y-156284267D01*
X74166779Y-156262832D01*
X74166779Y-156241403D01*
X74177491Y-156241403D01*
X74188208Y-156241403D01*
X74188208Y-156229348D01*
X74188208Y-156217295D01*
X74200261Y-156217295D01*
X74212318Y-156217295D01*
X74212318Y-156195865D01*
X74212318Y-156174435D01*
X74200261Y-156174435D01*
X74188208Y-156174435D01*
X74188208Y-156162379D01*
X74188208Y-156150325D01*
X74177491Y-156150325D01*
X74166779Y-156150325D01*
X74166779Y-156128894D01*
X74166779Y-156107466D01*
X74156063Y-156107466D01*
X74145349Y-156107466D01*
X74145349Y-156095409D01*
X74145349Y-156083353D01*
X74133294Y-156083353D01*
X74121240Y-156083353D01*
X74121240Y-156072639D01*
X74121240Y-156061924D01*
X74110522Y-156061924D01*
X74099809Y-156061924D01*
X74099809Y-156051210D01*
X74099809Y-156040496D01*
X74089093Y-156040496D01*
X74078380Y-156040496D01*
X74078380Y-156017724D01*
X74078380Y-155994954D01*
X74066323Y-155994954D01*
X74054271Y-155994954D01*
X74054271Y-155984240D01*
X74054271Y-155973526D01*
X74043552Y-155973526D01*
X74032838Y-155973526D01*
X74032838Y-155961470D01*
X74032838Y-155949417D01*
X74022126Y-155949417D01*
X74011410Y-155949417D01*
X74011410Y-155938701D01*
X74011410Y-155927984D01*
X73999356Y-155927984D01*
X73987301Y-155927984D01*
X73987301Y-155906553D01*
X73987301Y-155885126D01*
X73976584Y-155885126D01*
X73965870Y-155885126D01*
X73965870Y-155873067D01*
X73965870Y-155861013D01*
X73955154Y-155861013D01*
X73944438Y-155861013D01*
X73944438Y-155850300D01*
X73944438Y-155839586D01*
X73933722Y-155839586D01*
X73923007Y-155839586D01*
X73923007Y-155828870D01*
X73923007Y-155818155D01*
X73910955Y-155818155D01*
X73898900Y-155818155D01*
X73898900Y-155795384D01*
X73898900Y-155772616D01*
X73888183Y-155772616D01*
X73877466Y-155772616D01*
X73877466Y-155761899D01*
X73877466Y-155751183D01*
X73977925Y-155751183D01*
X74078381Y-155751183D01*
X74078381Y-155761899D01*
X74078381Y-155772616D01*
X74089095Y-155772616D01*
X74099809Y-155772616D01*
X74099809Y-155783330D01*
X74099809Y-155794042D01*
X74110522Y-155794042D01*
X74121240Y-155794042D01*
X74121240Y-155816812D01*
X74121240Y-155839586D01*
X74133294Y-155839586D01*
X74145352Y-155839586D01*
X74145352Y-155850300D01*
X74145352Y-155861013D01*
X74156065Y-155861013D01*
X74166779Y-155861013D01*
X74166779Y-155873067D01*
X74166779Y-155885126D01*
X74177496Y-155885126D01*
X74188210Y-155885126D01*
X74188210Y-155895837D01*
X74188210Y-155906553D01*
X74200261Y-155906553D01*
X74212318Y-155906553D01*
X74212318Y-155927984D01*
X74212318Y-155949417D01*
X74223035Y-155949417D01*
X74233748Y-155949417D01*
X74233748Y-155961470D01*
X74233748Y-155973526D01*
X74244463Y-155973526D01*
X74255181Y-155973526D01*
X74255181Y-155984240D01*
X74255181Y-155994954D01*
X74265894Y-155994954D01*
X74276611Y-155994954D01*
X74276611Y-156005670D01*
X74276611Y-156016382D01*
X74288665Y-156016382D01*
X74300724Y-156016382D01*
X74300724Y-155883783D01*
X74300724Y-155751182D01*
X74378405Y-155751182D01*
X74456093Y-155751182D01*
X74456093Y-156185149D01*
G37*
G36*
X70871843Y-156307036D02*
G01*
X70871843Y-156329806D01*
X70882560Y-156329806D01*
X70893277Y-156329806D01*
X70893277Y-156363294D01*
X70893277Y-156396778D01*
X70905330Y-156396778D01*
X70917381Y-156396778D01*
X70917381Y-156418208D01*
X70917381Y-156439640D01*
X70928098Y-156439640D01*
X70938814Y-156439640D01*
X70938814Y-156473122D01*
X70938814Y-156506609D01*
X70949525Y-156506609D01*
X70960245Y-156506609D01*
X70960245Y-156529374D01*
X70960245Y-156552147D01*
X70972301Y-156552147D01*
X70984352Y-156552147D01*
X70984352Y-156573578D01*
X70984352Y-156595010D01*
X70995068Y-156595010D01*
X71005785Y-156595010D01*
X71005785Y-156628495D01*
X71005785Y-156661980D01*
X71016496Y-156661980D01*
X71027213Y-156661980D01*
X71027213Y-156684750D01*
X71027213Y-156707519D01*
X71039265Y-156707519D01*
X71051324Y-156707519D01*
X71051324Y-156741003D01*
X71051328Y-156774492D01*
X71028555Y-156774492D01*
X71005788Y-156774492D01*
X71005788Y-156763772D01*
X71005788Y-156753061D01*
X70972306Y-156753061D01*
X70938818Y-156753061D01*
X70938818Y-156741003D01*
X70938818Y-156728950D01*
X70916049Y-156728950D01*
X70893278Y-156728950D01*
X70893278Y-156718234D01*
X70893278Y-156707519D01*
X70882565Y-156707519D01*
X70871850Y-156707519D01*
X70871850Y-156696804D01*
X70871850Y-156686091D01*
X70861136Y-156686091D01*
X70850424Y-156686091D01*
X70850424Y-156663318D01*
X70850424Y-156640545D01*
X70838363Y-156640545D01*
X70826312Y-156640545D01*
X70826312Y-156617778D01*
X70826312Y-156595010D01*
X70815591Y-156595010D01*
X70804877Y-156595010D01*
X70804877Y-156573578D01*
X70804877Y-156552147D01*
X70637453Y-156552147D01*
X70470025Y-156552147D01*
X70470025Y-156562859D01*
X70470025Y-156573578D01*
X70459315Y-156573578D01*
X70448597Y-156573578D01*
X70448597Y-156596344D01*
X70448597Y-156619117D01*
X70437883Y-156619117D01*
X70427170Y-156619117D01*
X70427170Y-156652601D01*
X70427170Y-156686091D01*
X70416452Y-156686091D01*
X70405738Y-156686091D01*
X70405738Y-156707519D01*
X70405738Y-156728950D01*
X70393679Y-156728950D01*
X70381628Y-156728950D01*
X70381628Y-156741003D01*
X70381628Y-156753061D01*
X70303936Y-156753061D01*
X70226256Y-156753061D01*
X70226256Y-156719573D01*
X70226256Y-156686091D01*
X70236972Y-156686091D01*
X70247682Y-156686091D01*
X70247682Y-156652602D01*
X70247682Y-156619120D01*
X70259739Y-156619120D01*
X70271793Y-156619120D01*
X70271793Y-156596344D01*
X70271793Y-156573578D01*
X70282505Y-156573578D01*
X70293221Y-156573578D01*
X70293221Y-156552147D01*
X70293221Y-156530716D01*
X70303936Y-156530716D01*
X70314657Y-156530716D01*
X70314657Y-156497232D01*
X70314657Y-156463748D01*
X70326711Y-156463748D01*
X70338767Y-156463748D01*
X70338767Y-156440977D01*
X70338767Y-156418208D01*
X70349479Y-156418208D01*
X70360193Y-156418208D01*
X70360193Y-156384722D01*
X70360193Y-156372669D01*
X70536983Y-156372669D01*
X70626733Y-156372669D01*
X70716472Y-156372669D01*
X70716472Y-156339185D01*
X70716472Y-156305697D01*
X70705753Y-156305697D01*
X70695034Y-156305697D01*
X70695034Y-156284268D01*
X70695034Y-156262838D01*
X70682982Y-156262838D01*
X70670933Y-156262838D01*
X70670933Y-156229351D01*
X70670933Y-156195865D01*
X70660216Y-156195865D01*
X70649500Y-156195865D01*
X70649500Y-156173096D01*
X70649500Y-156150326D01*
X70638790Y-156150326D01*
X70628071Y-156150326D01*
X70628071Y-156162382D01*
X70628071Y-156174439D01*
X70616013Y-156174439D01*
X70603963Y-156174439D01*
X70603963Y-156195865D01*
X70603963Y-156217298D01*
X70593244Y-156217298D01*
X70582528Y-156217298D01*
X70582528Y-156250781D01*
X70582528Y-156284268D01*
X70571810Y-156284268D01*
X70561099Y-156284268D01*
X70561099Y-156307037D01*
X70561099Y-156329810D01*
X70549044Y-156329810D01*
X70536989Y-156329810D01*
X70536989Y-156351238D01*
X70536983Y-156372669D01*
X70360193Y-156372669D01*
X70360193Y-156351237D01*
X70370911Y-156351237D01*
X70381627Y-156351237D01*
X70381627Y-156328469D01*
X70381627Y-156305697D01*
X70393678Y-156305697D01*
X70405736Y-156305697D01*
X70405736Y-156273550D01*
X70405736Y-156241406D01*
X70416452Y-156241406D01*
X70427166Y-156241406D01*
X70427166Y-156218634D01*
X70427166Y-156195865D01*
X70437880Y-156195865D01*
X70448597Y-156195865D01*
X70448597Y-156162380D01*
X70448597Y-156128897D01*
X70459313Y-156128897D01*
X70470025Y-156128897D01*
X70470025Y-156106129D01*
X70470025Y-156083353D01*
X70482080Y-156083353D01*
X70494133Y-156083353D01*
X70494133Y-156049871D01*
X70494133Y-156016385D01*
X70504849Y-156016385D01*
X70515560Y-156016385D01*
X70515560Y-155994956D01*
X70515560Y-155973526D01*
X70526279Y-155973526D01*
X70536993Y-155973526D01*
X70536993Y-155950757D01*
X70536993Y-155927985D01*
X70549049Y-155927985D01*
X70561102Y-155927985D01*
X70561102Y-155894499D01*
X70561102Y-155861013D01*
X70571818Y-155861013D01*
X70582530Y-155861013D01*
X70582530Y-155839586D01*
X70582530Y-155818155D01*
X70593247Y-155818155D01*
X70603964Y-155818155D01*
X70603964Y-155784665D01*
X70603964Y-155751183D01*
X70616015Y-155751183D01*
X70628076Y-155751183D01*
X70628076Y-155739128D01*
X70628076Y-155727075D01*
X70638793Y-155727075D01*
X70649505Y-155727075D01*
X70649505Y-155760559D01*
X70649505Y-155794046D01*
X70660221Y-155794046D01*
X70670937Y-155794046D01*
X70670937Y-155816814D01*
X70670937Y-155839586D01*
X70682985Y-155839586D01*
X70695037Y-155839586D01*
X70695037Y-155873067D01*
X70695037Y-155906555D01*
X70705757Y-155906555D01*
X70716473Y-155906555D01*
X70716473Y-155927985D01*
X70716473Y-155949418D01*
X70727183Y-155949418D01*
X70737907Y-155949418D01*
X70737907Y-155982903D01*
X70737907Y-156016385D01*
X70748622Y-156016385D01*
X70759333Y-156016385D01*
X70759333Y-156039156D01*
X70759333Y-156061926D01*
X70771391Y-156061926D01*
X70783442Y-156061926D01*
X70783442Y-156084696D01*
X70783442Y-156107466D01*
X70794160Y-156107466D01*
X70804872Y-156107466D01*
X70804872Y-156140952D01*
X70804872Y-156174436D01*
X70815589Y-156174436D01*
X70826307Y-156174436D01*
X70826307Y-156195865D01*
X70826307Y-156217295D01*
X70838360Y-156217295D01*
X70850417Y-156217295D01*
X70850417Y-156250781D01*
X70850417Y-156284268D01*
X70861132Y-156284268D01*
X70871843Y-156284268D01*
X70871843Y-156305697D01*
X70871843Y-156307036D01*
G37*
G36*
X72296970Y-156351237D02*
G01*
X72307683Y-156351237D01*
X72318401Y-156351237D01*
X72318401Y-156374006D01*
X72318401Y-156396778D01*
X72330451Y-156396778D01*
X72342509Y-156396778D01*
X72342509Y-156430264D01*
X72342509Y-156463748D01*
X72353226Y-156463748D01*
X72363941Y-156463748D01*
X72363941Y-156485177D01*
X72363941Y-156506609D01*
X72374654Y-156506609D01*
X72385367Y-156506609D01*
X72385367Y-156540093D01*
X72385367Y-156573578D01*
X72396087Y-156573578D01*
X72406801Y-156573578D01*
X72406801Y-156596344D01*
X72406801Y-156619120D01*
X72418856Y-156619120D01*
X72430910Y-156619120D01*
X72430910Y-156652602D01*
X72430910Y-156686091D01*
X72441627Y-156686091D01*
X72452342Y-156686091D01*
X72452342Y-156707519D01*
X72452342Y-156728950D01*
X72463057Y-156728950D01*
X72473771Y-156728950D01*
X72473771Y-156751721D01*
X72473777Y-156774496D01*
X72440291Y-156774496D01*
X72406806Y-156774496D01*
X72406806Y-156763773D01*
X72406806Y-156753061D01*
X72385370Y-156753061D01*
X72363947Y-156753061D01*
X72363947Y-156741004D01*
X72363947Y-156728950D01*
X72341174Y-156728950D01*
X72318403Y-156728950D01*
X72318403Y-156718236D01*
X72318403Y-156707519D01*
X72307690Y-156707519D01*
X72296974Y-156707519D01*
X72296974Y-156696804D01*
X72296974Y-156686091D01*
X72286257Y-156686091D01*
X72275543Y-156686091D01*
X72275543Y-156674034D01*
X72275543Y-156661980D01*
X72263491Y-156661980D01*
X72251437Y-156661980D01*
X72251437Y-156640547D01*
X72251437Y-156619120D01*
X72240721Y-156619120D01*
X72230005Y-156619120D01*
X72230005Y-156585633D01*
X72230005Y-156552147D01*
X72051862Y-156552147D01*
X71873724Y-156552147D01*
X71873724Y-156585633D01*
X71873724Y-156619120D01*
X71863009Y-156619120D01*
X71852295Y-156619120D01*
X71852295Y-156640547D01*
X71852295Y-156661980D01*
X71840240Y-156661980D01*
X71828180Y-156661980D01*
X71828180Y-156695463D01*
X71828180Y-156728950D01*
X71817470Y-156728950D01*
X71806754Y-156728950D01*
X71806754Y-156741003D01*
X71806754Y-156753061D01*
X71718354Y-156753061D01*
X71629952Y-156753061D01*
X71629952Y-156741003D01*
X71629952Y-156728950D01*
X71640665Y-156728950D01*
X71651380Y-156728950D01*
X71651380Y-156695463D01*
X71651380Y-156661980D01*
X71662098Y-156661980D01*
X71672812Y-156661980D01*
X71672812Y-156640547D01*
X71672812Y-156619120D01*
X71684864Y-156619120D01*
X71696920Y-156619120D01*
X71696920Y-156585633D01*
X71696920Y-156552147D01*
X71707638Y-156552147D01*
X71718347Y-156552147D01*
X71718347Y-156529374D01*
X71718347Y-156506609D01*
X71729070Y-156506609D01*
X71739782Y-156506609D01*
X71739782Y-156473122D01*
X71739782Y-156439640D01*
X71750495Y-156439640D01*
X71761211Y-156439640D01*
X71761211Y-156418208D01*
X71761211Y-156396778D01*
X71773265Y-156396778D01*
X71785320Y-156396778D01*
X71785320Y-156374006D01*
X71785320Y-156351237D01*
X71796033Y-156351237D01*
X71806752Y-156351237D01*
X71806752Y-156329810D01*
X71962118Y-156329810D01*
X71962118Y-156351238D01*
X71962118Y-156372669D01*
X72051856Y-156372669D01*
X72141600Y-156372669D01*
X72141600Y-156351238D01*
X72141600Y-156329810D01*
X72129542Y-156329810D01*
X72117490Y-156329810D01*
X72117490Y-156296322D01*
X72117490Y-156262838D01*
X72106773Y-156262838D01*
X72096057Y-156262838D01*
X72096057Y-156240068D01*
X72096057Y-156217298D01*
X72085341Y-156217298D01*
X72074627Y-156217298D01*
X72074627Y-156183811D01*
X72074627Y-156150326D01*
X72051856Y-156150326D01*
X72029088Y-156150326D01*
X72029088Y-156183811D01*
X72029088Y-156217298D01*
X72018370Y-156217298D01*
X72007656Y-156217298D01*
X72007656Y-156240068D01*
X72007656Y-156262838D01*
X71996942Y-156262838D01*
X71986225Y-156262838D01*
X71986225Y-156296322D01*
X71986225Y-156329810D01*
X71974175Y-156329810D01*
X71962118Y-156329810D01*
X71806752Y-156329810D01*
X71806752Y-156317755D01*
X71806752Y-156284268D01*
X71817468Y-156284268D01*
X71828180Y-156284268D01*
X71828180Y-156262835D01*
X71828180Y-156241406D01*
X71840237Y-156241406D01*
X71852290Y-156241406D01*
X71852290Y-156207922D01*
X71852290Y-156174436D01*
X71863008Y-156174436D01*
X71873720Y-156174436D01*
X71873720Y-156151666D01*
X71873720Y-156128897D01*
X71884437Y-156128897D01*
X71895155Y-156128897D01*
X71895155Y-156095413D01*
X71895155Y-156061926D01*
X71907210Y-156061926D01*
X71919263Y-156061926D01*
X71919263Y-156039156D01*
X71919263Y-156016385D01*
X71929976Y-156016385D01*
X71940693Y-156016385D01*
X71940693Y-155982903D01*
X71940693Y-155949418D01*
X71951408Y-155949418D01*
X71962121Y-155949418D01*
X71962121Y-155927985D01*
X71962121Y-155906555D01*
X71974179Y-155906555D01*
X71986229Y-155906555D01*
X71986229Y-155883784D01*
X71986229Y-155861013D01*
X71996947Y-155861013D01*
X72007662Y-155861013D01*
X72007662Y-155827530D01*
X72007662Y-155794046D01*
X72018375Y-155794046D01*
X72029092Y-155794046D01*
X72029092Y-155772616D01*
X72029092Y-155751183D01*
X72051861Y-155751183D01*
X72074633Y-155751183D01*
X72074633Y-155772616D01*
X72074633Y-155794046D01*
X72085347Y-155794046D01*
X72096060Y-155794046D01*
X72096060Y-155827530D01*
X72096060Y-155861013D01*
X72106778Y-155861013D01*
X72117494Y-155861013D01*
X72117494Y-155883784D01*
X72117494Y-155906555D01*
X72129546Y-155906555D01*
X72141603Y-155906555D01*
X72141603Y-155940038D01*
X72141603Y-155973526D01*
X72152317Y-155973526D01*
X72163031Y-155973526D01*
X72163031Y-155994956D01*
X72163031Y-156016385D01*
X72173749Y-156016385D01*
X72184462Y-156016385D01*
X72184462Y-156049871D01*
X72184462Y-156083353D01*
X72196514Y-156083353D01*
X72208572Y-156083353D01*
X72208572Y-156106129D01*
X72208572Y-156128897D01*
X72219285Y-156128897D01*
X72230003Y-156128897D01*
X72230003Y-156162380D01*
X72230003Y-156195865D01*
X72240717Y-156195865D01*
X72251431Y-156195865D01*
X72251431Y-156218634D01*
X72251431Y-156241406D01*
X72263485Y-156241406D01*
X72275536Y-156241406D01*
X72275536Y-156262835D01*
X72275536Y-156284268D01*
X72286253Y-156284268D01*
X72296970Y-156284268D01*
X72296970Y-156317755D01*
X72296970Y-156329810D01*
X72296970Y-156351237D01*
G37*
G36*
X77416179Y-155070766D02*
G01*
X77416179Y-155081484D01*
X77426891Y-155081484D01*
X77437605Y-155081484D01*
X77437605Y-155104254D01*
X77437605Y-155127023D01*
X77449661Y-155127023D01*
X77461715Y-155127023D01*
X77461715Y-155149792D01*
X77461715Y-155172563D01*
X77472436Y-155172563D01*
X77483151Y-155172563D01*
X77483151Y-155250248D01*
X77483151Y-155327933D01*
X77472436Y-155327933D01*
X77461715Y-155327933D01*
X77461715Y-155338649D01*
X77461715Y-155349363D01*
X77449661Y-155349363D01*
X77437605Y-155349363D01*
X77437605Y-155360077D01*
X77437605Y-155370795D01*
X77416179Y-155370795D01*
X77394744Y-155370795D01*
X77394744Y-155382849D01*
X77394744Y-155394903D01*
X77371979Y-155394903D01*
X77349202Y-155394903D01*
X77349202Y-155405619D01*
X77349202Y-155416335D01*
X77338489Y-155416335D01*
X77327775Y-155416335D01*
X77327775Y-155427048D01*
X77327775Y-155437765D01*
X77305008Y-155437765D01*
X77282237Y-155437765D01*
X77282237Y-155449819D01*
X77282237Y-155461873D01*
X77260808Y-155461873D01*
X77239377Y-155461873D01*
X77239377Y-155472591D01*
X77239377Y-155483303D01*
X77227320Y-155483303D01*
X77215266Y-155483303D01*
X77215266Y-155494015D01*
X77215266Y-155504736D01*
X77193836Y-155504736D01*
X77172403Y-155504736D01*
X77172403Y-155516788D01*
X77172403Y-155528844D01*
X77149633Y-155528844D01*
X77126867Y-155528844D01*
X77126867Y-155539557D01*
X77126867Y-155550275D01*
X77116148Y-155550275D01*
X77105434Y-155550275D01*
X77105434Y-155560988D01*
X77105434Y-155571703D01*
X77082668Y-155571703D01*
X77059897Y-155571703D01*
X77059897Y-155583759D01*
X77059897Y-155595813D01*
X77038463Y-155595813D01*
X77017034Y-155595813D01*
X77017034Y-155606531D01*
X77017034Y-155617243D01*
X77004979Y-155617243D01*
X76992927Y-155617243D01*
X76992927Y-155627960D01*
X76992927Y-155638675D01*
X76971495Y-155638675D01*
X76950060Y-155638675D01*
X76950060Y-155649388D01*
X76950060Y-155660106D01*
X76927293Y-155660106D01*
X76904520Y-155660106D01*
X76904520Y-155672160D01*
X76904520Y-155684213D01*
X76893807Y-155684213D01*
X76883094Y-155684213D01*
X76883094Y-155705645D01*
X76883094Y-155727075D01*
X76871036Y-155727075D01*
X76858982Y-155727075D01*
X76858982Y-155794046D01*
X76858982Y-155861015D01*
X76871036Y-155861015D01*
X76883094Y-155861015D01*
X76883094Y-155883784D01*
X76883094Y-155906555D01*
X76893807Y-155906555D01*
X76904520Y-155906555D01*
X76904520Y-155917270D01*
X76904520Y-155927985D01*
X76915236Y-155927985D01*
X76925948Y-155927985D01*
X76925948Y-155938701D01*
X76925948Y-155949418D01*
X76959441Y-155949418D01*
X76992927Y-155949418D01*
X76992927Y-155938701D01*
X76992927Y-155927985D01*
X77004979Y-155927985D01*
X77017033Y-155927985D01*
X77017033Y-155917270D01*
X77017033Y-155906555D01*
X77038462Y-155906555D01*
X77059897Y-155906555D01*
X77059897Y-155895837D01*
X77059897Y-155885126D01*
X77116148Y-155885126D01*
X77172403Y-155885126D01*
X77172403Y-155873069D01*
X77172403Y-155861015D01*
X77193836Y-155861015D01*
X77215266Y-155861015D01*
X77215266Y-155873069D01*
X77215266Y-155885126D01*
X77271523Y-155885126D01*
X77327773Y-155885126D01*
X77327773Y-155895837D01*
X77327773Y-155906555D01*
X77350545Y-155906555D01*
X77373314Y-155906555D01*
X77373314Y-155917270D01*
X77373314Y-155927985D01*
X77384031Y-155927985D01*
X77394744Y-155927985D01*
X77394744Y-155938701D01*
X77394744Y-155949418D01*
X77416179Y-155949418D01*
X77437605Y-155949418D01*
X77437605Y-155961470D01*
X77437605Y-155973526D01*
X77449661Y-155973526D01*
X77461715Y-155973526D01*
X77461715Y-155994956D01*
X77461715Y-156016385D01*
X77472436Y-156016385D01*
X77483151Y-156016385D01*
X77483151Y-156028440D01*
X77483151Y-156040498D01*
X77493866Y-156040498D01*
X77504579Y-156040498D01*
X77504579Y-156061926D01*
X77504579Y-156083353D01*
X77516633Y-156083353D01*
X77528690Y-156083353D01*
X77528690Y-156128897D01*
X77528690Y-156174436D01*
X77539400Y-156174436D01*
X77550116Y-156174436D01*
X77550116Y-156240068D01*
X77550116Y-156305696D01*
X77539400Y-156305696D01*
X77528690Y-156305696D01*
X77528690Y-156339181D01*
X77528690Y-156372669D01*
X77516633Y-156372669D01*
X77504579Y-156372669D01*
X77504579Y-156395441D01*
X77504579Y-156418208D01*
X77493866Y-156418208D01*
X77483151Y-156418208D01*
X77483151Y-156440976D01*
X77483151Y-156463746D01*
X77472436Y-156463746D01*
X77461715Y-156463746D01*
X77461715Y-156474461D01*
X77461715Y-156485177D01*
X77449661Y-156485177D01*
X77437605Y-156485177D01*
X77437605Y-156495891D01*
X77437605Y-156506606D01*
X77426891Y-156506606D01*
X77416179Y-156506606D01*
X77416179Y-156518660D01*
X77416179Y-156530716D01*
X77394745Y-156530716D01*
X77373314Y-156530716D01*
X77373314Y-156541426D01*
X77373314Y-156552144D01*
X77350545Y-156552144D01*
X77327775Y-156552144D01*
X77327775Y-156562859D01*
X77327775Y-156573576D01*
X77294292Y-156573576D01*
X77260808Y-156573576D01*
X77260808Y-156584289D01*
X77260808Y-156595007D01*
X77204553Y-156595007D01*
X77148295Y-156595007D01*
X77148295Y-156584289D01*
X77148295Y-156573576D01*
X77104095Y-156573576D01*
X77059897Y-156573576D01*
X77059897Y-156562859D01*
X77059897Y-156552144D01*
X77038463Y-156552144D01*
X77017034Y-156552144D01*
X77017034Y-156541426D01*
X77017034Y-156530716D01*
X77004979Y-156530716D01*
X76992927Y-156530716D01*
X76992927Y-156518660D01*
X76992927Y-156506606D01*
X76971495Y-156506606D01*
X76950060Y-156506606D01*
X76950060Y-156495891D01*
X76950060Y-156485177D01*
X76938009Y-156485177D01*
X76925948Y-156485177D01*
X76925948Y-156462407D01*
X76925948Y-156439637D01*
X76915236Y-156439637D01*
X76904520Y-156439637D01*
X76904520Y-156428922D01*
X76904520Y-156418208D01*
X76893807Y-156418208D01*
X76883094Y-156418208D01*
X76883094Y-156395441D01*
X76883094Y-156372664D01*
X76871036Y-156372664D01*
X76858982Y-156372664D01*
X76858982Y-156328466D01*
X76858982Y-156284267D01*
X76848267Y-156284267D01*
X76837552Y-156284267D01*
X76837552Y-156229348D01*
X76837552Y-156174435D01*
X76848267Y-156174435D01*
X76858982Y-156174435D01*
X76858982Y-156162379D01*
X76858982Y-156150325D01*
X76848267Y-156150325D01*
X76837552Y-156150325D01*
X76837552Y-156139608D01*
X76837552Y-156128896D01*
X76804066Y-156128896D01*
X76770582Y-156128896D01*
X76770582Y-156118180D01*
X76770582Y-156107466D01*
X76749151Y-156107466D01*
X76727721Y-156107466D01*
X76727721Y-156118180D01*
X76727721Y-156128896D01*
X76694239Y-156128896D01*
X76660751Y-156128896D01*
X76660751Y-156139608D01*
X76660751Y-156150325D01*
X76648699Y-156150325D01*
X76636644Y-156150325D01*
X76636644Y-156162379D01*
X76636644Y-156174435D01*
X76625929Y-156174435D01*
X76615212Y-156174435D01*
X76615212Y-156185149D01*
X76615212Y-156195865D01*
X76604500Y-156195865D01*
X76593783Y-156195865D01*
X76593783Y-156240063D01*
X76593783Y-156284267D01*
X76581726Y-156284267D01*
X76569676Y-156284267D01*
X76569676Y-156607062D01*
X76569676Y-156929862D01*
X76558960Y-156929862D01*
X76548245Y-156929862D01*
X76548245Y-156940576D01*
X76548245Y-156951292D01*
X76537528Y-156951292D01*
X76526814Y-156951292D01*
X76526814Y-156963346D01*
X76526814Y-156975401D01*
X76504040Y-156975401D01*
X76481270Y-156975401D01*
X76481270Y-156986114D01*
X76481270Y-156996827D01*
X76392871Y-156996827D01*
X76304466Y-156996827D01*
X76304466Y-156974060D01*
X76304466Y-156951289D01*
X76292417Y-156951289D01*
X76280358Y-156951289D01*
X76280358Y-156372664D01*
X76280358Y-155794039D01*
X76292417Y-155794039D01*
X76304466Y-155794039D01*
X76304466Y-155760558D01*
X76304466Y-155727074D01*
X76315187Y-155727074D01*
X76325899Y-155727074D01*
X76325899Y-155705640D01*
X76325899Y-155684212D01*
X76336616Y-155684212D01*
X76347338Y-155684212D01*
X76347338Y-155672159D01*
X76347338Y-155660103D01*
X76359382Y-155660103D01*
X76371442Y-155660103D01*
X76371442Y-155649387D01*
X76371442Y-155638672D01*
X76382155Y-155638672D01*
X76392871Y-155638672D01*
X76392871Y-155627959D01*
X76392871Y-155617243D01*
X76415640Y-155617243D01*
X76438410Y-155617243D01*
X76438410Y-155606526D01*
X76438410Y-155595812D01*
X76449127Y-155595812D01*
X76459847Y-155595812D01*
X76459847Y-155583756D01*
X76459847Y-155571701D01*
X76481270Y-155571701D01*
X76502705Y-155571701D01*
X76502705Y-155560987D01*
X76502705Y-155550270D01*
X76514762Y-155550270D01*
X76526814Y-155550270D01*
X76526814Y-155539555D01*
X76526814Y-155528840D01*
X76548245Y-155528840D01*
X76569676Y-155528840D01*
X76569676Y-155516785D01*
X76569676Y-155504732D01*
X76592441Y-155504732D01*
X76615211Y-155504732D01*
X76615211Y-155494014D01*
X76615211Y-155483302D01*
X76625929Y-155483302D01*
X76636644Y-155483302D01*
X76636644Y-155472586D01*
X76636644Y-155461867D01*
X76659413Y-155461867D01*
X76682184Y-155461867D01*
X76682184Y-155449818D01*
X76682184Y-155437762D01*
X76704951Y-155437762D01*
X76727721Y-155437762D01*
X76727721Y-155427048D01*
X76727721Y-155416330D01*
X76738437Y-155416330D01*
X76749151Y-155416330D01*
X76749151Y-155405616D01*
X76749151Y-155394903D01*
X76770582Y-155394903D01*
X76792011Y-155394903D01*
X76792011Y-155382845D01*
X76792011Y-155370791D01*
X76814776Y-155370791D01*
X76837552Y-155370791D01*
X76837552Y-155360076D01*
X76837552Y-155349362D01*
X76848265Y-155349362D01*
X76858982Y-155349362D01*
X76858982Y-155338647D01*
X76858982Y-155327930D01*
X76881754Y-155327930D01*
X76904520Y-155327930D01*
X76904520Y-155317215D01*
X76904520Y-155306502D01*
X76927293Y-155306502D01*
X76950060Y-155306502D01*
X76950060Y-155294446D01*
X76950060Y-155282392D01*
X76960780Y-155282392D01*
X76971495Y-155282392D01*
X76971495Y-155271678D01*
X76971495Y-155260959D01*
X76994264Y-155260959D01*
X77017033Y-155260959D01*
X77017033Y-155250247D01*
X77017033Y-155239531D01*
X77038462Y-155239531D01*
X77059897Y-155239531D01*
X77059897Y-155227476D01*
X77059897Y-155215421D01*
X77082666Y-155215421D01*
X77105434Y-155215421D01*
X77105434Y-155204706D01*
X77105434Y-155193992D01*
X77116148Y-155193992D01*
X77126865Y-155193992D01*
X77126865Y-155183277D01*
X77126865Y-155172563D01*
X77149633Y-155172563D01*
X77172403Y-155172563D01*
X77172403Y-155160507D01*
X77172403Y-155148453D01*
X77193836Y-155148453D01*
X77215266Y-155148453D01*
X77215266Y-155137739D01*
X77215266Y-155127022D01*
X77227320Y-155127022D01*
X77239377Y-155127022D01*
X77239377Y-155116309D01*
X77239377Y-155105592D01*
X77260808Y-155105592D01*
X77282237Y-155105592D01*
X77282237Y-155093537D01*
X77282237Y-155081484D01*
X77305008Y-155081484D01*
X77327773Y-155081484D01*
X77327773Y-155070766D01*
X77327773Y-155060049D01*
X77371977Y-155060049D01*
X77416179Y-155060049D01*
X77416179Y-155070766D01*
G37*
G36*
X75147225Y-155070770D02*
G01*
X75147225Y-155081486D01*
X75168653Y-155081486D01*
X75190086Y-155081486D01*
X75190086Y-155093540D01*
X75190086Y-155105596D01*
X75212854Y-155105596D01*
X75235623Y-155105596D01*
X75235623Y-155116311D01*
X75235623Y-155127023D01*
X75246344Y-155127023D01*
X75257053Y-155127023D01*
X75257053Y-155137741D01*
X75257053Y-155148455D01*
X75279825Y-155148455D01*
X75302593Y-155148455D01*
X75302593Y-155160510D01*
X75302593Y-155172564D01*
X75324024Y-155172564D01*
X75345455Y-155172564D01*
X75345455Y-155183281D01*
X75345455Y-155193993D01*
X75357509Y-155193993D01*
X75369566Y-155193993D01*
X75369566Y-155204709D01*
X75369566Y-155215428D01*
X75390992Y-155215428D01*
X75412425Y-155215428D01*
X75412425Y-155227482D01*
X75412425Y-155239531D01*
X75435196Y-155239531D01*
X75457969Y-155239531D01*
X75457969Y-155250251D01*
X75457969Y-155260966D01*
X75480738Y-155260966D01*
X75503505Y-155260966D01*
X75503505Y-155271679D01*
X75503505Y-155282393D01*
X75514219Y-155282393D01*
X75524935Y-155282393D01*
X75524935Y-155294449D01*
X75524935Y-155306506D01*
X75546367Y-155306506D01*
X75567795Y-155306506D01*
X75567795Y-155317218D01*
X75567795Y-155327933D01*
X75590566Y-155327933D01*
X75613335Y-155327933D01*
X75613335Y-155338649D01*
X75613335Y-155349363D01*
X75624047Y-155349363D01*
X75634764Y-155349363D01*
X75634764Y-155360077D01*
X75634764Y-155370795D01*
X75657535Y-155370795D01*
X75680308Y-155370795D01*
X75680308Y-155382849D01*
X75680308Y-155394903D01*
X75703080Y-155394903D01*
X75725847Y-155394903D01*
X75725847Y-155405619D01*
X75725847Y-155416335D01*
X75736560Y-155416335D01*
X75747275Y-155416335D01*
X75747275Y-155427048D01*
X75747275Y-155437765D01*
X75770044Y-155437765D01*
X75792818Y-155437765D01*
X75792818Y-155449819D01*
X75792818Y-155461873D01*
X75814244Y-155461873D01*
X75835677Y-155461873D01*
X75835677Y-155472591D01*
X75835677Y-155483303D01*
X75846390Y-155483303D01*
X75857108Y-155483303D01*
X75857108Y-155494015D01*
X75857108Y-155504736D01*
X75879878Y-155504736D01*
X75902648Y-155504736D01*
X75902648Y-155516788D01*
X75902648Y-155528844D01*
X75925416Y-155528844D01*
X75948192Y-155528844D01*
X75948192Y-155539557D01*
X75948192Y-155550275D01*
X75958902Y-155550275D01*
X75969618Y-155550275D01*
X75969618Y-155560988D01*
X75969618Y-155571703D01*
X75992389Y-155571703D01*
X76015158Y-155571703D01*
X76015158Y-155583759D01*
X76015158Y-155595813D01*
X76036587Y-155595813D01*
X76058018Y-155595813D01*
X76058018Y-155606531D01*
X76058018Y-155617243D01*
X76070075Y-155617243D01*
X76082129Y-155617243D01*
X76082129Y-155627960D01*
X76082129Y-155638675D01*
X76092847Y-155638675D01*
X76103560Y-155638675D01*
X76103560Y-155649388D01*
X76103560Y-155660106D01*
X76114274Y-155660106D01*
X76124991Y-155660106D01*
X76124991Y-155672160D01*
X76124991Y-155684213D01*
X76135707Y-155684213D01*
X76146420Y-155684213D01*
X76146420Y-155705645D01*
X76146420Y-155727077D01*
X76158474Y-155727077D01*
X76170530Y-155727077D01*
X76170530Y-155760559D01*
X76170530Y-155794046D01*
X76181245Y-155794046D01*
X76191961Y-155794046D01*
X76191961Y-156372669D01*
X76191961Y-156951293D01*
X76181245Y-156951293D01*
X76170530Y-156951293D01*
X76170530Y-156974061D01*
X76170530Y-156996833D01*
X76080787Y-156996833D01*
X75991050Y-156996833D01*
X75991050Y-156986116D01*
X75991050Y-156975403D01*
X75969618Y-156975403D01*
X75948192Y-156975403D01*
X75948192Y-156963346D01*
X75948192Y-156951293D01*
X75936132Y-156951293D01*
X75924077Y-156951293D01*
X75924077Y-156940578D01*
X75924077Y-156929862D01*
X75913363Y-156929862D01*
X75902648Y-156929862D01*
X75902648Y-156596346D01*
X75902648Y-156262838D01*
X75891931Y-156262838D01*
X75881214Y-156262838D01*
X75881214Y-156229351D01*
X75881214Y-156195865D01*
X75869158Y-156195865D01*
X75857108Y-156195865D01*
X75857108Y-156185153D01*
X75857108Y-156174439D01*
X75846392Y-156174439D01*
X75835677Y-156174439D01*
X75835677Y-156162382D01*
X75835677Y-156150328D01*
X75824958Y-156150328D01*
X75814244Y-156150328D01*
X75814244Y-156139610D01*
X75814244Y-156128897D01*
X75791473Y-156128897D01*
X75768707Y-156128897D01*
X75768707Y-156118183D01*
X75768707Y-156107472D01*
X75735218Y-156107472D01*
X75701738Y-156107472D01*
X75701738Y-156118183D01*
X75701738Y-156128897D01*
X75668253Y-156128897D01*
X75634764Y-156128897D01*
X75634764Y-156206583D01*
X75634764Y-156284268D01*
X75624047Y-156284268D01*
X75613335Y-156284268D01*
X75613335Y-156328469D01*
X75613335Y-156372669D01*
X75602620Y-156372669D01*
X75591906Y-156372669D01*
X75591906Y-156395442D01*
X75591906Y-156418208D01*
X75579853Y-156418208D01*
X75567795Y-156418208D01*
X75567795Y-156428924D01*
X75567795Y-156439640D01*
X75557081Y-156439640D01*
X75546367Y-156439640D01*
X75546367Y-156462409D01*
X75546367Y-156485178D01*
X75535651Y-156485178D01*
X75524935Y-156485178D01*
X75524935Y-156495894D01*
X75524935Y-156506609D01*
X75502168Y-156506609D01*
X75479397Y-156506609D01*
X75479397Y-156518665D01*
X75479397Y-156530716D01*
X75468682Y-156530716D01*
X75457969Y-156530716D01*
X75457969Y-156541429D01*
X75457969Y-156552147D01*
X75435198Y-156552147D01*
X75412425Y-156552147D01*
X75412425Y-156562863D01*
X75412425Y-156573578D01*
X75368225Y-156573578D01*
X75324028Y-156573578D01*
X75324028Y-156584292D01*
X75324028Y-156595010D01*
X75279827Y-156595010D01*
X75235623Y-156595010D01*
X75235623Y-156584292D01*
X75235623Y-156573578D01*
X75191426Y-156573578D01*
X75147225Y-156573578D01*
X75147225Y-156562863D01*
X75147225Y-156552147D01*
X75124454Y-156552147D01*
X75101683Y-156552147D01*
X75101683Y-156541429D01*
X75101683Y-156530716D01*
X75090968Y-156530716D01*
X75080253Y-156530716D01*
X75080253Y-156518665D01*
X75080253Y-156506609D01*
X75057485Y-156506609D01*
X75034713Y-156506609D01*
X75034713Y-156495894D01*
X75034713Y-156485178D01*
X75023997Y-156485178D01*
X75013283Y-156485178D01*
X75013283Y-156462409D01*
X75013283Y-156439640D01*
X75001229Y-156439640D01*
X74989174Y-156439640D01*
X74989174Y-156428924D01*
X74989174Y-156418208D01*
X74978458Y-156418208D01*
X74967742Y-156418208D01*
X74967742Y-156395442D01*
X74967742Y-156372669D01*
X74957026Y-156372669D01*
X74946313Y-156372669D01*
X74946313Y-156328469D01*
X74946313Y-156284268D01*
X74934258Y-156284268D01*
X74922204Y-156284268D01*
X74922204Y-156240068D01*
X74922204Y-156195865D01*
X74934258Y-156195865D01*
X74946313Y-156195865D01*
X74946313Y-156151669D01*
X74946313Y-156107466D01*
X74957026Y-156107466D01*
X74967742Y-156107466D01*
X74967742Y-156073981D01*
X74967742Y-156040498D01*
X74978458Y-156040498D01*
X74989174Y-156040498D01*
X74989174Y-156028440D01*
X74989174Y-156016385D01*
X75001229Y-156016385D01*
X75013283Y-156016385D01*
X75013283Y-156005673D01*
X75013283Y-155994958D01*
X75023997Y-155994958D01*
X75034713Y-155994958D01*
X75034713Y-155984241D01*
X75034713Y-155973528D01*
X75045427Y-155973528D01*
X75056145Y-155973528D01*
X75056145Y-155961472D01*
X75056145Y-155949418D01*
X75068195Y-155949418D01*
X75080253Y-155949418D01*
X75080253Y-155938702D01*
X75080253Y-155927988D01*
X75090968Y-155927988D01*
X75101683Y-155927988D01*
X75101683Y-155917270D01*
X75101683Y-155906556D01*
X75124451Y-155906556D01*
X75147225Y-155906556D01*
X75147225Y-155895840D01*
X75147225Y-155885128D01*
X75202137Y-155885128D01*
X75257053Y-155885128D01*
X75257053Y-155873073D01*
X75257053Y-155861017D01*
X75279825Y-155861017D01*
X75302593Y-155861017D01*
X75302593Y-155873073D01*
X75302593Y-155885128D01*
X75357509Y-155885128D01*
X75412425Y-155885128D01*
X75412425Y-155895840D01*
X75412425Y-155906556D01*
X75435196Y-155906556D01*
X75457969Y-155906556D01*
X75457969Y-155917270D01*
X75457969Y-155927988D01*
X75468682Y-155927988D01*
X75479397Y-155927988D01*
X75479397Y-155938702D01*
X75479397Y-155949418D01*
X75512879Y-155949418D01*
X75546367Y-155949418D01*
X75546367Y-155938702D01*
X75546367Y-155927988D01*
X75557081Y-155927988D01*
X75567795Y-155927988D01*
X75567795Y-155917270D01*
X75567795Y-155906556D01*
X75579853Y-155906556D01*
X75591906Y-155906556D01*
X75591906Y-155895840D01*
X75591906Y-155885128D01*
X75602620Y-155885128D01*
X75613335Y-155885128D01*
X75613335Y-155806102D01*
X75613335Y-155727078D01*
X75602620Y-155727078D01*
X75591906Y-155727078D01*
X75591906Y-155705648D01*
X75591906Y-155684218D01*
X75579853Y-155684218D01*
X75567795Y-155684218D01*
X75567795Y-155672162D01*
X75567795Y-155660106D01*
X75546367Y-155660106D01*
X75524935Y-155660106D01*
X75524935Y-155649391D01*
X75524935Y-155638676D01*
X75514219Y-155638676D01*
X75503505Y-155638676D01*
X75503505Y-155627960D01*
X75503505Y-155617245D01*
X75480738Y-155617245D01*
X75457969Y-155617245D01*
X75457969Y-155606531D01*
X75457969Y-155595818D01*
X75435196Y-155595818D01*
X75412425Y-155595818D01*
X75412425Y-155583759D01*
X75412425Y-155571706D01*
X75401711Y-155571706D01*
X75390996Y-155571706D01*
X75390996Y-155560988D01*
X75390996Y-155550278D01*
X75368223Y-155550278D01*
X75345455Y-155550278D01*
X75345455Y-155539561D01*
X75345455Y-155528844D01*
X75324024Y-155528844D01*
X75302593Y-155528844D01*
X75302593Y-155516790D01*
X75302593Y-155504736D01*
X75279825Y-155504736D01*
X75257053Y-155504736D01*
X75257053Y-155494017D01*
X75257053Y-155483305D01*
X75246344Y-155483305D01*
X75235623Y-155483305D01*
X75235623Y-155472592D01*
X75235623Y-155461875D01*
X75212854Y-155461875D01*
X75190086Y-155461875D01*
X75190086Y-155449821D01*
X75190086Y-155437765D01*
X75168653Y-155437765D01*
X75147225Y-155437765D01*
X75147225Y-155427051D01*
X75147225Y-155416336D01*
X75135169Y-155416336D01*
X75123113Y-155416336D01*
X75123113Y-155405620D01*
X75123113Y-155394904D01*
X75101683Y-155394904D01*
X75080253Y-155394904D01*
X75080253Y-155382853D01*
X75080253Y-155370796D01*
X75057485Y-155370796D01*
X75034713Y-155370796D01*
X75034713Y-155360079D01*
X75034713Y-155349365D01*
X75023997Y-155349365D01*
X75013283Y-155349365D01*
X75013283Y-155338650D01*
X75013283Y-155327933D01*
X75001229Y-155327933D01*
X74989174Y-155327933D01*
X74989174Y-155260966D01*
X74989174Y-155193995D01*
X75001229Y-155193995D01*
X75013283Y-155193995D01*
X75013283Y-155160512D01*
X75013283Y-155127024D01*
X75023997Y-155127024D01*
X75034713Y-155127024D01*
X75034713Y-155104255D01*
X75034713Y-155081486D01*
X75045427Y-155081486D01*
X75056145Y-155081486D01*
X75056145Y-155070770D01*
X75056145Y-155060050D01*
X75101683Y-155060050D01*
X75147225Y-155060050D01*
X75147225Y-155070770D01*
G37*
D13*
G36*
X85433040Y-154951411D02*
G01*
X85152221Y-154951411D01*
X84803901Y-156002143D01*
X84450359Y-154951411D01*
X84173662Y-154951411D01*
X83919589Y-156457901D01*
X84196285Y-156457901D01*
X84358127Y-155506452D01*
X84678879Y-156457901D01*
X84931945Y-156457901D01*
X85248575Y-155506452D01*
X85413531Y-156457901D01*
X85693250Y-156457901D01*
X85433040Y-154951411D01*
G37*
G36*
X83838164Y-154951411D02*
G01*
X83005052Y-154951411D01*
X83005052Y-155226917D01*
X83279642Y-155226917D01*
X83279642Y-156457901D01*
X83570718Y-156457901D01*
X83570718Y-155226917D01*
X83838164Y-155226917D01*
X83838164Y-154951411D01*
G37*
G36*
X82663326Y-154951411D02*
G01*
X82382508Y-154951411D01*
X82034187Y-156002143D01*
X81680645Y-154951411D01*
X81403949Y-154951411D01*
X81149875Y-156457901D01*
X81426572Y-156457901D01*
X81588413Y-155506452D01*
X81909165Y-156457901D01*
X82162231Y-156457901D01*
X82478861Y-155506452D01*
X82643817Y-156457901D01*
X82923536Y-156457901D01*
X82663326Y-154951411D01*
G37*
X84375714Y-158712994D02*
X84375714Y-157812994D01*
X84375714Y-157812994D02*
X84161428Y-157812994D01*
X84161428Y-157812994D02*
X84032857Y-157855851D01*
X84032857Y-157855851D02*
X83947142Y-157941565D01*
X83947142Y-157941565D02*
X83904285Y-158027279D01*
X83904285Y-158027279D02*
X83861428Y-158198708D01*
X83861428Y-158198708D02*
X83861428Y-158327279D01*
X83861428Y-158327279D02*
X83904285Y-158498708D01*
X83904285Y-158498708D02*
X83947142Y-158584422D01*
X83947142Y-158584422D02*
X84032857Y-158670137D01*
X84032857Y-158670137D02*
X84161428Y-158712994D01*
X84161428Y-158712994D02*
X84375714Y-158712994D01*
X83132857Y-158670137D02*
X83218571Y-158712994D01*
X83218571Y-158712994D02*
X83390000Y-158712994D01*
X83390000Y-158712994D02*
X83475714Y-158670137D01*
X83475714Y-158670137D02*
X83518571Y-158584422D01*
X83518571Y-158584422D02*
X83518571Y-158241565D01*
X83518571Y-158241565D02*
X83475714Y-158155851D01*
X83475714Y-158155851D02*
X83390000Y-158112994D01*
X83390000Y-158112994D02*
X83218571Y-158112994D01*
X83218571Y-158112994D02*
X83132857Y-158155851D01*
X83132857Y-158155851D02*
X83090000Y-158241565D01*
X83090000Y-158241565D02*
X83090000Y-158327279D01*
X83090000Y-158327279D02*
X83518571Y-158412994D01*
X82747142Y-158670137D02*
X82661428Y-158712994D01*
X82661428Y-158712994D02*
X82489999Y-158712994D01*
X82489999Y-158712994D02*
X82404285Y-158670137D01*
X82404285Y-158670137D02*
X82361428Y-158584422D01*
X82361428Y-158584422D02*
X82361428Y-158541565D01*
X82361428Y-158541565D02*
X82404285Y-158455851D01*
X82404285Y-158455851D02*
X82489999Y-158412994D01*
X82489999Y-158412994D02*
X82618571Y-158412994D01*
X82618571Y-158412994D02*
X82704285Y-158370137D01*
X82704285Y-158370137D02*
X82747142Y-158284422D01*
X82747142Y-158284422D02*
X82747142Y-158241565D01*
X82747142Y-158241565D02*
X82704285Y-158155851D01*
X82704285Y-158155851D02*
X82618571Y-158112994D01*
X82618571Y-158112994D02*
X82489999Y-158112994D01*
X82489999Y-158112994D02*
X82404285Y-158155851D01*
X81975714Y-158712994D02*
X81975714Y-158112994D01*
X81975714Y-157812994D02*
X82018571Y-157855851D01*
X82018571Y-157855851D02*
X81975714Y-157898708D01*
X81975714Y-157898708D02*
X81932857Y-157855851D01*
X81932857Y-157855851D02*
X81975714Y-157812994D01*
X81975714Y-157812994D02*
X81975714Y-157898708D01*
X81161429Y-158112994D02*
X81161429Y-158841565D01*
X81161429Y-158841565D02*
X81204286Y-158927279D01*
X81204286Y-158927279D02*
X81247143Y-158970137D01*
X81247143Y-158970137D02*
X81332857Y-159012994D01*
X81332857Y-159012994D02*
X81461429Y-159012994D01*
X81461429Y-159012994D02*
X81547143Y-158970137D01*
X81161429Y-158670137D02*
X81247143Y-158712994D01*
X81247143Y-158712994D02*
X81418571Y-158712994D01*
X81418571Y-158712994D02*
X81504286Y-158670137D01*
X81504286Y-158670137D02*
X81547143Y-158627279D01*
X81547143Y-158627279D02*
X81590000Y-158541565D01*
X81590000Y-158541565D02*
X81590000Y-158284422D01*
X81590000Y-158284422D02*
X81547143Y-158198708D01*
X81547143Y-158198708D02*
X81504286Y-158155851D01*
X81504286Y-158155851D02*
X81418571Y-158112994D01*
X81418571Y-158112994D02*
X81247143Y-158112994D01*
X81247143Y-158112994D02*
X81161429Y-158155851D01*
X80732857Y-158112994D02*
X80732857Y-158712994D01*
X80732857Y-158198708D02*
X80690000Y-158155851D01*
X80690000Y-158155851D02*
X80604285Y-158112994D01*
X80604285Y-158112994D02*
X80475714Y-158112994D01*
X80475714Y-158112994D02*
X80390000Y-158155851D01*
X80390000Y-158155851D02*
X80347143Y-158241565D01*
X80347143Y-158241565D02*
X80347143Y-158712994D01*
X79575714Y-158670137D02*
X79661428Y-158712994D01*
X79661428Y-158712994D02*
X79832857Y-158712994D01*
X79832857Y-158712994D02*
X79918571Y-158670137D01*
X79918571Y-158670137D02*
X79961428Y-158584422D01*
X79961428Y-158584422D02*
X79961428Y-158241565D01*
X79961428Y-158241565D02*
X79918571Y-158155851D01*
X79918571Y-158155851D02*
X79832857Y-158112994D01*
X79832857Y-158112994D02*
X79661428Y-158112994D01*
X79661428Y-158112994D02*
X79575714Y-158155851D01*
X79575714Y-158155851D02*
X79532857Y-158241565D01*
X79532857Y-158241565D02*
X79532857Y-158327279D01*
X79532857Y-158327279D02*
X79961428Y-158412994D01*
X78761428Y-158712994D02*
X78761428Y-157812994D01*
X78761428Y-158670137D02*
X78847142Y-158712994D01*
X78847142Y-158712994D02*
X79018570Y-158712994D01*
X79018570Y-158712994D02*
X79104285Y-158670137D01*
X79104285Y-158670137D02*
X79147142Y-158627279D01*
X79147142Y-158627279D02*
X79189999Y-158541565D01*
X79189999Y-158541565D02*
X79189999Y-158284422D01*
X79189999Y-158284422D02*
X79147142Y-158198708D01*
X79147142Y-158198708D02*
X79104285Y-158155851D01*
X79104285Y-158155851D02*
X79018570Y-158112994D01*
X79018570Y-158112994D02*
X78847142Y-158112994D01*
X78847142Y-158112994D02*
X78761428Y-158155851D01*
X77647142Y-158712994D02*
X77647142Y-157812994D01*
X77647142Y-158155851D02*
X77561428Y-158112994D01*
X77561428Y-158112994D02*
X77389999Y-158112994D01*
X77389999Y-158112994D02*
X77304285Y-158155851D01*
X77304285Y-158155851D02*
X77261428Y-158198708D01*
X77261428Y-158198708D02*
X77218570Y-158284422D01*
X77218570Y-158284422D02*
X77218570Y-158541565D01*
X77218570Y-158541565D02*
X77261428Y-158627279D01*
X77261428Y-158627279D02*
X77304285Y-158670137D01*
X77304285Y-158670137D02*
X77389999Y-158712994D01*
X77389999Y-158712994D02*
X77561428Y-158712994D01*
X77561428Y-158712994D02*
X77647142Y-158670137D01*
X76918570Y-158112994D02*
X76704284Y-158712994D01*
X76489999Y-158112994D02*
X76704284Y-158712994D01*
X76704284Y-158712994D02*
X76789999Y-158927279D01*
X76789999Y-158927279D02*
X76832856Y-158970137D01*
X76832856Y-158970137D02*
X76918570Y-159012994D01*
X75504285Y-158455851D02*
X75075714Y-158455851D01*
X75589999Y-158712994D02*
X75289999Y-157812994D01*
X75289999Y-157812994D02*
X74989999Y-158712994D01*
X74732856Y-158670137D02*
X74647142Y-158712994D01*
X74647142Y-158712994D02*
X74475713Y-158712994D01*
X74475713Y-158712994D02*
X74389999Y-158670137D01*
X74389999Y-158670137D02*
X74347142Y-158584422D01*
X74347142Y-158584422D02*
X74347142Y-158541565D01*
X74347142Y-158541565D02*
X74389999Y-158455851D01*
X74389999Y-158455851D02*
X74475713Y-158412994D01*
X74475713Y-158412994D02*
X74604285Y-158412994D01*
X74604285Y-158412994D02*
X74689999Y-158370137D01*
X74689999Y-158370137D02*
X74732856Y-158284422D01*
X74732856Y-158284422D02*
X74732856Y-158241565D01*
X74732856Y-158241565D02*
X74689999Y-158155851D01*
X74689999Y-158155851D02*
X74604285Y-158112994D01*
X74604285Y-158112994D02*
X74475713Y-158112994D01*
X74475713Y-158112994D02*
X74389999Y-158155851D01*
X73961428Y-158712994D02*
X73961428Y-157812994D01*
X73575714Y-158712994D02*
X73575714Y-158241565D01*
X73575714Y-158241565D02*
X73618571Y-158155851D01*
X73618571Y-158155851D02*
X73704285Y-158112994D01*
X73704285Y-158112994D02*
X73832856Y-158112994D01*
X73832856Y-158112994D02*
X73918571Y-158155851D01*
X73918571Y-158155851D02*
X73961428Y-158198708D01*
X73147142Y-158712994D02*
X73147142Y-158112994D01*
X73147142Y-157812994D02*
X73189999Y-157855851D01*
X73189999Y-157855851D02*
X73147142Y-157898708D01*
X73147142Y-157898708D02*
X73104285Y-157855851D01*
X73104285Y-157855851D02*
X73147142Y-157812994D01*
X73147142Y-157812994D02*
X73147142Y-157898708D01*
X72761428Y-158670137D02*
X72675714Y-158712994D01*
X72675714Y-158712994D02*
X72504285Y-158712994D01*
X72504285Y-158712994D02*
X72418571Y-158670137D01*
X72418571Y-158670137D02*
X72375714Y-158584422D01*
X72375714Y-158584422D02*
X72375714Y-158541565D01*
X72375714Y-158541565D02*
X72418571Y-158455851D01*
X72418571Y-158455851D02*
X72504285Y-158412994D01*
X72504285Y-158412994D02*
X72632857Y-158412994D01*
X72632857Y-158412994D02*
X72718571Y-158370137D01*
X72718571Y-158370137D02*
X72761428Y-158284422D01*
X72761428Y-158284422D02*
X72761428Y-158241565D01*
X72761428Y-158241565D02*
X72718571Y-158155851D01*
X72718571Y-158155851D02*
X72632857Y-158112994D01*
X72632857Y-158112994D02*
X72504285Y-158112994D01*
X72504285Y-158112994D02*
X72418571Y-158155851D01*
X71990000Y-158712994D02*
X71990000Y-157812994D01*
X71604286Y-158712994D02*
X71604286Y-158241565D01*
X71604286Y-158241565D02*
X71647143Y-158155851D01*
X71647143Y-158155851D02*
X71732857Y-158112994D01*
X71732857Y-158112994D02*
X71861428Y-158112994D01*
X71861428Y-158112994D02*
X71947143Y-158155851D01*
X71947143Y-158155851D02*
X71990000Y-158198708D01*
X79216152Y-153943537D02*
X79216152Y-156943537D01*
M02*
