%TF.GenerationSoftware,KiCad,Pcbnew,10.0.3*%
%TF.CreationDate,2026-07-04T15:13:09+05:30*%
%TF.ProjectId,Urumi-Nema-17-Node,5572756d-692d-44e6-956d-612d31372d4e,rev?*%
%TF.SameCoordinates,Original*%
%TF.FileFunction,Profile,NP*%
%FSLAX46Y46*%
G04 Gerber Fmt 4.6, Leading zero omitted, Abs format (unit mm)*
G04 Created by KiCad (PCBNEW 10.0.3) date 2026-07-04 15:13:09*
%MOMM*%
%LPD*%
G01*
G04 APERTURE LIST*
%TA.AperFunction,Profile*%
%ADD10C,0.200000*%
%TD*%
G04 APERTURE END LIST*
D10*
X51710000Y-130520000D02*
X51710000Y-165419999D01*
X51710000Y-130520000D02*
G75*
G02*
X53210000Y-129020000I1500000J0D01*
G01*
X53210001Y-166920000D02*
G75*
G02*
X51710000Y-165419999I-1J1500000D01*
G01*
X53210001Y-166920000D02*
X55709999Y-166920000D01*
X55710000Y-129020000D02*
X53210000Y-129020000D01*
X55709999Y-166920000D02*
G75*
G02*
X60460000Y-171670001I1J-4750000D01*
G01*
X60460000Y-121770000D02*
X60460000Y-124270000D01*
X60460000Y-121770000D02*
G75*
G02*
X61960000Y-120270000I1500000J0D01*
G01*
X60460000Y-124270000D02*
G75*
G02*
X55710000Y-129020000I-4750000J0D01*
G01*
X60460000Y-171670001D02*
X60460000Y-174169999D01*
X61960001Y-175670000D02*
G75*
G02*
X60460000Y-174169999I-1J1500000D01*
G01*
X61960001Y-175670000D02*
X96859999Y-175670000D01*
X96860000Y-120270000D02*
X61960000Y-120270000D01*
X96860000Y-120270000D02*
G75*
G02*
X98360000Y-121770000I0J-1500000D01*
G01*
X98360000Y-124270000D02*
X98360000Y-121770000D01*
X98360000Y-171670001D02*
G75*
G02*
X103110001Y-166920000I4750000J1D01*
G01*
X98360000Y-174169999D02*
G75*
G02*
X96859999Y-175670000I-1500000J-1D01*
G01*
X98360000Y-174169999D02*
X98360000Y-171670001D01*
X103110000Y-129020000D02*
G75*
G02*
X98360000Y-124270000I0J4750000D01*
G01*
X103110001Y-166920000D02*
X105609999Y-166920000D01*
X105610000Y-129020000D02*
X103110000Y-129020000D01*
X105610000Y-129020000D02*
G75*
G02*
X107110000Y-130520000I0J-1500000D01*
G01*
X107110000Y-165419999D02*
G75*
G02*
X105609999Y-166920000I-1500000J-1D01*
G01*
X107110000Y-165419999D02*
X107110000Y-130520000D01*
M02*
