%TF.GenerationSoftware,KiCad,Pcbnew,10.0.3*%
%TF.CreationDate,2026-07-04T03:07:24+05:30*%
%TF.ProjectId,Urumi-Nema-17-Node,5572756d-692d-44e6-956d-612d31372d4e,rev?*%
%TF.SameCoordinates,Original*%
%TF.FileFunction,Legend,Top*%
%TF.FilePolarity,Positive*%
%FSLAX46Y46*%
G04 Gerber Fmt 4.6, Leading zero omitted, Abs format (unit mm)*
G04 Created by KiCad (PCBNEW 10.0.3) date 2026-07-04 03:07:24*
%MOMM*%
%LPD*%
G01*
G04 APERTURE LIST*
%ADD10C,0.220000*%
%ADD11C,0.225000*%
%ADD12C,0.203200*%
%ADD13C,0.250000*%
%ADD14C,0.120000*%
%ADD15C,0.127000*%
%ADD16C,0.150000*%
%ADD17C,0.152400*%
%ADD18C,0.100000*%
%ADD19C,0.200000*%
%ADD20C,0.381000*%
G04 APERTURE END LIST*
D10*
X98897774Y-136074285D02*
X98854917Y-136160000D01*
X98854917Y-136160000D02*
X98854917Y-136288571D01*
X98854917Y-136288571D02*
X98897774Y-136417142D01*
X98897774Y-136417142D02*
X98983488Y-136502857D01*
X98983488Y-136502857D02*
X99069202Y-136545714D01*
X99069202Y-136545714D02*
X99240631Y-136588571D01*
X99240631Y-136588571D02*
X99369202Y-136588571D01*
X99369202Y-136588571D02*
X99540631Y-136545714D01*
X99540631Y-136545714D02*
X99626345Y-136502857D01*
X99626345Y-136502857D02*
X99712060Y-136417142D01*
X99712060Y-136417142D02*
X99754917Y-136288571D01*
X99754917Y-136288571D02*
X99754917Y-136202857D01*
X99754917Y-136202857D02*
X99712060Y-136074285D01*
X99712060Y-136074285D02*
X99669202Y-136031428D01*
X99669202Y-136031428D02*
X99369202Y-136031428D01*
X99369202Y-136031428D02*
X99369202Y-136202857D01*
X99024917Y-143321428D02*
X99024917Y-143750000D01*
X99024917Y-143750000D02*
X99453488Y-143792857D01*
X99453488Y-143792857D02*
X99410631Y-143750000D01*
X99410631Y-143750000D02*
X99367774Y-143664286D01*
X99367774Y-143664286D02*
X99367774Y-143450000D01*
X99367774Y-143450000D02*
X99410631Y-143364286D01*
X99410631Y-143364286D02*
X99453488Y-143321428D01*
X99453488Y-143321428D02*
X99539202Y-143278571D01*
X99539202Y-143278571D02*
X99753488Y-143278571D01*
X99753488Y-143278571D02*
X99839202Y-143321428D01*
X99839202Y-143321428D02*
X99882060Y-143364286D01*
X99882060Y-143364286D02*
X99924917Y-143450000D01*
X99924917Y-143450000D02*
X99924917Y-143664286D01*
X99924917Y-143664286D02*
X99882060Y-143750000D01*
X99882060Y-143750000D02*
X99839202Y-143792857D01*
X99024917Y-143021428D02*
X99924917Y-142721428D01*
X99924917Y-142721428D02*
X99024917Y-142421428D01*
X102242225Y-146315714D02*
X102285082Y-146230000D01*
X102285082Y-146230000D02*
X102285082Y-146101428D01*
X102285082Y-146101428D02*
X102242225Y-145972857D01*
X102242225Y-145972857D02*
X102156511Y-145887142D01*
X102156511Y-145887142D02*
X102070797Y-145844285D01*
X102070797Y-145844285D02*
X101899368Y-145801428D01*
X101899368Y-145801428D02*
X101770797Y-145801428D01*
X101770797Y-145801428D02*
X101599368Y-145844285D01*
X101599368Y-145844285D02*
X101513654Y-145887142D01*
X101513654Y-145887142D02*
X101427940Y-145972857D01*
X101427940Y-145972857D02*
X101385082Y-146101428D01*
X101385082Y-146101428D02*
X101385082Y-146187142D01*
X101385082Y-146187142D02*
X101427940Y-146315714D01*
X101427940Y-146315714D02*
X101470797Y-146358571D01*
X101470797Y-146358571D02*
X101770797Y-146358571D01*
X101770797Y-146358571D02*
X101770797Y-146187142D01*
X102295082Y-147342857D02*
X101566511Y-147342857D01*
X101566511Y-147342857D02*
X101480797Y-147385714D01*
X101480797Y-147385714D02*
X101437940Y-147428572D01*
X101437940Y-147428572D02*
X101395082Y-147514286D01*
X101395082Y-147514286D02*
X101395082Y-147685714D01*
X101395082Y-147685714D02*
X101437940Y-147771429D01*
X101437940Y-147771429D02*
X101480797Y-147814286D01*
X101480797Y-147814286D02*
X101566511Y-147857143D01*
X101566511Y-147857143D02*
X102295082Y-147857143D01*
X101395082Y-148285714D02*
X102295082Y-148285714D01*
X102295082Y-148285714D02*
X102295082Y-148628571D01*
X102295082Y-148628571D02*
X102252225Y-148714286D01*
X102252225Y-148714286D02*
X102209368Y-148757143D01*
X102209368Y-148757143D02*
X102123654Y-148800000D01*
X102123654Y-148800000D02*
X101995082Y-148800000D01*
X101995082Y-148800000D02*
X101909368Y-148757143D01*
X101909368Y-148757143D02*
X101866511Y-148714286D01*
X101866511Y-148714286D02*
X101823654Y-148628571D01*
X101823654Y-148628571D02*
X101823654Y-148285714D01*
X101395082Y-149185714D02*
X102295082Y-149185714D01*
X102295082Y-149185714D02*
X102295082Y-149400000D01*
X102295082Y-149400000D02*
X102252225Y-149528571D01*
X102252225Y-149528571D02*
X102166511Y-149614286D01*
X102166511Y-149614286D02*
X102080797Y-149657143D01*
X102080797Y-149657143D02*
X101909368Y-149700000D01*
X101909368Y-149700000D02*
X101780797Y-149700000D01*
X101780797Y-149700000D02*
X101609368Y-149657143D01*
X101609368Y-149657143D02*
X101523654Y-149614286D01*
X101523654Y-149614286D02*
X101437940Y-149528571D01*
X101437940Y-149528571D02*
X101395082Y-149400000D01*
X101395082Y-149400000D02*
X101395082Y-149185714D01*
X102295082Y-155014286D02*
X102295082Y-155528572D01*
X101395082Y-155271429D02*
X102295082Y-155271429D01*
X102295082Y-155742857D02*
X101395082Y-156342857D01*
X102295082Y-156342857D02*
X101395082Y-155742857D01*
D11*
X101395342Y-153250000D02*
X101823914Y-152950000D01*
X101395342Y-152735714D02*
X102295342Y-152735714D01*
X102295342Y-152735714D02*
X102295342Y-153078571D01*
X102295342Y-153078571D02*
X102252485Y-153164286D01*
X102252485Y-153164286D02*
X102209628Y-153207143D01*
X102209628Y-153207143D02*
X102123914Y-153250000D01*
X102123914Y-153250000D02*
X101995342Y-153250000D01*
X101995342Y-153250000D02*
X101909628Y-153207143D01*
X101909628Y-153207143D02*
X101866771Y-153164286D01*
X101866771Y-153164286D02*
X101823914Y-153078571D01*
X101823914Y-153078571D02*
X101823914Y-152735714D01*
X102295342Y-153550000D02*
X101395342Y-154150000D01*
X102295342Y-154150000D02*
X101395342Y-153550000D01*
X102395342Y-150928571D02*
X102395342Y-150499999D01*
X102395342Y-150499999D02*
X101966771Y-150457142D01*
X101966771Y-150457142D02*
X102009628Y-150499999D01*
X102009628Y-150499999D02*
X102052485Y-150585714D01*
X102052485Y-150585714D02*
X102052485Y-150799999D01*
X102052485Y-150799999D02*
X102009628Y-150885714D01*
X102009628Y-150885714D02*
X101966771Y-150928571D01*
X101966771Y-150928571D02*
X101881057Y-150971428D01*
X101881057Y-150971428D02*
X101666771Y-150971428D01*
X101666771Y-150971428D02*
X101581057Y-150928571D01*
X101581057Y-150928571D02*
X101538200Y-150885714D01*
X101538200Y-150885714D02*
X101495342Y-150799999D01*
X101495342Y-150799999D02*
X101495342Y-150585714D01*
X101495342Y-150585714D02*
X101538200Y-150499999D01*
X101538200Y-150499999D02*
X101581057Y-150457142D01*
X102395342Y-151228571D02*
X101495342Y-151528571D01*
X101495342Y-151528571D02*
X102395342Y-151828571D01*
D12*
X58977527Y-133708601D02*
X58063127Y-133708601D01*
X58063127Y-133708601D02*
X58063127Y-133490887D01*
X58063127Y-133490887D02*
X58106670Y-133360258D01*
X58106670Y-133360258D02*
X58193756Y-133273173D01*
X58193756Y-133273173D02*
X58280842Y-133229630D01*
X58280842Y-133229630D02*
X58455013Y-133186087D01*
X58455013Y-133186087D02*
X58585642Y-133186087D01*
X58585642Y-133186087D02*
X58759813Y-133229630D01*
X58759813Y-133229630D02*
X58846899Y-133273173D01*
X58846899Y-133273173D02*
X58933985Y-133360258D01*
X58933985Y-133360258D02*
X58977527Y-133490887D01*
X58977527Y-133490887D02*
X58977527Y-133708601D01*
X58977527Y-132794201D02*
X58063127Y-132794201D01*
X58063127Y-132794201D02*
X58716270Y-132489401D01*
X58716270Y-132489401D02*
X58063127Y-132184601D01*
X58063127Y-132184601D02*
X58977527Y-132184601D01*
X58063127Y-131313744D02*
X58063127Y-131749172D01*
X58063127Y-131749172D02*
X58498556Y-131792715D01*
X58498556Y-131792715D02*
X58455013Y-131749172D01*
X58455013Y-131749172D02*
X58411470Y-131662087D01*
X58411470Y-131662087D02*
X58411470Y-131444372D01*
X58411470Y-131444372D02*
X58455013Y-131357287D01*
X58455013Y-131357287D02*
X58498556Y-131313744D01*
X58498556Y-131313744D02*
X58585642Y-131270201D01*
X58585642Y-131270201D02*
X58803356Y-131270201D01*
X58803356Y-131270201D02*
X58890442Y-131313744D01*
X58890442Y-131313744D02*
X58933985Y-131357287D01*
X58933985Y-131357287D02*
X58977527Y-131444372D01*
X58977527Y-131444372D02*
X58977527Y-131662087D01*
X58977527Y-131662087D02*
X58933985Y-131749172D01*
X58933985Y-131749172D02*
X58890442Y-131792715D01*
X58367927Y-130486430D02*
X58977527Y-130486430D01*
X58019585Y-130704144D02*
X58672727Y-130921858D01*
X58672727Y-130921858D02*
X58672727Y-130355801D01*
X58150213Y-130051001D02*
X58106670Y-130007458D01*
X58106670Y-130007458D02*
X58063127Y-129920373D01*
X58063127Y-129920373D02*
X58063127Y-129702658D01*
X58063127Y-129702658D02*
X58106670Y-129615573D01*
X58106670Y-129615573D02*
X58150213Y-129572030D01*
X58150213Y-129572030D02*
X58237299Y-129528487D01*
X58237299Y-129528487D02*
X58324385Y-129528487D01*
X58324385Y-129528487D02*
X58455013Y-129572030D01*
X58455013Y-129572030D02*
X58977527Y-130094544D01*
X58977527Y-130094544D02*
X58977527Y-129528487D01*
X59836670Y-128179630D02*
X59793127Y-128266716D01*
X59793127Y-128266716D02*
X59793127Y-128397344D01*
X59793127Y-128397344D02*
X59836670Y-128527973D01*
X59836670Y-128527973D02*
X59923756Y-128615058D01*
X59923756Y-128615058D02*
X60010842Y-128658601D01*
X60010842Y-128658601D02*
X60185013Y-128702144D01*
X60185013Y-128702144D02*
X60315642Y-128702144D01*
X60315642Y-128702144D02*
X60489813Y-128658601D01*
X60489813Y-128658601D02*
X60576899Y-128615058D01*
X60576899Y-128615058D02*
X60663985Y-128527973D01*
X60663985Y-128527973D02*
X60707527Y-128397344D01*
X60707527Y-128397344D02*
X60707527Y-128310258D01*
X60707527Y-128310258D02*
X60663985Y-128179630D01*
X60663985Y-128179630D02*
X60620442Y-128136087D01*
X60620442Y-128136087D02*
X60315642Y-128136087D01*
X60315642Y-128136087D02*
X60315642Y-128310258D01*
X60747527Y-130238601D02*
X59833127Y-130238601D01*
X59833127Y-130238601D02*
X59833127Y-130020887D01*
X59833127Y-130020887D02*
X59876670Y-129890258D01*
X59876670Y-129890258D02*
X59963756Y-129803173D01*
X59963756Y-129803173D02*
X60050842Y-129759630D01*
X60050842Y-129759630D02*
X60225013Y-129716087D01*
X60225013Y-129716087D02*
X60355642Y-129716087D01*
X60355642Y-129716087D02*
X60529813Y-129759630D01*
X60529813Y-129759630D02*
X60616899Y-129803173D01*
X60616899Y-129803173D02*
X60703985Y-129890258D01*
X60703985Y-129890258D02*
X60747527Y-130020887D01*
X60747527Y-130020887D02*
X60747527Y-130238601D01*
X60703985Y-132152144D02*
X60747527Y-132021516D01*
X60747527Y-132021516D02*
X60747527Y-131803801D01*
X60747527Y-131803801D02*
X60703985Y-131716716D01*
X60703985Y-131716716D02*
X60660442Y-131673173D01*
X60660442Y-131673173D02*
X60573356Y-131629630D01*
X60573356Y-131629630D02*
X60486270Y-131629630D01*
X60486270Y-131629630D02*
X60399185Y-131673173D01*
X60399185Y-131673173D02*
X60355642Y-131716716D01*
X60355642Y-131716716D02*
X60312099Y-131803801D01*
X60312099Y-131803801D02*
X60268556Y-131977973D01*
X60268556Y-131977973D02*
X60225013Y-132065058D01*
X60225013Y-132065058D02*
X60181470Y-132108601D01*
X60181470Y-132108601D02*
X60094385Y-132152144D01*
X60094385Y-132152144D02*
X60007299Y-132152144D01*
X60007299Y-132152144D02*
X59920213Y-132108601D01*
X59920213Y-132108601D02*
X59876670Y-132065058D01*
X59876670Y-132065058D02*
X59833127Y-131977973D01*
X59833127Y-131977973D02*
X59833127Y-131760258D01*
X59833127Y-131760258D02*
X59876670Y-131629630D01*
X60268556Y-133858601D02*
X60268556Y-133553801D01*
X60747527Y-133423173D02*
X60747527Y-133858601D01*
X60747527Y-133858601D02*
X59833127Y-133858601D01*
X59833127Y-133858601D02*
X59833127Y-133423173D01*
D10*
X71212831Y-128406179D02*
X71212831Y-127406179D01*
X71212831Y-127406179D02*
X71546164Y-128120464D01*
X71546164Y-128120464D02*
X71879497Y-127406179D01*
X71879497Y-127406179D02*
X71879497Y-128406179D01*
X72498545Y-128406179D02*
X72403307Y-128358560D01*
X72403307Y-128358560D02*
X72355688Y-128310940D01*
X72355688Y-128310940D02*
X72308069Y-128215702D01*
X72308069Y-128215702D02*
X72308069Y-127929988D01*
X72308069Y-127929988D02*
X72355688Y-127834750D01*
X72355688Y-127834750D02*
X72403307Y-127787131D01*
X72403307Y-127787131D02*
X72498545Y-127739512D01*
X72498545Y-127739512D02*
X72641402Y-127739512D01*
X72641402Y-127739512D02*
X72736640Y-127787131D01*
X72736640Y-127787131D02*
X72784259Y-127834750D01*
X72784259Y-127834750D02*
X72831878Y-127929988D01*
X72831878Y-127929988D02*
X72831878Y-128215702D01*
X72831878Y-128215702D02*
X72784259Y-128310940D01*
X72784259Y-128310940D02*
X72736640Y-128358560D01*
X72736640Y-128358560D02*
X72641402Y-128406179D01*
X72641402Y-128406179D02*
X72498545Y-128406179D01*
X73117593Y-127739512D02*
X73498545Y-127739512D01*
X73260450Y-127406179D02*
X73260450Y-128263321D01*
X73260450Y-128263321D02*
X73308069Y-128358560D01*
X73308069Y-128358560D02*
X73403307Y-128406179D01*
X73403307Y-128406179D02*
X73498545Y-128406179D01*
X73974736Y-128406179D02*
X73879498Y-128358560D01*
X73879498Y-128358560D02*
X73831879Y-128310940D01*
X73831879Y-128310940D02*
X73784260Y-128215702D01*
X73784260Y-128215702D02*
X73784260Y-127929988D01*
X73784260Y-127929988D02*
X73831879Y-127834750D01*
X73831879Y-127834750D02*
X73879498Y-127787131D01*
X73879498Y-127787131D02*
X73974736Y-127739512D01*
X73974736Y-127739512D02*
X74117593Y-127739512D01*
X74117593Y-127739512D02*
X74212831Y-127787131D01*
X74212831Y-127787131D02*
X74260450Y-127834750D01*
X74260450Y-127834750D02*
X74308069Y-127929988D01*
X74308069Y-127929988D02*
X74308069Y-128215702D01*
X74308069Y-128215702D02*
X74260450Y-128310940D01*
X74260450Y-128310940D02*
X74212831Y-128358560D01*
X74212831Y-128358560D02*
X74117593Y-128406179D01*
X74117593Y-128406179D02*
X73974736Y-128406179D01*
X74736641Y-128406179D02*
X74736641Y-127739512D01*
X74736641Y-127929988D02*
X74784260Y-127834750D01*
X74784260Y-127834750D02*
X74831879Y-127787131D01*
X74831879Y-127787131D02*
X74927117Y-127739512D01*
X74927117Y-127739512D02*
X75022355Y-127739512D01*
X76308070Y-127406179D02*
X76498546Y-127406179D01*
X76498546Y-127406179D02*
X76593784Y-127453798D01*
X76593784Y-127453798D02*
X76689022Y-127549036D01*
X76689022Y-127549036D02*
X76736641Y-127739512D01*
X76736641Y-127739512D02*
X76736641Y-128072845D01*
X76736641Y-128072845D02*
X76689022Y-128263321D01*
X76689022Y-128263321D02*
X76593784Y-128358560D01*
X76593784Y-128358560D02*
X76498546Y-128406179D01*
X76498546Y-128406179D02*
X76308070Y-128406179D01*
X76308070Y-128406179D02*
X76212832Y-128358560D01*
X76212832Y-128358560D02*
X76117594Y-128263321D01*
X76117594Y-128263321D02*
X76069975Y-128072845D01*
X76069975Y-128072845D02*
X76069975Y-127739512D01*
X76069975Y-127739512D02*
X76117594Y-127549036D01*
X76117594Y-127549036D02*
X76212832Y-127453798D01*
X76212832Y-127453798D02*
X76308070Y-127406179D01*
X77593784Y-127739512D02*
X77593784Y-128406179D01*
X77165213Y-127739512D02*
X77165213Y-128263321D01*
X77165213Y-128263321D02*
X77212832Y-128358560D01*
X77212832Y-128358560D02*
X77308070Y-128406179D01*
X77308070Y-128406179D02*
X77450927Y-128406179D01*
X77450927Y-128406179D02*
X77546165Y-128358560D01*
X77546165Y-128358560D02*
X77593784Y-128310940D01*
X77927118Y-127739512D02*
X78308070Y-127739512D01*
X78069975Y-127406179D02*
X78069975Y-128263321D01*
X78069975Y-128263321D02*
X78117594Y-128358560D01*
X78117594Y-128358560D02*
X78212832Y-128406179D01*
X78212832Y-128406179D02*
X78308070Y-128406179D01*
X82639974Y-127266179D02*
X83211402Y-127266179D01*
X82925688Y-128266179D02*
X82925688Y-127266179D01*
X83544736Y-128266179D02*
X83544736Y-127266179D01*
X83973307Y-128266179D02*
X83973307Y-127742369D01*
X83973307Y-127742369D02*
X83925688Y-127647131D01*
X83925688Y-127647131D02*
X83830450Y-127599512D01*
X83830450Y-127599512D02*
X83687593Y-127599512D01*
X83687593Y-127599512D02*
X83592355Y-127647131D01*
X83592355Y-127647131D02*
X83544736Y-127694750D01*
X94059021Y-128406179D02*
X93582831Y-128406179D01*
X93582831Y-128406179D02*
X93582831Y-127406179D01*
X94820926Y-128406179D02*
X94820926Y-127882369D01*
X94820926Y-127882369D02*
X94773307Y-127787131D01*
X94773307Y-127787131D02*
X94678069Y-127739512D01*
X94678069Y-127739512D02*
X94487593Y-127739512D01*
X94487593Y-127739512D02*
X94392355Y-127787131D01*
X94820926Y-128358560D02*
X94725688Y-128406179D01*
X94725688Y-128406179D02*
X94487593Y-128406179D01*
X94487593Y-128406179D02*
X94392355Y-128358560D01*
X94392355Y-128358560D02*
X94344736Y-128263321D01*
X94344736Y-128263321D02*
X94344736Y-128168083D01*
X94344736Y-128168083D02*
X94392355Y-128072845D01*
X94392355Y-128072845D02*
X94487593Y-128025226D01*
X94487593Y-128025226D02*
X94725688Y-128025226D01*
X94725688Y-128025226D02*
X94820926Y-127977607D01*
X95249498Y-128358560D02*
X95344736Y-128406179D01*
X95344736Y-128406179D02*
X95535212Y-128406179D01*
X95535212Y-128406179D02*
X95630450Y-128358560D01*
X95630450Y-128358560D02*
X95678069Y-128263321D01*
X95678069Y-128263321D02*
X95678069Y-128215702D01*
X95678069Y-128215702D02*
X95630450Y-128120464D01*
X95630450Y-128120464D02*
X95535212Y-128072845D01*
X95535212Y-128072845D02*
X95392355Y-128072845D01*
X95392355Y-128072845D02*
X95297117Y-128025226D01*
X95297117Y-128025226D02*
X95249498Y-127929988D01*
X95249498Y-127929988D02*
X95249498Y-127882369D01*
X95249498Y-127882369D02*
X95297117Y-127787131D01*
X95297117Y-127787131D02*
X95392355Y-127739512D01*
X95392355Y-127739512D02*
X95535212Y-127739512D01*
X95535212Y-127739512D02*
X95630450Y-127787131D01*
X96487593Y-128358560D02*
X96392355Y-128406179D01*
X96392355Y-128406179D02*
X96201879Y-128406179D01*
X96201879Y-128406179D02*
X96106641Y-128358560D01*
X96106641Y-128358560D02*
X96059022Y-128263321D01*
X96059022Y-128263321D02*
X96059022Y-127882369D01*
X96059022Y-127882369D02*
X96106641Y-127787131D01*
X96106641Y-127787131D02*
X96201879Y-127739512D01*
X96201879Y-127739512D02*
X96392355Y-127739512D01*
X96392355Y-127739512D02*
X96487593Y-127787131D01*
X96487593Y-127787131D02*
X96535212Y-127882369D01*
X96535212Y-127882369D02*
X96535212Y-127977607D01*
X96535212Y-127977607D02*
X96059022Y-128072845D01*
X96963784Y-128406179D02*
X96963784Y-127739512D01*
X96963784Y-127929988D02*
X97011403Y-127834750D01*
X97011403Y-127834750D02*
X97059022Y-127787131D01*
X97059022Y-127787131D02*
X97154260Y-127739512D01*
X97154260Y-127739512D02*
X97249498Y-127739512D01*
X99599021Y-133686179D02*
X99122831Y-133686179D01*
X99122831Y-133686179D02*
X99122831Y-132686179D01*
X99932355Y-133686179D02*
X99932355Y-133019512D01*
X99932355Y-132686179D02*
X99884736Y-132733798D01*
X99884736Y-132733798D02*
X99932355Y-132781417D01*
X99932355Y-132781417D02*
X99979974Y-132733798D01*
X99979974Y-132733798D02*
X99932355Y-132686179D01*
X99932355Y-132686179D02*
X99932355Y-132781417D01*
X100408545Y-133686179D02*
X100408545Y-133019512D01*
X100408545Y-133114750D02*
X100456164Y-133067131D01*
X100456164Y-133067131D02*
X100551402Y-133019512D01*
X100551402Y-133019512D02*
X100694259Y-133019512D01*
X100694259Y-133019512D02*
X100789497Y-133067131D01*
X100789497Y-133067131D02*
X100837116Y-133162369D01*
X100837116Y-133162369D02*
X100837116Y-133686179D01*
X100837116Y-133162369D02*
X100884735Y-133067131D01*
X100884735Y-133067131D02*
X100979973Y-133019512D01*
X100979973Y-133019512D02*
X101122830Y-133019512D01*
X101122830Y-133019512D02*
X101218069Y-133067131D01*
X101218069Y-133067131D02*
X101265688Y-133162369D01*
X101265688Y-133162369D02*
X101265688Y-133686179D01*
X101741878Y-133686179D02*
X101741878Y-133019512D01*
X101741878Y-132686179D02*
X101694259Y-132733798D01*
X101694259Y-132733798D02*
X101741878Y-132781417D01*
X101741878Y-132781417D02*
X101789497Y-132733798D01*
X101789497Y-132733798D02*
X101741878Y-132686179D01*
X101741878Y-132686179D02*
X101741878Y-132781417D01*
X102075211Y-133019512D02*
X102456163Y-133019512D01*
X102218068Y-132686179D02*
X102218068Y-133543321D01*
X102218068Y-133543321D02*
X102265687Y-133638560D01*
X102265687Y-133638560D02*
X102360925Y-133686179D01*
X102360925Y-133686179D02*
X102456163Y-133686179D01*
X99682831Y-161966179D02*
X99682831Y-160966179D01*
X99682831Y-160966179D02*
X100254259Y-161966179D01*
X100254259Y-161966179D02*
X100254259Y-160966179D01*
X100873307Y-161966179D02*
X100778069Y-161918560D01*
X100778069Y-161918560D02*
X100730450Y-161870940D01*
X100730450Y-161870940D02*
X100682831Y-161775702D01*
X100682831Y-161775702D02*
X100682831Y-161489988D01*
X100682831Y-161489988D02*
X100730450Y-161394750D01*
X100730450Y-161394750D02*
X100778069Y-161347131D01*
X100778069Y-161347131D02*
X100873307Y-161299512D01*
X100873307Y-161299512D02*
X101016164Y-161299512D01*
X101016164Y-161299512D02*
X101111402Y-161347131D01*
X101111402Y-161347131D02*
X101159021Y-161394750D01*
X101159021Y-161394750D02*
X101206640Y-161489988D01*
X101206640Y-161489988D02*
X101206640Y-161775702D01*
X101206640Y-161775702D02*
X101159021Y-161870940D01*
X101159021Y-161870940D02*
X101111402Y-161918560D01*
X101111402Y-161918560D02*
X101016164Y-161966179D01*
X101016164Y-161966179D02*
X100873307Y-161966179D01*
X102063783Y-161966179D02*
X102063783Y-160966179D01*
X102063783Y-161918560D02*
X101968545Y-161966179D01*
X101968545Y-161966179D02*
X101778069Y-161966179D01*
X101778069Y-161966179D02*
X101682831Y-161918560D01*
X101682831Y-161918560D02*
X101635212Y-161870940D01*
X101635212Y-161870940D02*
X101587593Y-161775702D01*
X101587593Y-161775702D02*
X101587593Y-161489988D01*
X101587593Y-161489988D02*
X101635212Y-161394750D01*
X101635212Y-161394750D02*
X101682831Y-161347131D01*
X101682831Y-161347131D02*
X101778069Y-161299512D01*
X101778069Y-161299512D02*
X101968545Y-161299512D01*
X101968545Y-161299512D02*
X102063783Y-161347131D01*
X102920926Y-161918560D02*
X102825688Y-161966179D01*
X102825688Y-161966179D02*
X102635212Y-161966179D01*
X102635212Y-161966179D02*
X102539974Y-161918560D01*
X102539974Y-161918560D02*
X102492355Y-161823321D01*
X102492355Y-161823321D02*
X102492355Y-161442369D01*
X102492355Y-161442369D02*
X102539974Y-161347131D01*
X102539974Y-161347131D02*
X102635212Y-161299512D01*
X102635212Y-161299512D02*
X102825688Y-161299512D01*
X102825688Y-161299512D02*
X102920926Y-161347131D01*
X102920926Y-161347131D02*
X102968545Y-161442369D01*
X102968545Y-161442369D02*
X102968545Y-161537607D01*
X102968545Y-161537607D02*
X102492355Y-161632845D01*
X63861905Y-167065464D02*
X64338095Y-167065464D01*
X63766667Y-167351179D02*
X64100000Y-166351179D01*
X64100000Y-166351179D02*
X64433333Y-167351179D01*
X63861905Y-174065464D02*
X64338095Y-174065464D01*
X63766667Y-174351179D02*
X64100000Y-173351179D01*
X64100000Y-173351179D02*
X64433333Y-174351179D01*
X67671428Y-173827369D02*
X67814285Y-173874988D01*
X67814285Y-173874988D02*
X67861904Y-173922607D01*
X67861904Y-173922607D02*
X67909523Y-174017845D01*
X67909523Y-174017845D02*
X67909523Y-174160702D01*
X67909523Y-174160702D02*
X67861904Y-174255940D01*
X67861904Y-174255940D02*
X67814285Y-174303560D01*
X67814285Y-174303560D02*
X67719047Y-174351179D01*
X67719047Y-174351179D02*
X67338095Y-174351179D01*
X67338095Y-174351179D02*
X67338095Y-173351179D01*
X67338095Y-173351179D02*
X67671428Y-173351179D01*
X67671428Y-173351179D02*
X67766666Y-173398798D01*
X67766666Y-173398798D02*
X67814285Y-173446417D01*
X67814285Y-173446417D02*
X67861904Y-173541655D01*
X67861904Y-173541655D02*
X67861904Y-173636893D01*
X67861904Y-173636893D02*
X67814285Y-173732131D01*
X67814285Y-173732131D02*
X67766666Y-173779750D01*
X67766666Y-173779750D02*
X67671428Y-173827369D01*
X67671428Y-173827369D02*
X67338095Y-173827369D01*
X67871428Y-166927369D02*
X68014285Y-166974988D01*
X68014285Y-166974988D02*
X68061904Y-167022607D01*
X68061904Y-167022607D02*
X68109523Y-167117845D01*
X68109523Y-167117845D02*
X68109523Y-167260702D01*
X68109523Y-167260702D02*
X68061904Y-167355940D01*
X68061904Y-167355940D02*
X68014285Y-167403560D01*
X68014285Y-167403560D02*
X67919047Y-167451179D01*
X67919047Y-167451179D02*
X67538095Y-167451179D01*
X67538095Y-167451179D02*
X67538095Y-166451179D01*
X67538095Y-166451179D02*
X67871428Y-166451179D01*
X67871428Y-166451179D02*
X67966666Y-166498798D01*
X67966666Y-166498798D02*
X68014285Y-166546417D01*
X68014285Y-166546417D02*
X68061904Y-166641655D01*
X68061904Y-166641655D02*
X68061904Y-166736893D01*
X68061904Y-166736893D02*
X68014285Y-166832131D01*
X68014285Y-166832131D02*
X67966666Y-166879750D01*
X67966666Y-166879750D02*
X67871428Y-166927369D01*
X67871428Y-166927369D02*
X67538095Y-166927369D01*
X71061905Y-174065464D02*
X71538095Y-174065464D01*
X70966667Y-174351179D02*
X71300000Y-173351179D01*
X71300000Y-173351179D02*
X71633333Y-174351179D01*
X74971428Y-173827369D02*
X75114285Y-173874988D01*
X75114285Y-173874988D02*
X75161904Y-173922607D01*
X75161904Y-173922607D02*
X75209523Y-174017845D01*
X75209523Y-174017845D02*
X75209523Y-174160702D01*
X75209523Y-174160702D02*
X75161904Y-174255940D01*
X75161904Y-174255940D02*
X75114285Y-174303560D01*
X75114285Y-174303560D02*
X75019047Y-174351179D01*
X75019047Y-174351179D02*
X74638095Y-174351179D01*
X74638095Y-174351179D02*
X74638095Y-173351179D01*
X74638095Y-173351179D02*
X74971428Y-173351179D01*
X74971428Y-173351179D02*
X75066666Y-173398798D01*
X75066666Y-173398798D02*
X75114285Y-173446417D01*
X75114285Y-173446417D02*
X75161904Y-173541655D01*
X75161904Y-173541655D02*
X75161904Y-173636893D01*
X75161904Y-173636893D02*
X75114285Y-173732131D01*
X75114285Y-173732131D02*
X75066666Y-173779750D01*
X75066666Y-173779750D02*
X74971428Y-173827369D01*
X74971428Y-173827369D02*
X74638095Y-173827369D01*
X78708095Y-166678798D02*
X78612857Y-166631179D01*
X78612857Y-166631179D02*
X78470000Y-166631179D01*
X78470000Y-166631179D02*
X78327143Y-166678798D01*
X78327143Y-166678798D02*
X78231905Y-166774036D01*
X78231905Y-166774036D02*
X78184286Y-166869274D01*
X78184286Y-166869274D02*
X78136667Y-167059750D01*
X78136667Y-167059750D02*
X78136667Y-167202607D01*
X78136667Y-167202607D02*
X78184286Y-167393083D01*
X78184286Y-167393083D02*
X78231905Y-167488321D01*
X78231905Y-167488321D02*
X78327143Y-167583560D01*
X78327143Y-167583560D02*
X78470000Y-167631179D01*
X78470000Y-167631179D02*
X78565238Y-167631179D01*
X78565238Y-167631179D02*
X78708095Y-167583560D01*
X78708095Y-167583560D02*
X78755714Y-167535940D01*
X78755714Y-167535940D02*
X78755714Y-167202607D01*
X78755714Y-167202607D02*
X78565238Y-167202607D01*
X79184286Y-167631179D02*
X79184286Y-166631179D01*
X79184286Y-166631179D02*
X79755714Y-167631179D01*
X79755714Y-167631179D02*
X79755714Y-166631179D01*
X80231905Y-167631179D02*
X80231905Y-166631179D01*
X80231905Y-166631179D02*
X80470000Y-166631179D01*
X80470000Y-166631179D02*
X80612857Y-166678798D01*
X80612857Y-166678798D02*
X80708095Y-166774036D01*
X80708095Y-166774036D02*
X80755714Y-166869274D01*
X80755714Y-166869274D02*
X80803333Y-167059750D01*
X80803333Y-167059750D02*
X80803333Y-167202607D01*
X80803333Y-167202607D02*
X80755714Y-167393083D01*
X80755714Y-167393083D02*
X80708095Y-167488321D01*
X80708095Y-167488321D02*
X80612857Y-167583560D01*
X80612857Y-167583560D02*
X80470000Y-167631179D01*
X80470000Y-167631179D02*
X80231905Y-167631179D01*
X81704762Y-166581179D02*
X82038095Y-167581179D01*
X82038095Y-167581179D02*
X82371428Y-166581179D01*
X82704762Y-167581179D02*
X82704762Y-166581179D01*
X83180952Y-167581179D02*
X83180952Y-166581179D01*
X83180952Y-166581179D02*
X83752380Y-167581179D01*
X83752380Y-167581179D02*
X83752380Y-166581179D01*
D13*
X82050380Y-162502380D02*
X82526571Y-162169047D01*
X82050380Y-161930952D02*
X83050380Y-161930952D01*
X83050380Y-161930952D02*
X83050380Y-162311904D01*
X83050380Y-162311904D02*
X83002761Y-162407142D01*
X83002761Y-162407142D02*
X82955142Y-162454761D01*
X82955142Y-162454761D02*
X82859904Y-162502380D01*
X82859904Y-162502380D02*
X82717047Y-162502380D01*
X82717047Y-162502380D02*
X82621809Y-162454761D01*
X82621809Y-162454761D02*
X82574190Y-162407142D01*
X82574190Y-162407142D02*
X82526571Y-162311904D01*
X82526571Y-162311904D02*
X82526571Y-161930952D01*
X82098000Y-162883333D02*
X82050380Y-163026190D01*
X82050380Y-163026190D02*
X82050380Y-163264285D01*
X82050380Y-163264285D02*
X82098000Y-163359523D01*
X82098000Y-163359523D02*
X82145619Y-163407142D01*
X82145619Y-163407142D02*
X82240857Y-163454761D01*
X82240857Y-163454761D02*
X82336095Y-163454761D01*
X82336095Y-163454761D02*
X82431333Y-163407142D01*
X82431333Y-163407142D02*
X82478952Y-163359523D01*
X82478952Y-163359523D02*
X82526571Y-163264285D01*
X82526571Y-163264285D02*
X82574190Y-163073809D01*
X82574190Y-163073809D02*
X82621809Y-162978571D01*
X82621809Y-162978571D02*
X82669428Y-162930952D01*
X82669428Y-162930952D02*
X82764666Y-162883333D01*
X82764666Y-162883333D02*
X82859904Y-162883333D01*
X82859904Y-162883333D02*
X82955142Y-162930952D01*
X82955142Y-162930952D02*
X83002761Y-162978571D01*
X83002761Y-162978571D02*
X83050380Y-163073809D01*
X83050380Y-163073809D02*
X83050380Y-163311904D01*
X83050380Y-163311904D02*
X83002761Y-163454761D01*
X83050380Y-163740476D02*
X83050380Y-164311904D01*
X82050380Y-164026190D02*
X83050380Y-164026190D01*
D10*
X75271428Y-149404917D02*
X75271428Y-148504917D01*
X75271428Y-148504917D02*
X75571428Y-149147774D01*
X75571428Y-149147774D02*
X75871428Y-148504917D01*
X75871428Y-148504917D02*
X75871428Y-149404917D01*
X76771428Y-149404917D02*
X76257142Y-149404917D01*
X76514285Y-149404917D02*
X76514285Y-148504917D01*
X76514285Y-148504917D02*
X76428571Y-148633488D01*
X76428571Y-148633488D02*
X76342856Y-148719202D01*
X76342856Y-148719202D02*
X76257142Y-148762060D01*
X77971428Y-149404917D02*
X77971428Y-148504917D01*
X77971428Y-148504917D02*
X78271428Y-149147774D01*
X78271428Y-149147774D02*
X78571428Y-148504917D01*
X78571428Y-148504917D02*
X78571428Y-149404917D01*
X78957142Y-148590631D02*
X78999999Y-148547774D01*
X78999999Y-148547774D02*
X79085714Y-148504917D01*
X79085714Y-148504917D02*
X79299999Y-148504917D01*
X79299999Y-148504917D02*
X79385714Y-148547774D01*
X79385714Y-148547774D02*
X79428571Y-148590631D01*
X79428571Y-148590631D02*
X79471428Y-148676345D01*
X79471428Y-148676345D02*
X79471428Y-148762060D01*
X79471428Y-148762060D02*
X79428571Y-148890631D01*
X79428571Y-148890631D02*
X78914285Y-149404917D01*
X78914285Y-149404917D02*
X79471428Y-149404917D01*
X72571428Y-149404917D02*
X72571428Y-148504917D01*
X72571428Y-148504917D02*
X72871428Y-149147774D01*
X72871428Y-149147774D02*
X73171428Y-148504917D01*
X73171428Y-148504917D02*
X73171428Y-149404917D01*
X73771428Y-148504917D02*
X73857142Y-148504917D01*
X73857142Y-148504917D02*
X73942856Y-148547774D01*
X73942856Y-148547774D02*
X73985714Y-148590631D01*
X73985714Y-148590631D02*
X74028571Y-148676345D01*
X74028571Y-148676345D02*
X74071428Y-148847774D01*
X74071428Y-148847774D02*
X74071428Y-149062060D01*
X74071428Y-149062060D02*
X74028571Y-149233488D01*
X74028571Y-149233488D02*
X73985714Y-149319202D01*
X73985714Y-149319202D02*
X73942856Y-149362060D01*
X73942856Y-149362060D02*
X73857142Y-149404917D01*
X73857142Y-149404917D02*
X73771428Y-149404917D01*
X73771428Y-149404917D02*
X73685714Y-149362060D01*
X73685714Y-149362060D02*
X73642856Y-149319202D01*
X73642856Y-149319202D02*
X73599999Y-149233488D01*
X73599999Y-149233488D02*
X73557142Y-149062060D01*
X73557142Y-149062060D02*
X73557142Y-148847774D01*
X73557142Y-148847774D02*
X73599999Y-148676345D01*
X73599999Y-148676345D02*
X73642856Y-148590631D01*
X73642856Y-148590631D02*
X73685714Y-148547774D01*
X73685714Y-148547774D02*
X73771428Y-148504917D01*
%TO.C,C2*%
D14*
X59405000Y-151901252D02*
X59405000Y-151378748D01*
X60875000Y-151901252D02*
X60875000Y-151378748D01*
%TO.C,J4*%
D15*
X68320000Y-121105000D02*
X80720000Y-121105000D01*
X68320000Y-126855000D02*
X68320000Y-121105000D01*
X80720000Y-121105000D02*
X80720000Y-126855000D01*
X80720000Y-126855000D02*
X68320000Y-126855000D01*
%TO.C,U1*%
D16*
X88675000Y-147675000D02*
X88675000Y-148000000D01*
X88675000Y-147675000D02*
X89000000Y-147675000D01*
X88675000Y-154925000D02*
X88675000Y-154600000D01*
X88675000Y-154925000D02*
X89000000Y-154925000D01*
X95925000Y-147675000D02*
X95600000Y-147675000D01*
X95925000Y-147675000D02*
X95925000Y-148000000D01*
X95925000Y-154700000D02*
X97350000Y-154700000D01*
X95925000Y-154925000D02*
X95600000Y-154925000D01*
X95925000Y-154925000D02*
X95925000Y-154700000D01*
D14*
X96925000Y-155450000D02*
G75*
G02*
X96425000Y-155450000I-250000J0D01*
G01*
X96425000Y-155450000D02*
G75*
G02*
X96925000Y-155450000I250000J0D01*
G01*
%TO.C,R8*%
X88865000Y-158827064D02*
X88865000Y-158372936D01*
X90335000Y-158827064D02*
X90335000Y-158372936D01*
%TO.C,C9*%
X78261252Y-149865000D02*
X77738748Y-149865000D01*
X78261252Y-151335000D02*
X77738748Y-151335000D01*
%TO.C,R11*%
X88132936Y-168985000D02*
X88587064Y-168985000D01*
X88132936Y-170455000D02*
X88587064Y-170455000D01*
%TO.C,R14*%
X67365000Y-156972936D02*
X67365000Y-157427064D01*
X68835000Y-156972936D02*
X68835000Y-157427064D01*
%TO.C,C4*%
X68388748Y-149090000D02*
X69811252Y-149090000D01*
X68388748Y-150910000D02*
X69811252Y-150910000D01*
%TO.C,C15*%
X87561252Y-127365000D02*
X87038748Y-127365000D01*
X87561252Y-128835000D02*
X87038748Y-128835000D01*
%TO.C,C11*%
X85165000Y-149038748D02*
X85165000Y-149561252D01*
X86635000Y-149038748D02*
X86635000Y-149561252D01*
%TO.C,Y1*%
D17*
X88348900Y-163372700D02*
X95791100Y-163372700D01*
X95791100Y-168427300D02*
X88348900Y-168427300D01*
X86481225Y-164348060D02*
G75*
G02*
X88475900Y-163372700I1994675J-1551940D01*
G01*
X88475900Y-168427300D02*
G75*
G02*
X86481225Y-167451940I0J2527300D01*
G01*
X95664099Y-163372700D02*
G75*
G02*
X97658775Y-164348060I3J-2527297D01*
G01*
X97658775Y-167451940D02*
G75*
G02*
X95664100Y-168427300I-1994677J1551945D01*
G01*
%TO.C,JP6*%
D14*
X97600000Y-157150000D02*
X99600000Y-157150000D01*
X97600000Y-159950000D02*
X97600000Y-157150000D01*
X99600000Y-157150000D02*
X99600000Y-159950000D01*
X99600000Y-159950000D02*
X97600000Y-159950000D01*
D18*
X98510000Y-160410000D02*
G75*
G02*
X98350000Y-160410000I-80000J0D01*
G01*
X98350000Y-160410000D02*
G75*
G02*
X98510000Y-160410000I80000J0D01*
G01*
X98874619Y-160410000D02*
G75*
G02*
X98714619Y-160410000I-80000J0D01*
G01*
X98714619Y-160410000D02*
G75*
G02*
X98874619Y-160410000I80000J0D01*
G01*
%TO.C,SW1*%
X77919478Y-160980000D02*
X77919478Y-164960000D01*
X77919478Y-164960000D02*
X78059478Y-164960000D01*
X78109478Y-160980000D02*
X77919478Y-160980000D01*
X78111572Y-164960000D02*
X77921572Y-164960000D01*
X80689478Y-160960000D02*
X81019478Y-160960000D01*
X80690522Y-164990000D02*
X81020522Y-164990000D01*
X81019478Y-160960000D02*
X81019478Y-164990000D01*
X81019478Y-164990000D02*
X80809478Y-164990000D01*
%TO.C,U2*%
D14*
X63211074Y-150156201D02*
X65031074Y-150156201D01*
X63211074Y-150206201D02*
X63211074Y-150156201D01*
X63211074Y-153276201D02*
X63211074Y-153226201D01*
X65031074Y-150156201D02*
X65031074Y-150206201D01*
X65031074Y-153226201D02*
X65031074Y-153276201D01*
X65031074Y-153276201D02*
X63211074Y-153276201D01*
X62671074Y-150206201D02*
X62431074Y-149876201D01*
X62911074Y-149876201D01*
X62671074Y-150206201D01*
G36*
X62671074Y-150206201D02*
G01*
X62431074Y-149876201D01*
X62911074Y-149876201D01*
X62671074Y-150206201D01*
G37*
%TO.C,R12*%
X70265000Y-157972936D02*
X70265000Y-158427064D01*
X71735000Y-157972936D02*
X71735000Y-158427064D01*
%TO.C,J8*%
X103190000Y-145190000D02*
X104460000Y-145190000D01*
%TO.C,JP1*%
X97330000Y-139400000D02*
X100130000Y-139400000D01*
X97330000Y-141400000D02*
X97330000Y-139400000D01*
X100130000Y-139400000D02*
X100130000Y-141400000D01*
X100130000Y-141400000D02*
X97330000Y-141400000D01*
%TO.C,C19*%
D19*
X56930000Y-153170000D02*
G75*
G02*
X56730000Y-153170000I-100000J0D01*
G01*
X56730000Y-153170000D02*
G75*
G02*
X56930000Y-153170000I100000J0D01*
G01*
D15*
X60830000Y-157920000D02*
G75*
G02*
X52830000Y-157920000I-4000000J0D01*
G01*
X52830000Y-157920000D02*
G75*
G02*
X60830000Y-157920000I4000000J0D01*
G01*
%TO.C,D2*%
D14*
X90220000Y-136317500D02*
X90220000Y-134117500D01*
X92170000Y-136317500D02*
X92170000Y-134117500D01*
%TO.C,R10*%
X88132936Y-173285000D02*
X88587064Y-173285000D01*
X88132936Y-174755000D02*
X88587064Y-174755000D01*
%TO.C,R9*%
X88132936Y-171185000D02*
X88587064Y-171185000D01*
X88132936Y-172655000D02*
X88587064Y-172655000D01*
%TO.C,R15*%
X65727064Y-163865000D02*
X65272936Y-163865000D01*
X65727064Y-165335000D02*
X65272936Y-165335000D01*
%TO.C,Laser1*%
D15*
X89800000Y-121025000D02*
X97200000Y-121025000D01*
X89800000Y-126775000D02*
X89800000Y-121025000D01*
X97200000Y-121025000D02*
X97200000Y-126775000D01*
X97200000Y-126775000D02*
X89800000Y-126775000D01*
D19*
X92260000Y-127380000D02*
G75*
G02*
X92060000Y-127380000I-100000J0D01*
G01*
X92060000Y-127380000D02*
G75*
G02*
X92260000Y-127380000I100000J0D01*
G01*
%TO.C,C18*%
D14*
X71538748Y-132465000D02*
X72061252Y-132465000D01*
X71538748Y-133935000D02*
X72061252Y-133935000D01*
%TO.C,R13*%
X67365000Y-153072936D02*
X67365000Y-153527064D01*
X68835000Y-153072936D02*
X68835000Y-153527064D01*
%TO.C,D3*%
D15*
X91150000Y-169070000D02*
X96150000Y-169070000D01*
X91150000Y-169570000D02*
X91150000Y-169070000D01*
X91150000Y-173570000D02*
X91150000Y-174070000D01*
X91150000Y-174070000D02*
X95867160Y-174070000D01*
X95867160Y-174070000D02*
X96150000Y-173787160D01*
X96150000Y-169570000D02*
X96150000Y-169070000D01*
X96150000Y-173787160D02*
X96150000Y-173570000D01*
D20*
X96761500Y-174237000D02*
G75*
G02*
X96380500Y-174237000I-190500J0D01*
G01*
X96380500Y-174237000D02*
G75*
G02*
X96761500Y-174237000I190500J0D01*
G01*
%TO.C,L1*%
D12*
X58010000Y-139700000D02*
X58010000Y-138600000D01*
X58010000Y-145600000D02*
X58010000Y-143500000D01*
X59010000Y-146600000D02*
X58010000Y-145600000D01*
X60010000Y-136600000D02*
X67010000Y-136600000D01*
X66010000Y-146600000D02*
X59010000Y-146600000D01*
X68010000Y-137600000D02*
X68010000Y-139700000D01*
X68010000Y-143500000D02*
X68010000Y-144600000D01*
X58010000Y-138600000D02*
G75*
G02*
X60010000Y-136600000I2000000J0D01*
G01*
X67010000Y-136600000D02*
G75*
G02*
X68010000Y-137600000I0J-1000000D01*
G01*
X68010000Y-144600000D02*
G75*
G02*
X66010000Y-146600000I-1999999J-1D01*
G01*
%TO.C,C13*%
D14*
X91861252Y-160965000D02*
X91338748Y-160965000D01*
X91861252Y-162435000D02*
X91338748Y-162435000D01*
%TO.C,C3*%
X64361252Y-148065000D02*
X63838748Y-148065000D01*
X64361252Y-149535000D02*
X63838748Y-149535000D01*
%TO.C,R5*%
X90455000Y-140027064D02*
X90455000Y-139572936D01*
X91925000Y-140027064D02*
X91925000Y-139572936D01*
%TO.C,J2*%
D15*
X100725000Y-134390000D02*
X106475000Y-134390000D01*
X100725000Y-144290000D02*
X100725000Y-134390000D01*
X106475000Y-134390000D02*
X106475000Y-144290000D01*
X106475000Y-144290000D02*
X100725000Y-144290000D01*
D19*
X104225000Y-133590000D02*
G75*
G02*
X104025000Y-133590000I-100000J0D01*
G01*
X104025000Y-133590000D02*
G75*
G02*
X104225000Y-133590000I100000J0D01*
G01*
%TO.C,C12*%
D14*
X82650000Y-150580000D02*
X82650000Y-148580000D01*
X84790000Y-148580000D02*
X84790000Y-150580000D01*
%TO.C,M1*%
X75000000Y-145300000D02*
X77000000Y-145300000D01*
X75000000Y-148100000D02*
X75000000Y-145300000D01*
X77000000Y-145300000D02*
X77000000Y-148100000D01*
X77000000Y-148100000D02*
X75000000Y-148100000D01*
%TO.C,U3*%
D15*
X69340000Y-129527500D02*
X89660000Y-129527500D01*
X69340000Y-144767500D02*
X69340000Y-129527500D01*
X89660000Y-129527500D02*
X89660000Y-144767500D01*
X89660000Y-144767500D02*
X69340000Y-144767500D01*
D19*
X70600000Y-145747500D02*
G75*
G02*
X70400000Y-145747500I-100000J0D01*
G01*
X70400000Y-145747500D02*
G75*
G02*
X70600000Y-145747500I100000J0D01*
G01*
%TO.C,R1*%
D14*
X94665000Y-136027064D02*
X94665000Y-135572936D01*
X96135000Y-136027064D02*
X96135000Y-135572936D01*
%TO.C,C6*%
X69330000Y-154500000D02*
X69330000Y-152500000D01*
X71470000Y-152500000D02*
X71470000Y-154500000D01*
%TO.C,U5*%
X69040000Y-161710000D02*
X69135000Y-161710000D01*
X69040000Y-165830000D02*
X69040000Y-161710000D01*
X69135000Y-165830000D02*
X69040000Y-165830000D01*
X74065000Y-161710000D02*
X74160000Y-161710000D01*
X74160000Y-161710000D02*
X74160000Y-165830000D01*
X74160000Y-165830000D02*
X74065000Y-165830000D01*
X74070000Y-161170000D02*
X74400000Y-160930000D01*
X74400000Y-161410000D01*
X74070000Y-161170000D01*
G36*
X74400000Y-161410000D02*
G01*
X74070000Y-161170000D01*
X74400000Y-160930000D01*
X74400000Y-161410000D01*
G37*
%TO.C,C8*%
X71965000Y-153961252D02*
X71965000Y-153438748D01*
X73435000Y-153961252D02*
X73435000Y-153438748D01*
%TO.C,Thermistor1*%
D15*
X81500000Y-121025000D02*
X88900000Y-121025000D01*
X81500000Y-126775000D02*
X81500000Y-121025000D01*
X88900000Y-121025000D02*
X88900000Y-126775000D01*
X88900000Y-126775000D02*
X81500000Y-126775000D01*
D19*
X83210001Y-127310000D02*
X83210001Y-127310000D01*
X83210001Y-127310000D01*
X83210001Y-127310000D01*
X83210001Y-127310000D01*
X83210001Y-127310000D01*
X83210001Y-127310001D01*
X83210001Y-127310001D01*
X83210001Y-127310001D01*
X83210001Y-127310001D01*
X83210001Y-127310001D01*
X83210001Y-127310001D01*
X83210001Y-127310001D01*
X83210000Y-127310001D01*
X83210000Y-127310001D01*
X83210000Y-127310001D01*
X83210000Y-127310001D01*
X83210000Y-127310001D01*
X83210000Y-127310001D01*
X83210000Y-127310001D01*
X83210000Y-127310001D01*
X83210000Y-127310001D01*
X83210000Y-127310001D01*
X83210000Y-127310001D01*
X83210000Y-127310001D01*
X83209999Y-127310001D01*
X83209999Y-127310001D01*
X83209999Y-127310001D01*
X83209999Y-127310001D01*
X83209999Y-127310001D01*
X83209999Y-127310001D01*
X83209999Y-127310000D01*
X83209999Y-127310000D01*
X83209999Y-127310000D01*
X83209999Y-127310000D01*
X83209999Y-127310000D01*
X83209999Y-127310000D01*
X83209999Y-127310000D02*
X83209999Y-127310000D01*
X83209999Y-127310000D01*
X83209999Y-127310000D01*
X83209999Y-127310000D01*
X83209999Y-127310000D01*
X83209999Y-127310000D01*
X83209999Y-127309999D01*
X83209999Y-127309999D01*
X83209999Y-127309999D01*
X83209999Y-127309999D01*
X83209999Y-127309999D01*
X83210000Y-127309999D01*
X83210000Y-127309999D01*
X83210000Y-127309999D01*
X83210000Y-127309999D01*
X83210000Y-127309999D01*
X83210000Y-127309999D01*
X83210000Y-127309999D01*
X83210000Y-127309999D01*
X83210000Y-127309999D01*
X83210000Y-127309999D01*
X83210000Y-127309999D01*
X83210000Y-127309999D01*
X83210001Y-127309999D01*
X83210001Y-127309999D01*
X83210001Y-127309999D01*
X83210001Y-127309999D01*
X83210001Y-127309999D01*
X83210001Y-127309999D01*
X83210001Y-127310000D01*
X83210001Y-127310000D01*
X83210001Y-127310000D01*
X83210001Y-127310000D01*
X83210001Y-127310000D01*
X83210001Y-127310000D01*
X83210001Y-127310000D01*
%TO.C,R7*%
D14*
X95872936Y-141865000D02*
X96327064Y-141865000D01*
X95872936Y-143335000D02*
X96327064Y-143335000D01*
%TO.C,M2*%
X77731250Y-145289654D02*
X79731250Y-145289654D01*
X77731250Y-148089654D02*
X77731250Y-145289654D01*
X79731250Y-145289654D02*
X79731250Y-148089654D01*
X79731250Y-148089654D02*
X77731250Y-148089654D01*
%TO.C,C1*%
X57255000Y-151921252D02*
X57255000Y-151398748D01*
X58725000Y-151921252D02*
X58725000Y-151398748D01*
%TO.C,C7*%
X91065000Y-158338748D02*
X91065000Y-158861252D01*
X92535000Y-158338748D02*
X92535000Y-158861252D01*
%TO.C,C5*%
X68388748Y-146690000D02*
X69811252Y-146690000D01*
X68388748Y-148510000D02*
X69811252Y-148510000D01*
%TO.C,JP4*%
X94900000Y-157150000D02*
X96900000Y-157150000D01*
X94900000Y-159950000D02*
X94900000Y-157150000D01*
X96900000Y-157150000D02*
X96900000Y-159950000D01*
X96900000Y-159950000D02*
X94900000Y-159950000D01*
D18*
X95980000Y-160410000D02*
G75*
G02*
X95820000Y-160410000I-80000J0D01*
G01*
X95820000Y-160410000D02*
G75*
G02*
X95980000Y-160410000I80000J0D01*
G01*
%TO.C,C10*%
D14*
X95838748Y-144065000D02*
X96361252Y-144065000D01*
X95838748Y-145535000D02*
X96361252Y-145535000D01*
%TO.C,C17*%
D15*
X80500000Y-137300000D02*
G75*
G02*
X72500000Y-137300000I-4000000J0D01*
G01*
X72500000Y-137300000D02*
G75*
G02*
X80500000Y-137300000I4000000J0D01*
G01*
D19*
X76600000Y-142050000D02*
G75*
G02*
X76400000Y-142050000I-100000J0D01*
G01*
X76400000Y-142050000D02*
G75*
G02*
X76600000Y-142050000I100000J0D01*
G01*
%TO.C,C14*%
D14*
X95438748Y-160965000D02*
X95961252Y-160965000D01*
X95438748Y-162435000D02*
X95961252Y-162435000D01*
%TO.C,J3*%
D17*
X61349000Y-168052000D02*
X61349000Y-175214800D01*
X61349000Y-175214800D02*
X76995400Y-175214800D01*
X76995400Y-168052000D02*
X61349000Y-168052000D01*
X76995400Y-175214800D02*
X76995400Y-168052000D01*
%TO.C,C23*%
D14*
X74965000Y-166161252D02*
X74965000Y-165638748D01*
X76435000Y-166161252D02*
X76435000Y-165638748D01*
%TO.C,U4*%
X74140000Y-151770000D02*
X80150000Y-151770000D01*
X76390000Y-158590000D02*
X80150000Y-158590000D01*
X80150000Y-151770000D02*
X80150000Y-153030000D01*
X80150000Y-158590000D02*
X80150000Y-157330000D01*
%TO.C,R6*%
X90565000Y-130227064D02*
X90565000Y-129772936D01*
X92035000Y-130227064D02*
X92035000Y-129772936D01*
%TO.C,J5*%
D15*
X61595000Y-121130000D02*
X67345000Y-121130000D01*
X61595000Y-133530000D02*
X61595000Y-121130000D01*
X67345000Y-121130000D02*
X67345000Y-133530000D01*
X67345000Y-133530000D02*
X61595000Y-133530000D01*
D19*
X68110125Y-133089875D02*
G75*
G02*
X67909875Y-133089875I-100125J0D01*
G01*
X67909875Y-133089875D02*
G75*
G02*
X68110125Y-133089875I100125J0D01*
G01*
%TO.C,J1*%
D14*
X77390000Y-174620000D02*
X77390000Y-168120000D01*
X84490000Y-168120000D02*
X77390000Y-168120000D01*
X84490000Y-174620000D02*
X77390000Y-174620000D01*
X84490000Y-174620000D02*
X84490000Y-168120000D01*
%TO.C,Q2*%
X95290000Y-130402500D02*
X96290000Y-130402500D01*
X95290000Y-131922500D02*
X95290000Y-130402500D01*
X95340000Y-131922500D02*
X95290000Y-131922500D01*
X97240000Y-131922500D02*
X96460000Y-131922500D01*
X97410000Y-130402500D02*
X98410000Y-130402500D01*
X98410000Y-130402500D02*
X98410000Y-131922500D01*
X98410000Y-131922500D02*
X98360000Y-131922500D01*
X96470000Y-132462500D02*
X96800000Y-132222500D01*
X96800000Y-132702500D01*
X96470000Y-132462500D01*
G36*
X96800000Y-132702500D02*
G01*
X96470000Y-132462500D01*
X96800000Y-132222500D01*
X96800000Y-132702500D01*
G37*
%TO.C,M0*%
X72300000Y-145300000D02*
X74300000Y-145300000D01*
X72300000Y-148100000D02*
X72300000Y-145300000D01*
X74300000Y-145300000D02*
X74300000Y-148100000D01*
X74300000Y-148100000D02*
X72300000Y-148100000D01*
%TO.C,JP5*%
X100300000Y-157150000D02*
X102300000Y-157150000D01*
X100300000Y-159950000D02*
X100300000Y-157150000D01*
X102300000Y-157150000D02*
X102300000Y-159950000D01*
X102300000Y-159950000D02*
X100300000Y-159950000D01*
D18*
X101015000Y-160410000D02*
G75*
G02*
X100855000Y-160410000I-80000J0D01*
G01*
X100855000Y-160410000D02*
G75*
G02*
X101015000Y-160410000I80000J0D01*
G01*
X101380000Y-160410000D02*
G75*
G02*
X101220000Y-160410000I-80000J0D01*
G01*
X101220000Y-160410000D02*
G75*
G02*
X101380000Y-160410000I80000J0D01*
G01*
X101745000Y-160410000D02*
G75*
G02*
X101585000Y-160410000I-80000J0D01*
G01*
X101585000Y-160410000D02*
G75*
G02*
X101745000Y-160410000I80000J0D01*
G01*
%TO.C,R16*%
D14*
X63665000Y-157887064D02*
X63665000Y-157432936D01*
X65135000Y-157887064D02*
X65135000Y-157432936D01*
%TO.C,R17*%
X61395000Y-157422936D02*
X61395000Y-157877064D01*
X62865000Y-157422936D02*
X62865000Y-157877064D01*
%TD*%
M02*
