%TF.GenerationSoftware,KiCad,Pcbnew,10.0.3*%
%TF.CreationDate,2026-07-04T15:13:09+05:30*%
%TF.ProjectId,Urumi-Nema-17-Node,5572756d-692d-44e6-956d-612d31372d4e,rev?*%
%TF.SameCoordinates,Original*%
%TF.FileFunction,Legend,Top*%
%TF.FilePolarity,Positive*%
%FSLAX46Y46*%
G04 Gerber Fmt 4.6, Leading zero omitted, Abs format (unit mm)*
G04 Created by KiCad (PCBNEW 10.0.3) date 2026-07-04 15:13:09*
%MOMM*%
%LPD*%
G01*
G04 APERTURE LIST*
%ADD10C,0.220000*%
%ADD11C,0.225000*%
%ADD12C,0.203200*%
%ADD13C,0.200000*%
%ADD14C,0.250000*%
%ADD15C,0.120000*%
%ADD16C,0.127000*%
%ADD17C,0.150000*%
%ADD18C,0.152400*%
%ADD19C,0.100000*%
%ADD20C,0.381000*%
G04 APERTURE END LIST*
D10*
X99024917Y-143321428D02*
X99024917Y-143750000D01*
X99024917Y-143750000D02*
X99453488Y-143792857D01*
X99453488Y-143792857D02*
X99410631Y-143750000D01*
X99410631Y-143750000D02*
X99367774Y-143664286D01*
X99367774Y-143664286D02*
X99367774Y-143450000D01*
X99367774Y-143450000D02*
X99410631Y-143364286D01*
X99410631Y-143364286D02*
X99453488Y-143321428D01*
X99453488Y-143321428D02*
X99539202Y-143278571D01*
X99539202Y-143278571D02*
X99753488Y-143278571D01*
X99753488Y-143278571D02*
X99839202Y-143321428D01*
X99839202Y-143321428D02*
X99882060Y-143364286D01*
X99882060Y-143364286D02*
X99924917Y-143450000D01*
X99924917Y-143450000D02*
X99924917Y-143664286D01*
X99924917Y-143664286D02*
X99882060Y-143750000D01*
X99882060Y-143750000D02*
X99839202Y-143792857D01*
X99024917Y-143021428D02*
X99924917Y-142721428D01*
X99924917Y-142721428D02*
X99024917Y-142421428D01*
X99417774Y-136284285D02*
X99374917Y-136370000D01*
X99374917Y-136370000D02*
X99374917Y-136498571D01*
X99374917Y-136498571D02*
X99417774Y-136627142D01*
X99417774Y-136627142D02*
X99503488Y-136712857D01*
X99503488Y-136712857D02*
X99589202Y-136755714D01*
X99589202Y-136755714D02*
X99760631Y-136798571D01*
X99760631Y-136798571D02*
X99889202Y-136798571D01*
X99889202Y-136798571D02*
X100060631Y-136755714D01*
X100060631Y-136755714D02*
X100146345Y-136712857D01*
X100146345Y-136712857D02*
X100232060Y-136627142D01*
X100232060Y-136627142D02*
X100274917Y-136498571D01*
X100274917Y-136498571D02*
X100274917Y-136412857D01*
X100274917Y-136412857D02*
X100232060Y-136284285D01*
X100232060Y-136284285D02*
X100189202Y-136241428D01*
X100189202Y-136241428D02*
X99889202Y-136241428D01*
X99889202Y-136241428D02*
X99889202Y-136412857D01*
X102242225Y-146315714D02*
X102285082Y-146230000D01*
X102285082Y-146230000D02*
X102285082Y-146101428D01*
X102285082Y-146101428D02*
X102242225Y-145972857D01*
X102242225Y-145972857D02*
X102156511Y-145887142D01*
X102156511Y-145887142D02*
X102070797Y-145844285D01*
X102070797Y-145844285D02*
X101899368Y-145801428D01*
X101899368Y-145801428D02*
X101770797Y-145801428D01*
X101770797Y-145801428D02*
X101599368Y-145844285D01*
X101599368Y-145844285D02*
X101513654Y-145887142D01*
X101513654Y-145887142D02*
X101427940Y-145972857D01*
X101427940Y-145972857D02*
X101385082Y-146101428D01*
X101385082Y-146101428D02*
X101385082Y-146187142D01*
X101385082Y-146187142D02*
X101427940Y-146315714D01*
X101427940Y-146315714D02*
X101470797Y-146358571D01*
X101470797Y-146358571D02*
X101770797Y-146358571D01*
X101770797Y-146358571D02*
X101770797Y-146187142D01*
X102295082Y-147342857D02*
X101566511Y-147342857D01*
X101566511Y-147342857D02*
X101480797Y-147385714D01*
X101480797Y-147385714D02*
X101437940Y-147428572D01*
X101437940Y-147428572D02*
X101395082Y-147514286D01*
X101395082Y-147514286D02*
X101395082Y-147685714D01*
X101395082Y-147685714D02*
X101437940Y-147771429D01*
X101437940Y-147771429D02*
X101480797Y-147814286D01*
X101480797Y-147814286D02*
X101566511Y-147857143D01*
X101566511Y-147857143D02*
X102295082Y-147857143D01*
X101395082Y-148285714D02*
X102295082Y-148285714D01*
X102295082Y-148285714D02*
X102295082Y-148628571D01*
X102295082Y-148628571D02*
X102252225Y-148714286D01*
X102252225Y-148714286D02*
X102209368Y-148757143D01*
X102209368Y-148757143D02*
X102123654Y-148800000D01*
X102123654Y-148800000D02*
X101995082Y-148800000D01*
X101995082Y-148800000D02*
X101909368Y-148757143D01*
X101909368Y-148757143D02*
X101866511Y-148714286D01*
X101866511Y-148714286D02*
X101823654Y-148628571D01*
X101823654Y-148628571D02*
X101823654Y-148285714D01*
X101395082Y-149185714D02*
X102295082Y-149185714D01*
X102295082Y-149185714D02*
X102295082Y-149400000D01*
X102295082Y-149400000D02*
X102252225Y-149528571D01*
X102252225Y-149528571D02*
X102166511Y-149614286D01*
X102166511Y-149614286D02*
X102080797Y-149657143D01*
X102080797Y-149657143D02*
X101909368Y-149700000D01*
X101909368Y-149700000D02*
X101780797Y-149700000D01*
X101780797Y-149700000D02*
X101609368Y-149657143D01*
X101609368Y-149657143D02*
X101523654Y-149614286D01*
X101523654Y-149614286D02*
X101437940Y-149528571D01*
X101437940Y-149528571D02*
X101395082Y-149400000D01*
X101395082Y-149400000D02*
X101395082Y-149185714D01*
X102295082Y-155014286D02*
X102295082Y-155528572D01*
X101395082Y-155271429D02*
X102295082Y-155271429D01*
X102295082Y-155742857D02*
X101395082Y-156342857D01*
X102295082Y-156342857D02*
X101395082Y-155742857D01*
D11*
X85470883Y-145668157D02*
X85042311Y-145668157D01*
X85042311Y-145668157D02*
X84999454Y-146096728D01*
X84999454Y-146096728D02*
X85042311Y-146053871D01*
X85042311Y-146053871D02*
X85128026Y-146011014D01*
X85128026Y-146011014D02*
X85342311Y-146011014D01*
X85342311Y-146011014D02*
X85428026Y-146053871D01*
X85428026Y-146053871D02*
X85470883Y-146096728D01*
X85470883Y-146096728D02*
X85513740Y-146182442D01*
X85513740Y-146182442D02*
X85513740Y-146396728D01*
X85513740Y-146396728D02*
X85470883Y-146482442D01*
X85470883Y-146482442D02*
X85428026Y-146525300D01*
X85428026Y-146525300D02*
X85342311Y-146568157D01*
X85342311Y-146568157D02*
X85128026Y-146568157D01*
X85128026Y-146568157D02*
X85042311Y-146525300D01*
X85042311Y-146525300D02*
X84999454Y-146482442D01*
X85770883Y-145668157D02*
X86070883Y-146568157D01*
X86070883Y-146568157D02*
X86370883Y-145668157D01*
X101395342Y-153250000D02*
X101823914Y-152950000D01*
X101395342Y-152735714D02*
X102295342Y-152735714D01*
X102295342Y-152735714D02*
X102295342Y-153078571D01*
X102295342Y-153078571D02*
X102252485Y-153164286D01*
X102252485Y-153164286D02*
X102209628Y-153207143D01*
X102209628Y-153207143D02*
X102123914Y-153250000D01*
X102123914Y-153250000D02*
X101995342Y-153250000D01*
X101995342Y-153250000D02*
X101909628Y-153207143D01*
X101909628Y-153207143D02*
X101866771Y-153164286D01*
X101866771Y-153164286D02*
X101823914Y-153078571D01*
X101823914Y-153078571D02*
X101823914Y-152735714D01*
X102295342Y-153550000D02*
X101395342Y-154150000D01*
X102295342Y-154150000D02*
X101395342Y-153550000D01*
X102395342Y-150928571D02*
X102395342Y-150499999D01*
X102395342Y-150499999D02*
X101966771Y-150457142D01*
X101966771Y-150457142D02*
X102009628Y-150499999D01*
X102009628Y-150499999D02*
X102052485Y-150585714D01*
X102052485Y-150585714D02*
X102052485Y-150799999D01*
X102052485Y-150799999D02*
X102009628Y-150885714D01*
X102009628Y-150885714D02*
X101966771Y-150928571D01*
X101966771Y-150928571D02*
X101881057Y-150971428D01*
X101881057Y-150971428D02*
X101666771Y-150971428D01*
X101666771Y-150971428D02*
X101581057Y-150928571D01*
X101581057Y-150928571D02*
X101538200Y-150885714D01*
X101538200Y-150885714D02*
X101495342Y-150799999D01*
X101495342Y-150799999D02*
X101495342Y-150585714D01*
X101495342Y-150585714D02*
X101538200Y-150499999D01*
X101538200Y-150499999D02*
X101581057Y-150457142D01*
X102395342Y-151228571D02*
X101495342Y-151528571D01*
X101495342Y-151528571D02*
X102395342Y-151828571D01*
D12*
X58977527Y-133708601D02*
X58063127Y-133708601D01*
X58063127Y-133708601D02*
X58063127Y-133490887D01*
X58063127Y-133490887D02*
X58106670Y-133360258D01*
X58106670Y-133360258D02*
X58193756Y-133273173D01*
X58193756Y-133273173D02*
X58280842Y-133229630D01*
X58280842Y-133229630D02*
X58455013Y-133186087D01*
X58455013Y-133186087D02*
X58585642Y-133186087D01*
X58585642Y-133186087D02*
X58759813Y-133229630D01*
X58759813Y-133229630D02*
X58846899Y-133273173D01*
X58846899Y-133273173D02*
X58933985Y-133360258D01*
X58933985Y-133360258D02*
X58977527Y-133490887D01*
X58977527Y-133490887D02*
X58977527Y-133708601D01*
X58977527Y-132794201D02*
X58063127Y-132794201D01*
X58063127Y-132794201D02*
X58716270Y-132489401D01*
X58716270Y-132489401D02*
X58063127Y-132184601D01*
X58063127Y-132184601D02*
X58977527Y-132184601D01*
X58063127Y-131313744D02*
X58063127Y-131749172D01*
X58063127Y-131749172D02*
X58498556Y-131792715D01*
X58498556Y-131792715D02*
X58455013Y-131749172D01*
X58455013Y-131749172D02*
X58411470Y-131662087D01*
X58411470Y-131662087D02*
X58411470Y-131444372D01*
X58411470Y-131444372D02*
X58455013Y-131357287D01*
X58455013Y-131357287D02*
X58498556Y-131313744D01*
X58498556Y-131313744D02*
X58585642Y-131270201D01*
X58585642Y-131270201D02*
X58803356Y-131270201D01*
X58803356Y-131270201D02*
X58890442Y-131313744D01*
X58890442Y-131313744D02*
X58933985Y-131357287D01*
X58933985Y-131357287D02*
X58977527Y-131444372D01*
X58977527Y-131444372D02*
X58977527Y-131662087D01*
X58977527Y-131662087D02*
X58933985Y-131749172D01*
X58933985Y-131749172D02*
X58890442Y-131792715D01*
X58367927Y-130486430D02*
X58977527Y-130486430D01*
X58019585Y-130704144D02*
X58672727Y-130921858D01*
X58672727Y-130921858D02*
X58672727Y-130355801D01*
X58150213Y-130051001D02*
X58106670Y-130007458D01*
X58106670Y-130007458D02*
X58063127Y-129920373D01*
X58063127Y-129920373D02*
X58063127Y-129702658D01*
X58063127Y-129702658D02*
X58106670Y-129615573D01*
X58106670Y-129615573D02*
X58150213Y-129572030D01*
X58150213Y-129572030D02*
X58237299Y-129528487D01*
X58237299Y-129528487D02*
X58324385Y-129528487D01*
X58324385Y-129528487D02*
X58455013Y-129572030D01*
X58455013Y-129572030D02*
X58977527Y-130094544D01*
X58977527Y-130094544D02*
X58977527Y-129528487D01*
X59836670Y-128179630D02*
X59793127Y-128266716D01*
X59793127Y-128266716D02*
X59793127Y-128397344D01*
X59793127Y-128397344D02*
X59836670Y-128527973D01*
X59836670Y-128527973D02*
X59923756Y-128615058D01*
X59923756Y-128615058D02*
X60010842Y-128658601D01*
X60010842Y-128658601D02*
X60185013Y-128702144D01*
X60185013Y-128702144D02*
X60315642Y-128702144D01*
X60315642Y-128702144D02*
X60489813Y-128658601D01*
X60489813Y-128658601D02*
X60576899Y-128615058D01*
X60576899Y-128615058D02*
X60663985Y-128527973D01*
X60663985Y-128527973D02*
X60707527Y-128397344D01*
X60707527Y-128397344D02*
X60707527Y-128310258D01*
X60707527Y-128310258D02*
X60663985Y-128179630D01*
X60663985Y-128179630D02*
X60620442Y-128136087D01*
X60620442Y-128136087D02*
X60315642Y-128136087D01*
X60315642Y-128136087D02*
X60315642Y-128310258D01*
X60747527Y-130238601D02*
X59833127Y-130238601D01*
X59833127Y-130238601D02*
X59833127Y-130020887D01*
X59833127Y-130020887D02*
X59876670Y-129890258D01*
X59876670Y-129890258D02*
X59963756Y-129803173D01*
X59963756Y-129803173D02*
X60050842Y-129759630D01*
X60050842Y-129759630D02*
X60225013Y-129716087D01*
X60225013Y-129716087D02*
X60355642Y-129716087D01*
X60355642Y-129716087D02*
X60529813Y-129759630D01*
X60529813Y-129759630D02*
X60616899Y-129803173D01*
X60616899Y-129803173D02*
X60703985Y-129890258D01*
X60703985Y-129890258D02*
X60747527Y-130020887D01*
X60747527Y-130020887D02*
X60747527Y-130238601D01*
X60703985Y-132152144D02*
X60747527Y-132021516D01*
X60747527Y-132021516D02*
X60747527Y-131803801D01*
X60747527Y-131803801D02*
X60703985Y-131716716D01*
X60703985Y-131716716D02*
X60660442Y-131673173D01*
X60660442Y-131673173D02*
X60573356Y-131629630D01*
X60573356Y-131629630D02*
X60486270Y-131629630D01*
X60486270Y-131629630D02*
X60399185Y-131673173D01*
X60399185Y-131673173D02*
X60355642Y-131716716D01*
X60355642Y-131716716D02*
X60312099Y-131803801D01*
X60312099Y-131803801D02*
X60268556Y-131977973D01*
X60268556Y-131977973D02*
X60225013Y-132065058D01*
X60225013Y-132065058D02*
X60181470Y-132108601D01*
X60181470Y-132108601D02*
X60094385Y-132152144D01*
X60094385Y-132152144D02*
X60007299Y-132152144D01*
X60007299Y-132152144D02*
X59920213Y-132108601D01*
X59920213Y-132108601D02*
X59876670Y-132065058D01*
X59876670Y-132065058D02*
X59833127Y-131977973D01*
X59833127Y-131977973D02*
X59833127Y-131760258D01*
X59833127Y-131760258D02*
X59876670Y-131629630D01*
X60268556Y-133858601D02*
X60268556Y-133553801D01*
X60747527Y-133423173D02*
X60747527Y-133858601D01*
X60747527Y-133858601D02*
X59833127Y-133858601D01*
X59833127Y-133858601D02*
X59833127Y-133423173D01*
D13*
X57413482Y-162794838D02*
X57318244Y-162747219D01*
X57318244Y-162747219D02*
X57175387Y-162747219D01*
X57175387Y-162747219D02*
X57032530Y-162794838D01*
X57032530Y-162794838D02*
X56937292Y-162890076D01*
X56937292Y-162890076D02*
X56889673Y-162985314D01*
X56889673Y-162985314D02*
X56842054Y-163175790D01*
X56842054Y-163175790D02*
X56842054Y-163318647D01*
X56842054Y-163318647D02*
X56889673Y-163509123D01*
X56889673Y-163509123D02*
X56937292Y-163604361D01*
X56937292Y-163604361D02*
X57032530Y-163699600D01*
X57032530Y-163699600D02*
X57175387Y-163747219D01*
X57175387Y-163747219D02*
X57270625Y-163747219D01*
X57270625Y-163747219D02*
X57413482Y-163699600D01*
X57413482Y-163699600D02*
X57461101Y-163651980D01*
X57461101Y-163651980D02*
X57461101Y-163318647D01*
X57461101Y-163318647D02*
X57270625Y-163318647D01*
X58652054Y-162842457D02*
X58699673Y-162794838D01*
X58699673Y-162794838D02*
X58794911Y-162747219D01*
X58794911Y-162747219D02*
X59033006Y-162747219D01*
X59033006Y-162747219D02*
X59128244Y-162794838D01*
X59128244Y-162794838D02*
X59175863Y-162842457D01*
X59175863Y-162842457D02*
X59223482Y-162937695D01*
X59223482Y-162937695D02*
X59223482Y-163032933D01*
X59223482Y-163032933D02*
X59175863Y-163175790D01*
X59175863Y-163175790D02*
X58604435Y-163747219D01*
X58604435Y-163747219D02*
X59223482Y-163747219D01*
X60080625Y-163080552D02*
X60080625Y-163747219D01*
X59842530Y-162699600D02*
X59604435Y-163413885D01*
X59604435Y-163413885D02*
X60223482Y-163413885D01*
X60461578Y-162747219D02*
X60794911Y-163747219D01*
X60794911Y-163747219D02*
X61128244Y-162747219D01*
X74071101Y-159697219D02*
X73737768Y-159221028D01*
X73499673Y-159697219D02*
X73499673Y-158697219D01*
X73499673Y-158697219D02*
X73880625Y-158697219D01*
X73880625Y-158697219D02*
X73975863Y-158744838D01*
X73975863Y-158744838D02*
X74023482Y-158792457D01*
X74023482Y-158792457D02*
X74071101Y-158887695D01*
X74071101Y-158887695D02*
X74071101Y-159030552D01*
X74071101Y-159030552D02*
X74023482Y-159125790D01*
X74023482Y-159125790D02*
X73975863Y-159173409D01*
X73975863Y-159173409D02*
X73880625Y-159221028D01*
X73880625Y-159221028D02*
X73499673Y-159221028D01*
X74404435Y-158697219D02*
X75071101Y-159697219D01*
X75071101Y-158697219D02*
X74404435Y-159697219D01*
X74649673Y-162563409D02*
X74983006Y-162563409D01*
X75125863Y-163087219D02*
X74649673Y-163087219D01*
X74649673Y-163087219D02*
X74649673Y-162087219D01*
X74649673Y-162087219D02*
X75125863Y-162087219D01*
X84986816Y-152417219D02*
X85558244Y-152417219D01*
X85272530Y-153417219D02*
X85272530Y-152417219D01*
X85796340Y-152417219D02*
X86463006Y-153417219D01*
X86463006Y-152417219D02*
X85796340Y-153417219D01*
X100393482Y-129254838D02*
X100298244Y-129207219D01*
X100298244Y-129207219D02*
X100155387Y-129207219D01*
X100155387Y-129207219D02*
X100012530Y-129254838D01*
X100012530Y-129254838D02*
X99917292Y-129350076D01*
X99917292Y-129350076D02*
X99869673Y-129445314D01*
X99869673Y-129445314D02*
X99822054Y-129635790D01*
X99822054Y-129635790D02*
X99822054Y-129778647D01*
X99822054Y-129778647D02*
X99869673Y-129969123D01*
X99869673Y-129969123D02*
X99917292Y-130064361D01*
X99917292Y-130064361D02*
X100012530Y-130159600D01*
X100012530Y-130159600D02*
X100155387Y-130207219D01*
X100155387Y-130207219D02*
X100250625Y-130207219D01*
X100250625Y-130207219D02*
X100393482Y-130159600D01*
X100393482Y-130159600D02*
X100441101Y-130111980D01*
X100441101Y-130111980D02*
X100441101Y-129778647D01*
X100441101Y-129778647D02*
X100250625Y-129778647D01*
X101908482Y-163164838D02*
X101813244Y-163117219D01*
X101813244Y-163117219D02*
X101670387Y-163117219D01*
X101670387Y-163117219D02*
X101527530Y-163164838D01*
X101527530Y-163164838D02*
X101432292Y-163260076D01*
X101432292Y-163260076D02*
X101384673Y-163355314D01*
X101384673Y-163355314D02*
X101337054Y-163545790D01*
X101337054Y-163545790D02*
X101337054Y-163688647D01*
X101337054Y-163688647D02*
X101384673Y-163879123D01*
X101384673Y-163879123D02*
X101432292Y-163974361D01*
X101432292Y-163974361D02*
X101527530Y-164069600D01*
X101527530Y-164069600D02*
X101670387Y-164117219D01*
X101670387Y-164117219D02*
X101765625Y-164117219D01*
X101765625Y-164117219D02*
X101908482Y-164069600D01*
X101908482Y-164069600D02*
X101956101Y-164021980D01*
X101956101Y-164021980D02*
X101956101Y-163688647D01*
X101956101Y-163688647D02*
X101765625Y-163688647D01*
D10*
X71212831Y-128406179D02*
X71212831Y-127406179D01*
X71212831Y-127406179D02*
X71546164Y-128120464D01*
X71546164Y-128120464D02*
X71879497Y-127406179D01*
X71879497Y-127406179D02*
X71879497Y-128406179D01*
X72498545Y-128406179D02*
X72403307Y-128358560D01*
X72403307Y-128358560D02*
X72355688Y-128310940D01*
X72355688Y-128310940D02*
X72308069Y-128215702D01*
X72308069Y-128215702D02*
X72308069Y-127929988D01*
X72308069Y-127929988D02*
X72355688Y-127834750D01*
X72355688Y-127834750D02*
X72403307Y-127787131D01*
X72403307Y-127787131D02*
X72498545Y-127739512D01*
X72498545Y-127739512D02*
X72641402Y-127739512D01*
X72641402Y-127739512D02*
X72736640Y-127787131D01*
X72736640Y-127787131D02*
X72784259Y-127834750D01*
X72784259Y-127834750D02*
X72831878Y-127929988D01*
X72831878Y-127929988D02*
X72831878Y-128215702D01*
X72831878Y-128215702D02*
X72784259Y-128310940D01*
X72784259Y-128310940D02*
X72736640Y-128358560D01*
X72736640Y-128358560D02*
X72641402Y-128406179D01*
X72641402Y-128406179D02*
X72498545Y-128406179D01*
X73117593Y-127739512D02*
X73498545Y-127739512D01*
X73260450Y-127406179D02*
X73260450Y-128263321D01*
X73260450Y-128263321D02*
X73308069Y-128358560D01*
X73308069Y-128358560D02*
X73403307Y-128406179D01*
X73403307Y-128406179D02*
X73498545Y-128406179D01*
X73974736Y-128406179D02*
X73879498Y-128358560D01*
X73879498Y-128358560D02*
X73831879Y-128310940D01*
X73831879Y-128310940D02*
X73784260Y-128215702D01*
X73784260Y-128215702D02*
X73784260Y-127929988D01*
X73784260Y-127929988D02*
X73831879Y-127834750D01*
X73831879Y-127834750D02*
X73879498Y-127787131D01*
X73879498Y-127787131D02*
X73974736Y-127739512D01*
X73974736Y-127739512D02*
X74117593Y-127739512D01*
X74117593Y-127739512D02*
X74212831Y-127787131D01*
X74212831Y-127787131D02*
X74260450Y-127834750D01*
X74260450Y-127834750D02*
X74308069Y-127929988D01*
X74308069Y-127929988D02*
X74308069Y-128215702D01*
X74308069Y-128215702D02*
X74260450Y-128310940D01*
X74260450Y-128310940D02*
X74212831Y-128358560D01*
X74212831Y-128358560D02*
X74117593Y-128406179D01*
X74117593Y-128406179D02*
X73974736Y-128406179D01*
X74736641Y-128406179D02*
X74736641Y-127739512D01*
X74736641Y-127929988D02*
X74784260Y-127834750D01*
X74784260Y-127834750D02*
X74831879Y-127787131D01*
X74831879Y-127787131D02*
X74927117Y-127739512D01*
X74927117Y-127739512D02*
X75022355Y-127739512D01*
X76308070Y-127406179D02*
X76498546Y-127406179D01*
X76498546Y-127406179D02*
X76593784Y-127453798D01*
X76593784Y-127453798D02*
X76689022Y-127549036D01*
X76689022Y-127549036D02*
X76736641Y-127739512D01*
X76736641Y-127739512D02*
X76736641Y-128072845D01*
X76736641Y-128072845D02*
X76689022Y-128263321D01*
X76689022Y-128263321D02*
X76593784Y-128358560D01*
X76593784Y-128358560D02*
X76498546Y-128406179D01*
X76498546Y-128406179D02*
X76308070Y-128406179D01*
X76308070Y-128406179D02*
X76212832Y-128358560D01*
X76212832Y-128358560D02*
X76117594Y-128263321D01*
X76117594Y-128263321D02*
X76069975Y-128072845D01*
X76069975Y-128072845D02*
X76069975Y-127739512D01*
X76069975Y-127739512D02*
X76117594Y-127549036D01*
X76117594Y-127549036D02*
X76212832Y-127453798D01*
X76212832Y-127453798D02*
X76308070Y-127406179D01*
X77593784Y-127739512D02*
X77593784Y-128406179D01*
X77165213Y-127739512D02*
X77165213Y-128263321D01*
X77165213Y-128263321D02*
X77212832Y-128358560D01*
X77212832Y-128358560D02*
X77308070Y-128406179D01*
X77308070Y-128406179D02*
X77450927Y-128406179D01*
X77450927Y-128406179D02*
X77546165Y-128358560D01*
X77546165Y-128358560D02*
X77593784Y-128310940D01*
X77927118Y-127739512D02*
X78308070Y-127739512D01*
X78069975Y-127406179D02*
X78069975Y-128263321D01*
X78069975Y-128263321D02*
X78117594Y-128358560D01*
X78117594Y-128358560D02*
X78212832Y-128406179D01*
X78212832Y-128406179D02*
X78308070Y-128406179D01*
X82609974Y-127886179D02*
X83181402Y-127886179D01*
X82895688Y-128886179D02*
X82895688Y-127886179D01*
X83514736Y-128886179D02*
X83514736Y-127886179D01*
X83943307Y-128886179D02*
X83943307Y-128362369D01*
X83943307Y-128362369D02*
X83895688Y-128267131D01*
X83895688Y-128267131D02*
X83800450Y-128219512D01*
X83800450Y-128219512D02*
X83657593Y-128219512D01*
X83657593Y-128219512D02*
X83562355Y-128267131D01*
X83562355Y-128267131D02*
X83514736Y-128314750D01*
X94059021Y-128406179D02*
X93582831Y-128406179D01*
X93582831Y-128406179D02*
X93582831Y-127406179D01*
X94820926Y-128406179D02*
X94820926Y-127882369D01*
X94820926Y-127882369D02*
X94773307Y-127787131D01*
X94773307Y-127787131D02*
X94678069Y-127739512D01*
X94678069Y-127739512D02*
X94487593Y-127739512D01*
X94487593Y-127739512D02*
X94392355Y-127787131D01*
X94820926Y-128358560D02*
X94725688Y-128406179D01*
X94725688Y-128406179D02*
X94487593Y-128406179D01*
X94487593Y-128406179D02*
X94392355Y-128358560D01*
X94392355Y-128358560D02*
X94344736Y-128263321D01*
X94344736Y-128263321D02*
X94344736Y-128168083D01*
X94344736Y-128168083D02*
X94392355Y-128072845D01*
X94392355Y-128072845D02*
X94487593Y-128025226D01*
X94487593Y-128025226D02*
X94725688Y-128025226D01*
X94725688Y-128025226D02*
X94820926Y-127977607D01*
X95249498Y-128358560D02*
X95344736Y-128406179D01*
X95344736Y-128406179D02*
X95535212Y-128406179D01*
X95535212Y-128406179D02*
X95630450Y-128358560D01*
X95630450Y-128358560D02*
X95678069Y-128263321D01*
X95678069Y-128263321D02*
X95678069Y-128215702D01*
X95678069Y-128215702D02*
X95630450Y-128120464D01*
X95630450Y-128120464D02*
X95535212Y-128072845D01*
X95535212Y-128072845D02*
X95392355Y-128072845D01*
X95392355Y-128072845D02*
X95297117Y-128025226D01*
X95297117Y-128025226D02*
X95249498Y-127929988D01*
X95249498Y-127929988D02*
X95249498Y-127882369D01*
X95249498Y-127882369D02*
X95297117Y-127787131D01*
X95297117Y-127787131D02*
X95392355Y-127739512D01*
X95392355Y-127739512D02*
X95535212Y-127739512D01*
X95535212Y-127739512D02*
X95630450Y-127787131D01*
X96487593Y-128358560D02*
X96392355Y-128406179D01*
X96392355Y-128406179D02*
X96201879Y-128406179D01*
X96201879Y-128406179D02*
X96106641Y-128358560D01*
X96106641Y-128358560D02*
X96059022Y-128263321D01*
X96059022Y-128263321D02*
X96059022Y-127882369D01*
X96059022Y-127882369D02*
X96106641Y-127787131D01*
X96106641Y-127787131D02*
X96201879Y-127739512D01*
X96201879Y-127739512D02*
X96392355Y-127739512D01*
X96392355Y-127739512D02*
X96487593Y-127787131D01*
X96487593Y-127787131D02*
X96535212Y-127882369D01*
X96535212Y-127882369D02*
X96535212Y-127977607D01*
X96535212Y-127977607D02*
X96059022Y-128072845D01*
X96963784Y-128406179D02*
X96963784Y-127739512D01*
X96963784Y-127929988D02*
X97011403Y-127834750D01*
X97011403Y-127834750D02*
X97059022Y-127787131D01*
X97059022Y-127787131D02*
X97154260Y-127739512D01*
X97154260Y-127739512D02*
X97249498Y-127739512D01*
X97469021Y-134156179D02*
X96992831Y-134156179D01*
X96992831Y-134156179D02*
X96992831Y-133156179D01*
X97802355Y-134156179D02*
X97802355Y-133489512D01*
X97802355Y-133156179D02*
X97754736Y-133203798D01*
X97754736Y-133203798D02*
X97802355Y-133251417D01*
X97802355Y-133251417D02*
X97849974Y-133203798D01*
X97849974Y-133203798D02*
X97802355Y-133156179D01*
X97802355Y-133156179D02*
X97802355Y-133251417D01*
X98278545Y-134156179D02*
X98278545Y-133489512D01*
X98278545Y-133584750D02*
X98326164Y-133537131D01*
X98326164Y-133537131D02*
X98421402Y-133489512D01*
X98421402Y-133489512D02*
X98564259Y-133489512D01*
X98564259Y-133489512D02*
X98659497Y-133537131D01*
X98659497Y-133537131D02*
X98707116Y-133632369D01*
X98707116Y-133632369D02*
X98707116Y-134156179D01*
X98707116Y-133632369D02*
X98754735Y-133537131D01*
X98754735Y-133537131D02*
X98849973Y-133489512D01*
X98849973Y-133489512D02*
X98992830Y-133489512D01*
X98992830Y-133489512D02*
X99088069Y-133537131D01*
X99088069Y-133537131D02*
X99135688Y-133632369D01*
X99135688Y-133632369D02*
X99135688Y-134156179D01*
X99611878Y-134156179D02*
X99611878Y-133489512D01*
X99611878Y-133156179D02*
X99564259Y-133203798D01*
X99564259Y-133203798D02*
X99611878Y-133251417D01*
X99611878Y-133251417D02*
X99659497Y-133203798D01*
X99659497Y-133203798D02*
X99611878Y-133156179D01*
X99611878Y-133156179D02*
X99611878Y-133251417D01*
X99945211Y-133489512D02*
X100326163Y-133489512D01*
X100088068Y-133156179D02*
X100088068Y-134013321D01*
X100088068Y-134013321D02*
X100135687Y-134108560D01*
X100135687Y-134108560D02*
X100230925Y-134156179D01*
X100230925Y-134156179D02*
X100326163Y-134156179D01*
X99682831Y-161966179D02*
X99682831Y-160966179D01*
X99682831Y-160966179D02*
X100254259Y-161966179D01*
X100254259Y-161966179D02*
X100254259Y-160966179D01*
X100873307Y-161966179D02*
X100778069Y-161918560D01*
X100778069Y-161918560D02*
X100730450Y-161870940D01*
X100730450Y-161870940D02*
X100682831Y-161775702D01*
X100682831Y-161775702D02*
X100682831Y-161489988D01*
X100682831Y-161489988D02*
X100730450Y-161394750D01*
X100730450Y-161394750D02*
X100778069Y-161347131D01*
X100778069Y-161347131D02*
X100873307Y-161299512D01*
X100873307Y-161299512D02*
X101016164Y-161299512D01*
X101016164Y-161299512D02*
X101111402Y-161347131D01*
X101111402Y-161347131D02*
X101159021Y-161394750D01*
X101159021Y-161394750D02*
X101206640Y-161489988D01*
X101206640Y-161489988D02*
X101206640Y-161775702D01*
X101206640Y-161775702D02*
X101159021Y-161870940D01*
X101159021Y-161870940D02*
X101111402Y-161918560D01*
X101111402Y-161918560D02*
X101016164Y-161966179D01*
X101016164Y-161966179D02*
X100873307Y-161966179D01*
X102063783Y-161966179D02*
X102063783Y-160966179D01*
X102063783Y-161918560D02*
X101968545Y-161966179D01*
X101968545Y-161966179D02*
X101778069Y-161966179D01*
X101778069Y-161966179D02*
X101682831Y-161918560D01*
X101682831Y-161918560D02*
X101635212Y-161870940D01*
X101635212Y-161870940D02*
X101587593Y-161775702D01*
X101587593Y-161775702D02*
X101587593Y-161489988D01*
X101587593Y-161489988D02*
X101635212Y-161394750D01*
X101635212Y-161394750D02*
X101682831Y-161347131D01*
X101682831Y-161347131D02*
X101778069Y-161299512D01*
X101778069Y-161299512D02*
X101968545Y-161299512D01*
X101968545Y-161299512D02*
X102063783Y-161347131D01*
X102920926Y-161918560D02*
X102825688Y-161966179D01*
X102825688Y-161966179D02*
X102635212Y-161966179D01*
X102635212Y-161966179D02*
X102539974Y-161918560D01*
X102539974Y-161918560D02*
X102492355Y-161823321D01*
X102492355Y-161823321D02*
X102492355Y-161442369D01*
X102492355Y-161442369D02*
X102539974Y-161347131D01*
X102539974Y-161347131D02*
X102635212Y-161299512D01*
X102635212Y-161299512D02*
X102825688Y-161299512D01*
X102825688Y-161299512D02*
X102920926Y-161347131D01*
X102920926Y-161347131D02*
X102968545Y-161442369D01*
X102968545Y-161442369D02*
X102968545Y-161537607D01*
X102968545Y-161537607D02*
X102492355Y-161632845D01*
X63861905Y-174065464D02*
X64338095Y-174065464D01*
X63766667Y-174351179D02*
X64100000Y-173351179D01*
X64100000Y-173351179D02*
X64433333Y-174351179D01*
X64241905Y-163255464D02*
X64718095Y-163255464D01*
X64146667Y-163541179D02*
X64480000Y-162541179D01*
X64480000Y-162541179D02*
X64813333Y-163541179D01*
X66601428Y-163017369D02*
X66744285Y-163064988D01*
X66744285Y-163064988D02*
X66791904Y-163112607D01*
X66791904Y-163112607D02*
X66839523Y-163207845D01*
X66839523Y-163207845D02*
X66839523Y-163350702D01*
X66839523Y-163350702D02*
X66791904Y-163445940D01*
X66791904Y-163445940D02*
X66744285Y-163493560D01*
X66744285Y-163493560D02*
X66649047Y-163541179D01*
X66649047Y-163541179D02*
X66268095Y-163541179D01*
X66268095Y-163541179D02*
X66268095Y-162541179D01*
X66268095Y-162541179D02*
X66601428Y-162541179D01*
X66601428Y-162541179D02*
X66696666Y-162588798D01*
X66696666Y-162588798D02*
X66744285Y-162636417D01*
X66744285Y-162636417D02*
X66791904Y-162731655D01*
X66791904Y-162731655D02*
X66791904Y-162826893D01*
X66791904Y-162826893D02*
X66744285Y-162922131D01*
X66744285Y-162922131D02*
X66696666Y-162969750D01*
X66696666Y-162969750D02*
X66601428Y-163017369D01*
X66601428Y-163017369D02*
X66268095Y-163017369D01*
X67671428Y-173827369D02*
X67814285Y-173874988D01*
X67814285Y-173874988D02*
X67861904Y-173922607D01*
X67861904Y-173922607D02*
X67909523Y-174017845D01*
X67909523Y-174017845D02*
X67909523Y-174160702D01*
X67909523Y-174160702D02*
X67861904Y-174255940D01*
X67861904Y-174255940D02*
X67814285Y-174303560D01*
X67814285Y-174303560D02*
X67719047Y-174351179D01*
X67719047Y-174351179D02*
X67338095Y-174351179D01*
X67338095Y-174351179D02*
X67338095Y-173351179D01*
X67338095Y-173351179D02*
X67671428Y-173351179D01*
X67671428Y-173351179D02*
X67766666Y-173398798D01*
X67766666Y-173398798D02*
X67814285Y-173446417D01*
X67814285Y-173446417D02*
X67861904Y-173541655D01*
X67861904Y-173541655D02*
X67861904Y-173636893D01*
X67861904Y-173636893D02*
X67814285Y-173732131D01*
X67814285Y-173732131D02*
X67766666Y-173779750D01*
X67766666Y-173779750D02*
X67671428Y-173827369D01*
X67671428Y-173827369D02*
X67338095Y-173827369D01*
X71061905Y-174065464D02*
X71538095Y-174065464D01*
X70966667Y-174351179D02*
X71300000Y-173351179D01*
X71300000Y-173351179D02*
X71633333Y-174351179D01*
X74971428Y-173827369D02*
X75114285Y-173874988D01*
X75114285Y-173874988D02*
X75161904Y-173922607D01*
X75161904Y-173922607D02*
X75209523Y-174017845D01*
X75209523Y-174017845D02*
X75209523Y-174160702D01*
X75209523Y-174160702D02*
X75161904Y-174255940D01*
X75161904Y-174255940D02*
X75114285Y-174303560D01*
X75114285Y-174303560D02*
X75019047Y-174351179D01*
X75019047Y-174351179D02*
X74638095Y-174351179D01*
X74638095Y-174351179D02*
X74638095Y-173351179D01*
X74638095Y-173351179D02*
X74971428Y-173351179D01*
X74971428Y-173351179D02*
X75066666Y-173398798D01*
X75066666Y-173398798D02*
X75114285Y-173446417D01*
X75114285Y-173446417D02*
X75161904Y-173541655D01*
X75161904Y-173541655D02*
X75161904Y-173636893D01*
X75161904Y-173636893D02*
X75114285Y-173732131D01*
X75114285Y-173732131D02*
X75066666Y-173779750D01*
X75066666Y-173779750D02*
X74971428Y-173827369D01*
X74971428Y-173827369D02*
X74638095Y-173827369D01*
X78708095Y-166678798D02*
X78612857Y-166631179D01*
X78612857Y-166631179D02*
X78470000Y-166631179D01*
X78470000Y-166631179D02*
X78327143Y-166678798D01*
X78327143Y-166678798D02*
X78231905Y-166774036D01*
X78231905Y-166774036D02*
X78184286Y-166869274D01*
X78184286Y-166869274D02*
X78136667Y-167059750D01*
X78136667Y-167059750D02*
X78136667Y-167202607D01*
X78136667Y-167202607D02*
X78184286Y-167393083D01*
X78184286Y-167393083D02*
X78231905Y-167488321D01*
X78231905Y-167488321D02*
X78327143Y-167583560D01*
X78327143Y-167583560D02*
X78470000Y-167631179D01*
X78470000Y-167631179D02*
X78565238Y-167631179D01*
X78565238Y-167631179D02*
X78708095Y-167583560D01*
X78708095Y-167583560D02*
X78755714Y-167535940D01*
X78755714Y-167535940D02*
X78755714Y-167202607D01*
X78755714Y-167202607D02*
X78565238Y-167202607D01*
X79184286Y-167631179D02*
X79184286Y-166631179D01*
X79184286Y-166631179D02*
X79755714Y-167631179D01*
X79755714Y-167631179D02*
X79755714Y-166631179D01*
X80231905Y-167631179D02*
X80231905Y-166631179D01*
X80231905Y-166631179D02*
X80470000Y-166631179D01*
X80470000Y-166631179D02*
X80612857Y-166678798D01*
X80612857Y-166678798D02*
X80708095Y-166774036D01*
X80708095Y-166774036D02*
X80755714Y-166869274D01*
X80755714Y-166869274D02*
X80803333Y-167059750D01*
X80803333Y-167059750D02*
X80803333Y-167202607D01*
X80803333Y-167202607D02*
X80755714Y-167393083D01*
X80755714Y-167393083D02*
X80708095Y-167488321D01*
X80708095Y-167488321D02*
X80612857Y-167583560D01*
X80612857Y-167583560D02*
X80470000Y-167631179D01*
X80470000Y-167631179D02*
X80231905Y-167631179D01*
X81704762Y-166581179D02*
X82038095Y-167581179D01*
X82038095Y-167581179D02*
X82371428Y-166581179D01*
X82704762Y-167581179D02*
X82704762Y-166581179D01*
X83180952Y-167581179D02*
X83180952Y-166581179D01*
X83180952Y-166581179D02*
X83752380Y-167581179D01*
X83752380Y-167581179D02*
X83752380Y-166581179D01*
D14*
X82050380Y-162502380D02*
X82526571Y-162169047D01*
X82050380Y-161930952D02*
X83050380Y-161930952D01*
X83050380Y-161930952D02*
X83050380Y-162311904D01*
X83050380Y-162311904D02*
X83002761Y-162407142D01*
X83002761Y-162407142D02*
X82955142Y-162454761D01*
X82955142Y-162454761D02*
X82859904Y-162502380D01*
X82859904Y-162502380D02*
X82717047Y-162502380D01*
X82717047Y-162502380D02*
X82621809Y-162454761D01*
X82621809Y-162454761D02*
X82574190Y-162407142D01*
X82574190Y-162407142D02*
X82526571Y-162311904D01*
X82526571Y-162311904D02*
X82526571Y-161930952D01*
X82098000Y-162883333D02*
X82050380Y-163026190D01*
X82050380Y-163026190D02*
X82050380Y-163264285D01*
X82050380Y-163264285D02*
X82098000Y-163359523D01*
X82098000Y-163359523D02*
X82145619Y-163407142D01*
X82145619Y-163407142D02*
X82240857Y-163454761D01*
X82240857Y-163454761D02*
X82336095Y-163454761D01*
X82336095Y-163454761D02*
X82431333Y-163407142D01*
X82431333Y-163407142D02*
X82478952Y-163359523D01*
X82478952Y-163359523D02*
X82526571Y-163264285D01*
X82526571Y-163264285D02*
X82574190Y-163073809D01*
X82574190Y-163073809D02*
X82621809Y-162978571D01*
X82621809Y-162978571D02*
X82669428Y-162930952D01*
X82669428Y-162930952D02*
X82764666Y-162883333D01*
X82764666Y-162883333D02*
X82859904Y-162883333D01*
X82859904Y-162883333D02*
X82955142Y-162930952D01*
X82955142Y-162930952D02*
X83002761Y-162978571D01*
X83002761Y-162978571D02*
X83050380Y-163073809D01*
X83050380Y-163073809D02*
X83050380Y-163311904D01*
X83050380Y-163311904D02*
X83002761Y-163454761D01*
X83050380Y-163740476D02*
X83050380Y-164311904D01*
X82050380Y-164026190D02*
X83050380Y-164026190D01*
D10*
X75271428Y-149404917D02*
X75271428Y-148504917D01*
X75271428Y-148504917D02*
X75571428Y-149147774D01*
X75571428Y-149147774D02*
X75871428Y-148504917D01*
X75871428Y-148504917D02*
X75871428Y-149404917D01*
X76771428Y-149404917D02*
X76257142Y-149404917D01*
X76514285Y-149404917D02*
X76514285Y-148504917D01*
X76514285Y-148504917D02*
X76428571Y-148633488D01*
X76428571Y-148633488D02*
X76342856Y-148719202D01*
X76342856Y-148719202D02*
X76257142Y-148762060D01*
X77971428Y-149404917D02*
X77971428Y-148504917D01*
X77971428Y-148504917D02*
X78271428Y-149147774D01*
X78271428Y-149147774D02*
X78571428Y-148504917D01*
X78571428Y-148504917D02*
X78571428Y-149404917D01*
X78957142Y-148590631D02*
X78999999Y-148547774D01*
X78999999Y-148547774D02*
X79085714Y-148504917D01*
X79085714Y-148504917D02*
X79299999Y-148504917D01*
X79299999Y-148504917D02*
X79385714Y-148547774D01*
X79385714Y-148547774D02*
X79428571Y-148590631D01*
X79428571Y-148590631D02*
X79471428Y-148676345D01*
X79471428Y-148676345D02*
X79471428Y-148762060D01*
X79471428Y-148762060D02*
X79428571Y-148890631D01*
X79428571Y-148890631D02*
X78914285Y-149404917D01*
X78914285Y-149404917D02*
X79471428Y-149404917D01*
X72571428Y-149404917D02*
X72571428Y-148504917D01*
X72571428Y-148504917D02*
X72871428Y-149147774D01*
X72871428Y-149147774D02*
X73171428Y-148504917D01*
X73171428Y-148504917D02*
X73171428Y-149404917D01*
X73771428Y-148504917D02*
X73857142Y-148504917D01*
X73857142Y-148504917D02*
X73942856Y-148547774D01*
X73942856Y-148547774D02*
X73985714Y-148590631D01*
X73985714Y-148590631D02*
X74028571Y-148676345D01*
X74028571Y-148676345D02*
X74071428Y-148847774D01*
X74071428Y-148847774D02*
X74071428Y-149062060D01*
X74071428Y-149062060D02*
X74028571Y-149233488D01*
X74028571Y-149233488D02*
X73985714Y-149319202D01*
X73985714Y-149319202D02*
X73942856Y-149362060D01*
X73942856Y-149362060D02*
X73857142Y-149404917D01*
X73857142Y-149404917D02*
X73771428Y-149404917D01*
X73771428Y-149404917D02*
X73685714Y-149362060D01*
X73685714Y-149362060D02*
X73642856Y-149319202D01*
X73642856Y-149319202D02*
X73599999Y-149233488D01*
X73599999Y-149233488D02*
X73557142Y-149062060D01*
X73557142Y-149062060D02*
X73557142Y-148847774D01*
X73557142Y-148847774D02*
X73599999Y-148676345D01*
X73599999Y-148676345D02*
X73642856Y-148590631D01*
X73642856Y-148590631D02*
X73685714Y-148547774D01*
X73685714Y-148547774D02*
X73771428Y-148504917D01*
%TO.C,TP16*%
D15*
X99540000Y-155080000D02*
X100940000Y-155080000D01*
X99540000Y-156480000D02*
X99540000Y-155080000D01*
X100940000Y-155080000D02*
X100940000Y-156480000D01*
X100940000Y-156480000D02*
X99540000Y-156480000D01*
%TO.C,TP15*%
X100940000Y-154420000D02*
X99540000Y-154420000D01*
X100940000Y-153020000D02*
X100940000Y-154420000D01*
X99540000Y-154420000D02*
X99540000Y-153020000D01*
X99540000Y-153020000D02*
X100940000Y-153020000D01*
%TO.C,C2*%
X59405000Y-151901252D02*
X59405000Y-151378748D01*
X60875000Y-151901252D02*
X60875000Y-151378748D01*
%TO.C,TP11*%
X75460000Y-159870000D02*
X76860000Y-159870000D01*
X75460000Y-161270000D02*
X75460000Y-159870000D01*
X76860000Y-159870000D02*
X76860000Y-161270000D01*
X76860000Y-161270000D02*
X75460000Y-161270000D01*
%TO.C,TP10*%
X101015000Y-164645000D02*
X102415000Y-164645000D01*
X101015000Y-166045000D02*
X101015000Y-164645000D01*
X102415000Y-164645000D02*
X102415000Y-166045000D01*
X102415000Y-166045000D02*
X101015000Y-166045000D01*
%TO.C,J4*%
D16*
X68320000Y-121105000D02*
X80720000Y-121105000D01*
X68320000Y-126855000D02*
X68320000Y-121105000D01*
X80720000Y-121105000D02*
X80720000Y-126855000D01*
X80720000Y-126855000D02*
X68320000Y-126855000D01*
%TO.C,U1*%
D17*
X88675000Y-147675000D02*
X88675000Y-148000000D01*
X88675000Y-147675000D02*
X89000000Y-147675000D01*
X88675000Y-154925000D02*
X88675000Y-154600000D01*
X88675000Y-154925000D02*
X89000000Y-154925000D01*
X95925000Y-147675000D02*
X95600000Y-147675000D01*
X95925000Y-147675000D02*
X95925000Y-148000000D01*
X95925000Y-154700000D02*
X97350000Y-154700000D01*
X95925000Y-154925000D02*
X95600000Y-154925000D01*
X95925000Y-154925000D02*
X95925000Y-154700000D01*
D15*
X96925000Y-155450000D02*
G75*
G02*
X96425000Y-155450000I-250000J0D01*
G01*
X96425000Y-155450000D02*
G75*
G02*
X96925000Y-155450000I250000J0D01*
G01*
%TO.C,R8*%
X88865000Y-158827064D02*
X88865000Y-158372936D01*
X90335000Y-158827064D02*
X90335000Y-158372936D01*
%TO.C,C9*%
X78261252Y-149865000D02*
X77738748Y-149865000D01*
X78261252Y-151335000D02*
X77738748Y-151335000D01*
%TO.C,R11*%
X88132936Y-168985000D02*
X88587064Y-168985000D01*
X88132936Y-170455000D02*
X88587064Y-170455000D01*
%TO.C,R14*%
X67365000Y-156972936D02*
X67365000Y-157427064D01*
X68835000Y-156972936D02*
X68835000Y-157427064D01*
%TO.C,C4*%
X68388748Y-149090000D02*
X69811252Y-149090000D01*
X68388748Y-150910000D02*
X69811252Y-150910000D01*
%TO.C,TP9*%
X96740000Y-134750000D02*
X98140000Y-134750000D01*
X96740000Y-136150000D02*
X96740000Y-134750000D01*
X98140000Y-134750000D02*
X98140000Y-136150000D01*
X98140000Y-136150000D02*
X96740000Y-136150000D01*
%TO.C,C15*%
X86961252Y-127315000D02*
X86438748Y-127315000D01*
X86961252Y-128785000D02*
X86438748Y-128785000D01*
%TO.C,TP7*%
X89000000Y-127390000D02*
X90400000Y-127390000D01*
X89000000Y-128790000D02*
X89000000Y-127390000D01*
X90400000Y-127390000D02*
X90400000Y-128790000D01*
X90400000Y-128790000D02*
X89000000Y-128790000D01*
%TO.C,C11*%
X85165000Y-149038748D02*
X85165000Y-149561252D01*
X86635000Y-149038748D02*
X86635000Y-149561252D01*
%TO.C,Y1*%
D18*
X88348900Y-163372700D02*
X95791100Y-163372700D01*
X95791100Y-168427300D02*
X88348900Y-168427300D01*
X86481225Y-164348060D02*
G75*
G02*
X88475900Y-163372700I1994675J-1551940D01*
G01*
X88475900Y-168427300D02*
G75*
G02*
X86481225Y-167451940I0J2527300D01*
G01*
X95664099Y-163372700D02*
G75*
G02*
X97658775Y-164348060I3J-2527297D01*
G01*
X97658775Y-167451940D02*
G75*
G02*
X95664100Y-168427300I-1994677J1551945D01*
G01*
%TO.C,JP6*%
D15*
X97600000Y-157150000D02*
X99600000Y-157150000D01*
X97600000Y-159950000D02*
X97600000Y-157150000D01*
X99600000Y-157150000D02*
X99600000Y-159950000D01*
X99600000Y-159950000D02*
X97600000Y-159950000D01*
D19*
X98510000Y-160410000D02*
G75*
G02*
X98350000Y-160410000I-80000J0D01*
G01*
X98350000Y-160410000D02*
G75*
G02*
X98510000Y-160410000I80000J0D01*
G01*
X98874619Y-160410000D02*
G75*
G02*
X98714619Y-160410000I-80000J0D01*
G01*
X98714619Y-160410000D02*
G75*
G02*
X98874619Y-160410000I80000J0D01*
G01*
%TO.C,SW1*%
X77919478Y-160980000D02*
X77919478Y-164960000D01*
X77919478Y-164960000D02*
X78059478Y-164960000D01*
X78109478Y-160980000D02*
X77919478Y-160980000D01*
X78111572Y-164960000D02*
X77921572Y-164960000D01*
X80689478Y-160960000D02*
X81019478Y-160960000D01*
X80690522Y-164990000D02*
X81020522Y-164990000D01*
X81019478Y-160960000D02*
X81019478Y-164990000D01*
X81019478Y-164990000D02*
X80809478Y-164990000D01*
%TO.C,U2*%
D15*
X63211074Y-150156201D02*
X65031074Y-150156201D01*
X63211074Y-150206201D02*
X63211074Y-150156201D01*
X63211074Y-153276201D02*
X63211074Y-153226201D01*
X65031074Y-150156201D02*
X65031074Y-150206201D01*
X65031074Y-153226201D02*
X65031074Y-153276201D01*
X65031074Y-153276201D02*
X63211074Y-153276201D01*
X62671074Y-150206201D02*
X62431074Y-149876201D01*
X62911074Y-149876201D01*
X62671074Y-150206201D01*
G36*
X62671074Y-150206201D02*
G01*
X62431074Y-149876201D01*
X62911074Y-149876201D01*
X62671074Y-150206201D01*
G37*
%TO.C,R12*%
X70265000Y-157972936D02*
X70265000Y-158427064D01*
X71735000Y-157972936D02*
X71735000Y-158427064D01*
%TO.C,J8*%
X103190000Y-145190000D02*
X104460000Y-145190000D01*
%TO.C,JP1*%
X97330000Y-139400000D02*
X100130000Y-139400000D01*
X97330000Y-141400000D02*
X97330000Y-139400000D01*
X100130000Y-139400000D02*
X100130000Y-141400000D01*
X100130000Y-141400000D02*
X97330000Y-141400000D01*
%TO.C,C19*%
D13*
X56930000Y-153170000D02*
G75*
G02*
X56730000Y-153170000I-100000J0D01*
G01*
X56730000Y-153170000D02*
G75*
G02*
X56930000Y-153170000I100000J0D01*
G01*
D16*
X60830000Y-157920000D02*
G75*
G02*
X52830000Y-157920000I-4000000J0D01*
G01*
X52830000Y-157920000D02*
G75*
G02*
X60830000Y-157920000I4000000J0D01*
G01*
%TO.C,D2*%
D15*
X90760000Y-135927500D02*
X90760000Y-133727500D01*
X92710000Y-135927500D02*
X92710000Y-133727500D01*
%TO.C,R10*%
X88132936Y-173285000D02*
X88587064Y-173285000D01*
X88132936Y-174755000D02*
X88587064Y-174755000D01*
%TO.C,R9*%
X88132936Y-171185000D02*
X88587064Y-171185000D01*
X88132936Y-172655000D02*
X88587064Y-172655000D01*
%TO.C,R15*%
X65677064Y-166015000D02*
X65222936Y-166015000D01*
X65677064Y-167485000D02*
X65222936Y-167485000D01*
%TO.C,Laser1*%
D16*
X89800000Y-121025000D02*
X97200000Y-121025000D01*
X89800000Y-126775000D02*
X89800000Y-121025000D01*
X97200000Y-121025000D02*
X97200000Y-126775000D01*
X97200000Y-126775000D02*
X89800000Y-126775000D01*
D13*
X92260000Y-127380000D02*
G75*
G02*
X92060000Y-127380000I-100000J0D01*
G01*
X92060000Y-127380000D02*
G75*
G02*
X92260000Y-127380000I100000J0D01*
G01*
%TO.C,C18*%
D15*
X71538748Y-132465000D02*
X72061252Y-132465000D01*
X71538748Y-133935000D02*
X72061252Y-133935000D01*
%TO.C,R13*%
X67365000Y-153072936D02*
X67365000Y-153527064D01*
X68835000Y-153072936D02*
X68835000Y-153527064D01*
%TO.C,TP4*%
X56640000Y-164330000D02*
X58040000Y-164330000D01*
X56640000Y-165730000D02*
X56640000Y-164330000D01*
X58040000Y-164330000D02*
X58040000Y-165730000D01*
X58040000Y-165730000D02*
X56640000Y-165730000D01*
%TO.C,TP6*%
X65800000Y-164000000D02*
X67200000Y-164000000D01*
X65800000Y-165400000D02*
X65800000Y-164000000D01*
X67200000Y-164000000D02*
X67200000Y-165400000D01*
X67200000Y-165400000D02*
X65800000Y-165400000D01*
%TO.C,D3*%
D16*
X91150000Y-169070000D02*
X96150000Y-169070000D01*
X91150000Y-169570000D02*
X91150000Y-169070000D01*
X91150000Y-173570000D02*
X91150000Y-174070000D01*
X91150000Y-174070000D02*
X95867160Y-174070000D01*
X95867160Y-174070000D02*
X96150000Y-173787160D01*
X96150000Y-169570000D02*
X96150000Y-169070000D01*
X96150000Y-173787160D02*
X96150000Y-173570000D01*
D20*
X96761500Y-174237000D02*
G75*
G02*
X96380500Y-174237000I-190500J0D01*
G01*
X96380500Y-174237000D02*
G75*
G02*
X96761500Y-174237000I190500J0D01*
G01*
%TO.C,L1*%
D12*
X58010000Y-139700000D02*
X58010000Y-138600000D01*
X58010000Y-145600000D02*
X58010000Y-143500000D01*
X59010000Y-146600000D02*
X58010000Y-145600000D01*
X60010000Y-136600000D02*
X67010000Y-136600000D01*
X66010000Y-146600000D02*
X59010000Y-146600000D01*
X68010000Y-137600000D02*
X68010000Y-139700000D01*
X68010000Y-143500000D02*
X68010000Y-144600000D01*
X58010000Y-138600000D02*
G75*
G02*
X60010000Y-136600000I2000000J0D01*
G01*
X67010000Y-136600000D02*
G75*
G02*
X68010000Y-137600000I0J-1000000D01*
G01*
X68010000Y-144600000D02*
G75*
G02*
X66010000Y-146600000I-1999999J-1D01*
G01*
%TO.C,C13*%
D15*
X91861252Y-160965000D02*
X91338748Y-160965000D01*
X91861252Y-162435000D02*
X91338748Y-162435000D01*
%TO.C,TP5*%
X63760000Y-164000000D02*
X65160000Y-164000000D01*
X63760000Y-165400000D02*
X63760000Y-164000000D01*
X65160000Y-164000000D02*
X65160000Y-165400000D01*
X65160000Y-165400000D02*
X63760000Y-165400000D01*
%TO.C,C3*%
X64361252Y-148065000D02*
X63838748Y-148065000D01*
X64361252Y-149535000D02*
X63838748Y-149535000D01*
%TO.C,R5*%
X90995000Y-139637064D02*
X90995000Y-139182936D01*
X92465000Y-139637064D02*
X92465000Y-139182936D01*
%TO.C,TP3*%
X75490000Y-161890000D02*
X76890000Y-161890000D01*
X75490000Y-163290000D02*
X75490000Y-161890000D01*
X76890000Y-161890000D02*
X76890000Y-163290000D01*
X76890000Y-163290000D02*
X75490000Y-163290000D01*
%TO.C,J2*%
D16*
X100725000Y-134390000D02*
X106475000Y-134390000D01*
X100725000Y-144290000D02*
X100725000Y-134390000D01*
X106475000Y-134390000D02*
X106475000Y-144290000D01*
X106475000Y-144290000D02*
X100725000Y-144290000D01*
%TO.C,C12*%
D15*
X82650000Y-150580000D02*
X82650000Y-148580000D01*
X84790000Y-148580000D02*
X84790000Y-150580000D01*
%TO.C,TP8*%
X99470000Y-130590000D02*
X100870000Y-130590000D01*
X99470000Y-131990000D02*
X99470000Y-130590000D01*
X100870000Y-130590000D02*
X100870000Y-131990000D01*
X100870000Y-131990000D02*
X99470000Y-131990000D01*
%TO.C,M1*%
X75000000Y-145300000D02*
X77000000Y-145300000D01*
X75000000Y-148100000D02*
X75000000Y-145300000D01*
X77000000Y-145300000D02*
X77000000Y-148100000D01*
X77000000Y-148100000D02*
X75000000Y-148100000D01*
%TO.C,U3*%
D16*
X69340000Y-129527500D02*
X89660000Y-129527500D01*
X69340000Y-144767500D02*
X69340000Y-129527500D01*
X89660000Y-129527500D02*
X89660000Y-144767500D01*
X89660000Y-144767500D02*
X69340000Y-144767500D01*
D13*
X70600000Y-145747500D02*
G75*
G02*
X70400000Y-145747500I-100000J0D01*
G01*
X70400000Y-145747500D02*
G75*
G02*
X70600000Y-145747500I100000J0D01*
G01*
%TO.C,R1*%
D15*
X94665000Y-136027064D02*
X94665000Y-135572936D01*
X96135000Y-136027064D02*
X96135000Y-135572936D01*
%TO.C,C6*%
X69330000Y-154500000D02*
X69330000Y-152500000D01*
X71470000Y-152500000D02*
X71470000Y-154500000D01*
%TO.C,U5*%
X69040000Y-161710000D02*
X69135000Y-161710000D01*
X69040000Y-165830000D02*
X69040000Y-161710000D01*
X69135000Y-165830000D02*
X69040000Y-165830000D01*
X74065000Y-161710000D02*
X74160000Y-161710000D01*
X74160000Y-161710000D02*
X74160000Y-165830000D01*
X74160000Y-165830000D02*
X74065000Y-165830000D01*
X74070000Y-161170000D02*
X74400000Y-160930000D01*
X74400000Y-161410000D01*
X74070000Y-161170000D01*
G36*
X74400000Y-161410000D02*
G01*
X74070000Y-161170000D01*
X74400000Y-160930000D01*
X74400000Y-161410000D01*
G37*
%TO.C,C8*%
X71965000Y-153961252D02*
X71965000Y-153438748D01*
X73435000Y-153961252D02*
X73435000Y-153438748D01*
%TO.C,Thermistor1*%
D16*
X81500000Y-121025000D02*
X88900000Y-121025000D01*
X81500000Y-126775000D02*
X81500000Y-121025000D01*
X88900000Y-121025000D02*
X88900000Y-126775000D01*
X88900000Y-126775000D02*
X81500000Y-126775000D01*
D13*
X83210001Y-127310000D02*
X83210001Y-127310000D01*
X83210001Y-127310000D01*
X83210001Y-127310000D01*
X83210001Y-127310000D01*
X83210001Y-127310000D01*
X83210001Y-127310001D01*
X83210001Y-127310001D01*
X83210001Y-127310001D01*
X83210001Y-127310001D01*
X83210001Y-127310001D01*
X83210001Y-127310001D01*
X83210001Y-127310001D01*
X83210000Y-127310001D01*
X83210000Y-127310001D01*
X83210000Y-127310001D01*
X83210000Y-127310001D01*
X83210000Y-127310001D01*
X83210000Y-127310001D01*
X83210000Y-127310001D01*
X83210000Y-127310001D01*
X83210000Y-127310001D01*
X83210000Y-127310001D01*
X83210000Y-127310001D01*
X83210000Y-127310001D01*
X83209999Y-127310001D01*
X83209999Y-127310001D01*
X83209999Y-127310001D01*
X83209999Y-127310001D01*
X83209999Y-127310001D01*
X83209999Y-127310001D01*
X83209999Y-127310000D01*
X83209999Y-127310000D01*
X83209999Y-127310000D01*
X83209999Y-127310000D01*
X83209999Y-127310000D01*
X83209999Y-127310000D01*
X83209999Y-127310000D02*
X83209999Y-127310000D01*
X83209999Y-127310000D01*
X83209999Y-127310000D01*
X83209999Y-127310000D01*
X83209999Y-127310000D01*
X83209999Y-127310000D01*
X83209999Y-127309999D01*
X83209999Y-127309999D01*
X83209999Y-127309999D01*
X83209999Y-127309999D01*
X83209999Y-127309999D01*
X83210000Y-127309999D01*
X83210000Y-127309999D01*
X83210000Y-127309999D01*
X83210000Y-127309999D01*
X83210000Y-127309999D01*
X83210000Y-127309999D01*
X83210000Y-127309999D01*
X83210000Y-127309999D01*
X83210000Y-127309999D01*
X83210000Y-127309999D01*
X83210000Y-127309999D01*
X83210000Y-127309999D01*
X83210001Y-127309999D01*
X83210001Y-127309999D01*
X83210001Y-127309999D01*
X83210001Y-127309999D01*
X83210001Y-127309999D01*
X83210001Y-127309999D01*
X83210001Y-127310000D01*
X83210001Y-127310000D01*
X83210001Y-127310000D01*
X83210001Y-127310000D01*
X83210001Y-127310000D01*
X83210001Y-127310000D01*
X83210001Y-127310000D01*
%TO.C,R7*%
D15*
X95872936Y-141865000D02*
X96327064Y-141865000D01*
X95872936Y-143335000D02*
X96327064Y-143335000D01*
%TO.C,M2*%
X77731250Y-145289654D02*
X79731250Y-145289654D01*
X77731250Y-148089654D02*
X77731250Y-145289654D01*
X79731250Y-145289654D02*
X79731250Y-148089654D01*
X79731250Y-148089654D02*
X77731250Y-148089654D01*
%TO.C,C1*%
X57255000Y-151921252D02*
X57255000Y-151398748D01*
X58725000Y-151921252D02*
X58725000Y-151398748D01*
%TO.C,C7*%
X91065000Y-158338748D02*
X91065000Y-158861252D01*
X92535000Y-158338748D02*
X92535000Y-158861252D01*
%TO.C,C5*%
X68388748Y-146690000D02*
X69811252Y-146690000D01*
X68388748Y-148510000D02*
X69811252Y-148510000D01*
%TO.C,JP4*%
X94900000Y-157150000D02*
X96900000Y-157150000D01*
X94900000Y-159950000D02*
X94900000Y-157150000D01*
X96900000Y-157150000D02*
X96900000Y-159950000D01*
X96900000Y-159950000D02*
X94900000Y-159950000D01*
D19*
X95980000Y-160410000D02*
G75*
G02*
X95820000Y-160410000I-80000J0D01*
G01*
X95820000Y-160410000D02*
G75*
G02*
X95980000Y-160410000I80000J0D01*
G01*
%TO.C,C10*%
D15*
X95838748Y-144065000D02*
X96361252Y-144065000D01*
X95838748Y-145535000D02*
X96361252Y-145535000D01*
%TO.C,C17*%
D16*
X80960000Y-137280000D02*
G75*
G02*
X72960000Y-137280000I-4000000J0D01*
G01*
X72960000Y-137280000D02*
G75*
G02*
X80960000Y-137280000I4000000J0D01*
G01*
D13*
X77060000Y-142030000D02*
G75*
G02*
X76860000Y-142030000I-100000J0D01*
G01*
X76860000Y-142030000D02*
G75*
G02*
X77060000Y-142030000I100000J0D01*
G01*
%TO.C,C14*%
D15*
X95438748Y-160965000D02*
X95961252Y-160965000D01*
X95438748Y-162435000D02*
X95961252Y-162435000D01*
%TO.C,J3*%
D18*
X61349000Y-168052000D02*
X61349000Y-175214800D01*
X61349000Y-175214800D02*
X76995400Y-175214800D01*
X76995400Y-168052000D02*
X61349000Y-168052000D01*
X76995400Y-175214800D02*
X76995400Y-168052000D01*
%TO.C,C23*%
D15*
X74965000Y-166161252D02*
X74965000Y-165638748D01*
X76435000Y-166161252D02*
X76435000Y-165638748D01*
%TO.C,U4*%
X74140000Y-151770000D02*
X80150000Y-151770000D01*
X76390000Y-158590000D02*
X80150000Y-158590000D01*
X80150000Y-151770000D02*
X80150000Y-153030000D01*
X80150000Y-158590000D02*
X80150000Y-157330000D01*
%TO.C,R6*%
X90935000Y-130217064D02*
X90935000Y-129762936D01*
X92405000Y-130217064D02*
X92405000Y-129762936D01*
%TO.C,J5*%
D16*
X61595000Y-121130000D02*
X67345000Y-121130000D01*
X61595000Y-133530000D02*
X61595000Y-121130000D01*
X67345000Y-121130000D02*
X67345000Y-133530000D01*
X67345000Y-133530000D02*
X61595000Y-133530000D01*
D13*
X68110125Y-133089875D02*
G75*
G02*
X67909875Y-133089875I-100125J0D01*
G01*
X67909875Y-133089875D02*
G75*
G02*
X68110125Y-133089875I100125J0D01*
G01*
%TO.C,J1*%
D15*
X77390000Y-174620000D02*
X77390000Y-168120000D01*
X84490000Y-168120000D02*
X77390000Y-168120000D01*
X84490000Y-174620000D02*
X77390000Y-174620000D01*
X84490000Y-174620000D02*
X84490000Y-168120000D01*
%TO.C,Q2*%
X95290000Y-130402500D02*
X96290000Y-130402500D01*
X95290000Y-131922500D02*
X95290000Y-130402500D01*
X95340000Y-131922500D02*
X95290000Y-131922500D01*
X97240000Y-131922500D02*
X96460000Y-131922500D01*
X97410000Y-130402500D02*
X98410000Y-130402500D01*
X98410000Y-130402500D02*
X98410000Y-131922500D01*
X98410000Y-131922500D02*
X98360000Y-131922500D01*
X96470000Y-132462500D02*
X96800000Y-132222500D01*
X96800000Y-132702500D01*
X96470000Y-132462500D01*
G36*
X96800000Y-132702500D02*
G01*
X96470000Y-132462500D01*
X96800000Y-132222500D01*
X96800000Y-132702500D01*
G37*
%TO.C,M0*%
X72300000Y-145300000D02*
X74300000Y-145300000D01*
X72300000Y-148100000D02*
X72300000Y-145300000D01*
X74300000Y-145300000D02*
X74300000Y-148100000D01*
X74300000Y-148100000D02*
X72300000Y-148100000D01*
%TO.C,TP2*%
X82930000Y-145350000D02*
X84330000Y-145350000D01*
X82930000Y-146750000D02*
X82930000Y-145350000D01*
X84330000Y-145350000D02*
X84330000Y-146750000D01*
X84330000Y-146750000D02*
X82930000Y-146750000D01*
%TO.C,JP5*%
X100300000Y-157150000D02*
X102300000Y-157150000D01*
X100300000Y-159950000D02*
X100300000Y-157150000D01*
X102300000Y-157150000D02*
X102300000Y-159950000D01*
X102300000Y-159950000D02*
X100300000Y-159950000D01*
D19*
X101015000Y-160410000D02*
G75*
G02*
X100855000Y-160410000I-80000J0D01*
G01*
X100855000Y-160410000D02*
G75*
G02*
X101015000Y-160410000I80000J0D01*
G01*
X101380000Y-160410000D02*
G75*
G02*
X101220000Y-160410000I-80000J0D01*
G01*
X101220000Y-160410000D02*
G75*
G02*
X101380000Y-160410000I80000J0D01*
G01*
X101745000Y-160410000D02*
G75*
G02*
X101585000Y-160410000I-80000J0D01*
G01*
X101585000Y-160410000D02*
G75*
G02*
X101745000Y-160410000I80000J0D01*
G01*
%TO.C,R16*%
D15*
X63665000Y-157887064D02*
X63665000Y-157432936D01*
X65135000Y-157887064D02*
X65135000Y-157432936D01*
%TO.C,TP12*%
X83020000Y-152270000D02*
X84420000Y-152270000D01*
X83020000Y-153670000D02*
X83020000Y-152270000D01*
X84420000Y-152270000D02*
X84420000Y-153670000D01*
X84420000Y-153670000D02*
X83020000Y-153670000D01*
%TO.C,R17*%
X61395000Y-157422936D02*
X61395000Y-157877064D01*
X62865000Y-157422936D02*
X62865000Y-157877064D01*
%TO.C,TP1*%
X59100000Y-164340000D02*
X60500000Y-164340000D01*
X59100000Y-165740000D02*
X59100000Y-164340000D01*
X60500000Y-164340000D02*
X60500000Y-165740000D01*
X60500000Y-165740000D02*
X59100000Y-165740000D01*
%TD*%
M02*
