%TF.GenerationSoftware,KiCad,Pcbnew,10.0.3*%
%TF.CreationDate,2026-07-04T15:13:09+05:30*%
%TF.ProjectId,Urumi-Nema-17-Node,5572756d-692d-44e6-956d-612d31372d4e,rev?*%
%TF.SameCoordinates,Original*%
%TF.FileFunction,Copper,L2,Bot*%
%TF.FilePolarity,Positive*%
%FSLAX46Y46*%
G04 Gerber Fmt 4.6, Leading zero omitted, Abs format (unit mm)*
G04 Created by KiCad (PCBNEW 10.0.3) date 2026-07-04 15:13:09*
%MOMM*%
%LPD*%
G01*
G04 APERTURE LIST*
%TA.AperFunction,ComponentPad*%
%ADD10R,1.800000X1.800000*%
%TD*%
%TA.AperFunction,ComponentPad*%
%ADD11C,1.750000*%
%TD*%
%TA.AperFunction,ComponentPad*%
%ADD12C,3.300000*%
%TD*%
%TA.AperFunction,ComponentPad*%
%ADD13C,2.400000*%
%TD*%
%TA.AperFunction,ComponentPad*%
%ADD14R,2.200000X2.200000*%
%TD*%
%TA.AperFunction,ComponentPad*%
%ADD15R,1.850000X1.850000*%
%TD*%
%TA.AperFunction,ComponentPad*%
%ADD16R,1.508000X1.508000*%
%TD*%
%TA.AperFunction,ComponentPad*%
%ADD17C,1.508000*%
%TD*%
%TA.AperFunction,ComponentPad*%
%ADD18R,1.650000X1.650000*%
%TD*%
%TA.AperFunction,ComponentPad*%
%ADD19C,1.650000*%
%TD*%
%TA.AperFunction,ComponentPad*%
%ADD20C,2.000000*%
%TD*%
%TA.AperFunction,ComponentPad*%
%ADD21R,2.000000X2.000000*%
%TD*%
%TA.AperFunction,ComponentPad*%
%ADD22C,3.000000*%
%TD*%
%TA.AperFunction,ComponentPad*%
%ADD23R,3.000000X3.000000*%
%TD*%
%TA.AperFunction,ViaPad*%
%ADD24C,0.812800*%
%TD*%
%TA.AperFunction,Conductor*%
%ADD25C,0.812800*%
%TD*%
%TA.AperFunction,Conductor*%
%ADD26C,0.406400*%
%TD*%
%TA.AperFunction,Conductor*%
%ADD27C,0.609600*%
%TD*%
%TA.AperFunction,Conductor*%
%ADD28C,0.254000*%
%TD*%
%TA.AperFunction,Conductor*%
%ADD29C,0.203200*%
%TD*%
G04 APERTURE END LIST*
D10*
%TO.P,J4,1,1_1*%
%TO.N,B2*%
X70770000Y-123455000D03*
D11*
%TO.P,J4,2,2_2*%
%TO.N,B1*%
X73270000Y-123455000D03*
%TO.P,J4,3,3_3*%
%TO.N,A1*%
X75770000Y-123455000D03*
%TO.P,J4,4,4_4*%
%TO.N,A2*%
X78270000Y-123455000D03*
%TD*%
D12*
%TO.P,H1,*%
%TO.N,*%
X104910000Y-163870000D03*
%TD*%
D13*
%TO.P,C19,N,~_N*%
%TO.N,PWR_GND*%
X56830000Y-160420000D03*
D14*
%TO.P,C19,P,~_P*%
%TO.N,PWR_24V*%
X56830000Y-155420000D03*
%TD*%
D15*
%TO.P,Laser1,1,1_1*%
%TO.N,PWR_5V*%
X92250000Y-123375000D03*
D11*
%TO.P,Laser1,2,2_2*%
%TO.N,Net-(Q2-C)*%
X94750000Y-123375000D03*
%TD*%
D12*
%TO.P,H4,*%
%TO.N,*%
X53910000Y-132070000D03*
%TD*%
D16*
%TO.P,J2,1,1_1*%
%TO.N,PWR_GND*%
X104125000Y-136840000D03*
D17*
%TO.P,J2,2,2_2*%
%TO.N,LIMIT_SWITCH*%
X104125000Y-139340000D03*
%TO.P,J2,3,3_3*%
%TO.N,PWR_5V*%
X104125000Y-141840000D03*
%TD*%
D18*
%TO.P,U3,1,~{EN}_1*%
%TO.N,EN*%
X70610000Y-143497500D03*
D19*
%TO.P,U3,2,M0_2*%
%TO.N,/M0*%
X73150000Y-143497500D03*
%TO.P,U3,3,M1_3*%
%TO.N,/M1*%
X75690000Y-143497500D03*
%TO.P,U3,4,M2_4*%
%TO.N,/M2*%
X78230000Y-143497500D03*
%TO.P,U3,5,~{RST}_5*%
%TO.N,PWR_5V*%
X80770000Y-143497500D03*
%TO.P,U3,6,~{SLP}_6*%
X83310000Y-143497500D03*
%TO.P,U3,7,STEP_7*%
%TO.N,PULSE{slash}STEP*%
X85850000Y-143497500D03*
%TO.P,U3,8,DIR_8*%
%TO.N,DIR*%
X88390000Y-143497500D03*
%TO.P,U3,9,GND_9*%
%TO.N,PWR_GND*%
X88390000Y-130797500D03*
%TO.P,U3,10,~{FLT}_10*%
%TO.N,FAULT*%
X85850000Y-130797500D03*
%TO.P,U3,11,A2_11*%
%TO.N,A2*%
X83310000Y-130797500D03*
%TO.P,U3,12,A1_12*%
%TO.N,A1*%
X80770000Y-130797500D03*
%TO.P,U3,13,B1_13*%
%TO.N,B1*%
X78230000Y-130797500D03*
%TO.P,U3,14,B2_14*%
%TO.N,B2*%
X75690000Y-130797500D03*
%TO.P,U3,15,GND_MOT_15*%
%TO.N,PWR_GND*%
X73150000Y-130797500D03*
%TO.P,U3,16,VMOT_16*%
%TO.N,PWR_24V*%
X70610000Y-130797500D03*
%TD*%
D15*
%TO.P,Thermistor1,1,1_1*%
%TO.N,PWR_GND*%
X83950000Y-123375000D03*
D11*
%TO.P,Thermistor1,2,2_2*%
%TO.N,Thermistor*%
X86450000Y-123375000D03*
%TD*%
D12*
%TO.P,H3,*%
%TO.N,*%
X53910000Y-163870000D03*
%TD*%
D20*
%TO.P,C17,N,~_N*%
%TO.N,PWR_GND*%
X76960000Y-134780000D03*
D21*
%TO.P,C17,P,~_P*%
%TO.N,PWR_24V*%
X76960000Y-139780000D03*
%TD*%
D22*
%TO.P,J3,1*%
%TO.N,B*%
X74430000Y-171100000D03*
%TO.P,J3,2*%
%TO.N,A*%
X70924800Y-171100000D03*
%TO.P,J3,3*%
%TO.N,B*%
X67419600Y-171100000D03*
%TO.P,J3,4*%
%TO.N,A*%
X63939800Y-171100000D03*
%TD*%
D16*
%TO.P,J5,1,1_1*%
%TO.N,EN*%
X63945000Y-131080000D03*
D17*
%TO.P,J5,2,2_2*%
%TO.N,PULSE{slash}STEP*%
X63945000Y-128580000D03*
%TO.P,J5,3,3_3*%
%TO.N,DIR*%
X63945000Y-126080000D03*
%TO.P,J5,4,4_4*%
%TO.N,PWR_GND*%
X63945000Y-123580000D03*
%TD*%
D23*
%TO.P,J1,1,Pin_1_1*%
%TO.N,PWR_24V*%
X82690000Y-171920000D03*
D22*
%TO.P,J1,2,Pin_2_2*%
%TO.N,PWR_GND*%
X79190000Y-171920000D03*
%TD*%
D12*
%TO.P,H2,*%
%TO.N,*%
X104910000Y-132070000D03*
%TD*%
D24*
%TO.N,PWR_24V*%
X66750000Y-134410000D03*
X63310000Y-135190000D03*
%TO.N,PWR_GND*%
X94320000Y-173030000D03*
X105400000Y-143700000D03*
X98200000Y-161700000D03*
X91140000Y-142030000D03*
X92900000Y-153800000D03*
X68100000Y-159400000D03*
X81591691Y-160166600D03*
X98285600Y-144800000D03*
X89700000Y-150500000D03*
X69100000Y-168300000D03*
X69200000Y-145500000D03*
X69290000Y-157250000D03*
%TO.N,/DIP2*%
X96180000Y-156170000D03*
X94870000Y-153740000D03*
%TO.N,PWR_5V*%
X82380000Y-169040000D03*
X83470000Y-137210000D03*
X87100000Y-162300000D03*
X103300000Y-159100000D03*
%TO.N,Thermistor*%
X93270000Y-126490000D03*
X90930000Y-126360000D03*
%TO.N,PULSE{slash}STEP*%
X72210000Y-135610000D03*
X68790000Y-134990000D03*
%TO.N,DIR*%
X88380000Y-140640000D03*
%TO.N,RED_LED*%
X89800000Y-153800000D03*
X87700000Y-155300000D03*
%TO.N,RST*%
X80830000Y-165790000D03*
X84700000Y-163200000D03*
%TO.N,UPDI*%
X100300000Y-147200000D03*
X91100000Y-150800000D03*
%TO.N,Net-(U2-SW)*%
X61600000Y-151800000D03*
X61500000Y-149100000D03*
%TO.N,/Buck Converter/EN*%
X66350000Y-160380000D03*
X66400000Y-151700000D03*
%TD*%
%TO.N,PWR_24V*%
D25*
X65970000Y-135190000D02*
X63310000Y-135190000D01*
X66750000Y-134410000D02*
X65970000Y-135190000D01*
%TO.N,/DIP2*%
D26*
X94870000Y-154860000D02*
X96180000Y-156170000D01*
X94870000Y-153740000D02*
X94870000Y-154860000D01*
%TO.N,PWR_5V*%
D27*
X87100000Y-162300000D02*
X87100000Y-168410000D01*
X86410000Y-169040000D02*
X86470000Y-169040000D01*
X87730000Y-169040000D02*
X92830000Y-169040000D01*
X102770000Y-159100000D02*
X103300000Y-159100000D01*
D28*
X83310000Y-137490000D02*
X83310000Y-137370000D01*
D27*
X92830000Y-169040000D02*
X102770000Y-159100000D01*
X87100000Y-168990000D02*
X87050000Y-169040000D01*
X86470000Y-169040000D02*
X87100000Y-168410000D01*
D28*
X83310000Y-137370000D02*
X83470000Y-137210000D01*
D27*
X87100000Y-168410000D02*
X87100000Y-168990000D01*
X83310000Y-143497500D02*
X83310000Y-137490000D01*
X87050000Y-169040000D02*
X87730000Y-169040000D01*
X86410000Y-169040000D02*
X87050000Y-169040000D01*
X87100000Y-168410000D02*
X87730000Y-169040000D01*
X82380000Y-169040000D02*
X86410000Y-169040000D01*
%TO.N,Thermistor*%
D28*
X93270000Y-126490000D02*
X91060000Y-126490000D01*
X91060000Y-126490000D02*
X90930000Y-126360000D01*
%TO.N,PULSE{slash}STEP*%
D26*
X71800000Y-135200000D02*
X72210000Y-135610000D01*
X68790000Y-134990000D02*
X69000000Y-135200000D01*
X69000000Y-135200000D02*
X71800000Y-135200000D01*
%TO.N,DIR*%
X88380000Y-143487500D02*
X88390000Y-143497500D01*
X88380000Y-140640000D02*
X88380000Y-143487500D01*
%TO.N,RED_LED*%
D28*
X89800000Y-153800000D02*
X88300000Y-155300000D01*
X88300000Y-155300000D02*
X87700000Y-155300000D01*
%TO.N,RST*%
D29*
X84700000Y-163200000D02*
X82110000Y-165790000D01*
X82110000Y-165790000D02*
X80830000Y-165790000D01*
%TO.N,UPDI*%
D28*
X94700000Y-147200000D02*
X91100000Y-150800000D01*
X100300000Y-147200000D02*
X94700000Y-147200000D01*
%TO.N,Net-(U2-SW)*%
D29*
X61500000Y-149100000D02*
X61500000Y-151700000D01*
X61500000Y-151700000D02*
X61600000Y-151800000D01*
%TO.N,/Buck Converter/EN*%
D28*
X66360000Y-151740000D02*
X66400000Y-151700000D01*
X66350000Y-160380000D02*
X66350000Y-160230000D01*
X66360000Y-160220000D02*
X66360000Y-151740000D01*
X66350000Y-160230000D02*
X66360000Y-160220000D01*
%TO.N,A*%
D26*
X65000000Y-173250000D02*
X63939800Y-172189800D01*
X63939800Y-172189800D02*
X63939800Y-171100000D01*
X70924800Y-171100000D02*
X70924800Y-172425200D01*
X70924800Y-172425200D02*
X70100000Y-173250000D01*
X70100000Y-173250000D02*
X65000000Y-173250000D01*
%TD*%
%TA.AperFunction,Conductor*%
%TO.N,PWR_GND*%
G36*
X96864853Y-120575681D02*
G01*
X97037168Y-120589243D01*
X97056377Y-120592286D01*
X97219699Y-120631496D01*
X97238191Y-120637504D01*
X97361256Y-120688480D01*
X97393367Y-120701781D01*
X97410704Y-120710615D01*
X97553904Y-120798368D01*
X97569645Y-120809805D01*
X97697358Y-120918882D01*
X97711117Y-120932641D01*
X97820194Y-121060354D01*
X97831631Y-121076095D01*
X97919384Y-121219295D01*
X97928218Y-121236632D01*
X97992492Y-121391801D01*
X97998505Y-121410307D01*
X98037712Y-121573617D01*
X98040756Y-121592834D01*
X98054318Y-121765145D01*
X98054700Y-121774875D01*
X98054700Y-124479099D01*
X98089231Y-124895832D01*
X98158062Y-125308308D01*
X98158063Y-125308312D01*
X98260719Y-125713693D01*
X98260721Y-125713700D01*
X98260723Y-125713706D01*
X98396502Y-126109216D01*
X98447494Y-126225466D01*
X98545687Y-126449324D01*
X98564479Y-126492164D01*
X98564480Y-126492168D01*
X98763512Y-126859946D01*
X98879112Y-127036884D01*
X98961954Y-127163684D01*
X98992238Y-127210036D01*
X98992248Y-127210050D01*
X99249074Y-127540020D01*
X99249082Y-127540029D01*
X99532306Y-127847693D01*
X99839970Y-128130917D01*
X99839979Y-128130925D01*
X100169949Y-128387751D01*
X100169963Y-128387761D01*
X100169971Y-128387767D01*
X100520055Y-128616488D01*
X100887831Y-128815519D01*
X101270787Y-128983499D01*
X101666307Y-129119281D01*
X102071688Y-129221937D01*
X102381617Y-129273655D01*
X102484167Y-129290768D01*
X102846190Y-129320765D01*
X102900911Y-129325300D01*
X103069807Y-129325300D01*
X105561645Y-129325300D01*
X105605125Y-129325300D01*
X105614853Y-129325681D01*
X105787168Y-129339243D01*
X105806377Y-129342286D01*
X105969699Y-129381496D01*
X105988191Y-129387504D01*
X106111256Y-129438480D01*
X106143367Y-129451781D01*
X106160704Y-129460615D01*
X106303904Y-129548368D01*
X106319645Y-129559805D01*
X106447358Y-129668882D01*
X106461117Y-129682641D01*
X106570194Y-129810354D01*
X106581631Y-129826095D01*
X106669384Y-129969295D01*
X106678218Y-129986632D01*
X106742492Y-130141801D01*
X106748505Y-130160307D01*
X106787712Y-130323617D01*
X106790756Y-130342834D01*
X106804318Y-130515145D01*
X106804700Y-130524875D01*
X106804700Y-130641347D01*
X106785015Y-130708386D01*
X106732211Y-130754141D01*
X106663053Y-130764085D01*
X106599497Y-130735060D01*
X106582324Y-130716834D01*
X106575842Y-130708386D01*
X106530300Y-130649035D01*
X106530298Y-130649033D01*
X106530295Y-130649029D01*
X106330970Y-130449704D01*
X106323466Y-130443946D01*
X106107317Y-130278088D01*
X106107311Y-130278084D01*
X106107309Y-130278083D01*
X105863190Y-130137140D01*
X105863179Y-130137135D01*
X105602743Y-130029259D01*
X105330439Y-129956295D01*
X105050958Y-129919500D01*
X105050951Y-129919500D01*
X104769049Y-129919500D01*
X104769041Y-129919500D01*
X104489560Y-129956295D01*
X104217256Y-130029259D01*
X103956820Y-130137135D01*
X103956809Y-130137140D01*
X103712690Y-130278083D01*
X103712684Y-130278087D01*
X103712683Y-130278088D01*
X103712632Y-130278127D01*
X103489029Y-130449704D01*
X103289704Y-130649029D01*
X103118089Y-130872682D01*
X103118083Y-130872690D01*
X102977140Y-131116809D01*
X102977135Y-131116820D01*
X102869259Y-131377256D01*
X102796295Y-131649560D01*
X102759500Y-131929041D01*
X102759500Y-132210958D01*
X102796295Y-132490439D01*
X102869259Y-132762743D01*
X102977135Y-133023179D01*
X102977140Y-133023190D01*
X103118083Y-133267309D01*
X103118088Y-133267317D01*
X103289700Y-133490965D01*
X103289704Y-133490970D01*
X103489029Y-133690295D01*
X103489033Y-133690298D01*
X103489035Y-133690300D01*
X103712683Y-133861912D01*
X103712690Y-133861916D01*
X103956809Y-134002859D01*
X103956814Y-134002861D01*
X103956817Y-134002863D01*
X104217261Y-134110742D01*
X104489558Y-134183704D01*
X104769049Y-134220500D01*
X104769056Y-134220500D01*
X105050944Y-134220500D01*
X105050951Y-134220500D01*
X105330442Y-134183704D01*
X105602739Y-134110742D01*
X105863183Y-134002863D01*
X106107317Y-133861912D01*
X106330965Y-133690300D01*
X106530300Y-133490965D01*
X106582324Y-133423165D01*
X106638751Y-133381963D01*
X106708497Y-133377808D01*
X106769418Y-133412020D01*
X106802171Y-133473737D01*
X106804700Y-133498652D01*
X106804700Y-162441347D01*
X106785015Y-162508386D01*
X106732211Y-162554141D01*
X106663053Y-162564085D01*
X106599497Y-162535060D01*
X106582324Y-162516834D01*
X106530295Y-162449029D01*
X106330970Y-162249704D01*
X106330965Y-162249700D01*
X106107317Y-162078088D01*
X106107311Y-162078084D01*
X106107309Y-162078083D01*
X105863190Y-161937140D01*
X105863179Y-161937135D01*
X105602743Y-161829259D01*
X105330439Y-161756295D01*
X105050958Y-161719500D01*
X105050951Y-161719500D01*
X104769049Y-161719500D01*
X104769041Y-161719500D01*
X104489560Y-161756295D01*
X104217256Y-161829259D01*
X103956820Y-161937135D01*
X103956809Y-161937140D01*
X103712690Y-162078083D01*
X103712684Y-162078087D01*
X103712683Y-162078088D01*
X103650485Y-162125814D01*
X103489029Y-162249704D01*
X103289704Y-162449029D01*
X103118089Y-162672682D01*
X103118083Y-162672690D01*
X102977140Y-162916809D01*
X102977135Y-162916820D01*
X102869259Y-163177256D01*
X102796295Y-163449560D01*
X102759500Y-163729041D01*
X102759500Y-164010958D01*
X102796295Y-164290439D01*
X102869259Y-164562743D01*
X102977135Y-164823179D01*
X102977140Y-164823190D01*
X103118083Y-165067309D01*
X103118088Y-165067317D01*
X103289700Y-165290965D01*
X103289704Y-165290970D01*
X103489029Y-165490295D01*
X103489033Y-165490298D01*
X103489035Y-165490300D01*
X103712683Y-165661912D01*
X103712690Y-165661916D01*
X103956809Y-165802859D01*
X103956814Y-165802861D01*
X103956817Y-165802863D01*
X104217261Y-165910742D01*
X104489558Y-165983704D01*
X104769049Y-166020500D01*
X104769056Y-166020500D01*
X105050944Y-166020500D01*
X105050951Y-166020500D01*
X105330442Y-165983704D01*
X105602739Y-165910742D01*
X105863183Y-165802863D01*
X106107317Y-165661912D01*
X106330965Y-165490300D01*
X106530300Y-165290965D01*
X106582324Y-165223165D01*
X106606540Y-165205483D01*
X106629189Y-165185858D01*
X106634453Y-165185101D01*
X106638751Y-165181963D01*
X106668676Y-165180180D01*
X106698347Y-165175914D01*
X106703186Y-165178124D01*
X106708497Y-165177808D01*
X106734630Y-165192484D01*
X106761903Y-165204939D01*
X106764779Y-165209415D01*
X106769418Y-165212020D01*
X106783469Y-165238497D01*
X106799677Y-165263717D01*
X106800726Y-165271014D01*
X106802171Y-165273737D01*
X106804700Y-165298652D01*
X106804700Y-165415123D01*
X106804318Y-165424852D01*
X106790756Y-165597164D01*
X106787712Y-165616382D01*
X106748505Y-165779692D01*
X106742492Y-165798198D01*
X106678219Y-165953365D01*
X106669386Y-165970701D01*
X106581632Y-166113905D01*
X106570194Y-166129648D01*
X106461117Y-166257359D01*
X106447359Y-166271117D01*
X106319648Y-166380194D01*
X106303905Y-166391632D01*
X106160701Y-166479386D01*
X106143365Y-166488219D01*
X105988198Y-166552492D01*
X105969692Y-166558505D01*
X105806382Y-166597712D01*
X105787165Y-166600756D01*
X105642152Y-166612169D01*
X105614851Y-166614318D01*
X105605124Y-166614700D01*
X102900901Y-166614700D01*
X102484168Y-166649231D01*
X102071692Y-166718062D01*
X102071688Y-166718063D01*
X101926683Y-166754783D01*
X101666307Y-166820719D01*
X101666301Y-166820720D01*
X101666293Y-166820723D01*
X101270784Y-166956502D01*
X100887836Y-167124479D01*
X100887832Y-167124480D01*
X100520048Y-167323516D01*
X100169974Y-167552230D01*
X100169949Y-167552248D01*
X99839979Y-167809074D01*
X99839970Y-167809082D01*
X99532306Y-168092306D01*
X99249082Y-168399970D01*
X99249074Y-168399979D01*
X98992248Y-168729949D01*
X98992230Y-168729974D01*
X98763516Y-169080048D01*
X98564480Y-169447832D01*
X98564479Y-169447836D01*
X98396502Y-169830784D01*
X98260723Y-170226293D01*
X98260720Y-170226301D01*
X98260719Y-170226307D01*
X98211417Y-170420996D01*
X98158063Y-170631688D01*
X98158062Y-170631692D01*
X98089231Y-171044168D01*
X98054700Y-171460901D01*
X98054700Y-174165123D01*
X98054318Y-174174852D01*
X98040756Y-174347164D01*
X98037712Y-174366382D01*
X97998505Y-174529692D01*
X97992492Y-174548198D01*
X97928219Y-174703365D01*
X97919386Y-174720701D01*
X97831632Y-174863905D01*
X97820194Y-174879648D01*
X97711117Y-175007359D01*
X97697359Y-175021117D01*
X97569648Y-175130194D01*
X97553905Y-175141632D01*
X97410701Y-175229386D01*
X97393365Y-175238219D01*
X97238198Y-175302492D01*
X97219692Y-175308505D01*
X97056382Y-175347712D01*
X97037165Y-175350756D01*
X96892152Y-175362169D01*
X96864851Y-175364318D01*
X96855124Y-175364700D01*
X61964876Y-175364700D01*
X61955147Y-175364318D01*
X61782835Y-175350756D01*
X61763617Y-175347712D01*
X61600307Y-175308505D01*
X61581801Y-175302492D01*
X61426634Y-175238219D01*
X61409298Y-175229386D01*
X61266094Y-175141632D01*
X61250351Y-175130194D01*
X61122640Y-175021117D01*
X61108882Y-175007359D01*
X60999805Y-174879648D01*
X60988367Y-174863905D01*
X60900613Y-174720701D01*
X60891780Y-174703365D01*
X60827504Y-174548191D01*
X60821496Y-174529699D01*
X60782286Y-174366377D01*
X60779243Y-174347164D01*
X60774612Y-174288325D01*
X60765682Y-174174852D01*
X60765300Y-174165123D01*
X60765300Y-171460916D01*
X60765299Y-171460901D01*
X60730768Y-171044168D01*
X60720933Y-170985231D01*
X60718203Y-170968872D01*
X61939300Y-170968872D01*
X61939300Y-171231127D01*
X61958410Y-171376274D01*
X61973530Y-171491116D01*
X62034019Y-171716865D01*
X62041402Y-171744418D01*
X62041405Y-171744428D01*
X62141753Y-171986690D01*
X62141758Y-171986700D01*
X62272875Y-172213803D01*
X62432518Y-172421851D01*
X62432526Y-172421860D01*
X62617940Y-172607274D01*
X62617948Y-172607281D01*
X62825996Y-172766924D01*
X63053099Y-172898041D01*
X63053109Y-172898046D01*
X63295371Y-172998394D01*
X63295381Y-172998398D01*
X63548684Y-173066270D01*
X63808680Y-173100500D01*
X63808689Y-173100500D01*
X63812013Y-173100718D01*
X63877623Y-173124742D01*
X63891590Y-173136772D01*
X64450274Y-173695456D01*
X64450303Y-173695487D01*
X64551414Y-173796598D01*
X64651982Y-173863795D01*
X64651983Y-173863795D01*
X64651984Y-173863796D01*
X64666673Y-173873611D01*
X64696049Y-173885779D01*
X64779873Y-173920500D01*
X64794738Y-173926657D01*
X64794742Y-173926657D01*
X64794743Y-173926658D01*
X64930688Y-173953700D01*
X64930691Y-173953700D01*
X64930692Y-173953700D01*
X70024558Y-173953700D01*
X70024578Y-173953701D01*
X70030692Y-173953701D01*
X70169310Y-173953701D01*
X70260768Y-173935507D01*
X70305262Y-173926657D01*
X70433327Y-173873611D01*
X70448016Y-173863796D01*
X70548583Y-173796600D01*
X70646600Y-173698583D01*
X70646601Y-173698581D01*
X70653667Y-173691515D01*
X70653670Y-173691511D01*
X71243539Y-173101641D01*
X71304860Y-173068158D01*
X71315035Y-173066385D01*
X71315916Y-173066270D01*
X71569219Y-172998398D01*
X71811497Y-172898043D01*
X72038603Y-172766924D01*
X72246651Y-172607282D01*
X72246655Y-172607277D01*
X72246660Y-172607274D01*
X72432074Y-172421860D01*
X72432077Y-172421855D01*
X72432082Y-172421851D01*
X72579025Y-172230353D01*
X72635453Y-172189151D01*
X72705199Y-172184996D01*
X72766119Y-172219209D01*
X72775775Y-172230353D01*
X72922718Y-172421851D01*
X72922726Y-172421860D01*
X73108140Y-172607274D01*
X73108148Y-172607281D01*
X73316196Y-172766924D01*
X73543299Y-172898041D01*
X73543309Y-172898046D01*
X73785571Y-172998394D01*
X73785581Y-172998398D01*
X74038884Y-173066270D01*
X74298880Y-173100500D01*
X74298887Y-173100500D01*
X74561113Y-173100500D01*
X74561120Y-173100500D01*
X74821116Y-173066270D01*
X75074419Y-172998398D01*
X75316697Y-172898043D01*
X75543803Y-172766924D01*
X75751851Y-172607282D01*
X75751855Y-172607277D01*
X75751860Y-172607274D01*
X75937274Y-172421860D01*
X75937277Y-172421855D01*
X75937282Y-172421851D01*
X76096924Y-172213803D01*
X76228043Y-171986697D01*
X76309971Y-171788905D01*
X77190000Y-171788905D01*
X77190000Y-172051094D01*
X77224220Y-172311009D01*
X77224222Y-172311020D01*
X77292075Y-172564255D01*
X77392404Y-172806471D01*
X77392409Y-172806482D01*
X77523488Y-173033516D01*
X77523494Y-173033524D01*
X77610080Y-173146365D01*
X78550689Y-172205756D01*
X78569668Y-172251574D01*
X78646274Y-172366224D01*
X78743776Y-172463726D01*
X78858426Y-172540332D01*
X78904241Y-172559309D01*
X77963633Y-173499917D01*
X77963633Y-173499918D01*
X78076475Y-173586505D01*
X78076483Y-173586511D01*
X78303517Y-173717590D01*
X78303528Y-173717595D01*
X78545744Y-173817924D01*
X78798979Y-173885777D01*
X78798990Y-173885779D01*
X79058905Y-173919999D01*
X79058920Y-173920000D01*
X79321080Y-173920000D01*
X79321094Y-173919999D01*
X79581009Y-173885779D01*
X79581020Y-173885777D01*
X79834255Y-173817924D01*
X80076471Y-173717595D01*
X80076482Y-173717590D01*
X80303528Y-173586503D01*
X80496694Y-173438283D01*
X80561863Y-173413089D01*
X80630308Y-173427127D01*
X80680297Y-173475941D01*
X80695469Y-173523399D01*
X80695908Y-173527480D01*
X80746202Y-173662328D01*
X80746206Y-173662335D01*
X80832452Y-173777544D01*
X80832455Y-173777547D01*
X80947664Y-173863793D01*
X80947671Y-173863797D01*
X81082517Y-173914091D01*
X81082516Y-173914091D01*
X81089444Y-173914835D01*
X81142127Y-173920500D01*
X84237872Y-173920499D01*
X84297483Y-173914091D01*
X84432331Y-173863796D01*
X84547546Y-173777546D01*
X84633796Y-173662331D01*
X84684091Y-173527483D01*
X84690500Y-173467873D01*
X84690499Y-170372128D01*
X84684091Y-170312517D01*
X84633796Y-170177669D01*
X84633795Y-170177668D01*
X84633793Y-170177664D01*
X84547547Y-170062455D01*
X84542073Y-170056981D01*
X84508588Y-169995658D01*
X84513572Y-169925966D01*
X84555444Y-169870033D01*
X84620908Y-169845616D01*
X84629754Y-169845300D01*
X86330685Y-169845300D01*
X86390680Y-169845300D01*
X86390685Y-169845301D01*
X86549315Y-169845301D01*
X86549320Y-169845300D01*
X86964551Y-169845300D01*
X86964571Y-169845301D01*
X86970685Y-169845301D01*
X87135429Y-169845301D01*
X87135449Y-169845300D01*
X87650680Y-169845300D01*
X87650685Y-169845301D01*
X87809316Y-169845301D01*
X87809321Y-169845300D01*
X92744551Y-169845300D01*
X92744571Y-169845301D01*
X92750685Y-169845301D01*
X92909317Y-169845301D01*
X93013982Y-169824480D01*
X93064897Y-169814353D01*
X93211453Y-169753648D01*
X93226341Y-169743700D01*
X93343349Y-169665518D01*
X93455518Y-169553349D01*
X93455519Y-169553347D01*
X93462585Y-169546281D01*
X93462588Y-169546277D01*
X102989728Y-160019136D01*
X103051049Y-159985653D01*
X103101596Y-159985202D01*
X103189454Y-160002678D01*
X103210677Y-160006900D01*
X103210678Y-160006900D01*
X103389324Y-160006900D01*
X103507198Y-159983452D01*
X103564533Y-159972048D01*
X103729578Y-159903684D01*
X103878115Y-159804435D01*
X104004435Y-159678115D01*
X104103684Y-159529578D01*
X104172048Y-159364533D01*
X104206900Y-159189322D01*
X104206900Y-159010678D01*
X104206900Y-159010675D01*
X104172049Y-158835472D01*
X104172048Y-158835471D01*
X104172048Y-158835467D01*
X104103684Y-158670422D01*
X104103683Y-158670421D01*
X104103680Y-158670415D01*
X104004435Y-158521885D01*
X104004432Y-158521881D01*
X103878118Y-158395567D01*
X103878114Y-158395564D01*
X103729584Y-158296319D01*
X103729575Y-158296314D01*
X103564533Y-158227952D01*
X103564527Y-158227950D01*
X103389324Y-158193100D01*
X103389322Y-158193100D01*
X103210678Y-158193100D01*
X103210676Y-158193100D01*
X103035472Y-158227950D01*
X103035466Y-158227952D01*
X102897113Y-158285260D01*
X102849660Y-158294699D01*
X102690683Y-158294699D01*
X102535108Y-158325645D01*
X102535098Y-158325648D01*
X102388553Y-158386348D01*
X102388540Y-158386355D01*
X102256652Y-158474480D01*
X102209252Y-158521881D01*
X102144482Y-158586651D01*
X102144479Y-158586654D01*
X92532753Y-168198381D01*
X92471430Y-168231866D01*
X92445072Y-168234700D01*
X88114929Y-168234700D01*
X88085488Y-168226055D01*
X88055502Y-168219532D01*
X88050486Y-168215777D01*
X88047890Y-168215015D01*
X88027248Y-168198381D01*
X87941619Y-168112752D01*
X87908134Y-168051429D01*
X87905300Y-168025071D01*
X87905300Y-162750341D01*
X87914739Y-162702888D01*
X87972048Y-162564533D01*
X87995022Y-162449035D01*
X88006900Y-162389324D01*
X88006900Y-162210675D01*
X87972049Y-162035472D01*
X87972048Y-162035471D01*
X87972048Y-162035467D01*
X87903684Y-161870422D01*
X87903683Y-161870421D01*
X87903680Y-161870415D01*
X87804435Y-161721885D01*
X87804432Y-161721881D01*
X87678118Y-161595567D01*
X87678114Y-161595564D01*
X87529584Y-161496319D01*
X87529575Y-161496314D01*
X87364533Y-161427952D01*
X87364527Y-161427950D01*
X87189324Y-161393100D01*
X87189322Y-161393100D01*
X87010678Y-161393100D01*
X87010676Y-161393100D01*
X86835472Y-161427950D01*
X86835466Y-161427952D01*
X86670424Y-161496314D01*
X86670415Y-161496319D01*
X86521885Y-161595564D01*
X86521881Y-161595567D01*
X86395567Y-161721881D01*
X86395564Y-161721885D01*
X86296319Y-161870415D01*
X86296314Y-161870424D01*
X86227952Y-162035466D01*
X86227950Y-162035472D01*
X86193100Y-162210675D01*
X86193100Y-162210678D01*
X86193100Y-162389322D01*
X86193100Y-162389324D01*
X86193099Y-162389324D01*
X86227950Y-162564527D01*
X86227952Y-162564533D01*
X86272749Y-162672683D01*
X86285261Y-162702888D01*
X86294700Y-162750341D01*
X86294700Y-168025070D01*
X86286056Y-168054506D01*
X86279533Y-168084496D01*
X86275777Y-168089513D01*
X86275015Y-168092109D01*
X86258382Y-168112751D01*
X86172753Y-168198381D01*
X86111430Y-168231866D01*
X86085071Y-168234700D01*
X82830342Y-168234700D01*
X82782889Y-168225261D01*
X82644533Y-168167952D01*
X82644527Y-168167950D01*
X82469324Y-168133100D01*
X82469322Y-168133100D01*
X82290678Y-168133100D01*
X82290676Y-168133100D01*
X82115472Y-168167950D01*
X82115466Y-168167952D01*
X81950424Y-168236314D01*
X81950415Y-168236319D01*
X81801885Y-168335564D01*
X81801881Y-168335567D01*
X81675567Y-168461881D01*
X81675564Y-168461885D01*
X81576319Y-168610415D01*
X81576314Y-168610424D01*
X81507952Y-168775466D01*
X81507950Y-168775472D01*
X81473100Y-168950675D01*
X81473100Y-168950678D01*
X81473100Y-169129322D01*
X81473100Y-169129324D01*
X81473099Y-169129324D01*
X81507950Y-169304527D01*
X81507952Y-169304533D01*
X81576314Y-169469575D01*
X81576319Y-169469584D01*
X81675564Y-169618114D01*
X81675567Y-169618118D01*
X81765268Y-169707819D01*
X81798753Y-169769142D01*
X81793769Y-169838834D01*
X81751897Y-169894767D01*
X81686433Y-169919184D01*
X81677587Y-169919500D01*
X81142129Y-169919500D01*
X81142123Y-169919501D01*
X81082516Y-169925908D01*
X80947671Y-169976202D01*
X80947664Y-169976206D01*
X80832455Y-170062452D01*
X80832452Y-170062455D01*
X80746206Y-170177664D01*
X80746202Y-170177671D01*
X80695908Y-170312516D01*
X80695470Y-170316598D01*
X80694246Y-170319551D01*
X80694126Y-170320062D01*
X80694043Y-170320042D01*
X80668731Y-170381149D01*
X80611338Y-170420996D01*
X80541513Y-170423489D01*
X80496695Y-170401717D01*
X80303528Y-170253496D01*
X80076482Y-170122409D01*
X80076471Y-170122404D01*
X79834255Y-170022075D01*
X79581020Y-169954222D01*
X79581009Y-169954220D01*
X79321094Y-169920000D01*
X79058905Y-169920000D01*
X78798990Y-169954220D01*
X78798979Y-169954222D01*
X78545744Y-170022075D01*
X78303528Y-170122404D01*
X78303517Y-170122409D01*
X78076471Y-170253496D01*
X77963633Y-170340079D01*
X77963633Y-170340080D01*
X78904243Y-171280690D01*
X78858426Y-171299668D01*
X78743776Y-171376274D01*
X78646274Y-171473776D01*
X78569668Y-171588426D01*
X78550690Y-171634243D01*
X77610080Y-170693633D01*
X77610079Y-170693633D01*
X77523496Y-170806471D01*
X77392409Y-171033517D01*
X77392404Y-171033528D01*
X77292075Y-171275744D01*
X77224222Y-171528979D01*
X77224220Y-171528990D01*
X77190000Y-171788905D01*
X76309971Y-171788905D01*
X76328398Y-171744419D01*
X76396270Y-171491116D01*
X76430500Y-171231120D01*
X76430500Y-170968880D01*
X76396270Y-170708884D01*
X76328398Y-170455581D01*
X76280556Y-170340080D01*
X76228046Y-170213309D01*
X76228041Y-170213299D01*
X76096924Y-169986196D01*
X75965063Y-169814354D01*
X75937282Y-169778149D01*
X75937281Y-169778148D01*
X75937274Y-169778140D01*
X75751860Y-169592726D01*
X75751851Y-169592718D01*
X75543803Y-169433075D01*
X75316700Y-169301958D01*
X75316690Y-169301953D01*
X75074428Y-169201605D01*
X75074421Y-169201603D01*
X75074419Y-169201602D01*
X74821116Y-169133730D01*
X74763339Y-169126123D01*
X74561127Y-169099500D01*
X74561120Y-169099500D01*
X74298880Y-169099500D01*
X74298872Y-169099500D01*
X74072365Y-169129322D01*
X74038884Y-169133730D01*
X73785581Y-169201602D01*
X73785571Y-169201605D01*
X73543309Y-169301953D01*
X73543299Y-169301958D01*
X73316196Y-169433075D01*
X73108148Y-169592718D01*
X72922718Y-169778148D01*
X72775775Y-169969646D01*
X72719347Y-170010849D01*
X72649601Y-170015003D01*
X72588681Y-169980790D01*
X72579025Y-169969646D01*
X72432081Y-169778148D01*
X72432074Y-169778140D01*
X72246660Y-169592726D01*
X72246651Y-169592718D01*
X72038603Y-169433075D01*
X71811500Y-169301958D01*
X71811490Y-169301953D01*
X71569228Y-169201605D01*
X71569221Y-169201603D01*
X71569219Y-169201602D01*
X71315916Y-169133730D01*
X71258139Y-169126123D01*
X71055927Y-169099500D01*
X71055920Y-169099500D01*
X70793680Y-169099500D01*
X70793672Y-169099500D01*
X70567165Y-169129322D01*
X70533684Y-169133730D01*
X70280381Y-169201602D01*
X70280371Y-169201605D01*
X70038109Y-169301953D01*
X70038099Y-169301958D01*
X69810996Y-169433075D01*
X69602948Y-169592718D01*
X69417518Y-169778148D01*
X69270575Y-169969646D01*
X69214147Y-170010849D01*
X69144401Y-170015003D01*
X69083481Y-169980790D01*
X69073825Y-169969646D01*
X68926881Y-169778148D01*
X68926874Y-169778140D01*
X68741460Y-169592726D01*
X68741451Y-169592718D01*
X68533403Y-169433075D01*
X68306300Y-169301958D01*
X68306290Y-169301953D01*
X68064028Y-169201605D01*
X68064021Y-169201603D01*
X68064019Y-169201602D01*
X67810716Y-169133730D01*
X67752939Y-169126123D01*
X67550727Y-169099500D01*
X67550720Y-169099500D01*
X67288480Y-169099500D01*
X67288472Y-169099500D01*
X67061965Y-169129322D01*
X67028484Y-169133730D01*
X66775181Y-169201602D01*
X66775171Y-169201605D01*
X66532909Y-169301953D01*
X66532899Y-169301958D01*
X66305796Y-169433075D01*
X66097748Y-169592718D01*
X65912318Y-169778148D01*
X65778075Y-169953096D01*
X65721647Y-169994298D01*
X65651901Y-169998453D01*
X65590981Y-169964240D01*
X65581325Y-169953096D01*
X65474863Y-169814354D01*
X65447082Y-169778149D01*
X65447081Y-169778148D01*
X65447074Y-169778140D01*
X65261660Y-169592726D01*
X65261651Y-169592718D01*
X65053603Y-169433075D01*
X64826500Y-169301958D01*
X64826490Y-169301953D01*
X64584228Y-169201605D01*
X64584221Y-169201603D01*
X64584219Y-169201602D01*
X64330916Y-169133730D01*
X64273139Y-169126123D01*
X64070927Y-169099500D01*
X64070920Y-169099500D01*
X63808680Y-169099500D01*
X63808672Y-169099500D01*
X63582165Y-169129322D01*
X63548684Y-169133730D01*
X63295381Y-169201602D01*
X63295371Y-169201605D01*
X63053109Y-169301953D01*
X63053099Y-169301958D01*
X62825996Y-169433075D01*
X62617948Y-169592718D01*
X62432518Y-169778148D01*
X62272875Y-169986196D01*
X62141758Y-170213299D01*
X62141753Y-170213309D01*
X62041405Y-170455571D01*
X62041402Y-170455581D01*
X61977617Y-170693633D01*
X61973530Y-170708885D01*
X61939300Y-170968872D01*
X60718203Y-170968872D01*
X60691103Y-170806471D01*
X60661937Y-170631689D01*
X60559281Y-170226307D01*
X60423499Y-169830788D01*
X60255519Y-169447832D01*
X60056488Y-169080056D01*
X59971961Y-168950678D01*
X59827769Y-168729974D01*
X59827751Y-168729949D01*
X59570925Y-168399979D01*
X59570917Y-168399970D01*
X59287693Y-168092306D01*
X58980029Y-167809082D01*
X58980020Y-167809074D01*
X58650050Y-167552248D01*
X58650025Y-167552230D01*
X58299951Y-167323516D01*
X58243239Y-167292825D01*
X58061387Y-167194411D01*
X57932167Y-167124480D01*
X57932163Y-167124479D01*
X57549215Y-166956502D01*
X57153706Y-166820723D01*
X57153700Y-166820721D01*
X57153693Y-166820719D01*
X56748311Y-166718063D01*
X56748307Y-166718062D01*
X56335831Y-166649231D01*
X55919098Y-166614700D01*
X55919088Y-166614700D01*
X55750192Y-166614700D01*
X53214876Y-166614700D01*
X53205147Y-166614318D01*
X53032835Y-166600756D01*
X53013617Y-166597712D01*
X52850307Y-166558505D01*
X52831801Y-166552492D01*
X52676634Y-166488219D01*
X52659298Y-166479386D01*
X52516094Y-166391632D01*
X52500351Y-166380194D01*
X52372640Y-166271117D01*
X52358882Y-166257359D01*
X52304343Y-166193503D01*
X52249803Y-166129646D01*
X52238367Y-166113905D01*
X52201984Y-166054533D01*
X52150613Y-165970701D01*
X52141780Y-165953365D01*
X52079440Y-165802864D01*
X52077504Y-165798191D01*
X52071496Y-165779699D01*
X52032286Y-165616377D01*
X52029243Y-165597164D01*
X52029168Y-165596214D01*
X52015682Y-165424852D01*
X52015300Y-165415123D01*
X52015300Y-165298652D01*
X52034985Y-165231613D01*
X52087789Y-165185858D01*
X52156947Y-165175914D01*
X52220503Y-165204939D01*
X52237674Y-165223164D01*
X52249440Y-165238497D01*
X52289698Y-165290963D01*
X52289704Y-165290970D01*
X52489029Y-165490295D01*
X52489033Y-165490298D01*
X52489035Y-165490300D01*
X52712683Y-165661912D01*
X52712690Y-165661916D01*
X52956809Y-165802859D01*
X52956814Y-165802861D01*
X52956817Y-165802863D01*
X53217261Y-165910742D01*
X53489558Y-165983704D01*
X53769049Y-166020500D01*
X53769056Y-166020500D01*
X54050944Y-166020500D01*
X54050951Y-166020500D01*
X54330442Y-165983704D01*
X54602739Y-165910742D01*
X54678589Y-165879324D01*
X79923099Y-165879324D01*
X79957950Y-166054527D01*
X79957952Y-166054533D01*
X80026314Y-166219575D01*
X80026319Y-166219584D01*
X80125564Y-166368114D01*
X80125567Y-166368118D01*
X80251881Y-166494432D01*
X80251885Y-166494435D01*
X80400415Y-166593680D01*
X80400421Y-166593683D01*
X80400422Y-166593684D01*
X80565467Y-166662048D01*
X80565471Y-166662048D01*
X80565472Y-166662049D01*
X80740675Y-166696900D01*
X80740678Y-166696900D01*
X80919324Y-166696900D01*
X81037198Y-166673452D01*
X81094533Y-166662048D01*
X81259578Y-166593684D01*
X81408115Y-166494435D01*
X81474132Y-166428417D01*
X81535453Y-166394934D01*
X81561812Y-166392100D01*
X82189266Y-166392100D01*
X82189268Y-166392100D01*
X82342402Y-166351067D01*
X82479698Y-166271800D01*
X82591800Y-166159698D01*
X84608279Y-164143219D01*
X84669602Y-164109734D01*
X84695960Y-164106900D01*
X84789324Y-164106900D01*
X84907198Y-164083452D01*
X84964533Y-164072048D01*
X85129578Y-164003684D01*
X85278115Y-163904435D01*
X85404435Y-163778115D01*
X85503684Y-163629578D01*
X85572048Y-163464533D01*
X85606900Y-163289322D01*
X85606900Y-163110678D01*
X85606900Y-163110675D01*
X85572049Y-162935472D01*
X85572048Y-162935471D01*
X85572048Y-162935467D01*
X85503684Y-162770422D01*
X85503683Y-162770421D01*
X85503680Y-162770415D01*
X85404435Y-162621885D01*
X85404432Y-162621881D01*
X85278118Y-162495567D01*
X85278114Y-162495564D01*
X85129584Y-162396319D01*
X85129575Y-162396314D01*
X84964533Y-162327952D01*
X84964527Y-162327950D01*
X84789324Y-162293100D01*
X84789322Y-162293100D01*
X84610678Y-162293100D01*
X84610676Y-162293100D01*
X84435472Y-162327950D01*
X84435466Y-162327952D01*
X84270424Y-162396314D01*
X84270415Y-162396319D01*
X84121885Y-162495564D01*
X84121881Y-162495567D01*
X83995567Y-162621881D01*
X83995564Y-162621885D01*
X83896319Y-162770415D01*
X83896314Y-162770424D01*
X83827952Y-162935466D01*
X83827950Y-162935472D01*
X83793100Y-163110675D01*
X83793100Y-163204040D01*
X83773415Y-163271079D01*
X83756781Y-163291721D01*
X81896921Y-165151581D01*
X81869993Y-165166284D01*
X81844175Y-165182877D01*
X81837974Y-165183768D01*
X81835598Y-165185066D01*
X81809240Y-165187900D01*
X81561812Y-165187900D01*
X81494773Y-165168215D01*
X81474135Y-165151585D01*
X81408115Y-165085565D01*
X81408114Y-165085564D01*
X81408113Y-165085563D01*
X81259584Y-164986319D01*
X81259575Y-164986314D01*
X81094533Y-164917952D01*
X81094527Y-164917950D01*
X80919324Y-164883100D01*
X80919322Y-164883100D01*
X80740678Y-164883100D01*
X80740676Y-164883100D01*
X80565472Y-164917950D01*
X80565466Y-164917952D01*
X80400424Y-164986314D01*
X80400415Y-164986319D01*
X80251885Y-165085564D01*
X80251881Y-165085567D01*
X80125567Y-165211881D01*
X80125564Y-165211885D01*
X80026319Y-165360415D01*
X80026314Y-165360424D01*
X79957952Y-165525466D01*
X79957950Y-165525472D01*
X79923100Y-165700675D01*
X79923100Y-165700678D01*
X79923100Y-165879322D01*
X79923100Y-165879324D01*
X79923099Y-165879324D01*
X54678589Y-165879324D01*
X54863183Y-165802863D01*
X55107317Y-165661912D01*
X55330965Y-165490300D01*
X55530300Y-165290965D01*
X55701912Y-165067317D01*
X55842863Y-164823183D01*
X55950742Y-164562739D01*
X56023704Y-164290442D01*
X56060500Y-164010951D01*
X56060500Y-163729049D01*
X56023704Y-163449558D01*
X55950742Y-163177261D01*
X55842863Y-162916817D01*
X55842861Y-162916814D01*
X55842859Y-162916809D01*
X55701916Y-162672690D01*
X55701912Y-162672683D01*
X55530300Y-162449035D01*
X55530298Y-162449033D01*
X55530295Y-162449029D01*
X55330970Y-162249704D01*
X55330965Y-162249700D01*
X55107317Y-162078088D01*
X55107311Y-162078084D01*
X55107309Y-162078083D01*
X54863190Y-161937140D01*
X54863179Y-161937135D01*
X54659006Y-161852564D01*
X54659004Y-161852563D01*
X54602746Y-161829260D01*
X54330439Y-161756295D01*
X54050958Y-161719500D01*
X54050951Y-161719500D01*
X53769049Y-161719500D01*
X53769041Y-161719500D01*
X53489560Y-161756295D01*
X53217256Y-161829259D01*
X52956820Y-161937135D01*
X52956809Y-161937140D01*
X52712690Y-162078083D01*
X52712684Y-162078087D01*
X52712683Y-162078088D01*
X52650485Y-162125814D01*
X52489029Y-162249704D01*
X52289704Y-162449029D01*
X52237676Y-162516834D01*
X52181248Y-162558036D01*
X52111502Y-162562191D01*
X52050581Y-162527978D01*
X52017829Y-162466261D01*
X52015300Y-162441347D01*
X52015300Y-160308575D01*
X55130000Y-160308575D01*
X55130000Y-160531424D01*
X55159085Y-160752354D01*
X55159088Y-160752367D01*
X55216763Y-160967618D01*
X55302045Y-161173502D01*
X55302054Y-161173520D01*
X55413464Y-161366491D01*
X55413473Y-161366504D01*
X55464040Y-161432403D01*
X55464043Y-161432403D01*
X56367449Y-160528996D01*
X56387370Y-160603343D01*
X56449905Y-160711657D01*
X56538343Y-160800095D01*
X56646657Y-160862630D01*
X56721002Y-160882550D01*
X55817595Y-161785955D01*
X55817595Y-161785956D01*
X55883507Y-161836533D01*
X56076485Y-161947949D01*
X56076497Y-161947954D01*
X56282381Y-162033236D01*
X56497632Y-162090911D01*
X56497645Y-162090914D01*
X56718575Y-162120000D01*
X56941425Y-162120000D01*
X57162354Y-162090914D01*
X57162367Y-162090911D01*
X57377618Y-162033236D01*
X57583502Y-161947954D01*
X57583514Y-161947949D01*
X57776498Y-161836530D01*
X57842403Y-161785957D01*
X57842404Y-161785956D01*
X56938997Y-160882550D01*
X57013343Y-160862630D01*
X57121657Y-160800095D01*
X57210095Y-160711657D01*
X57272630Y-160603343D01*
X57292550Y-160528997D01*
X58195956Y-161432404D01*
X58195957Y-161432403D01*
X58246530Y-161366498D01*
X58357949Y-161173514D01*
X58357954Y-161173502D01*
X58443236Y-160967618D01*
X58500911Y-160752367D01*
X58500914Y-160752354D01*
X58530000Y-160531424D01*
X58530000Y-160469324D01*
X65443099Y-160469324D01*
X65477950Y-160644527D01*
X65477952Y-160644533D01*
X65546314Y-160809575D01*
X65546319Y-160809584D01*
X65645564Y-160958114D01*
X65645567Y-160958118D01*
X65771881Y-161084432D01*
X65771885Y-161084435D01*
X65920415Y-161183680D01*
X65920421Y-161183683D01*
X65920422Y-161183684D01*
X66085467Y-161252048D01*
X66085471Y-161252048D01*
X66085472Y-161252049D01*
X66260675Y-161286900D01*
X66260678Y-161286900D01*
X66439324Y-161286900D01*
X66557198Y-161263452D01*
X66614533Y-161252048D01*
X66779578Y-161183684D01*
X66928115Y-161084435D01*
X67054435Y-160958115D01*
X67153684Y-160809578D01*
X67222048Y-160644533D01*
X67256900Y-160469322D01*
X67256900Y-160290678D01*
X67256900Y-160290675D01*
X67222049Y-160115472D01*
X67222048Y-160115471D01*
X67222048Y-160115467D01*
X67153684Y-159950422D01*
X67153683Y-159950421D01*
X67153680Y-159950415D01*
X67054435Y-159801885D01*
X67054432Y-159801881D01*
X67023819Y-159771268D01*
X66990334Y-159709945D01*
X66987500Y-159683587D01*
X66987500Y-155389324D01*
X86793099Y-155389324D01*
X86827950Y-155564527D01*
X86827952Y-155564533D01*
X86896314Y-155729575D01*
X86896319Y-155729584D01*
X86995564Y-155878114D01*
X86995567Y-155878118D01*
X87121881Y-156004432D01*
X87121885Y-156004435D01*
X87270415Y-156103680D01*
X87270421Y-156103683D01*
X87270422Y-156103684D01*
X87435467Y-156172048D01*
X87435471Y-156172048D01*
X87435472Y-156172049D01*
X87610675Y-156206900D01*
X87610678Y-156206900D01*
X87789324Y-156206900D01*
X87907198Y-156183452D01*
X87964533Y-156172048D01*
X88129578Y-156103684D01*
X88278115Y-156004435D01*
X88326774Y-155955776D01*
X88339330Y-155948278D01*
X88346843Y-155939512D01*
X88369368Y-155930343D01*
X88378866Y-155924673D01*
X88384495Y-155922986D01*
X88483035Y-155903386D01*
X88563784Y-155869937D01*
X88597233Y-155856083D01*
X88700008Y-155787411D01*
X88787411Y-155700008D01*
X89744200Y-154743219D01*
X89805523Y-154709734D01*
X89831881Y-154706900D01*
X89889324Y-154706900D01*
X90007198Y-154683452D01*
X90064533Y-154672048D01*
X90229578Y-154603684D01*
X90378115Y-154504435D01*
X90504435Y-154378115D01*
X90603684Y-154229578D01*
X90672048Y-154064533D01*
X90692353Y-153962454D01*
X90706900Y-153889324D01*
X90706900Y-153829324D01*
X93963099Y-153829324D01*
X93997950Y-154004527D01*
X93997952Y-154004533D01*
X94066314Y-154169575D01*
X94066319Y-154169584D01*
X94145402Y-154287939D01*
X94166280Y-154354616D01*
X94166300Y-154356830D01*
X94166300Y-154790686D01*
X94166299Y-154790692D01*
X94166299Y-154929308D01*
X94180912Y-155002768D01*
X94182438Y-155010441D01*
X94182439Y-155010450D01*
X94193341Y-155065254D01*
X94193344Y-155065266D01*
X94246386Y-155193323D01*
X94323401Y-155308585D01*
X94425736Y-155410920D01*
X94425758Y-155410940D01*
X95246243Y-156231425D01*
X95279728Y-156292748D01*
X95280179Y-156294914D01*
X95307950Y-156434527D01*
X95307952Y-156434533D01*
X95376314Y-156599575D01*
X95376319Y-156599584D01*
X95475564Y-156748114D01*
X95475567Y-156748118D01*
X95601881Y-156874432D01*
X95601885Y-156874435D01*
X95750415Y-156973680D01*
X95750421Y-156973683D01*
X95750422Y-156973684D01*
X95915467Y-157042048D01*
X95915471Y-157042048D01*
X95915472Y-157042049D01*
X96090675Y-157076900D01*
X96090678Y-157076900D01*
X96269324Y-157076900D01*
X96387198Y-157053452D01*
X96444533Y-157042048D01*
X96609578Y-156973684D01*
X96758115Y-156874435D01*
X96884435Y-156748115D01*
X96983684Y-156599578D01*
X97052048Y-156434533D01*
X97063452Y-156377198D01*
X97086900Y-156259324D01*
X97086900Y-156080675D01*
X97052049Y-155905472D01*
X97052048Y-155905471D01*
X97052048Y-155905467D01*
X96983684Y-155740422D01*
X96983683Y-155740421D01*
X96983680Y-155740415D01*
X96884435Y-155591885D01*
X96884432Y-155591881D01*
X96758118Y-155465567D01*
X96758114Y-155465564D01*
X96609584Y-155366319D01*
X96609575Y-155366314D01*
X96444533Y-155297952D01*
X96444527Y-155297950D01*
X96304914Y-155270179D01*
X96243003Y-155237794D01*
X96241425Y-155236243D01*
X95610019Y-154604837D01*
X95595315Y-154577909D01*
X95578723Y-154552091D01*
X95577831Y-154545890D01*
X95576534Y-154543514D01*
X95573700Y-154517156D01*
X95573700Y-154356830D01*
X95593385Y-154289791D01*
X95594598Y-154287939D01*
X95673680Y-154169584D01*
X95673680Y-154169583D01*
X95673684Y-154169578D01*
X95742048Y-154004533D01*
X95767574Y-153876206D01*
X95776900Y-153829324D01*
X95776900Y-153650675D01*
X95742049Y-153475472D01*
X95742048Y-153475471D01*
X95742048Y-153475467D01*
X95673684Y-153310422D01*
X95673683Y-153310421D01*
X95673680Y-153310415D01*
X95574435Y-153161885D01*
X95574432Y-153161881D01*
X95448118Y-153035567D01*
X95448114Y-153035564D01*
X95299584Y-152936319D01*
X95299575Y-152936314D01*
X95134533Y-152867952D01*
X95134527Y-152867950D01*
X94959324Y-152833100D01*
X94959322Y-152833100D01*
X94780678Y-152833100D01*
X94780676Y-152833100D01*
X94605472Y-152867950D01*
X94605466Y-152867952D01*
X94440424Y-152936314D01*
X94440415Y-152936319D01*
X94291885Y-153035564D01*
X94291881Y-153035567D01*
X94165567Y-153161881D01*
X94165564Y-153161885D01*
X94066319Y-153310415D01*
X94066314Y-153310424D01*
X93997952Y-153475466D01*
X93997950Y-153475472D01*
X93963100Y-153650675D01*
X93963100Y-153650678D01*
X93963100Y-153829322D01*
X93963100Y-153829324D01*
X93963099Y-153829324D01*
X90706900Y-153829324D01*
X90706900Y-153710675D01*
X90706899Y-153710673D01*
X90698566Y-153668777D01*
X90672049Y-153535472D01*
X90672048Y-153535471D01*
X90672048Y-153535467D01*
X90603684Y-153370422D01*
X90603683Y-153370421D01*
X90603680Y-153370415D01*
X90504435Y-153221885D01*
X90504432Y-153221881D01*
X90378118Y-153095567D01*
X90378114Y-153095564D01*
X90229584Y-152996319D01*
X90229575Y-152996314D01*
X90064533Y-152927952D01*
X90064527Y-152927950D01*
X89889324Y-152893100D01*
X89889322Y-152893100D01*
X89710678Y-152893100D01*
X89710676Y-152893100D01*
X89535472Y-152927950D01*
X89535466Y-152927952D01*
X89370424Y-152996314D01*
X89370415Y-152996319D01*
X89221885Y-153095564D01*
X89221881Y-153095567D01*
X89095567Y-153221881D01*
X89095564Y-153221885D01*
X88996319Y-153370415D01*
X88996314Y-153370424D01*
X88927952Y-153535466D01*
X88927950Y-153535472D01*
X88893100Y-153710675D01*
X88893100Y-153768118D01*
X88873415Y-153835157D01*
X88856781Y-153855799D01*
X88249461Y-154463119D01*
X88188138Y-154496604D01*
X88118446Y-154491620D01*
X88114327Y-154489999D01*
X87964533Y-154427952D01*
X87964527Y-154427950D01*
X87789324Y-154393100D01*
X87789322Y-154393100D01*
X87610678Y-154393100D01*
X87610676Y-154393100D01*
X87435472Y-154427950D01*
X87435466Y-154427952D01*
X87270424Y-154496314D01*
X87270415Y-154496319D01*
X87121885Y-154595564D01*
X87121881Y-154595567D01*
X86995567Y-154721881D01*
X86995564Y-154721885D01*
X86896319Y-154870415D01*
X86896314Y-154870424D01*
X86827952Y-155035466D01*
X86827950Y-155035472D01*
X86793100Y-155210675D01*
X86793100Y-155210678D01*
X86793100Y-155389322D01*
X86793100Y-155389324D01*
X86793099Y-155389324D01*
X66987500Y-155389324D01*
X66987500Y-152446412D01*
X67007185Y-152379373D01*
X67023814Y-152358735D01*
X67104435Y-152278115D01*
X67203684Y-152129578D01*
X67272048Y-151964533D01*
X67306900Y-151789322D01*
X67306900Y-151610678D01*
X67306900Y-151610675D01*
X67272049Y-151435472D01*
X67272048Y-151435471D01*
X67272048Y-151435467D01*
X67203684Y-151270422D01*
X67203683Y-151270421D01*
X67203680Y-151270415D01*
X67104435Y-151121885D01*
X67104432Y-151121881D01*
X66978118Y-150995567D01*
X66978114Y-150995564D01*
X66829584Y-150896319D01*
X66829575Y-150896314D01*
X66812699Y-150889324D01*
X90193099Y-150889324D01*
X90227950Y-151064527D01*
X90227952Y-151064533D01*
X90296314Y-151229575D01*
X90296319Y-151229584D01*
X90395564Y-151378114D01*
X90395567Y-151378118D01*
X90521881Y-151504432D01*
X90521885Y-151504435D01*
X90670415Y-151603680D01*
X90670421Y-151603683D01*
X90670422Y-151603684D01*
X90835467Y-151672048D01*
X90835471Y-151672048D01*
X90835472Y-151672049D01*
X91010675Y-151706900D01*
X91010678Y-151706900D01*
X91189324Y-151706900D01*
X91307198Y-151683452D01*
X91364533Y-151672048D01*
X91529578Y-151603684D01*
X91678115Y-151504435D01*
X91804435Y-151378115D01*
X91903684Y-151229578D01*
X91972048Y-151064533D01*
X91989163Y-150978493D01*
X92006900Y-150889324D01*
X92006900Y-150831881D01*
X92026585Y-150764842D01*
X92043219Y-150744200D01*
X94923600Y-147863819D01*
X94984923Y-147830334D01*
X95011281Y-147827500D01*
X99593588Y-147827500D01*
X99660627Y-147847185D01*
X99681270Y-147863820D01*
X99721881Y-147904432D01*
X99721885Y-147904435D01*
X99870415Y-148003680D01*
X99870421Y-148003683D01*
X99870422Y-148003684D01*
X100035467Y-148072048D01*
X100035471Y-148072048D01*
X100035472Y-148072049D01*
X100210675Y-148106900D01*
X100210678Y-148106900D01*
X100389324Y-148106900D01*
X100507198Y-148083452D01*
X100564533Y-148072048D01*
X100729578Y-148003684D01*
X100878115Y-147904435D01*
X101004435Y-147778115D01*
X101103684Y-147629578D01*
X101172048Y-147464533D01*
X101206900Y-147289322D01*
X101206900Y-147110678D01*
X101206900Y-147110675D01*
X101172049Y-146935472D01*
X101172048Y-146935471D01*
X101172048Y-146935467D01*
X101103684Y-146770422D01*
X101103683Y-146770421D01*
X101103680Y-146770415D01*
X101004435Y-146621885D01*
X101004432Y-146621881D01*
X100878118Y-146495567D01*
X100878114Y-146495564D01*
X100729584Y-146396319D01*
X100729575Y-146396314D01*
X100564533Y-146327952D01*
X100564527Y-146327950D01*
X100389324Y-146293100D01*
X100389322Y-146293100D01*
X100210678Y-146293100D01*
X100210676Y-146293100D01*
X100035472Y-146327950D01*
X100035466Y-146327952D01*
X99870424Y-146396314D01*
X99870415Y-146396319D01*
X99721885Y-146495564D01*
X99721881Y-146495567D01*
X99681270Y-146536180D01*
X99619947Y-146569666D01*
X99593588Y-146572500D01*
X94638192Y-146572500D01*
X94516973Y-146596612D01*
X94516965Y-146596614D01*
X94455957Y-146621885D01*
X94455956Y-146621885D01*
X94402773Y-146643913D01*
X94402760Y-146643920D01*
X94299992Y-146712588D01*
X94299988Y-146712591D01*
X91155800Y-149856781D01*
X91094477Y-149890266D01*
X91068119Y-149893100D01*
X91010676Y-149893100D01*
X90835472Y-149927950D01*
X90835466Y-149927952D01*
X90670424Y-149996314D01*
X90670415Y-149996319D01*
X90521885Y-150095564D01*
X90521881Y-150095567D01*
X90395567Y-150221881D01*
X90395564Y-150221885D01*
X90296319Y-150370415D01*
X90296314Y-150370424D01*
X90227952Y-150535466D01*
X90227950Y-150535472D01*
X90193100Y-150710675D01*
X90193100Y-150710678D01*
X90193100Y-150889322D01*
X90193100Y-150889324D01*
X90193099Y-150889324D01*
X66812699Y-150889324D01*
X66664533Y-150827952D01*
X66664527Y-150827950D01*
X66655742Y-150826203D01*
X66489324Y-150793100D01*
X66489322Y-150793100D01*
X66310678Y-150793100D01*
X66310676Y-150793100D01*
X66135472Y-150827950D01*
X66135466Y-150827952D01*
X65970424Y-150896314D01*
X65970415Y-150896319D01*
X65821885Y-150995564D01*
X65821881Y-150995567D01*
X65695567Y-151121881D01*
X65695564Y-151121885D01*
X65596319Y-151270415D01*
X65596314Y-151270424D01*
X65527952Y-151435466D01*
X65527950Y-151435472D01*
X65493100Y-151610675D01*
X65493100Y-151610678D01*
X65493100Y-151789322D01*
X65493100Y-151789324D01*
X65493099Y-151789324D01*
X65527950Y-151964527D01*
X65527952Y-151964533D01*
X65596314Y-152129575D01*
X65596319Y-152129584D01*
X65695564Y-152278114D01*
X65696172Y-152278722D01*
X65696389Y-152279119D01*
X65699430Y-152282825D01*
X65698727Y-152283401D01*
X65729664Y-152340042D01*
X65732500Y-152366412D01*
X65732500Y-159663587D01*
X65712815Y-159730626D01*
X65696181Y-159751268D01*
X65645567Y-159801881D01*
X65645564Y-159801885D01*
X65546319Y-159950415D01*
X65546314Y-159950424D01*
X65477952Y-160115466D01*
X65477950Y-160115472D01*
X65443100Y-160290675D01*
X65443100Y-160290678D01*
X65443100Y-160469322D01*
X65443100Y-160469324D01*
X65443099Y-160469324D01*
X58530000Y-160469324D01*
X58530000Y-160308577D01*
X58528972Y-160300767D01*
X58528972Y-160300765D01*
X58500914Y-160087645D01*
X58500911Y-160087632D01*
X58443236Y-159872381D01*
X58357954Y-159666497D01*
X58357949Y-159666485D01*
X58246533Y-159473507D01*
X58195956Y-159407595D01*
X58195955Y-159407595D01*
X57292550Y-160311001D01*
X57272630Y-160236657D01*
X57210095Y-160128343D01*
X57121657Y-160039905D01*
X57013343Y-159977370D01*
X56938996Y-159957449D01*
X57842403Y-159054043D01*
X57842403Y-159054040D01*
X57776504Y-159003473D01*
X57776491Y-159003464D01*
X57583520Y-158892054D01*
X57583502Y-158892045D01*
X57377618Y-158806763D01*
X57162367Y-158749088D01*
X57162354Y-158749085D01*
X56941425Y-158720000D01*
X56718575Y-158720000D01*
X56497645Y-158749085D01*
X56497632Y-158749088D01*
X56282381Y-158806763D01*
X56076497Y-158892045D01*
X56076479Y-158892054D01*
X55883511Y-159003462D01*
X55817595Y-159054042D01*
X56721003Y-159957449D01*
X56646657Y-159977370D01*
X56538343Y-160039905D01*
X56449905Y-160128343D01*
X56387370Y-160236657D01*
X56367449Y-160311002D01*
X55464042Y-159407595D01*
X55413462Y-159473511D01*
X55302054Y-159666479D01*
X55302045Y-159666497D01*
X55216763Y-159872381D01*
X55159088Y-160087632D01*
X55159085Y-160087645D01*
X55130000Y-160308575D01*
X52015300Y-160308575D01*
X52015300Y-154272135D01*
X55229500Y-154272135D01*
X55229500Y-156567870D01*
X55229501Y-156567876D01*
X55235908Y-156627483D01*
X55286202Y-156762328D01*
X55286206Y-156762335D01*
X55372452Y-156877544D01*
X55372455Y-156877547D01*
X55487664Y-156963793D01*
X55487671Y-156963797D01*
X55622517Y-157014091D01*
X55622516Y-157014091D01*
X55629444Y-157014835D01*
X55682127Y-157020500D01*
X57977872Y-157020499D01*
X58037483Y-157014091D01*
X58172331Y-156963796D01*
X58287546Y-156877546D01*
X58373796Y-156762331D01*
X58424091Y-156627483D01*
X58430500Y-156567873D01*
X58430499Y-154272128D01*
X58424091Y-154212517D01*
X58373796Y-154077669D01*
X58373795Y-154077668D01*
X58373793Y-154077664D01*
X58287547Y-153962455D01*
X58287544Y-153962452D01*
X58172335Y-153876206D01*
X58172328Y-153876202D01*
X58037482Y-153825908D01*
X58037483Y-153825908D01*
X57977883Y-153819501D01*
X57977881Y-153819500D01*
X57977873Y-153819500D01*
X57977864Y-153819500D01*
X55682129Y-153819500D01*
X55682123Y-153819501D01*
X55622516Y-153825908D01*
X55487671Y-153876202D01*
X55487664Y-153876206D01*
X55372455Y-153962452D01*
X55372452Y-153962455D01*
X55286206Y-154077664D01*
X55286202Y-154077671D01*
X55235908Y-154212517D01*
X55229501Y-154272116D01*
X55229501Y-154272123D01*
X55229500Y-154272135D01*
X52015300Y-154272135D01*
X52015300Y-149189324D01*
X60593099Y-149189324D01*
X60627950Y-149364527D01*
X60627952Y-149364533D01*
X60696314Y-149529575D01*
X60696319Y-149529584D01*
X60795563Y-149678113D01*
X60795564Y-149678114D01*
X60795565Y-149678115D01*
X60861582Y-149744132D01*
X60895066Y-149805453D01*
X60897900Y-149831812D01*
X60897900Y-151180774D01*
X60878215Y-151247813D01*
X60877002Y-151249664D01*
X60796322Y-151370410D01*
X60796314Y-151370424D01*
X60727952Y-151535466D01*
X60727950Y-151535472D01*
X60693100Y-151710675D01*
X60693100Y-151710678D01*
X60693100Y-151889322D01*
X60693100Y-151889324D01*
X60693099Y-151889324D01*
X60727950Y-152064527D01*
X60727952Y-152064533D01*
X60796314Y-152229575D01*
X60796319Y-152229584D01*
X60895564Y-152378114D01*
X60895567Y-152378118D01*
X61021881Y-152504432D01*
X61021885Y-152504435D01*
X61170415Y-152603680D01*
X61170421Y-152603683D01*
X61170422Y-152603684D01*
X61335467Y-152672048D01*
X61335471Y-152672048D01*
X61335472Y-152672049D01*
X61510675Y-152706900D01*
X61510678Y-152706900D01*
X61689324Y-152706900D01*
X61807198Y-152683452D01*
X61864533Y-152672048D01*
X62029578Y-152603684D01*
X62178115Y-152504435D01*
X62304435Y-152378115D01*
X62403684Y-152229578D01*
X62472048Y-152064533D01*
X62483452Y-152007198D01*
X62506900Y-151889324D01*
X62506900Y-151710675D01*
X62472049Y-151535472D01*
X62472048Y-151535471D01*
X62472048Y-151535467D01*
X62403684Y-151370422D01*
X62403683Y-151370421D01*
X62403680Y-151370415D01*
X62304435Y-151221885D01*
X62304432Y-151221881D01*
X62178116Y-151095565D01*
X62157207Y-151081594D01*
X62112403Y-151027981D01*
X62102100Y-150978493D01*
X62102100Y-149831812D01*
X62121785Y-149764773D01*
X62138414Y-149744135D01*
X62204435Y-149678115D01*
X62303684Y-149529578D01*
X62372048Y-149364533D01*
X62406900Y-149189322D01*
X62406900Y-149010678D01*
X62406900Y-149010675D01*
X62372049Y-148835472D01*
X62372048Y-148835471D01*
X62372048Y-148835467D01*
X62303684Y-148670422D01*
X62303683Y-148670421D01*
X62303680Y-148670415D01*
X62204435Y-148521885D01*
X62204432Y-148521881D01*
X62078118Y-148395567D01*
X62078114Y-148395564D01*
X61929584Y-148296319D01*
X61929575Y-148296314D01*
X61764533Y-148227952D01*
X61764527Y-148227950D01*
X61589324Y-148193100D01*
X61589322Y-148193100D01*
X61410678Y-148193100D01*
X61410676Y-148193100D01*
X61235472Y-148227950D01*
X61235466Y-148227952D01*
X61070424Y-148296314D01*
X61070415Y-148296319D01*
X60921885Y-148395564D01*
X60921881Y-148395567D01*
X60795567Y-148521881D01*
X60795564Y-148521885D01*
X60696319Y-148670415D01*
X60696314Y-148670424D01*
X60627952Y-148835466D01*
X60627950Y-148835472D01*
X60593100Y-149010675D01*
X60593100Y-149010678D01*
X60593100Y-149189322D01*
X60593100Y-149189324D01*
X60593099Y-149189324D01*
X52015300Y-149189324D01*
X52015300Y-142624635D01*
X69284500Y-142624635D01*
X69284500Y-144370370D01*
X69284501Y-144370376D01*
X69290908Y-144429983D01*
X69341202Y-144564828D01*
X69341206Y-144564835D01*
X69427452Y-144680044D01*
X69427455Y-144680047D01*
X69542664Y-144766293D01*
X69542671Y-144766297D01*
X69677517Y-144816591D01*
X69677516Y-144816591D01*
X69684444Y-144817335D01*
X69737127Y-144823000D01*
X71482872Y-144822999D01*
X71542483Y-144816591D01*
X71677331Y-144766296D01*
X71792546Y-144680046D01*
X71878796Y-144564831D01*
X71929091Y-144429983D01*
X71929091Y-144429981D01*
X71930874Y-144422438D01*
X71933757Y-144423119D01*
X71955147Y-144371396D01*
X72012517Y-144331514D01*
X72082340Y-144328980D01*
X72139425Y-144361465D01*
X72286495Y-144508535D01*
X72455286Y-144631170D01*
X72543116Y-144675921D01*
X72641179Y-144725887D01*
X72641181Y-144725887D01*
X72641184Y-144725889D01*
X72747545Y-144760448D01*
X72839610Y-144790362D01*
X73045676Y-144823000D01*
X73045681Y-144823000D01*
X73254324Y-144823000D01*
X73460389Y-144790362D01*
X73658816Y-144725889D01*
X73844714Y-144631170D01*
X74013505Y-144508535D01*
X74161035Y-144361005D01*
X74283670Y-144192214D01*
X74309515Y-144141490D01*
X74357489Y-144090694D01*
X74425310Y-144073898D01*
X74491445Y-144096435D01*
X74530485Y-144141490D01*
X74556328Y-144192212D01*
X74638086Y-144304741D01*
X74678965Y-144361005D01*
X74826495Y-144508535D01*
X74995286Y-144631170D01*
X75083116Y-144675921D01*
X75181179Y-144725887D01*
X75181181Y-144725887D01*
X75181184Y-144725889D01*
X75287545Y-144760448D01*
X75379610Y-144790362D01*
X75585676Y-144823000D01*
X75585681Y-144823000D01*
X75794324Y-144823000D01*
X76000389Y-144790362D01*
X76198816Y-144725889D01*
X76384714Y-144631170D01*
X76553505Y-144508535D01*
X76701035Y-144361005D01*
X76823670Y-144192214D01*
X76849515Y-144141490D01*
X76897489Y-144090694D01*
X76965310Y-144073898D01*
X77031445Y-144096435D01*
X77070485Y-144141490D01*
X77096328Y-144192212D01*
X77178086Y-144304741D01*
X77218965Y-144361005D01*
X77366495Y-144508535D01*
X77535286Y-144631170D01*
X77623116Y-144675921D01*
X77721179Y-144725887D01*
X77721181Y-144725887D01*
X77721184Y-144725889D01*
X77827545Y-144760448D01*
X77919610Y-144790362D01*
X78125676Y-144823000D01*
X78125681Y-144823000D01*
X78334324Y-144823000D01*
X78540389Y-144790362D01*
X78738816Y-144725889D01*
X78924714Y-144631170D01*
X79093505Y-144508535D01*
X79241035Y-144361005D01*
X79363670Y-144192214D01*
X79389515Y-144141490D01*
X79437489Y-144090694D01*
X79505310Y-144073898D01*
X79571445Y-144096435D01*
X79610485Y-144141490D01*
X79636328Y-144192212D01*
X79718086Y-144304741D01*
X79758965Y-144361005D01*
X79906495Y-144508535D01*
X80075286Y-144631170D01*
X80163116Y-144675921D01*
X80261179Y-144725887D01*
X80261181Y-144725887D01*
X80261184Y-144725889D01*
X80367545Y-144760448D01*
X80459610Y-144790362D01*
X80665676Y-144823000D01*
X80665681Y-144823000D01*
X80874324Y-144823000D01*
X81080389Y-144790362D01*
X81278816Y-144725889D01*
X81464714Y-144631170D01*
X81633505Y-144508535D01*
X81781035Y-144361005D01*
X81903670Y-144192214D01*
X81929515Y-144141490D01*
X81977489Y-144090694D01*
X82045310Y-144073898D01*
X82111445Y-144096435D01*
X82150485Y-144141490D01*
X82176328Y-144192212D01*
X82258086Y-144304741D01*
X82298965Y-144361005D01*
X82446495Y-144508535D01*
X82615286Y-144631170D01*
X82703116Y-144675921D01*
X82801179Y-144725887D01*
X82801181Y-144725887D01*
X82801184Y-144725889D01*
X82907545Y-144760448D01*
X82999610Y-144790362D01*
X83205676Y-144823000D01*
X83205681Y-144823000D01*
X83414324Y-144823000D01*
X83620389Y-144790362D01*
X83818816Y-144725889D01*
X84004714Y-144631170D01*
X84173505Y-144508535D01*
X84321035Y-144361005D01*
X84443670Y-144192214D01*
X84469515Y-144141490D01*
X84517489Y-144090694D01*
X84585310Y-144073898D01*
X84651445Y-144096435D01*
X84690485Y-144141490D01*
X84716328Y-144192212D01*
X84798086Y-144304741D01*
X84838965Y-144361005D01*
X84986495Y-144508535D01*
X85155286Y-144631170D01*
X85243116Y-144675921D01*
X85341179Y-144725887D01*
X85341181Y-144725887D01*
X85341184Y-144725889D01*
X85447545Y-144760448D01*
X85539610Y-144790362D01*
X85745676Y-144823000D01*
X85745681Y-144823000D01*
X85954324Y-144823000D01*
X86160389Y-144790362D01*
X86358816Y-144725889D01*
X86544714Y-144631170D01*
X86713505Y-144508535D01*
X86861035Y-144361005D01*
X86983670Y-144192214D01*
X87009515Y-144141490D01*
X87057489Y-144090694D01*
X87125310Y-144073898D01*
X87191445Y-144096435D01*
X87230485Y-144141490D01*
X87256328Y-144192212D01*
X87338086Y-144304741D01*
X87378965Y-144361005D01*
X87526495Y-144508535D01*
X87695286Y-144631170D01*
X87783116Y-144675921D01*
X87881179Y-144725887D01*
X87881181Y-144725887D01*
X87881184Y-144725889D01*
X87987545Y-144760448D01*
X88079610Y-144790362D01*
X88285676Y-144823000D01*
X88285681Y-144823000D01*
X88494324Y-144823000D01*
X88700389Y-144790362D01*
X88898816Y-144725889D01*
X89084714Y-144631170D01*
X89253505Y-144508535D01*
X89401035Y-144361005D01*
X89523670Y-144192214D01*
X89618389Y-144006316D01*
X89682862Y-143807889D01*
X89715500Y-143601824D01*
X89715500Y-143393175D01*
X89682862Y-143187110D01*
X89642734Y-143063610D01*
X89618389Y-142988684D01*
X89618387Y-142988681D01*
X89618387Y-142988679D01*
X89523669Y-142802785D01*
X89519378Y-142796879D01*
X89401035Y-142633995D01*
X89253505Y-142486465D01*
X89195300Y-142444176D01*
X89134814Y-142400229D01*
X89092148Y-142344899D01*
X89083700Y-142299912D01*
X89083700Y-141256830D01*
X89103385Y-141189791D01*
X89104598Y-141187939D01*
X89183680Y-141069584D01*
X89183680Y-141069583D01*
X89183684Y-141069578D01*
X89252048Y-140904533D01*
X89286900Y-140729322D01*
X89286900Y-140550678D01*
X89286900Y-140550675D01*
X89252049Y-140375472D01*
X89252048Y-140375471D01*
X89252048Y-140375467D01*
X89183684Y-140210422D01*
X89183683Y-140210421D01*
X89183680Y-140210415D01*
X89084435Y-140061885D01*
X89084432Y-140061881D01*
X88958118Y-139935567D01*
X88958114Y-139935564D01*
X88809584Y-139836319D01*
X88809575Y-139836314D01*
X88644533Y-139767952D01*
X88644527Y-139767950D01*
X88469324Y-139733100D01*
X88469322Y-139733100D01*
X88290678Y-139733100D01*
X88290676Y-139733100D01*
X88115472Y-139767950D01*
X88115466Y-139767952D01*
X87950424Y-139836314D01*
X87950415Y-139836319D01*
X87801885Y-139935564D01*
X87801881Y-139935567D01*
X87675567Y-140061881D01*
X87675564Y-140061885D01*
X87576319Y-140210415D01*
X87576314Y-140210424D01*
X87507952Y-140375466D01*
X87507950Y-140375472D01*
X87473100Y-140550675D01*
X87473100Y-140550678D01*
X87473100Y-140729322D01*
X87473100Y-140729324D01*
X87473099Y-140729324D01*
X87507950Y-140904527D01*
X87507952Y-140904533D01*
X87576314Y-141069575D01*
X87576319Y-141069584D01*
X87655402Y-141187939D01*
X87676280Y-141254616D01*
X87676300Y-141256830D01*
X87676300Y-142314443D01*
X87656615Y-142381482D01*
X87625186Y-142414760D01*
X87526501Y-142486460D01*
X87526492Y-142486467D01*
X87378966Y-142633993D01*
X87256330Y-142802785D01*
X87230485Y-142853510D01*
X87182510Y-142904306D01*
X87114690Y-142921101D01*
X87048555Y-142898564D01*
X87009515Y-142853510D01*
X86983669Y-142802785D01*
X86979378Y-142796879D01*
X86861035Y-142633995D01*
X86713505Y-142486465D01*
X86544714Y-142363830D01*
X86507560Y-142344899D01*
X86358820Y-142269112D01*
X86160389Y-142204637D01*
X85954324Y-142172000D01*
X85954319Y-142172000D01*
X85745681Y-142172000D01*
X85745676Y-142172000D01*
X85539610Y-142204637D01*
X85341179Y-142269112D01*
X85155285Y-142363830D01*
X84986493Y-142486466D01*
X84838966Y-142633993D01*
X84716330Y-142802785D01*
X84690485Y-142853510D01*
X84642510Y-142904306D01*
X84574690Y-142921101D01*
X84508555Y-142898564D01*
X84469515Y-142853510D01*
X84443669Y-142802785D01*
X84439378Y-142796879D01*
X84321035Y-142633995D01*
X84173505Y-142486465D01*
X84166410Y-142481310D01*
X84123747Y-142425978D01*
X84115300Y-142380995D01*
X84115300Y-139241263D01*
X102870500Y-139241263D01*
X102870500Y-139438736D01*
X102901389Y-139633763D01*
X102933666Y-139733100D01*
X102962409Y-139821561D01*
X103020498Y-139935565D01*
X103052058Y-139997504D01*
X103168115Y-140157246D01*
X103307753Y-140296884D01*
X103457234Y-140405486D01*
X103467499Y-140412944D01*
X103598151Y-140479515D01*
X103648947Y-140527490D01*
X103665742Y-140595311D01*
X103643204Y-140661446D01*
X103598151Y-140700484D01*
X103481017Y-140760167D01*
X103467495Y-140767058D01*
X103307753Y-140883115D01*
X103168115Y-141022753D01*
X103052058Y-141182495D01*
X102962408Y-141358441D01*
X102901389Y-141546236D01*
X102870500Y-141741263D01*
X102870500Y-141938736D01*
X102901389Y-142133763D01*
X102945367Y-142269111D01*
X102962409Y-142321561D01*
X103046434Y-142486467D01*
X103052058Y-142497504D01*
X103168115Y-142657246D01*
X103307753Y-142796884D01*
X103385694Y-142853510D01*
X103467499Y-142912944D01*
X103643439Y-143002591D01*
X103768637Y-143043270D01*
X103831236Y-143063610D01*
X104026264Y-143094500D01*
X104026269Y-143094500D01*
X104223736Y-143094500D01*
X104418763Y-143063610D01*
X104606561Y-143002591D01*
X104782501Y-142912944D01*
X104934122Y-142802786D01*
X104942246Y-142796884D01*
X104942248Y-142796881D01*
X104942252Y-142796879D01*
X105081879Y-142657252D01*
X105081881Y-142657248D01*
X105081884Y-142657246D01*
X105148891Y-142565017D01*
X105197944Y-142497501D01*
X105287591Y-142321561D01*
X105348610Y-142133763D01*
X105379500Y-141938736D01*
X105379500Y-141741263D01*
X105348610Y-141546236D01*
X105328270Y-141483637D01*
X105287591Y-141358439D01*
X105197944Y-141182499D01*
X105165283Y-141137544D01*
X105081884Y-141022753D01*
X104942246Y-140883115D01*
X104782505Y-140767058D01*
X104776830Y-140764166D01*
X104651846Y-140700483D01*
X104601052Y-140652510D01*
X104584257Y-140584689D01*
X104606794Y-140518554D01*
X104651845Y-140479517D01*
X104782501Y-140412944D01*
X104834084Y-140375467D01*
X104942246Y-140296884D01*
X104942248Y-140296881D01*
X104942252Y-140296879D01*
X105081879Y-140157252D01*
X105081881Y-140157248D01*
X105081884Y-140157246D01*
X105132779Y-140087192D01*
X105197944Y-139997501D01*
X105287591Y-139821561D01*
X105348610Y-139633763D01*
X105379500Y-139438736D01*
X105379500Y-139241263D01*
X105348610Y-139046236D01*
X105328270Y-138983637D01*
X105287591Y-138858439D01*
X105197944Y-138682499D01*
X105190486Y-138672234D01*
X105081884Y-138522753D01*
X104942250Y-138383119D01*
X104942245Y-138383115D01*
X104853059Y-138318318D01*
X104810393Y-138262989D01*
X104804414Y-138193375D01*
X104837019Y-138131580D01*
X104897858Y-138097223D01*
X104923526Y-138094277D01*
X104923521Y-138094177D01*
X104925171Y-138094088D01*
X104925944Y-138094000D01*
X104926828Y-138094000D01*
X104926844Y-138093999D01*
X104986372Y-138087598D01*
X104986379Y-138087596D01*
X105121086Y-138037354D01*
X105121093Y-138037350D01*
X105236187Y-137951190D01*
X105236190Y-137951187D01*
X105322350Y-137836093D01*
X105322354Y-137836086D01*
X105372596Y-137701379D01*
X105372598Y-137701372D01*
X105378999Y-137641844D01*
X105379000Y-137641827D01*
X105379000Y-137090000D01*
X104558012Y-137090000D01*
X104590925Y-137032993D01*
X104625000Y-136905826D01*
X104625000Y-136774174D01*
X104590925Y-136647007D01*
X104558012Y-136590000D01*
X105379000Y-136590000D01*
X105379000Y-136038172D01*
X105378999Y-136038155D01*
X105372598Y-135978627D01*
X105372596Y-135978620D01*
X105322354Y-135843913D01*
X105322350Y-135843906D01*
X105236190Y-135728812D01*
X105236187Y-135728809D01*
X105121093Y-135642649D01*
X105121086Y-135642645D01*
X104986379Y-135592403D01*
X104986372Y-135592401D01*
X104926844Y-135586000D01*
X104375000Y-135586000D01*
X104375000Y-136406988D01*
X104317993Y-136374075D01*
X104190826Y-136340000D01*
X104059174Y-136340000D01*
X103932007Y-136374075D01*
X103875000Y-136406988D01*
X103875000Y-135586000D01*
X103323155Y-135586000D01*
X103263627Y-135592401D01*
X103263620Y-135592403D01*
X103128913Y-135642645D01*
X103128906Y-135642649D01*
X103013812Y-135728809D01*
X103013809Y-135728812D01*
X102927649Y-135843906D01*
X102927645Y-135843913D01*
X102877403Y-135978620D01*
X102877401Y-135978627D01*
X102871000Y-136038155D01*
X102871000Y-136590000D01*
X103691988Y-136590000D01*
X103659075Y-136647007D01*
X103625000Y-136774174D01*
X103625000Y-136905826D01*
X103659075Y-137032993D01*
X103691988Y-137090000D01*
X102871000Y-137090000D01*
X102871000Y-137641844D01*
X102877401Y-137701372D01*
X102877403Y-137701379D01*
X102927645Y-137836086D01*
X102927649Y-137836093D01*
X103013809Y-137951187D01*
X103013812Y-137951190D01*
X103128906Y-138037350D01*
X103128913Y-138037354D01*
X103263620Y-138087596D01*
X103263627Y-138087598D01*
X103323155Y-138093999D01*
X103323172Y-138094000D01*
X103324056Y-138094000D01*
X103324252Y-138094057D01*
X103326479Y-138094177D01*
X103326469Y-138094355D01*
X103326475Y-138094356D01*
X103326463Y-138094459D01*
X103326450Y-138094703D01*
X103391095Y-138113685D01*
X103436850Y-138166489D01*
X103446794Y-138235647D01*
X103417769Y-138299203D01*
X103396941Y-138318318D01*
X103307754Y-138383115D01*
X103307749Y-138383119D01*
X103168115Y-138522753D01*
X103052058Y-138682495D01*
X102962408Y-138858441D01*
X102901389Y-139046236D01*
X102870500Y-139241263D01*
X84115300Y-139241263D01*
X84115300Y-137898612D01*
X84134985Y-137831573D01*
X84151615Y-137810934D01*
X84174435Y-137788115D01*
X84273684Y-137639578D01*
X84342048Y-137474533D01*
X84376900Y-137299322D01*
X84376900Y-137120678D01*
X84376900Y-137120675D01*
X84342049Y-136945472D01*
X84342048Y-136945471D01*
X84342048Y-136945467D01*
X84273684Y-136780422D01*
X84273683Y-136780421D01*
X84273680Y-136780415D01*
X84174435Y-136631885D01*
X84174432Y-136631881D01*
X84048118Y-136505567D01*
X84048114Y-136505564D01*
X83899584Y-136406319D01*
X83899575Y-136406314D01*
X83734533Y-136337952D01*
X83734527Y-136337950D01*
X83559324Y-136303100D01*
X83559322Y-136303100D01*
X83380678Y-136303100D01*
X83380676Y-136303100D01*
X83205472Y-136337950D01*
X83205466Y-136337952D01*
X83040424Y-136406314D01*
X83040415Y-136406319D01*
X82891885Y-136505564D01*
X82891881Y-136505567D01*
X82765567Y-136631881D01*
X82765564Y-136631885D01*
X82666319Y-136780415D01*
X82666314Y-136780424D01*
X82597952Y-136945466D01*
X82597950Y-136945472D01*
X82563100Y-137120675D01*
X82563100Y-137164161D01*
X82553661Y-137211613D01*
X82535647Y-137255101D01*
X82535644Y-137255110D01*
X82504700Y-137410680D01*
X82504700Y-142380995D01*
X82485015Y-142448034D01*
X82453590Y-142481310D01*
X82446495Y-142486464D01*
X82298966Y-142633993D01*
X82176330Y-142802785D01*
X82150485Y-142853510D01*
X82102510Y-142904306D01*
X82034690Y-142921101D01*
X81968555Y-142898564D01*
X81929515Y-142853510D01*
X81903669Y-142802785D01*
X81899378Y-142796879D01*
X81781035Y-142633995D01*
X81633505Y-142486465D01*
X81464714Y-142363830D01*
X81427560Y-142344899D01*
X81278820Y-142269112D01*
X81080389Y-142204637D01*
X80874324Y-142172000D01*
X80874319Y-142172000D01*
X80665681Y-142172000D01*
X80665676Y-142172000D01*
X80459610Y-142204637D01*
X80261179Y-142269112D01*
X80075285Y-142363830D01*
X79906493Y-142486466D01*
X79758966Y-142633993D01*
X79636330Y-142802785D01*
X79610485Y-142853510D01*
X79562510Y-142904306D01*
X79494690Y-142921101D01*
X79428555Y-142898564D01*
X79389515Y-142853510D01*
X79363669Y-142802785D01*
X79359378Y-142796879D01*
X79241035Y-142633995D01*
X79093505Y-142486465D01*
X78924714Y-142363830D01*
X78887560Y-142344899D01*
X78738820Y-142269112D01*
X78540389Y-142204637D01*
X78334324Y-142172000D01*
X78334319Y-142172000D01*
X78125681Y-142172000D01*
X78125676Y-142172000D01*
X77919610Y-142204637D01*
X77721179Y-142269112D01*
X77535285Y-142363830D01*
X77366493Y-142486466D01*
X77218966Y-142633993D01*
X77096330Y-142802785D01*
X77070485Y-142853510D01*
X77022510Y-142904306D01*
X76954690Y-142921101D01*
X76888555Y-142898564D01*
X76849515Y-142853510D01*
X76823669Y-142802785D01*
X76819378Y-142796879D01*
X76701035Y-142633995D01*
X76553505Y-142486465D01*
X76384714Y-142363830D01*
X76347560Y-142344899D01*
X76198820Y-142269112D01*
X76000389Y-142204637D01*
X75794324Y-142172000D01*
X75794319Y-142172000D01*
X75585681Y-142172000D01*
X75585676Y-142172000D01*
X75379610Y-142204637D01*
X75181179Y-142269112D01*
X74995285Y-142363830D01*
X74826493Y-142486466D01*
X74678966Y-142633993D01*
X74556330Y-142802785D01*
X74530485Y-142853510D01*
X74482510Y-142904306D01*
X74414690Y-142921101D01*
X74348555Y-142898564D01*
X74309515Y-142853510D01*
X74283669Y-142802785D01*
X74279378Y-142796879D01*
X74161035Y-142633995D01*
X74013505Y-142486465D01*
X73844714Y-142363830D01*
X73807560Y-142344899D01*
X73658820Y-142269112D01*
X73460389Y-142204637D01*
X73254324Y-142172000D01*
X73254319Y-142172000D01*
X73045681Y-142172000D01*
X73045676Y-142172000D01*
X72839610Y-142204637D01*
X72641179Y-142269112D01*
X72455285Y-142363830D01*
X72286496Y-142486464D01*
X72139426Y-142633534D01*
X72078103Y-142667018D01*
X72008411Y-142662034D01*
X71952478Y-142620162D01*
X71933515Y-142571944D01*
X71930876Y-142572568D01*
X71929092Y-142565020D01*
X71878797Y-142430171D01*
X71878793Y-142430164D01*
X71792547Y-142314955D01*
X71792544Y-142314952D01*
X71677335Y-142228706D01*
X71677328Y-142228702D01*
X71542482Y-142178408D01*
X71542483Y-142178408D01*
X71482883Y-142172001D01*
X71482881Y-142172000D01*
X71482873Y-142172000D01*
X71482864Y-142172000D01*
X69737129Y-142172000D01*
X69737123Y-142172001D01*
X69677516Y-142178408D01*
X69542671Y-142228702D01*
X69542664Y-142228706D01*
X69427455Y-142314952D01*
X69427452Y-142314955D01*
X69341206Y-142430164D01*
X69341202Y-142430171D01*
X69290908Y-142565017D01*
X69284501Y-142624616D01*
X69284500Y-142624635D01*
X52015300Y-142624635D01*
X52015300Y-138732135D01*
X75459500Y-138732135D01*
X75459500Y-140827870D01*
X75459501Y-140827876D01*
X75465908Y-140887483D01*
X75516202Y-141022328D01*
X75516206Y-141022335D01*
X75602452Y-141137544D01*
X75602455Y-141137547D01*
X75717664Y-141223793D01*
X75717671Y-141223797D01*
X75852517Y-141274091D01*
X75852516Y-141274091D01*
X75859444Y-141274835D01*
X75912127Y-141280500D01*
X78007872Y-141280499D01*
X78067483Y-141274091D01*
X78202331Y-141223796D01*
X78317546Y-141137546D01*
X78403796Y-141022331D01*
X78454091Y-140887483D01*
X78460500Y-140827873D01*
X78460499Y-138732128D01*
X78454091Y-138672517D01*
X78403796Y-138537669D01*
X78403795Y-138537668D01*
X78403793Y-138537664D01*
X78317547Y-138422455D01*
X78317544Y-138422452D01*
X78202335Y-138336206D01*
X78202328Y-138336202D01*
X78067482Y-138285908D01*
X78067483Y-138285908D01*
X78007883Y-138279501D01*
X78007881Y-138279500D01*
X78007873Y-138279500D01*
X78007864Y-138279500D01*
X75912129Y-138279500D01*
X75912123Y-138279501D01*
X75852516Y-138285908D01*
X75717671Y-138336202D01*
X75717664Y-138336206D01*
X75602455Y-138422452D01*
X75602452Y-138422455D01*
X75516206Y-138537664D01*
X75516202Y-138537671D01*
X75465908Y-138672517D01*
X75459501Y-138732116D01*
X75459501Y-138732123D01*
X75459500Y-138732135D01*
X52015300Y-138732135D01*
X52015300Y-135279324D01*
X62403099Y-135279324D01*
X62437950Y-135454527D01*
X62437952Y-135454533D01*
X62506314Y-135619575D01*
X62506319Y-135619584D01*
X62605564Y-135768114D01*
X62605567Y-135768118D01*
X62731881Y-135894432D01*
X62731885Y-135894435D01*
X62880415Y-135993680D01*
X62880421Y-135993683D01*
X62880422Y-135993684D01*
X63045467Y-136062048D01*
X63045471Y-136062048D01*
X63045472Y-136062049D01*
X63220675Y-136096900D01*
X63220678Y-136096900D01*
X66059324Y-136096900D01*
X66177198Y-136073452D01*
X66234533Y-136062048D01*
X66399578Y-135993684D01*
X66548115Y-135894435D01*
X67363227Y-135079324D01*
X67883099Y-135079324D01*
X67917950Y-135254527D01*
X67917952Y-135254533D01*
X67986314Y-135419575D01*
X67986319Y-135419584D01*
X68085564Y-135568114D01*
X68085567Y-135568118D01*
X68211881Y-135694432D01*
X68211885Y-135694435D01*
X68360415Y-135793680D01*
X68360421Y-135793683D01*
X68360422Y-135793684D01*
X68525467Y-135862048D01*
X68525471Y-135862048D01*
X68525472Y-135862049D01*
X68700675Y-135896900D01*
X68884289Y-135896900D01*
X68888697Y-135896978D01*
X68898680Y-135897333D01*
X68930692Y-135903701D01*
X69069309Y-135903701D01*
X69069314Y-135903700D01*
X71267179Y-135903700D01*
X71334218Y-135923385D01*
X71379973Y-135976189D01*
X71381740Y-135980247D01*
X71406314Y-136039574D01*
X71406319Y-136039584D01*
X71505564Y-136188114D01*
X71505567Y-136188118D01*
X71631881Y-136314432D01*
X71631885Y-136314435D01*
X71780415Y-136413680D01*
X71780421Y-136413683D01*
X71780422Y-136413684D01*
X71945467Y-136482048D01*
X71945471Y-136482048D01*
X71945472Y-136482049D01*
X72120675Y-136516900D01*
X72120678Y-136516900D01*
X72299324Y-136516900D01*
X72417198Y-136493452D01*
X72474533Y-136482048D01*
X72639578Y-136413684D01*
X72788115Y-136314435D01*
X72914435Y-136188115D01*
X73013684Y-136039578D01*
X73082048Y-135874533D01*
X73098131Y-135793680D01*
X73116900Y-135699324D01*
X73116900Y-135520675D01*
X73082049Y-135345472D01*
X73082048Y-135345471D01*
X73082048Y-135345467D01*
X73013684Y-135180422D01*
X73013683Y-135180421D01*
X73013680Y-135180415D01*
X72914435Y-135031885D01*
X72914432Y-135031881D01*
X72788118Y-134905567D01*
X72788114Y-134905564D01*
X72639584Y-134806319D01*
X72639571Y-134806312D01*
X72555854Y-134771636D01*
X72555853Y-134771636D01*
X72474533Y-134737952D01*
X72474527Y-134737950D01*
X72334916Y-134710179D01*
X72273005Y-134677794D01*
X72271427Y-134676243D01*
X72257131Y-134661947D01*
X75460000Y-134661947D01*
X75460000Y-134898052D01*
X75496934Y-135131247D01*
X75569897Y-135355802D01*
X75677087Y-135566174D01*
X75737338Y-135649104D01*
X75737340Y-135649105D01*
X76497449Y-134888996D01*
X76517370Y-134963343D01*
X76579905Y-135071657D01*
X76668343Y-135160095D01*
X76776657Y-135222630D01*
X76851002Y-135242550D01*
X76090893Y-136002658D01*
X76173828Y-136062914D01*
X76384197Y-136170102D01*
X76608752Y-136243065D01*
X76608751Y-136243065D01*
X76841948Y-136280000D01*
X77078052Y-136280000D01*
X77311247Y-136243065D01*
X77535802Y-136170102D01*
X77746163Y-136062918D01*
X77746169Y-136062914D01*
X77829104Y-136002658D01*
X77829104Y-136002657D01*
X77068996Y-135242550D01*
X77143343Y-135222630D01*
X77251657Y-135160095D01*
X77340095Y-135071657D01*
X77402630Y-134963343D01*
X77422550Y-134888996D01*
X78182658Y-135649105D01*
X78182658Y-135649104D01*
X78242914Y-135566169D01*
X78242918Y-135566163D01*
X78350102Y-135355802D01*
X78423065Y-135131247D01*
X78460000Y-134898052D01*
X78460000Y-134661947D01*
X78423065Y-134428752D01*
X78350102Y-134204197D01*
X78242914Y-133993828D01*
X78182658Y-133910894D01*
X78182658Y-133910893D01*
X77422550Y-134671002D01*
X77402630Y-134596657D01*
X77340095Y-134488343D01*
X77251657Y-134399905D01*
X77143343Y-134337370D01*
X77068997Y-134317449D01*
X77829105Y-133557340D01*
X77829104Y-133557338D01*
X77746174Y-133497087D01*
X77535802Y-133389897D01*
X77311247Y-133316934D01*
X77311248Y-133316934D01*
X77078052Y-133280000D01*
X76841948Y-133280000D01*
X76608752Y-133316934D01*
X76384197Y-133389897D01*
X76173830Y-133497084D01*
X76090894Y-133557340D01*
X76851003Y-134317449D01*
X76776657Y-134337370D01*
X76668343Y-134399905D01*
X76579905Y-134488343D01*
X76517370Y-134596657D01*
X76497449Y-134671003D01*
X75737340Y-133910894D01*
X75677084Y-133993830D01*
X75569897Y-134204197D01*
X75496934Y-134428752D01*
X75460000Y-134661947D01*
X72257131Y-134661947D01*
X72248585Y-134653401D01*
X72133323Y-134576386D01*
X72005264Y-134523343D01*
X72005256Y-134523341D01*
X71869310Y-134496299D01*
X71869308Y-134496299D01*
X71730692Y-134496299D01*
X71724578Y-134496299D01*
X71724558Y-134496300D01*
X69617118Y-134496300D01*
X69550079Y-134476615D01*
X69514017Y-134441192D01*
X69494435Y-134411885D01*
X69494433Y-134411883D01*
X69494431Y-134411880D01*
X69368118Y-134285567D01*
X69368114Y-134285564D01*
X69219584Y-134186319D01*
X69219575Y-134186314D01*
X69054533Y-134117952D01*
X69054527Y-134117950D01*
X68879324Y-134083100D01*
X68879322Y-134083100D01*
X68700678Y-134083100D01*
X68700676Y-134083100D01*
X68525472Y-134117950D01*
X68525466Y-134117952D01*
X68360424Y-134186314D01*
X68360415Y-134186319D01*
X68211885Y-134285564D01*
X68211881Y-134285567D01*
X68085567Y-134411881D01*
X68085564Y-134411885D01*
X67986319Y-134560415D01*
X67986314Y-134560424D01*
X67917952Y-134725466D01*
X67917950Y-134725472D01*
X67883100Y-134900675D01*
X67883100Y-134900678D01*
X67883100Y-135079322D01*
X67883100Y-135079324D01*
X67883099Y-135079324D01*
X67363227Y-135079324D01*
X67454436Y-134988115D01*
X67553684Y-134839578D01*
X67622048Y-134674533D01*
X67656900Y-134499321D01*
X67656900Y-134320678D01*
X67656900Y-134320675D01*
X67622049Y-134145472D01*
X67622048Y-134145471D01*
X67622048Y-134145467D01*
X67553684Y-133980422D01*
X67454436Y-133831885D01*
X67454434Y-133831883D01*
X67454432Y-133831880D01*
X67328118Y-133705566D01*
X67326152Y-133704252D01*
X67179578Y-133606316D01*
X67014533Y-133537952D01*
X67014527Y-133537950D01*
X66839324Y-133503100D01*
X66839322Y-133503100D01*
X66660678Y-133503100D01*
X66660676Y-133503100D01*
X66485472Y-133537950D01*
X66485466Y-133537952D01*
X66320423Y-133606315D01*
X66171880Y-133705567D01*
X66171879Y-133705568D01*
X65630669Y-134246781D01*
X65569346Y-134280266D01*
X65542988Y-134283100D01*
X63220676Y-134283100D01*
X63045472Y-134317950D01*
X63045466Y-134317952D01*
X62880424Y-134386314D01*
X62880415Y-134386319D01*
X62731885Y-134485564D01*
X62731881Y-134485567D01*
X62605567Y-134611881D01*
X62605564Y-134611885D01*
X62506319Y-134760415D01*
X62506314Y-134760424D01*
X62437952Y-134925466D01*
X62437950Y-134925472D01*
X62403100Y-135100675D01*
X62403100Y-135100678D01*
X62403100Y-135279322D01*
X62403100Y-135279324D01*
X62403099Y-135279324D01*
X52015300Y-135279324D01*
X52015300Y-133498652D01*
X52034985Y-133431613D01*
X52087789Y-133385858D01*
X52156947Y-133375914D01*
X52220503Y-133404939D01*
X52237674Y-133423164D01*
X52256382Y-133447545D01*
X52289698Y-133490963D01*
X52289704Y-133490970D01*
X52489029Y-133690295D01*
X52489033Y-133690298D01*
X52489035Y-133690300D01*
X52712683Y-133861912D01*
X52712690Y-133861916D01*
X52956809Y-134002859D01*
X52956814Y-134002861D01*
X52956817Y-134002863D01*
X53217261Y-134110742D01*
X53489558Y-134183704D01*
X53769049Y-134220500D01*
X53769056Y-134220500D01*
X54050944Y-134220500D01*
X54050951Y-134220500D01*
X54330442Y-134183704D01*
X54602739Y-134110742D01*
X54863183Y-134002863D01*
X55107317Y-133861912D01*
X55330965Y-133690300D01*
X55530300Y-133490965D01*
X55701912Y-133267317D01*
X55842863Y-133023183D01*
X55950742Y-132762739D01*
X56023704Y-132490442D01*
X56060500Y-132210951D01*
X56060500Y-131929049D01*
X56023704Y-131649558D01*
X55950742Y-131377261D01*
X55842863Y-131116817D01*
X55842861Y-131116814D01*
X55842859Y-131116809D01*
X55701916Y-130872690D01*
X55701912Y-130872683D01*
X55530300Y-130649035D01*
X55530298Y-130649033D01*
X55530295Y-130649029D01*
X55330970Y-130449704D01*
X55323466Y-130443946D01*
X55107317Y-130278088D01*
X55107311Y-130278084D01*
X55107309Y-130278083D01*
X54863190Y-130137140D01*
X54863179Y-130137135D01*
X54602743Y-130029259D01*
X54330439Y-129956295D01*
X54050958Y-129919500D01*
X54050951Y-129919500D01*
X53769049Y-129919500D01*
X53769041Y-129919500D01*
X53489560Y-129956295D01*
X53217256Y-130029259D01*
X52956820Y-130137135D01*
X52956809Y-130137140D01*
X52712690Y-130278083D01*
X52712684Y-130278087D01*
X52712683Y-130278088D01*
X52712632Y-130278127D01*
X52489029Y-130449704D01*
X52289704Y-130649029D01*
X52237676Y-130716834D01*
X52213457Y-130734517D01*
X52190811Y-130754141D01*
X52185545Y-130754898D01*
X52181248Y-130758036D01*
X52151324Y-130759818D01*
X52121653Y-130764085D01*
X52116812Y-130761874D01*
X52111502Y-130762191D01*
X52085367Y-130747514D01*
X52058097Y-130735060D01*
X52055219Y-130730583D01*
X52050581Y-130727978D01*
X52036530Y-130701501D01*
X52020323Y-130676282D01*
X52019273Y-130668983D01*
X52017829Y-130666261D01*
X52015300Y-130641347D01*
X52015300Y-130524875D01*
X52015682Y-130515146D01*
X52017888Y-130487111D01*
X52029243Y-130342829D01*
X52032285Y-130323624D01*
X52071497Y-130160296D01*
X52077503Y-130141811D01*
X52141782Y-129986629D01*
X52150615Y-129969295D01*
X52151131Y-129968454D01*
X52238369Y-129826092D01*
X52249805Y-129810354D01*
X52358882Y-129682641D01*
X52372641Y-129668882D01*
X52500354Y-129559805D01*
X52516095Y-129548368D01*
X52659298Y-129460613D01*
X52676629Y-129451782D01*
X52831811Y-129387503D01*
X52850296Y-129381497D01*
X53013624Y-129342285D01*
X53032829Y-129339243D01*
X53205146Y-129325681D01*
X53214875Y-129325300D01*
X55919085Y-129325300D01*
X55919089Y-129325300D01*
X56025027Y-129316521D01*
X56335832Y-129290768D01*
X56335838Y-129290767D01*
X56748312Y-129221937D01*
X57153693Y-129119281D01*
X57549213Y-128983499D01*
X57932169Y-128815519D01*
X58299945Y-128616488D01*
X58650029Y-128387767D01*
X58980030Y-128130917D01*
X59287693Y-127847693D01*
X59570917Y-127540030D01*
X59682320Y-127396900D01*
X59827751Y-127210050D01*
X59827754Y-127210044D01*
X59827767Y-127210029D01*
X60056488Y-126859945D01*
X60255519Y-126492169D01*
X60423499Y-126109213D01*
X60467424Y-125981263D01*
X62690500Y-125981263D01*
X62690500Y-126178736D01*
X62721389Y-126373763D01*
X62759862Y-126492168D01*
X62782409Y-126561561D01*
X62872056Y-126737501D01*
X62872058Y-126737504D01*
X62988115Y-126897246D01*
X63127753Y-127036884D01*
X63251787Y-127126998D01*
X63287499Y-127152944D01*
X63418151Y-127219515D01*
X63468947Y-127267490D01*
X63485742Y-127335311D01*
X63463204Y-127401446D01*
X63418151Y-127440484D01*
X63301017Y-127500167D01*
X63287495Y-127507058D01*
X63127753Y-127623115D01*
X62988115Y-127762753D01*
X62872058Y-127922495D01*
X62782408Y-128098441D01*
X62721389Y-128286236D01*
X62690500Y-128481263D01*
X62690500Y-128678736D01*
X62721389Y-128873763D01*
X62782408Y-129061558D01*
X62782409Y-129061561D01*
X62864126Y-129221937D01*
X62872058Y-129237504D01*
X62988115Y-129397246D01*
X63127751Y-129536882D01*
X63216253Y-129601181D01*
X63258920Y-129656511D01*
X63264899Y-129726124D01*
X63232294Y-129787919D01*
X63171456Y-129822277D01*
X63146426Y-129825152D01*
X63146436Y-129825324D01*
X63143626Y-129825474D01*
X63143404Y-129825500D01*
X63143147Y-129825500D01*
X63143123Y-129825501D01*
X63083516Y-129831908D01*
X62948671Y-129882202D01*
X62948664Y-129882206D01*
X62833455Y-129968452D01*
X62833452Y-129968455D01*
X62747206Y-130083664D01*
X62747202Y-130083671D01*
X62696908Y-130218517D01*
X62690505Y-130278083D01*
X62690501Y-130278123D01*
X62690500Y-130278135D01*
X62690500Y-131881870D01*
X62690501Y-131881876D01*
X62696908Y-131941483D01*
X62747202Y-132076328D01*
X62747206Y-132076335D01*
X62833452Y-132191544D01*
X62833455Y-132191547D01*
X62948664Y-132277793D01*
X62948671Y-132277797D01*
X63083517Y-132328091D01*
X63083516Y-132328091D01*
X63090444Y-132328835D01*
X63143127Y-132334500D01*
X64746872Y-132334499D01*
X64806483Y-132328091D01*
X64941331Y-132277796D01*
X65056546Y-132191546D01*
X65142796Y-132076331D01*
X65193091Y-131941483D01*
X65199500Y-131881873D01*
X65199499Y-130693175D01*
X69284500Y-130693175D01*
X69284500Y-130901824D01*
X69317137Y-131107889D01*
X69381612Y-131306320D01*
X69450485Y-131441490D01*
X69476330Y-131492214D01*
X69598965Y-131661005D01*
X69746495Y-131808535D01*
X69915286Y-131931170D01*
X69935525Y-131941482D01*
X70101179Y-132025887D01*
X70101181Y-132025887D01*
X70101184Y-132025889D01*
X70207545Y-132060448D01*
X70299610Y-132090362D01*
X70505676Y-132123000D01*
X70505681Y-132123000D01*
X70714324Y-132123000D01*
X70920389Y-132090362D01*
X70921894Y-132089873D01*
X71118816Y-132025889D01*
X71304714Y-131931170D01*
X71473505Y-131808535D01*
X71621035Y-131661005D01*
X71743670Y-131492214D01*
X71769796Y-131440937D01*
X71817769Y-131390142D01*
X71885590Y-131373346D01*
X71951725Y-131395883D01*
X71990766Y-131440937D01*
X72016759Y-131491951D01*
X72052627Y-131541318D01*
X72052627Y-131541319D01*
X72728274Y-130865671D01*
X72753963Y-130961544D01*
X72809916Y-131058456D01*
X72889044Y-131137584D01*
X72985956Y-131193537D01*
X73081827Y-131219225D01*
X72406179Y-131894871D01*
X72406180Y-131894872D01*
X72455543Y-131930736D01*
X72455556Y-131930744D01*
X72641372Y-132025424D01*
X72839727Y-132089873D01*
X73045721Y-132122500D01*
X73254279Y-132122500D01*
X73460272Y-132089873D01*
X73658627Y-132025424D01*
X73844451Y-131930740D01*
X73893818Y-131894872D01*
X73893818Y-131894871D01*
X73218172Y-131219225D01*
X73314044Y-131193537D01*
X73410956Y-131137584D01*
X73490084Y-131058456D01*
X73546037Y-130961544D01*
X73571725Y-130865672D01*
X74247371Y-131541318D01*
X74247372Y-131541318D01*
X74283242Y-131491949D01*
X74283242Y-131491948D01*
X74309233Y-131440938D01*
X74357206Y-131390142D01*
X74425027Y-131373346D01*
X74491162Y-131395883D01*
X74530203Y-131440937D01*
X74556330Y-131492214D01*
X74678965Y-131661005D01*
X74826495Y-131808535D01*
X74995286Y-131931170D01*
X75015525Y-131941482D01*
X75181179Y-132025887D01*
X75181181Y-132025887D01*
X75181184Y-132025889D01*
X75287545Y-132060448D01*
X75379610Y-132090362D01*
X75585676Y-132123000D01*
X75585681Y-132123000D01*
X75794324Y-132123000D01*
X76000389Y-132090362D01*
X76001894Y-132089873D01*
X76198816Y-132025889D01*
X76384714Y-131931170D01*
X76553505Y-131808535D01*
X76701035Y-131661005D01*
X76823670Y-131492214D01*
X76849515Y-131441490D01*
X76897489Y-131390694D01*
X76965310Y-131373898D01*
X77031445Y-131396435D01*
X77070485Y-131441490D01*
X77096328Y-131492212D01*
X77132006Y-131541318D01*
X77218965Y-131661005D01*
X77366495Y-131808535D01*
X77535286Y-131931170D01*
X77555525Y-131941482D01*
X77721179Y-132025887D01*
X77721181Y-132025887D01*
X77721184Y-132025889D01*
X77827545Y-132060448D01*
X77919610Y-132090362D01*
X78125676Y-132123000D01*
X78125681Y-132123000D01*
X78334324Y-132123000D01*
X78540389Y-132090362D01*
X78541894Y-132089873D01*
X78738816Y-132025889D01*
X78924714Y-131931170D01*
X79093505Y-131808535D01*
X79241035Y-131661005D01*
X79363670Y-131492214D01*
X79389515Y-131441490D01*
X79437489Y-131390694D01*
X79505310Y-131373898D01*
X79571445Y-131396435D01*
X79610485Y-131441490D01*
X79636328Y-131492212D01*
X79672006Y-131541318D01*
X79758965Y-131661005D01*
X79906495Y-131808535D01*
X80075286Y-131931170D01*
X80095525Y-131941482D01*
X80261179Y-132025887D01*
X80261181Y-132025887D01*
X80261184Y-132025889D01*
X80367545Y-132060448D01*
X80459610Y-132090362D01*
X80665676Y-132123000D01*
X80665681Y-132123000D01*
X80874324Y-132123000D01*
X81080389Y-132090362D01*
X81081894Y-132089873D01*
X81278816Y-132025889D01*
X81464714Y-131931170D01*
X81633505Y-131808535D01*
X81781035Y-131661005D01*
X81903670Y-131492214D01*
X81929515Y-131441490D01*
X81977489Y-131390694D01*
X82045310Y-131373898D01*
X82111445Y-131396435D01*
X82150485Y-131441490D01*
X82176328Y-131492212D01*
X82212006Y-131541318D01*
X82298965Y-131661005D01*
X82446495Y-131808535D01*
X82615286Y-131931170D01*
X82635525Y-131941482D01*
X82801179Y-132025887D01*
X82801181Y-132025887D01*
X82801184Y-132025889D01*
X82907545Y-132060448D01*
X82999610Y-132090362D01*
X83205676Y-132123000D01*
X83205681Y-132123000D01*
X83414324Y-132123000D01*
X83620389Y-132090362D01*
X83621894Y-132089873D01*
X83818816Y-132025889D01*
X84004714Y-131931170D01*
X84173505Y-131808535D01*
X84321035Y-131661005D01*
X84443670Y-131492214D01*
X84469515Y-131441490D01*
X84517489Y-131390694D01*
X84585310Y-131373898D01*
X84651445Y-131396435D01*
X84690485Y-131441490D01*
X84716328Y-131492212D01*
X84752006Y-131541318D01*
X84838965Y-131661005D01*
X84986495Y-131808535D01*
X85155286Y-131931170D01*
X85175525Y-131941482D01*
X85341179Y-132025887D01*
X85341181Y-132025887D01*
X85341184Y-132025889D01*
X85447545Y-132060448D01*
X85539610Y-132090362D01*
X85745676Y-132123000D01*
X85745681Y-132123000D01*
X85954324Y-132123000D01*
X86160389Y-132090362D01*
X86161894Y-132089873D01*
X86358816Y-132025889D01*
X86544714Y-131931170D01*
X86713505Y-131808535D01*
X86861035Y-131661005D01*
X86983670Y-131492214D01*
X87009796Y-131440937D01*
X87057769Y-131390142D01*
X87125590Y-131373346D01*
X87191725Y-131395883D01*
X87230766Y-131440937D01*
X87256759Y-131491951D01*
X87292627Y-131541318D01*
X87292627Y-131541319D01*
X87968274Y-130865672D01*
X87993963Y-130961544D01*
X88049916Y-131058456D01*
X88129044Y-131137584D01*
X88225956Y-131193537D01*
X88321827Y-131219225D01*
X87646179Y-131894871D01*
X87646180Y-131894872D01*
X87695543Y-131930736D01*
X87695556Y-131930744D01*
X87881372Y-132025424D01*
X88079727Y-132089873D01*
X88285721Y-132122500D01*
X88494279Y-132122500D01*
X88700272Y-132089873D01*
X88898627Y-132025424D01*
X89084451Y-131930740D01*
X89133818Y-131894872D01*
X89133818Y-131894871D01*
X88458172Y-131219225D01*
X88554044Y-131193537D01*
X88650956Y-131137584D01*
X88730084Y-131058456D01*
X88786037Y-130961544D01*
X88811725Y-130865672D01*
X89487371Y-131541318D01*
X89487372Y-131541318D01*
X89523240Y-131491951D01*
X89617924Y-131306127D01*
X89682373Y-131107772D01*
X89715000Y-130901779D01*
X89715000Y-130693220D01*
X89682373Y-130487227D01*
X89617924Y-130288872D01*
X89523244Y-130103056D01*
X89523236Y-130103043D01*
X89487372Y-130053680D01*
X89487371Y-130053679D01*
X88811725Y-130729326D01*
X88786037Y-130633456D01*
X88730084Y-130536544D01*
X88650956Y-130457416D01*
X88554044Y-130401463D01*
X88458171Y-130375774D01*
X89133819Y-129700127D01*
X89084451Y-129664259D01*
X88898627Y-129569575D01*
X88700272Y-129505126D01*
X88494279Y-129472500D01*
X88285721Y-129472500D01*
X88079727Y-129505126D01*
X87881372Y-129569575D01*
X87695552Y-129664257D01*
X87646180Y-129700127D01*
X88321828Y-130375774D01*
X88225956Y-130401463D01*
X88129044Y-130457416D01*
X88049916Y-130536544D01*
X87993963Y-130633456D01*
X87968274Y-130729327D01*
X87292627Y-130053680D01*
X87256755Y-130103055D01*
X87230765Y-130154063D01*
X87182790Y-130204858D01*
X87114969Y-130221653D01*
X87048834Y-130199115D01*
X87009796Y-130154061D01*
X86983671Y-130102787D01*
X86886071Y-129968454D01*
X86861035Y-129933995D01*
X86713505Y-129786465D01*
X86544714Y-129663830D01*
X86523349Y-129652944D01*
X86358820Y-129569112D01*
X86160389Y-129504637D01*
X85954324Y-129472000D01*
X85954319Y-129472000D01*
X85745681Y-129472000D01*
X85745676Y-129472000D01*
X85539610Y-129504637D01*
X85341179Y-129569112D01*
X85155285Y-129663830D01*
X84986493Y-129786466D01*
X84838966Y-129933993D01*
X84716330Y-130102785D01*
X84690485Y-130153510D01*
X84642510Y-130204306D01*
X84574690Y-130221101D01*
X84508555Y-130198564D01*
X84469515Y-130153510D01*
X84461174Y-130137140D01*
X84443670Y-130102786D01*
X84321035Y-129933995D01*
X84173505Y-129786465D01*
X84004714Y-129663830D01*
X83983349Y-129652944D01*
X83818820Y-129569112D01*
X83620389Y-129504637D01*
X83414324Y-129472000D01*
X83414319Y-129472000D01*
X83205681Y-129472000D01*
X83205676Y-129472000D01*
X82999610Y-129504637D01*
X82801179Y-129569112D01*
X82615285Y-129663830D01*
X82446493Y-129786466D01*
X82298966Y-129933993D01*
X82176330Y-130102785D01*
X82150485Y-130153510D01*
X82102510Y-130204306D01*
X82034690Y-130221101D01*
X81968555Y-130198564D01*
X81929515Y-130153510D01*
X81921174Y-130137140D01*
X81903670Y-130102786D01*
X81781035Y-129933995D01*
X81633505Y-129786465D01*
X81464714Y-129663830D01*
X81443349Y-129652944D01*
X81278820Y-129569112D01*
X81080389Y-129504637D01*
X80874324Y-129472000D01*
X80874319Y-129472000D01*
X80665681Y-129472000D01*
X80665676Y-129472000D01*
X80459610Y-129504637D01*
X80261179Y-129569112D01*
X80075285Y-129663830D01*
X79906493Y-129786466D01*
X79758966Y-129933993D01*
X79636330Y-130102785D01*
X79610485Y-130153510D01*
X79562510Y-130204306D01*
X79494690Y-130221101D01*
X79428555Y-130198564D01*
X79389515Y-130153510D01*
X79381174Y-130137140D01*
X79363670Y-130102786D01*
X79241035Y-129933995D01*
X79093505Y-129786465D01*
X78924714Y-129663830D01*
X78903349Y-129652944D01*
X78738820Y-129569112D01*
X78540389Y-129504637D01*
X78334324Y-129472000D01*
X78334319Y-129472000D01*
X78125681Y-129472000D01*
X78125676Y-129472000D01*
X77919610Y-129504637D01*
X77721179Y-129569112D01*
X77535285Y-129663830D01*
X77366493Y-129786466D01*
X77218966Y-129933993D01*
X77096330Y-130102785D01*
X77070485Y-130153510D01*
X77022510Y-130204306D01*
X76954690Y-130221101D01*
X76888555Y-130198564D01*
X76849515Y-130153510D01*
X76841174Y-130137140D01*
X76823670Y-130102786D01*
X76701035Y-129933995D01*
X76553505Y-129786465D01*
X76384714Y-129663830D01*
X76363349Y-129652944D01*
X76198820Y-129569112D01*
X76000389Y-129504637D01*
X75794324Y-129472000D01*
X75794319Y-129472000D01*
X75585681Y-129472000D01*
X75585676Y-129472000D01*
X75379610Y-129504637D01*
X75181179Y-129569112D01*
X74995285Y-129663830D01*
X74826493Y-129786466D01*
X74678966Y-129933993D01*
X74556328Y-130102788D01*
X74530202Y-130154063D01*
X74482227Y-130204858D01*
X74414406Y-130221653D01*
X74348272Y-130199115D01*
X74309233Y-130154061D01*
X74283247Y-130103061D01*
X74283236Y-130103043D01*
X74247372Y-130053680D01*
X74247371Y-130053679D01*
X73571725Y-130729326D01*
X73546037Y-130633456D01*
X73490084Y-130536544D01*
X73410956Y-130457416D01*
X73314044Y-130401463D01*
X73218171Y-130375774D01*
X73893819Y-129700127D01*
X73844451Y-129664259D01*
X73658627Y-129569575D01*
X73460272Y-129505126D01*
X73254279Y-129472500D01*
X73045721Y-129472500D01*
X72839727Y-129505126D01*
X72641372Y-129569575D01*
X72455552Y-129664257D01*
X72406180Y-129700127D01*
X73081828Y-130375774D01*
X72985956Y-130401463D01*
X72889044Y-130457416D01*
X72809916Y-130536544D01*
X72753963Y-130633456D01*
X72728274Y-130729327D01*
X72052627Y-130053680D01*
X72016755Y-130103055D01*
X71990765Y-130154063D01*
X71942790Y-130204858D01*
X71874969Y-130221653D01*
X71808834Y-130199115D01*
X71769796Y-130154061D01*
X71743671Y-130102787D01*
X71646071Y-129968454D01*
X71621035Y-129933995D01*
X71473505Y-129786465D01*
X71304714Y-129663830D01*
X71283349Y-129652944D01*
X71118820Y-129569112D01*
X70920389Y-129504637D01*
X70714324Y-129472000D01*
X70714319Y-129472000D01*
X70505681Y-129472000D01*
X70505676Y-129472000D01*
X70299610Y-129504637D01*
X70101179Y-129569112D01*
X69915285Y-129663830D01*
X69746493Y-129786466D01*
X69598966Y-129933993D01*
X69476330Y-130102785D01*
X69381612Y-130288679D01*
X69317137Y-130487110D01*
X69284500Y-130693175D01*
X65199499Y-130693175D01*
X65199499Y-130278128D01*
X65193091Y-130218517D01*
X65173894Y-130167048D01*
X65142797Y-130083671D01*
X65142793Y-130083664D01*
X65056547Y-129968455D01*
X65056544Y-129968452D01*
X64941335Y-129882206D01*
X64941328Y-129882202D01*
X64806482Y-129831908D01*
X64806483Y-129831908D01*
X64746883Y-129825501D01*
X64746881Y-129825500D01*
X64746873Y-129825500D01*
X64746865Y-129825500D01*
X64746632Y-129825500D01*
X64746579Y-129825484D01*
X64743548Y-129825322D01*
X64743586Y-129824605D01*
X64679593Y-129805815D01*
X64633838Y-129753011D01*
X64623894Y-129683853D01*
X64652919Y-129620297D01*
X64673747Y-129601182D01*
X64762246Y-129536884D01*
X64762248Y-129536881D01*
X64762252Y-129536879D01*
X64901879Y-129397252D01*
X64901881Y-129397248D01*
X64901884Y-129397246D01*
X64954155Y-129325300D01*
X65017944Y-129237501D01*
X65107591Y-129061561D01*
X65168610Y-128873763D01*
X65188911Y-128745589D01*
X65199500Y-128678736D01*
X65199500Y-128481263D01*
X65168610Y-128286236D01*
X65118146Y-128130925D01*
X65107591Y-128098439D01*
X65017944Y-127922499D01*
X64963595Y-127847693D01*
X64901884Y-127762753D01*
X64762246Y-127623115D01*
X64602505Y-127507058D01*
X64596830Y-127504166D01*
X64471846Y-127440483D01*
X64421052Y-127392510D01*
X64404257Y-127324689D01*
X64426794Y-127258554D01*
X64471845Y-127219517D01*
X64602501Y-127152944D01*
X64638213Y-127126998D01*
X64762246Y-127036884D01*
X64762248Y-127036881D01*
X64762252Y-127036879D01*
X64901879Y-126897252D01*
X64901881Y-126897248D01*
X64901884Y-126897246D01*
X64952779Y-126827192D01*
X65017944Y-126737501D01*
X65107591Y-126561561D01*
X65144059Y-126449324D01*
X90023099Y-126449324D01*
X90057950Y-126624527D01*
X90057952Y-126624533D01*
X90126314Y-126789575D01*
X90126319Y-126789584D01*
X90225564Y-126938114D01*
X90225567Y-126938118D01*
X90351881Y-127064432D01*
X90351885Y-127064435D01*
X90500415Y-127163680D01*
X90500421Y-127163683D01*
X90500422Y-127163684D01*
X90665467Y-127232048D01*
X90665471Y-127232048D01*
X90665472Y-127232049D01*
X90840675Y-127266900D01*
X90840678Y-127266900D01*
X91019324Y-127266900D01*
X91141530Y-127242591D01*
X91194533Y-127232048D01*
X91359578Y-127163684D01*
X91359583Y-127163680D01*
X91359586Y-127163679D01*
X91397420Y-127138399D01*
X91464097Y-127117520D01*
X91466312Y-127117500D01*
X92563588Y-127117500D01*
X92630627Y-127137185D01*
X92651270Y-127153820D01*
X92691881Y-127194432D01*
X92691885Y-127194435D01*
X92840415Y-127293680D01*
X92840421Y-127293683D01*
X92840422Y-127293684D01*
X93005467Y-127362048D01*
X93005471Y-127362048D01*
X93005472Y-127362049D01*
X93180675Y-127396900D01*
X93180678Y-127396900D01*
X93359324Y-127396900D01*
X93477198Y-127373452D01*
X93534533Y-127362048D01*
X93699578Y-127293684D01*
X93848115Y-127194435D01*
X93974435Y-127068115D01*
X94073684Y-126919578D01*
X94142048Y-126754533D01*
X94176900Y-126579322D01*
X94176900Y-126400678D01*
X94176900Y-126400675D01*
X94142049Y-126225472D01*
X94142048Y-126225471D01*
X94142048Y-126225467D01*
X94073684Y-126060422D01*
X94073683Y-126060421D01*
X94073680Y-126060415D01*
X93974435Y-125911885D01*
X93974432Y-125911881D01*
X93848118Y-125785567D01*
X93848114Y-125785564D01*
X93699584Y-125686319D01*
X93699575Y-125686314D01*
X93534533Y-125617952D01*
X93534527Y-125617950D01*
X93359324Y-125583100D01*
X93359322Y-125583100D01*
X93180678Y-125583100D01*
X93180676Y-125583100D01*
X93005472Y-125617950D01*
X93005466Y-125617952D01*
X92840424Y-125686314D01*
X92840415Y-125686319D01*
X92691885Y-125785564D01*
X92691881Y-125785567D01*
X92651270Y-125826180D01*
X92589947Y-125859666D01*
X92563588Y-125862500D01*
X91754580Y-125862500D01*
X91687541Y-125842815D01*
X91651478Y-125807391D01*
X91634435Y-125781885D01*
X91634432Y-125781881D01*
X91508118Y-125655567D01*
X91508114Y-125655564D01*
X91359584Y-125556319D01*
X91359575Y-125556314D01*
X91194533Y-125487952D01*
X91194527Y-125487950D01*
X91019324Y-125453100D01*
X91019322Y-125453100D01*
X90840678Y-125453100D01*
X90840676Y-125453100D01*
X90665472Y-125487950D01*
X90665466Y-125487952D01*
X90500424Y-125556314D01*
X90500415Y-125556319D01*
X90351885Y-125655564D01*
X90351881Y-125655567D01*
X90225567Y-125781881D01*
X90225564Y-125781885D01*
X90126319Y-125930415D01*
X90126314Y-125930424D01*
X90057952Y-126095466D01*
X90057950Y-126095472D01*
X90023100Y-126270675D01*
X90023100Y-126270678D01*
X90023100Y-126449322D01*
X90023100Y-126449324D01*
X90023099Y-126449324D01*
X65144059Y-126449324D01*
X65168610Y-126373763D01*
X65188975Y-126245188D01*
X65199500Y-126178736D01*
X65199500Y-125981263D01*
X65168610Y-125786236D01*
X65113930Y-125617950D01*
X65107591Y-125598439D01*
X65017944Y-125422499D01*
X65010486Y-125412234D01*
X64901884Y-125262753D01*
X64762246Y-125123115D01*
X64602505Y-125007058D01*
X64598039Y-125004782D01*
X64471295Y-124940202D01*
X64420502Y-124892231D01*
X64403707Y-124824410D01*
X64426244Y-124758275D01*
X64471298Y-124719235D01*
X64602241Y-124652516D01*
X64637988Y-124626543D01*
X64637988Y-124626541D01*
X64074410Y-124062962D01*
X64137993Y-124045925D01*
X64252007Y-123980099D01*
X64345099Y-123887007D01*
X64410925Y-123772993D01*
X64427962Y-123709409D01*
X64991541Y-124272988D01*
X64991543Y-124272988D01*
X65017516Y-124237241D01*
X65107126Y-124061373D01*
X65168123Y-123873646D01*
X65199000Y-123678697D01*
X65199000Y-123481302D01*
X65168123Y-123286353D01*
X65107126Y-123098626D01*
X65017520Y-122922768D01*
X65017512Y-122922755D01*
X64991542Y-122887010D01*
X64991541Y-122887009D01*
X64427962Y-123450589D01*
X64410925Y-123387007D01*
X64345099Y-123272993D01*
X64252007Y-123179901D01*
X64137993Y-123114075D01*
X64074409Y-123097037D01*
X64637988Y-122533458D01*
X64637988Y-122533457D01*
X64602239Y-122507483D01*
X64601556Y-122507135D01*
X69369500Y-122507135D01*
X69369500Y-124402870D01*
X69369501Y-124402876D01*
X69375908Y-124462483D01*
X69426202Y-124597328D01*
X69426206Y-124597335D01*
X69512452Y-124712544D01*
X69512455Y-124712547D01*
X69627664Y-124798793D01*
X69627671Y-124798797D01*
X69762517Y-124849091D01*
X69762516Y-124849091D01*
X69769444Y-124849835D01*
X69822127Y-124855500D01*
X71717872Y-124855499D01*
X71777483Y-124849091D01*
X71912331Y-124798796D01*
X72027546Y-124712546D01*
X72113796Y-124597331D01*
X72134311Y-124542328D01*
X72142340Y-124520801D01*
X72184211Y-124464867D01*
X72249675Y-124440450D01*
X72317948Y-124455301D01*
X72346203Y-124476453D01*
X72373922Y-124504172D01*
X72549081Y-124631433D01*
X72643697Y-124679642D01*
X72741990Y-124729726D01*
X72741993Y-124729727D01*
X72829857Y-124758275D01*
X72947903Y-124796630D01*
X73161746Y-124830500D01*
X73161747Y-124830500D01*
X73378253Y-124830500D01*
X73378254Y-124830500D01*
X73592097Y-124796630D01*
X73798009Y-124729726D01*
X73990919Y-124631433D01*
X74166078Y-124504172D01*
X74319172Y-124351078D01*
X74419682Y-124212737D01*
X74475012Y-124170073D01*
X74544626Y-124164094D01*
X74606421Y-124196700D01*
X74620316Y-124212735D01*
X74720828Y-124351078D01*
X74873922Y-124504172D01*
X75049081Y-124631433D01*
X75143697Y-124679642D01*
X75241990Y-124729726D01*
X75241993Y-124729727D01*
X75329857Y-124758275D01*
X75447903Y-124796630D01*
X75661746Y-124830500D01*
X75661747Y-124830500D01*
X75878253Y-124830500D01*
X75878254Y-124830500D01*
X76092097Y-124796630D01*
X76298009Y-124729726D01*
X76490919Y-124631433D01*
X76666078Y-124504172D01*
X76819172Y-124351078D01*
X76919682Y-124212737D01*
X76975012Y-124170073D01*
X77044626Y-124164094D01*
X77106421Y-124196700D01*
X77120316Y-124212735D01*
X77220828Y-124351078D01*
X77373922Y-124504172D01*
X77549081Y-124631433D01*
X77643697Y-124679642D01*
X77741990Y-124729726D01*
X77741993Y-124729727D01*
X77829857Y-124758275D01*
X77947903Y-124796630D01*
X78161746Y-124830500D01*
X78161747Y-124830500D01*
X78378253Y-124830500D01*
X78378254Y-124830500D01*
X78592097Y-124796630D01*
X78798009Y-124729726D01*
X78990919Y-124631433D01*
X79166078Y-124504172D01*
X79319172Y-124351078D01*
X79446433Y-124175919D01*
X79544726Y-123983009D01*
X79611630Y-123777097D01*
X79645500Y-123563254D01*
X79645500Y-123346746D01*
X79611630Y-123132903D01*
X79544726Y-122926991D01*
X79544726Y-122926990D01*
X79494642Y-122828697D01*
X79446433Y-122734081D01*
X79319172Y-122558922D01*
X79166078Y-122405828D01*
X79161023Y-122402155D01*
X82525000Y-122402155D01*
X82525000Y-123125000D01*
X83488120Y-123125000D01*
X83460778Y-123172358D01*
X83425000Y-123305882D01*
X83425000Y-123444118D01*
X83460778Y-123577642D01*
X83488120Y-123625000D01*
X82525000Y-123625000D01*
X82525000Y-124347844D01*
X82531401Y-124407372D01*
X82531403Y-124407379D01*
X82581645Y-124542086D01*
X82581649Y-124542093D01*
X82667809Y-124657187D01*
X82667812Y-124657190D01*
X82782906Y-124743350D01*
X82782913Y-124743354D01*
X82917620Y-124793596D01*
X82917627Y-124793598D01*
X82977155Y-124799999D01*
X82977172Y-124800000D01*
X83700000Y-124800000D01*
X83700000Y-123836879D01*
X83747358Y-123864222D01*
X83880882Y-123900000D01*
X84019118Y-123900000D01*
X84152642Y-123864222D01*
X84200000Y-123836879D01*
X84200000Y-124800000D01*
X84922828Y-124800000D01*
X84922844Y-124799999D01*
X84982372Y-124793598D01*
X84982379Y-124793596D01*
X85117086Y-124743354D01*
X85117093Y-124743350D01*
X85232187Y-124657190D01*
X85232190Y-124657187D01*
X85318350Y-124542093D01*
X85318355Y-124542084D01*
X85346951Y-124465413D01*
X85388821Y-124409479D01*
X85454285Y-124385061D01*
X85522558Y-124399912D01*
X85550814Y-124421064D01*
X85553922Y-124424172D01*
X85729081Y-124551433D01*
X85819168Y-124597335D01*
X85921990Y-124649726D01*
X85921993Y-124649727D01*
X86024947Y-124683178D01*
X86127903Y-124716630D01*
X86341746Y-124750500D01*
X86341747Y-124750500D01*
X86558253Y-124750500D01*
X86558254Y-124750500D01*
X86772097Y-124716630D01*
X86978009Y-124649726D01*
X87170919Y-124551433D01*
X87346078Y-124424172D01*
X87499172Y-124271078D01*
X87626433Y-124095919D01*
X87724726Y-123903009D01*
X87791630Y-123697097D01*
X87825500Y-123483254D01*
X87825500Y-123266746D01*
X87791630Y-123052903D01*
X87737729Y-122887010D01*
X87724727Y-122846993D01*
X87724726Y-122846990D01*
X87626432Y-122654080D01*
X87607624Y-122628193D01*
X87499172Y-122478922D01*
X87422385Y-122402135D01*
X90824500Y-122402135D01*
X90824500Y-124347870D01*
X90824501Y-124347876D01*
X90830908Y-124407483D01*
X90881202Y-124542328D01*
X90881206Y-124542335D01*
X90967452Y-124657544D01*
X90967455Y-124657547D01*
X91082664Y-124743793D01*
X91082671Y-124743797D01*
X91217517Y-124794091D01*
X91217516Y-124794091D01*
X91224444Y-124794835D01*
X91277127Y-124800500D01*
X93222872Y-124800499D01*
X93282483Y-124794091D01*
X93417331Y-124743796D01*
X93532546Y-124657546D01*
X93618796Y-124542331D01*
X93633028Y-124504172D01*
X93647340Y-124465801D01*
X93689211Y-124409867D01*
X93754675Y-124385450D01*
X93822948Y-124400301D01*
X93851203Y-124421453D01*
X93853922Y-124424172D01*
X94029081Y-124551433D01*
X94119168Y-124597335D01*
X94221990Y-124649726D01*
X94221993Y-124649727D01*
X94324947Y-124683178D01*
X94427903Y-124716630D01*
X94641746Y-124750500D01*
X94641747Y-124750500D01*
X94858253Y-124750500D01*
X94858254Y-124750500D01*
X95072097Y-124716630D01*
X95278009Y-124649726D01*
X95470919Y-124551433D01*
X95646078Y-124424172D01*
X95799172Y-124271078D01*
X95926433Y-124095919D01*
X96024726Y-123903009D01*
X96091630Y-123697097D01*
X96125500Y-123483254D01*
X96125500Y-123266746D01*
X96091630Y-123052903D01*
X96037729Y-122887010D01*
X96024727Y-122846993D01*
X96024726Y-122846990D01*
X95926432Y-122654080D01*
X95907624Y-122628193D01*
X95799172Y-122478922D01*
X95646078Y-122325828D01*
X95470919Y-122198567D01*
X95435017Y-122180274D01*
X95278009Y-122100273D01*
X95278006Y-122100272D01*
X95072098Y-122033370D01*
X94903390Y-122006649D01*
X94858254Y-121999500D01*
X94641746Y-121999500D01*
X94599407Y-122006206D01*
X94427901Y-122033370D01*
X94221993Y-122100272D01*
X94221990Y-122100273D01*
X94029080Y-122198567D01*
X93929145Y-122271174D01*
X93853922Y-122325828D01*
X93853921Y-122325829D01*
X93853920Y-122325830D01*
X93853915Y-122325834D01*
X93851196Y-122328553D01*
X93789870Y-122362033D01*
X93720179Y-122357043D01*
X93664249Y-122315167D01*
X93647340Y-122284198D01*
X93618797Y-122207671D01*
X93618793Y-122207664D01*
X93532547Y-122092455D01*
X93532544Y-122092452D01*
X93417335Y-122006206D01*
X93417328Y-122006202D01*
X93282482Y-121955908D01*
X93282483Y-121955908D01*
X93222883Y-121949501D01*
X93222881Y-121949500D01*
X93222873Y-121949500D01*
X93222864Y-121949500D01*
X91277129Y-121949500D01*
X91277123Y-121949501D01*
X91217516Y-121955908D01*
X91082671Y-122006202D01*
X91082664Y-122006206D01*
X90967455Y-122092452D01*
X90967452Y-122092455D01*
X90881206Y-122207664D01*
X90881202Y-122207671D01*
X90830908Y-122342517D01*
X90824501Y-122402116D01*
X90824500Y-122402135D01*
X87422385Y-122402135D01*
X87346078Y-122325828D01*
X87170919Y-122198567D01*
X87135017Y-122180274D01*
X86978009Y-122100273D01*
X86978006Y-122100272D01*
X86772098Y-122033370D01*
X86603390Y-122006649D01*
X86558254Y-121999500D01*
X86341746Y-121999500D01*
X86299407Y-122006206D01*
X86127901Y-122033370D01*
X85921993Y-122100272D01*
X85921990Y-122100273D01*
X85729080Y-122198567D01*
X85553921Y-122325829D01*
X85550808Y-122328942D01*
X85489482Y-122362422D01*
X85419791Y-122357432D01*
X85363860Y-122315557D01*
X85346951Y-122284586D01*
X85318355Y-122207915D01*
X85318350Y-122207906D01*
X85232190Y-122092812D01*
X85232187Y-122092809D01*
X85117093Y-122006649D01*
X85117086Y-122006645D01*
X84982379Y-121956403D01*
X84982372Y-121956401D01*
X84922844Y-121950000D01*
X84200000Y-121950000D01*
X84200000Y-122913120D01*
X84152642Y-122885778D01*
X84019118Y-122850000D01*
X83880882Y-122850000D01*
X83747358Y-122885778D01*
X83700000Y-122913120D01*
X83700000Y-121950000D01*
X82977155Y-121950000D01*
X82917627Y-121956401D01*
X82917620Y-121956403D01*
X82782913Y-122006645D01*
X82782906Y-122006649D01*
X82667812Y-122092809D01*
X82667809Y-122092812D01*
X82581649Y-122207906D01*
X82581645Y-122207913D01*
X82531403Y-122342620D01*
X82531401Y-122342627D01*
X82525000Y-122402155D01*
X79161023Y-122402155D01*
X78990919Y-122278567D01*
X78798009Y-122180273D01*
X78798006Y-122180272D01*
X78592098Y-122113370D01*
X78460028Y-122092452D01*
X78378254Y-122079500D01*
X78161746Y-122079500D01*
X78090465Y-122090790D01*
X77947901Y-122113370D01*
X77741993Y-122180272D01*
X77741990Y-122180273D01*
X77549080Y-122278567D01*
X77483795Y-122326000D01*
X77373922Y-122405828D01*
X77373920Y-122405830D01*
X77373919Y-122405830D01*
X77220829Y-122558920D01*
X77120318Y-122697261D01*
X77064987Y-122739926D01*
X76995374Y-122745905D01*
X76933579Y-122713299D01*
X76919682Y-122697261D01*
X76876686Y-122638083D01*
X76819172Y-122558922D01*
X76666078Y-122405828D01*
X76490919Y-122278567D01*
X76298009Y-122180273D01*
X76298006Y-122180272D01*
X76092098Y-122113370D01*
X75960028Y-122092452D01*
X75878254Y-122079500D01*
X75661746Y-122079500D01*
X75590465Y-122090790D01*
X75447901Y-122113370D01*
X75241993Y-122180272D01*
X75241990Y-122180273D01*
X75049080Y-122278567D01*
X74983795Y-122326000D01*
X74873922Y-122405828D01*
X74873920Y-122405830D01*
X74873919Y-122405830D01*
X74720829Y-122558920D01*
X74620318Y-122697261D01*
X74564987Y-122739926D01*
X74495374Y-122745905D01*
X74433579Y-122713299D01*
X74419682Y-122697261D01*
X74376686Y-122638083D01*
X74319172Y-122558922D01*
X74166078Y-122405828D01*
X73990919Y-122278567D01*
X73798009Y-122180273D01*
X73798006Y-122180272D01*
X73592098Y-122113370D01*
X73460028Y-122092452D01*
X73378254Y-122079500D01*
X73161746Y-122079500D01*
X73090465Y-122090790D01*
X72947901Y-122113370D01*
X72741993Y-122180272D01*
X72741990Y-122180273D01*
X72549080Y-122278567D01*
X72373922Y-122405828D01*
X72346202Y-122433548D01*
X72284878Y-122467032D01*
X72215187Y-122462046D01*
X72159254Y-122420174D01*
X72142340Y-122389198D01*
X72113797Y-122312671D01*
X72113793Y-122312664D01*
X72027547Y-122197455D01*
X72027544Y-122197452D01*
X71912335Y-122111206D01*
X71912328Y-122111202D01*
X71777482Y-122060908D01*
X71777483Y-122060908D01*
X71717883Y-122054501D01*
X71717881Y-122054500D01*
X71717873Y-122054500D01*
X71717864Y-122054500D01*
X69822129Y-122054500D01*
X69822123Y-122054501D01*
X69762516Y-122060908D01*
X69627671Y-122111202D01*
X69627664Y-122111206D01*
X69512455Y-122197452D01*
X69512452Y-122197455D01*
X69426206Y-122312664D01*
X69426202Y-122312671D01*
X69375908Y-122447517D01*
X69369501Y-122507116D01*
X69369500Y-122507135D01*
X64601556Y-122507135D01*
X64426373Y-122417873D01*
X64238646Y-122356876D01*
X64043697Y-122326000D01*
X63846303Y-122326000D01*
X63651353Y-122356876D01*
X63463626Y-122417873D01*
X63287762Y-122507482D01*
X63287760Y-122507483D01*
X63252010Y-122533456D01*
X63252010Y-122533457D01*
X63815591Y-123097037D01*
X63752007Y-123114075D01*
X63637993Y-123179901D01*
X63544901Y-123272993D01*
X63479075Y-123387007D01*
X63462037Y-123450590D01*
X62898457Y-122887010D01*
X62898456Y-122887010D01*
X62872483Y-122922760D01*
X62872482Y-122922762D01*
X62782873Y-123098626D01*
X62721876Y-123286353D01*
X62691000Y-123481302D01*
X62691000Y-123678697D01*
X62721876Y-123873646D01*
X62782873Y-124061373D01*
X62872483Y-124237239D01*
X62898457Y-124272988D01*
X62898457Y-124272989D01*
X63462037Y-123709408D01*
X63479075Y-123772993D01*
X63544901Y-123887007D01*
X63637993Y-123980099D01*
X63752007Y-124045925D01*
X63815590Y-124062962D01*
X63252009Y-124626541D01*
X63252010Y-124626542D01*
X63287755Y-124652512D01*
X63287768Y-124652520D01*
X63418701Y-124719234D01*
X63469497Y-124767208D01*
X63486292Y-124835029D01*
X63463755Y-124901164D01*
X63418702Y-124940203D01*
X63287497Y-125007056D01*
X63127753Y-125123115D01*
X62988115Y-125262753D01*
X62872058Y-125422495D01*
X62782408Y-125598441D01*
X62721389Y-125786236D01*
X62690500Y-125981263D01*
X60467424Y-125981263D01*
X60559281Y-125713693D01*
X60661937Y-125308312D01*
X60730767Y-124895838D01*
X60730767Y-124895837D01*
X60730768Y-124895832D01*
X60761844Y-124520801D01*
X60765300Y-124479089D01*
X60765300Y-124270000D01*
X60765300Y-124221645D01*
X60765300Y-121774875D01*
X60765682Y-121765146D01*
X60768463Y-121729807D01*
X60779244Y-121592827D01*
X60782285Y-121573624D01*
X60821497Y-121410296D01*
X60827503Y-121391811D01*
X60891782Y-121236629D01*
X60900615Y-121219295D01*
X60988368Y-121076095D01*
X60999805Y-121060354D01*
X61108882Y-120932641D01*
X61122641Y-120918882D01*
X61250354Y-120809805D01*
X61266095Y-120798368D01*
X61409298Y-120710613D01*
X61426629Y-120701782D01*
X61581811Y-120637503D01*
X61600296Y-120631497D01*
X61763624Y-120592285D01*
X61782829Y-120589243D01*
X61955146Y-120575681D01*
X61964875Y-120575300D01*
X62008355Y-120575300D01*
X96811645Y-120575300D01*
X96855125Y-120575300D01*
X96864853Y-120575681D01*
G37*
%TD.AperFunction*%
%TD*%
M02*
