M48
; DRILL file KiCad 10.0.3 date 2026-07-04T15:13:11
; FORMAT={-:-/ absolute / metric / decimal}
; #@! TF.CreationDate,2026-07-04T15:13:11+05:30
; #@! TF.GenerationSoftware,Kicad,Pcbnew,10.0.3
; #@! TF.FileFunction,Plated,1,2,PTH
FMAT,2
METRIC
; #@! TA.AperFunction,Plated,PTH,ViaDrill
T1C0.406
; #@! TA.AperFunction,Plated,PTH,ComponentDrill
T2C0.850
; #@! TA.AperFunction,Plated,PTH,ComponentDrill
T3C0.950
; #@! TA.AperFunction,Plated,PTH,ComponentDrill
T4C1.000
; #@! TA.AperFunction,Plated,PTH,ComponentDrill
T5C1.050
; #@! TA.AperFunction,Plated,PTH,ComponentDrill
T6C1.400
; #@! TA.AperFunction,Plated,PTH,ComponentDrill
T7C3.100
%
G90
G05
T1
X61.5Y-149.1
X61.6Y-151.8
X63.31Y-135.19
X66.35Y-160.38
X66.4Y-151.7
X66.75Y-134.41
X68.1Y-159.4
X68.79Y-134.99
X69.1Y-168.3
X69.2Y-145.5
X69.29Y-157.25
X72.21Y-135.61
X80.83Y-165.79
X81.592Y-160.167
X82.38Y-169.04
X83.47Y-137.21
X84.7Y-163.2
X87.1Y-162.3
X87.7Y-155.3
X88.38Y-140.64
X89.7Y-150.5
X89.8Y-153.8
X90.93Y-126.36
X91.1Y-150.8
X91.14Y-142.03
X92.9Y-153.8
X93.27Y-126.49
X94.32Y-173.03
X94.87Y-153.74
X96.18Y-156.17
X98.2Y-161.7
X98.286Y-144.8
X100.3Y-147.2
X103.3Y-159.1
X105.4Y-143.7
T2
X70.61Y-130.797
X70.61Y-143.498
X73.15Y-130.797
X73.15Y-143.498
X75.69Y-130.797
X75.69Y-143.498
X78.23Y-130.797
X78.23Y-143.498
X80.77Y-130.797
X80.77Y-143.498
X83.31Y-130.797
X83.31Y-143.498
X85.85Y-130.797
X85.85Y-143.498
X88.39Y-130.797
X88.39Y-143.498
T3
X56.83Y-155.42
X56.83Y-160.42
X76.96Y-134.78
X76.96Y-139.78
X86.45Y-123.375
X94.75Y-123.375
T4
X63.945Y-123.58
X63.945Y-126.08
X63.945Y-128.58
X63.945Y-131.08
X70.77Y-123.455
X73.27Y-123.455
X75.77Y-123.455
X78.27Y-123.455
X104.125Y-136.84
X104.125Y-139.34
X104.125Y-141.84
T5
X83.95Y-123.375
X92.25Y-123.375
T6
X63.94Y-171.1
X67.42Y-171.1
X70.925Y-171.1
X74.43Y-171.1
X79.19Y-171.92
X82.69Y-171.92
T7
X53.91Y-132.07
X53.91Y-163.87
X104.91Y-132.07
X104.91Y-163.87
M30
